<?xml version="1.0" encoding="UTF-8"?>
<svg id="Layer_1" data-name="Layer 1" xmlns="http://www.w3.org/2000/svg" viewBox="0 0 16 16">
  <defs>
    <style>
      .cls-1 {
        fill: #868795;
      }

      .cls-2, .cls-3 {
        fill: aqua;
      }

      .cls-4 {
        fill: #dff2fc;
      }

      .cls-5 {
        fill: #1b0049;
        stroke: aqua;
        stroke-width: .42px;
      }

      .cls-5, .cls-3 {
        stroke-miterlimit: 10;
      }

      .cls-3 {
        stroke: #1b0049;
        stroke-width: .17px;
      }
    </style>
  </defs>
  <g>
    <polyline class="cls-5" points="9.65 3.48 7.87 1.7 1.75 .52 .44 1.15 1.44 12.12"/>
    <polyline class="cls-4" points="10.13 3.26 10.02 3.37 8.03 3.98 1.67 2.49 1.44 12.12"/>
    <polygon class="cls-1" points="1.45 12.2 1.42 2.28 8.03 3.84 9.42 3.41 1.34 1.7 1.45 12.2"/>
    <polygon class="cls-2" points="1.45 12.2 1.55 2.34 8.03 3.84 9.42 3.41 .84 1.53 1.45 12.2"/>
    <polygon class="cls-5" points="13.52 11.39 1.44 12.12 1.67 2.49 8.03 3.98 10.02 3.37 15.13 4.79 13.52 11.39"/>
  </g>
  <path class="cls-3" d="m5.54,3.53l-1.01,11.95,8.95-.61,2.08-9.02L5.54,3.53Zm.83,10.92l-.79.04.07-.69.8-.02-.08.68Zm.15-1.28h-.8s.07-.71.07-.71h.81s-.08.71-.08.71Zm.15-1.34l-.82-.02.08-.75.82.03-.08.74Zm.16-1.4l-.83-.05.08-.79.84.07-.09.77Zm.17-1.46l-.85-.08.08-.83.86.1-.09.81Zm.17-1.53l-.86-.12.09-.86.87.14-.1.84Zm.18-1.6l-.88-.16.09-.91.89.18-.1.88Zm4.56,8.36l-4.73.21.48-3.78,4.92.27-.67,3.3Zm.85-4.22l-4.97-.42.56-4.43,5.18,1.06-.77,3.78Zm.28,4.17l-.54.02.12-.57h.54s-.12.55-.12.55Zm.24-1.07h-.54s.13-.59.13-.59h.55s-.13.59-.13.59Zm.24-1.1h-.55s.13-.63.13-.63l.55.02-.13.6Zm.25-1.14l-.56-.03.14-.64.56.04-.14.63Zm.26-1.18l-.56-.05.14-.66.56.07-.14.65Zm.27-1.23l-.57-.08.15-.69.57.09-.15.67Zm.28-1.27l-.57-.1.15-.71.58.12-.15.7Z"/>
</svg>