<?xml version="1.0" encoding="UTF-8"?>
<svg id="Layer_1" data-name="Layer 1" xmlns="http://www.w3.org/2000/svg" viewBox="0 0 16 16">
  <defs>
    <style>
      .cls-1 {
        fill: #868795;
      }

      .cls-2, .cls-3 {
        fill: aqua;
      }

      .cls-4 {
        fill: #1b0049;
        stroke: aqua;
        stroke-width: .42px;
      }

      .cls-4, .cls-3 {
        stroke-miterlimit: 10;
      }

      .cls-5 {
        fill: #dff2fc;
      }

      .cls-3 {
        stroke: #1b0049;
        stroke-width: .12px;
      }
    </style>
  </defs>
  <g>
    <polyline class="cls-4" points="9.74 3.65 7.96 1.87 1.83 .69 .52 1.32 1.53 12.29"/>
    <polyline class="cls-5" points="10.21 3.43 10.1 3.53 8.11 4.15 1.75 2.66 1.53 12.29"/>
    <polygon class="cls-1" points="1.53 12.37 1.5 2.45 8.11 4 9.5 3.57 1.42 1.87 1.53 12.37"/>
    <polygon class="cls-2" points="1.53 12.37 1.63 2.5 8.11 4 9.5 3.57 .92 1.7 1.53 12.37"/>
    <polygon class="cls-4" points="13.6 11.56 1.53 12.29 1.75 2.66 8.11 4.15 10.1 3.53 15.21 4.96 13.6 11.56"/>
  </g>
  <g>
    <path class="cls-3" d="m7.45,9.72c.16.06.3.15.41.27.1.11.17.24.2.38"/>
    <path class="cls-3" d="m5.98,11.46c-.24-.25-.3-.6-.19-.93.06-.19.19-.37.36-.52.02-.02.04-.03.06-.05.37-.29.85-.36,1.24-.23.16.06.3.15.41.27.1.11.17.24.2.38,0,.02.01.05.01.07.04.26-.04.55-.22.79-.07.09-.15.17-.24.24-.16.12-.34.21-.52.25-.13.03-.25.04-.38.04-.28-.01-.54-.12-.73-.31Z"/>
    <g>
      <path class="cls-3" d="m6.66,12.06s0,0-.01,0c-.12.56-.34,1.11-.65,1.6-.13.21-.28.41-.44.6l.21-.92-1.42,1.97,1.71-.28-.41-.34.09.24-.92.1.46-.56-.05.42c.95-.58,1.64-1.67,1.97-2.88-.02,0-.03.01-.05.01-.16.04-.32.06-.48.05Z"/>
      <path class="cls-3" d="m3.7,9.92c.41.06.77.14,1.08.22.29.08.53.16.72.24.07-.17.18-.34.32-.48-.71-.19-1.76-.32-3.22-.33l.43.33-1.43-.23,2.07-.43-.04.29.76-.62-4.11.76,4.19.75-.76-.49Z"/>
      <path class="cls-3" d="m7.35,9.38c-.59-2.78-1.81-4.14-3.08-3.62l.03.71-.46-.35,1.04-1.32-.12.63.58-1.51-1.91,2.35,1.41,1.7-.21-1.54c.2.12.39.3.56.54.44.59.78,1.52.96,2.67.38-.24.81-.33,1.21-.26Z"/>
      <path class="cls-3" d="m8.28,10.01c1.2-1.98,1.93-3.45,2.3-4.45l-.37.3.45-.69.03.92-.28.06.5.43-.11-1.78-1.83,2.47,1-.95c-.24.38-.53.8-.86,1.26-.44.61-.93,1.25-1.45,1.88.18.07.33.18.46.32.06.07.11.14.15.22Z"/>
      <path class="cls-3" d="m8.28,11.11l4.95-1.51-1.08-.51,2.27.03-2.73,1.73,4.04-1.96-5.19-.3,1.99.96-4.13.84c.03.24-.01.49-.12.72Z"/>
    </g>
  </g>
</svg>