<?xml version="1.0" encoding="UTF-8"?>
<svg id="Layer_1" data-name="Layer 1" xmlns="http://www.w3.org/2000/svg" viewBox="0 0 16 16">
  <defs>
    <style>
      .cls-1 {
        fill: #868795;
      }

      .cls-2, .cls-3 {
        fill: aqua;
      }

      .cls-3 {
        stroke: #1b0049;
      }

      .cls-3, .cls-4 {
        stroke-miterlimit: 10;
        stroke-width: .42px;
      }

      .cls-5 {
        fill: #dff2fc;
      }

      .cls-4 {
        fill: #1b0049;
        stroke: aqua;
      }
    </style>
  </defs>
  <g>
    <polyline class="cls-4" points="9.87 3.9 8.09 2.12 1.96 .94 .66 1.57 1.66 12.54"/>
    <polyline class="cls-5" points="10.34 3.68 10.23 3.79 8.24 4.4 1.89 2.91 1.66 12.54"/>
    <polygon class="cls-1" points="1.66 12.62 1.64 2.7 8.24 4.26 9.63 3.83 1.55 2.12 1.66 12.62"/>
    <polygon class="cls-2" points="1.66 12.62 1.76 2.76 8.24 4.26 9.63 3.83 1.05 1.95 1.66 12.62"/>
    <polygon class="cls-4" points="13.74 11.81 1.66 12.54 1.89 2.91 8.24 4.4 10.23 3.79 15.34 5.21 13.74 11.81"/>
  </g>
  <polygon class="cls-3" points="5.36 15.06 5.03 11.23 3.01 11.27 10.54 3.02 12.5 6.57 13 4.73 15.27 4.79 13.76 8.86 14.93 10.99 13.21 11.03 11.79 14.72 5.36 15.06"/>
</svg>