<?xml version="1.0" encoding="UTF-8"?>
<svg id="Layer_1" data-name="Layer 1" xmlns="http://www.w3.org/2000/svg" viewBox="0 0 16 16">
  <defs>
    <style>
      .cls-1 {
        fill: #868795;
      }

      .cls-2, .cls-3 {
        fill: aqua;
      }

      .cls-4 {
        fill: #dff2fc;
      }

      .cls-5 {
        fill: #1b0049;
        stroke: aqua;
        stroke-width: .42px;
      }

      .cls-5, .cls-3 {
        stroke-miterlimit: 10;
      }

      .cls-3 {
        stroke: #1b0049;
        stroke-width: .17px;
      }
    </style>
  </defs>
  <g>
    <polyline class="cls-5" points="9.87 3.63 8.09 1.85 1.96 .67 .66 1.3 1.66 12.27"/>
    <polyline class="cls-4" points="10.34 3.41 10.23 3.52 8.24 4.13 1.89 2.64 1.66 12.27"/>
    <polygon class="cls-1" points="1.66 12.35 1.64 2.43 8.24 3.98 9.63 3.56 1.55 1.85 1.66 12.35"/>
    <polygon class="cls-2" points="1.66 12.35 1.76 2.49 8.24 3.98 9.63 3.56 1.05 1.68 1.66 12.35"/>
    <polygon class="cls-5" points="13.74 11.54 1.66 12.27 1.89 2.64 8.24 4.13 10.23 3.52 15.34 4.94 13.74 11.54"/>
  </g>
  <g>
    <polygon class="cls-3" points="13.09 6.43 13.28 5.56 12.54 5.44 12.73 4.45 8.75 3.68 8.59 4.77 7.68 4.61 7.54 5.61 4.32 5.13 3.36 15.33 13.4 14.86 15.34 6.77 13.09 6.43"/>
    <g>
      <line class="cls-3" x1="12.07" y1="13.1" x2="11.77" y2="14.51"/>
      <line class="cls-3" x1="6.04" y1="13.13" x2="5.83" y2="14.73"/>
      <line class="cls-3" x1="11.3" y1="13.1" x2="11.01" y2="14.54"/>
      <line class="cls-3" x1="7" y1="13.13" x2="6.78" y2="14.69"/>
      <line class="cls-3" x1="10.5" y1="13.11" x2="10.22" y2="14.57"/>
      <line class="cls-3" x1="7.92" y1="13.12" x2="7.68" y2="14.66"/>
      <line class="cls-3" x1="9.67" y1="13.11" x2="9.41" y2="14.6"/>
      <line class="cls-3" x1="8.82" y1="13.12" x2="8.56" y2="14.63"/>
    </g>
  </g>
</svg>