<?xml version="1.0" encoding="UTF-8"?>
<svg id="Layer_1" data-name="Layer 1" xmlns="http://www.w3.org/2000/svg" viewBox="0 0 16 16">
  <defs>
    <style>
      .cls-1 {
        fill: #868795;
      }

      .cls-2 {
        stroke: #1b0049;
        stroke-width: .16px;
      }

      .cls-2, .cls-3 {
        fill: aqua;
      }

      .cls-2, .cls-4 {
        stroke-miterlimit: 10;
      }

      .cls-5 {
        fill: #dff2fc;
      }

      .cls-4 {
        fill: #1b0049;
        stroke: aqua;
        stroke-width: .42px;
      }
    </style>
  </defs>
  <g>
    <polyline class="cls-4" points="9.87 3.53 8.09 1.75 1.96 .57 .66 1.2 1.66 12.17"/>
    <polyline class="cls-5" points="10.34 3.31 10.23 3.41 8.24 4.03 1.89 2.54 1.66 12.17"/>
    <polygon class="cls-1" points="1.66 12.25 1.64 2.33 8.24 3.88 9.63 3.46 1.55 1.75 1.66 12.25"/>
    <polygon class="cls-3" points="1.66 12.25 1.76 2.39 8.24 3.88 9.63 3.46 1.05 1.58 1.66 12.25"/>
    <polygon class="cls-4" points="13.74 11.44 1.66 12.17 1.89 2.54 8.24 4.03 10.23 3.41 15.34 4.84 13.74 11.44"/>
  </g>
  <g>
    <polygon class="cls-2" points="9.9 2.57 6.53 1.58 7.82 3.66 10.29 3.66 9.9 2.57"/>
    <polygon class="cls-2" points="10.55 4.37 8.26 4.37 9.43 6.26 11.23 6.26 10.55 4.37"/>
    <polygon class="cls-2" points="14.09 10.03 12.98 11.15 11.53 7.09 9.95 7.09 12.86 11.8 13.16 11.59 13.83 11.12 13.51 12.62 10.3 10.32 13.52 13.95 14.83 15.43 14.84 13.84 14.85 10.35 14.86 9.27 14.09 10.03"/>
  </g>
</svg>