<?xml version="1.0" encoding="UTF-8"?>
<svg id="Layer_1" data-name="Layer 1" xmlns="http://www.w3.org/2000/svg" viewBox="0 0 16 16">
  <defs>
    <style>
      .cls-1 {
        fill: #868795;
      }

      .cls-2 {
        fill: none;
        stroke-width: .35px;
      }

      .cls-2, .cls-3, .cls-4 {
        stroke: aqua;
      }

      .cls-2, .cls-3, .cls-4, .cls-5 {
        stroke-miterlimit: 10;
      }

      .cls-6, .cls-5 {
        fill: aqua;
      }

      .cls-3, .cls-4 {
        fill: #1b0049;
      }

      .cls-3, .cls-5 {
        stroke-width: .12px;
      }

      .cls-7 {
        fill: #dff2fc;
      }

      .cls-4 {
        stroke-width: .42px;
      }

      .cls-5 {
        stroke: #1b0049;
      }
    </style>
  </defs>
  <g>
    <polyline class="cls-4" points="9.49 3.53 7.71 1.75 1.58 .57 .28 1.2 1.28 12.17"/>
    <polyline class="cls-7" points="9.96 3.31 9.85 3.41 7.86 4.03 1.51 2.54 1.28 12.17"/>
    <polygon class="cls-1" points="1.28 12.25 1.26 2.33 7.86 3.88 9.25 3.46 1.17 1.75 1.28 12.25"/>
    <polygon class="cls-6" points="1.28 12.25 1.38 2.39 7.86 3.88 9.25 3.46 .67 1.58 1.28 12.25"/>
    <polygon class="cls-4" points="13.36 11.44 1.28 12.17 1.51 2.54 7.86 4.03 9.85 3.41 14.96 4.84 13.36 11.44"/>
  </g>
  <g id="image">
    <polygon class="cls-5" points="12.55 12.64 12.23 12.51 15.27 4.81 13.9 4.33 14.01 4 15.72 4.61 12.55 12.64"/>
    <polygon class="cls-5" points="8.94 4.03 8.62 3.9 9.24 2.32 13.14 3.69 13.03 4.02 9.44 2.76 8.94 4.03"/>
    <polyline class="cls-3" points="9.04 3.78 9.44 2.76 15.27 4.81 12.69 11.34"/>
    <polyline class="cls-5" points="11.69 14.33 11.26 15.43 5.1 13.26 5.78 11.55 5.46 13.33 5.88 13.49 11.73 13.46"/>
    <g>
      <polygon class="cls-5" points="7.04 3.83 4.91 15.24 12.1 15.06 14.22 3.66 7.04 3.83"/>
      <polygon class="cls-3" points="7.33 4.17 13.81 4.01 12.1 13.17 5.62 13.33 7.33 4.17"/>
    </g>
    <g>
      <ellipse class="cls-6" cx="10.94" cy="7.19" rx="1.21" ry=".77" transform="translate(-.65 13.28) rotate(-61.02)"/>
      <polyline class="cls-2" points="10.78 8.08 10.3 10.66 10.58 12.06 10.33 13.39"/>
      <polyline class="cls-2" points="8.68 13.25 9.6 12.01 10.27 10.78"/>
      <polyline class="cls-2" points="10.66 10.19 9.42 10.06 10.67 8.63 11.3 9.54 12.55 8.97"/>
    </g>
  </g>
</svg>