<?xml version="1.0" encoding="UTF-8"?>
<svg id="Layer_1" data-name="Layer 1" xmlns="http://www.w3.org/2000/svg" viewBox="0 0 16 16">
  <defs>
    <style>
      .cls-1 {
        fill: #868795;
      }

      .cls-2, .cls-3 {
        fill: aqua;
      }

      .cls-4 {
        fill: #1b0049;
        stroke: aqua;
        stroke-width: .42px;
      }

      .cls-4, .cls-3 {
        stroke-miterlimit: 10;
      }

      .cls-3 {
        stroke: #1b0049;
        stroke-width: .23px;
      }

      .cls-5 {
        fill: #dff2fc;
      }
    </style>
  </defs>
  <g>
    <polyline class="cls-4" points="9.87 3.62 8.09 1.85 1.96 .66 .66 1.3 1.66 12.27"/>
    <polyline class="cls-5" points="10.34 3.41 10.23 3.51 8.24 4.13 1.89 2.64 1.66 12.27"/>
    <polygon class="cls-1" points="1.66 12.34 1.64 2.43 8.24 3.98 9.63 3.55 1.55 1.85 1.66 12.34"/>
    <polygon class="cls-2" points="1.66 12.34 1.76 2.48 8.24 3.98 9.63 3.55 1.05 1.68 1.66 12.34"/>
    <polygon class="cls-4" points="13.74 11.54 1.66 12.27 1.89 2.64 8.24 4.13 10.23 3.51 15.34 4.94 13.74 11.54"/>
  </g>
  <path class="cls-3" d="m9,4.26l-.8-.17-.59,8.46c-.33-.25-.79-.4-1.33-.39-1.22.02-2.24.84-2.21,1.79.03.89,1,1.49,2.11,1.38,1.05-.11,1.91-.82,1.98-1.62l.54-6.09,5.49.63-.96,4.16c-.2-.21-.5-.34-.87-.33-.85.01-1.67.7-1.8,1.49-.12.76.46,1.28,1.26,1.2.76-.08,1.48-.68,1.64-1.38l1.89-7.77-6.35-1.35Zm-.2,2.32l.1-1.18,5.71,1.02-.22.96-5.59-.8Z"/>
</svg>