<?xml version="1.0" encoding="UTF-8"?>
<svg id="Layer_1" data-name="Layer 1" xmlns="http://www.w3.org/2000/svg" viewBox="0 0 16 16">
  <defs>
    <style>
      .cls-1 {
        fill: #868795;
      }

      .cls-2, .cls-3, .cls-4 {
        fill: aqua;
      }

      .cls-5 {
        fill: #dff2fc;
      }

      .cls-6 {
        fill: #1b0049;
        stroke: aqua;
        stroke-width: .42px;
      }

      .cls-6, .cls-3, .cls-4 {
        stroke-miterlimit: 10;
      }

      .cls-3 {
        stroke-width: .03px;
      }

      .cls-3, .cls-4 {
        stroke: #1b0049;
      }

      .cls-4 {
        stroke-width: .12px;
      }
    </style>
  </defs>
  <g>
    <polyline class="cls-6" points="9.69 3.63 7.91 1.85 1.78 .67 .47 1.3 1.48 12.27"/>
    <polyline class="cls-5" points="10.16 3.41 10.05 3.52 8.06 4.13 1.7 2.64 1.48 12.27"/>
    <polygon class="cls-1" points="1.48 12.35 1.45 2.43 8.06 3.98 9.45 3.56 1.37 1.85 1.48 12.35"/>
    <polygon class="cls-2" points="1.48 12.35 1.58 2.49 8.06 3.98 9.45 3.56 .87 1.68 1.48 12.35"/>
    <polygon class="cls-6" points="13.55 11.54 1.48 12.27 1.7 2.64 8.06 4.13 10.05 3.52 15.16 4.94 13.55 11.54"/>
  </g>
  <g>
    <path class="cls-3" d="m12.27,11.77l-.02-.06-.02.06-.13.46-.83-1.68s.02-.04.02-.07c0-.03,0-.05,0-.08l1.04-1.01.07-.07s-.38-.06-.54-.08l.88-.25-.39.77.17-.59-.25.74-.04.11.06-.1.64-1.01.12-.2c-.12.05-1.13.46-1.28.52l-.05.02h.05s.43.13.43.13l-1.09.82s-.04-.01-.06-.02c-.15-.01-.29.1-.31.25s.09.28.23.3l1.09,1.66s.07.1.07.1c.01-.06.07-.43.11-.62l.19,1.04-.7-.59.55.33-.72-.47-.13-.09s1.01,1.03,1.06,1.09c0,0,.22.23.22.23-.06-.21-.38-1.39-.45-1.65Z"/>
    <path class="cls-4" d="m12.56,5.58l-.45.55,1.09-.02-1.27-1.56-.11.55-.26-1.43,2.43,2.8-3.52.44,1.08-.99c-.4,0-.78.03-1.16.12-2.9.63-4.46,3.58-3.11,6.12.61,1.21,1.81,2.02,3.08,2.19,1.66.25,3.33-.75,4.2-2.24.47-.8.76-1.81.83-2.97h0c.23,1.04.12,2.16-.3,3.13-1.33,3.06-5.45,4.1-8.04,1.82-4.7-4.33.04-11.15,5.48-8.52Z"/>
  </g>
</svg>