<?xml version="1.0" encoding="UTF-8"?>
<svg id="Layer_1" data-name="Layer 1" xmlns="http://www.w3.org/2000/svg" viewBox="0 0 16 16">
  <defs>
    <style>
      .cls-1 {
        fill: #868795;
      }

      .cls-2 {
        stroke-width: .1px;
      }

      .cls-2, .cls-3, .cls-4 {
        fill: aqua;
      }

      .cls-2, .cls-4 {
        stroke: #1b0049;
      }

      .cls-2, .cls-4, .cls-5 {
        stroke-miterlimit: 10;
      }

      .cls-4 {
        stroke-width: .12px;
      }

      .cls-6 {
        fill: #dff2fc;
      }

      .cls-5 {
        fill: #1b0049;
        stroke: aqua;
        stroke-width: .42px;
      }
    </style>
  </defs>
  <g>
    <polyline class="cls-5" points="9.66 3.53 7.88 1.75 1.75 .57 .44 1.2 1.45 12.17"/>
    <polyline class="cls-6" points="10.13 3.31 10.02 3.41 8.03 4.03 1.68 2.54 1.45 12.17"/>
    <polygon class="cls-1" points="1.45 12.25 1.42 2.33 8.03 3.88 9.42 3.46 1.34 1.75 1.45 12.25"/>
    <polygon class="cls-3" points="1.45 12.25 1.55 2.39 8.03 3.88 9.42 3.46 .84 1.58 1.45 12.25"/>
    <polygon class="cls-5" points="13.52 11.44 1.45 12.17 1.68 2.54 8.03 4.03 10.02 3.41 15.13 4.84 13.52 11.44"/>
  </g>
  <g>
    <polygon class="cls-2" points="13.15 4.74 6.92 3.66 6.47 15.43 14.29 15.14 15.56 7.77 12.81 7.43 13.15 4.74"/>
    <path class="cls-4" d="m12.86,7.39l2.67.32-2.32-2.89-.35,2.57Z"/>
  </g>
</svg>