<?xml version="1.0" encoding="UTF-8"?>
<svg id="Layer_1" data-name="Layer 1" xmlns="http://www.w3.org/2000/svg" viewBox="0 0 16 16">
  <defs>
    <style>
      .cls-1 {
        fill: aqua;
      }
    </style>
  </defs>
  <g id="logo">
    <path class="cls-1" d="m11.05,1.15c-.16.37-.57,1.51-.25,2.01h0c-.17-.1-.34-.19-.52-.27s-.36-.15-.55-.21h0c.58-.1,1.16-1.17,1.32-1.53Z"/>
    <path class="cls-1" d="m4.95,14.85c.16-.37.57-1.51.25-2.01h0c.17.1.34.19.52.27s.36.15.55.21h0c-.58.1-1.16,1.17-1.32,1.53Z"/>
    <path class="cls-1" d="m8,.5c0,.4.1,1.61.58,1.94h0c-.19-.02-.39-.03-.58-.03s-.39.01-.58.03h0c.49-.33.58-1.54.58-1.94Z"/>
    <path class="cls-1" d="m8,15.5c0-.4-.1-1.61-.58-1.94h0c.19.02.39.03.58.03s.39-.01.58-.03h0c-.49.33-.58,1.54-.58,1.94Z"/>
    <path class="cls-1" d="m6.44.66c.08.39.43,1.55.97,1.77h0c-.19.02-.39.05-.58.09s-.38.09-.57.15h0c.41-.42.25-1.63.17-2.02Z"/>
    <path class="cls-1" d="m9.56,15.34c-.08-.39-.43-1.55-.97-1.77h0c.19-.02.39-.05.58-.09s.38-.09.57-.15h0c-.41.42-.25,1.63-.17,2.02Z"/>
    <path class="cls-1" d="m9.56.66c-.08.39-.24,1.59.17,2.02h0c-.18-.06-.37-.11-.57-.15s-.39-.07-.58-.09h0c.54-.22.89-1.38.97-1.77Z"/>
    <path class="cls-1" d="m6.44,15.34c.08-.39.24-1.59-.17-2.02h0c.18.06.37.11.57.15s.39.07.58.09h0c-.54.22-.89,1.38-.97,1.77Z"/>
    <path class="cls-1" d="m13.57,2.98c-.3.27-1.13,1.15-1.05,1.73h0c-.11-.16-.24-.31-.37-.45s-.27-.28-.41-.41h0c.57.14,1.53-.59,1.83-.86Z"/>
    <path class="cls-1" d="m2.43,13.02c.3-.27,1.13-1.15,1.05-1.73h0c.11.16.24.31.37.45s.27.28.41.41h0c-.57-.14-1.53.59-1.83.86Z"/>
    <path class="cls-1" d="m12.41,1.93c-.24.32-.87,1.36-.67,1.91h0c-.14-.13-.3-.25-.45-.37s-.32-.22-.49-.32h0c.59.02,1.38-.9,1.61-1.22Z"/>
    <path class="cls-1" d="m3.59,14.07c.24-.32.87-1.36.67-1.91h0c.14.13.3.25.45.37s.32.22.49.32h0c-.59-.02-1.38.9-1.61,1.22Z"/>
    <path class="cls-1" d="m3.59,1.93c.24.32,1.02,1.24,1.61,1.22h0c-.17.1-.33.2-.49.32s-.31.24-.45.37h0c.2-.55-.43-1.59-.67-1.91Z"/>
    <path class="cls-1" d="m12.41,14.07c-.24-.32-1.02-1.24-1.61-1.22h0c.17-.1.33-.2.49-.32s.31-.24.45-.37h0c-.2.55.43,1.59.67,1.91Z"/>
    <path class="cls-1" d="m2.43,2.98c.3.27,1.26,1,1.83.86h0c-.14.13-.28.27-.41.41s-.25.3-.37.46h0c.08-.58-.75-1.46-1.05-1.73Z"/>
    <path class="cls-1" d="m13.57,13.02c-.3-.27-1.26-1-1.83-.86h0c.14-.13.28-.27.41-.41s.25-.3.37-.46h0c-.08.58.75,1.46,1.05,1.73Z"/>
    <path class="cls-1" d="m4.95,1.15c.16.37.74,1.43,1.32,1.53h0c-.18.06-.37.13-.55.21s-.35.17-.52.27h0c.31-.5-.09-1.64-.25-2.01Z"/>
    <path class="cls-1" d="m11.05,14.85c-.16-.37-.74-1.43-1.32-1.53h0c.18-.06.37-.13.55-.21s.35-.17.52-.27h0c-.31.5.09,1.64.25,2.01Z"/>
    <path class="cls-1" d="m11.76,11.37c.8-.89,1.29-2.07,1.29-3.37,0-2.79-2.26-5.05-5.05-5.05S2.95,5.21,2.95,8s2.26,5.05,5.05,5.05c.96,0,1.85-.27,2.62-.74l-.67-1.09c-.57.34-1.23.54-1.94.54-2.08,0-3.77-1.69-3.77-3.77s1.69-3.77,3.77-3.77,3.77,1.69,3.77,3.77c0,.53-.11,1.03-.3,1.48l-.63-.42c.12-.33.19-.69.19-1.06,0-1.68-1.36-3.03-3.03-3.03-1.3,0-2.4.82-2.84,1.96l6.59,4.44Z"/>
  </g>
</svg>