<?xml version="1.0" encoding="UTF-8"?>
<svg id="Layer_1" data-name="Layer 1" xmlns="http://www.w3.org/2000/svg" xmlns:xlink="http://www.w3.org/1999/xlink" viewBox="0 0 16 16">
  <defs>
    <style>
      .cls-1 {
        fill: #1b0049;
        filter: url(#outer-glow-1);
        stroke: aqua;
        stroke-miterlimit: 10;
        stroke-width: .15px;
      }
    </style>
    <filter id="outer-glow-1" filterUnits="userSpaceOnUse">
      <feOffset dx="0" dy="0"/>
      <feGaussianBlur result="blur" stdDeviation=".57"/>
      <feFlood flood-color="#6fcbdc" flood-opacity=".75"/>
      <feComposite in2="blur" operator="in"/>
      <feComposite in="SourceGraphic"/>
    </filter>
  </defs>
  <path class="cls-1" d="m9.14,12.89c.09-.63.05-.8.78-2.27.35-.73.91-1.5,1.37-2.06.43-.5.85-1.01,1.18-1.57.4-.66.61-1.6.43-2.49-.17-.83-.73-1.58-1.41-1.92-.35-.18-.74-.25-1.09-.21-.7.07-1.28.64-1.12,1.62.08.47.44.98.9.95.4-.05.64-.53.39-.97-.1-.19-.28-.37-.5-.48h0c.22-.05.47.05.69.29.5.53.43,1.33-.08,1.65-.42.27-1.07.12-1.49-.42-.32-.39-.46-.88-.53-1.37-.18-1.22.63-2.07,1.51-2.17,1.2-.18,2.61.66,3.22,2.08.44,1.04.38,2.35-.03,3.3-.38.9-.88,1.6-1.54,2.24-1.28,1.27-2.52,3.34-2.53,6.42-.38-3.06-1.97-5.14-3.68-6.55-.96-.79-1.77-1.66-2.48-2.82-.79-1.28-1.11-2.95-.59-4.1C3.24.51,5.06.14,6.57.84c1.01.43,1.97,1.58,1.93,2.77,0,.49-.1.95-.38,1.28-.38.48-1.09.51-1.62.14-.66-.46-.86-1.38-.32-1.84.23-.19.51-.24.77-.11h0c-.24.05-.42.2-.52.38-.23.42.11,1.01.59,1.16.52.13.85-.32.88-.79.06-.97-.65-1.75-1.47-2.07-.43-.17-.9-.24-1.33-.16-.85.14-1.53.84-1.64,1.79-.11,1.03.34,2.21,1,3.08.53.7,1.16,1.34,1.77,1.94.63.64,1.37,1.48,1.84,2.24.94,1.46.92,1.63,1.08,2.25Z"/>
</svg>