<?xml version="1.0" encoding="UTF-8"?>
<svg id="Layer_1" data-name="Layer 1" xmlns="http://www.w3.org/2000/svg" xmlns:xlink="http://www.w3.org/1999/xlink" viewBox="0 0 16 16">
  <defs>
    <style>
      .cls-1 {
        stroke: aqua;
        stroke-miterlimit: 10;
        stroke-width: .27px;
      }

      .cls-1, .cls-2 {
        fill: #1b0049;
      }

      .cls-3, .cls-4 {
        fill: aqua;
      }

      .cls-4 {
        filter: url(#outer-glow-1);
      }
    </style>
    <filter id="outer-glow-1" filterUnits="userSpaceOnUse">
      <feOffset dx="0" dy="0"/>
      <feGaussianBlur result="blur" stdDeviation="1.23"/>
      <feFlood flood-color="aqua" flood-opacity=".75"/>
      <feComposite in2="blur" operator="in"/>
      <feComposite in="SourceGraphic"/>
    </filter>
  </defs>
  <g>
    <g>
      <polygon class="cls-2" points=".34 2.09 1.02 1.86 15.49 2.07 15.64 13.49 14.98 13.72 2.39 14.15 .34 2.09"/>
      <path class="cls-3" d="m1.07,2l14.28.21.15,11.18-.57.19-12.42.42L.5,2.19l.57-.19m-.04-.29l-.05.02-.57.19-.23.08.04.24,2.01,11.81.04.25h.25s12.42-.43,12.42-.43h.04s.04-.01.04-.01l.57-.19.2-.07v-.21s-.15-11.18-.15-11.18v-.28s-.28,0-.28,0l-14.28-.21h-.05Z"/>
    </g>
    <polygon class="cls-4" points="14.75 2.85 1.77 2.66 3.55 13.14 14.89 12.76 14.75 2.85"/>
    <g>
      <line class="cls-2" x1="3.01" y1="13.38" x2="1.2" y2="2.74"/>
      <path class="cls-3" d="m3,13.38c-.69-3.53-1.24-7.11-1.8-10.64.6,3.54,1.32,7.1,1.8,10.64h0Z"/>
    </g>
    <g>
      <line class="cls-2" x1="14.9" y1="13.41" x2="3.7" y2="13.79"/>
      <path class="cls-3" d="m14.9,13.41c-3.73.13-7.46.35-11.2.38,3.7-.24,7.5-.28,11.2-.38h0Z"/>
    </g>
    <g>
      <line class="cls-2" x1="2.67" y1="13.96" x2="3.09" y2="13.84"/>
      <path class="cls-3" d="m2.67,13.95c.13-.04.27-.18.42-.1-.11.12-.29.1-.42.1h0Z"/>
    </g>
  </g>
  <polygon class="cls-1" points="6.97 11.93 6.16 9.51 4.81 9.54 8.61 4.42 10.47 6.61 10.52 5.48 12.05 5.52 11.68 8.04 12.82 9.37 11.66 9.4 11.29 11.72 6.97 11.93"/>
</svg>