<?xml version="1.0" encoding="UTF-8"?>
<svg id="Layer_1" data-name="Layer 1" xmlns="http://www.w3.org/2000/svg" viewBox="0 0 128 128">
  <defs>
    <style>
      .cls-1 {
        stroke-width: 2.71px;
      }

      .cls-1, .cls-2 {
        fill: none;
        stroke-linecap: round;
      }

      .cls-1, .cls-2, .cls-3, .cls-4, .cls-5 {
        stroke: #1b0049;
      }

      .cls-1, .cls-2, .cls-3, .cls-4, .cls-5, .cls-6 {
        stroke-miterlimit: 10;
      }

      .cls-7, .cls-6 {
        fill: #1b0049;
      }

      .cls-2 {
        stroke-width: 5.22px;
      }

      .cls-3 {
        stroke-width: 1.59px;
      }

      .cls-3, .cls-4, .cls-5 {
        fill: aqua;
      }

      .cls-4 {
        stroke-width: 2.99px;
      }

      .cls-5 {
        stroke-width: .34px;
      }

      .cls-6 {
        stroke: aqua;
        stroke-width: 1.57px;
      }
    </style>
  </defs>
  <g>
    <path class="cls-4" d="m68.41,101.24c.38,2.72-.81,5.11-2.73,5.3l-52.04,5.2c-4.03.4-7.37-2.71-7.29-6.89l1.78-91.63c.05-2.4,2.59-3.14,5.58-1.73"/>
    <path class="cls-4" d="m67.03,101.16c.29,2.34-.75,4.36-2.37,4.49l-47.45,3.86c-3.97.32-7.38-2.61-7.39-6.51l-.32-90.81c0-2.52,2.68-2.85,5.87-.86"/>
    <g>
      <path class="cls-4" d="m73.37,99.88l-51.77,4.85c-4.01.38-7.51-2.53-7.64-6.42L10.99,12.89c-.08-2.24,2.42-2.92,5.49-1.61l43.05,18.47c1.72.74,3.37,2.71,3.73,4.45l12.57,60.74c.53,2.54-.55,4.76-2.46,4.94Z"/>
      <line class="cls-2" x1="58.54" y1="41.58" x2="18.33" y2="26.87"/>
      <line class="cls-2" x1="19.05" y1="39.4" x2="57.92" y2="50.93"/>
      <line class="cls-2" x1="62.47" y1="62.47" x2="19.84" y2="53.06"/>
      <line class="cls-2" x1="20.7" y1="68.03" x2="53.47" y2="72.51"/>
    </g>
    <path class="cls-1" d="m16.28,11.27c0-2.5,1.05-3.63,2.36-3.63s2.38,2.02,2.39,4.52-1.05,4.53-2.36,4.53"/>
    <path class="cls-1" d="m26.2,15.56c0-2.5,1.05-3.63,2.36-3.63s2.38,2.02,2.39,4.52-1.05,4.53-2.36,4.53"/>
    <path class="cls-1" d="m35.54,19.52c0-2.5,1.05-3.63,2.36-3.63s2.38,2.02,2.39,4.52-1.05,4.53-2.36,4.53"/>
    <path class="cls-1" d="m43.92,22.06c0-2.5,1.05-3.63,2.36-3.63s2.38,2.02,2.39,4.52-1.05,4.53-2.36,4.53"/>
    <path class="cls-1" d="m51.27,25.49c0-2.5,1.05-3.63,2.36-3.63s2.38,2.02,2.39,4.52-1.05,4.53-2.36,4.53"/>
    <path class="cls-1" d="m57.94,28.28c0-2.5,1.05-3.63,2.36-3.63s2.38,2.02,2.39,4.52-1.05,4.53-2.36,4.53"/>
  </g>
  <g>
    <g>
      <path class="cls-6" d="m93.35,119.77l-35.27-11.54c-2.09-.68-2.56-4.34-1.23-8.12l12.3-35.13c1.01-2.88,3.62-6.16,6.02-7.47l35.67-19.52c6.38-3.49,11.55-2.85,10.73,2.05l-11.44,68.56c-1.42,8.52-9.52,13.53-16.77,11.16Z"/>
      <g>
        <g>
          <path class="cls-5" d="m71.31,75.41l-2.76.79c-.67.19-.94-.42-.62-1.36l.63-1.85c.32-.92,1.11-1.86,1.79-2.11l2.79-1.02c.76-.28,1.13.29.81,1.29l-.65,2.01c-.33,1.02-1.23,2.04-1.98,2.25Z"/>
          <path class="cls-5" d="m79.61,73.03l-3.54,1.02c-.86.25-1.26-.42-.92-1.47l.66-2.07c.33-1.03,1.27-2.1,2.13-2.42l3.56-1.31c.98-.36,1.53.25,1.2,1.37l-.67,2.27c-.34,1.15-1.43,2.33-2.41,2.61Z"/>
          <path class="cls-5" d="m90.55,69.89l-4.72,1.35c-1.13.32-1.74-.39-1.4-1.59l.67-2.34c.33-1.16,1.49-2.42,2.62-2.83l4.71-1.73c1.31-.48,2.14.15,1.81,1.44l-.66,2.6c-.34,1.32-1.71,2.72-3.03,3.1Z"/>
          <path class="cls-5" d="m105.63,65.57l-6.6,1.89c-1.56.45-2.5-.33-2.17-1.7l.66-2.69c.32-1.33,1.8-2.84,3.34-3.41l6.53-2.4c1.84-.68,3.14-.04,2.84,1.46l-.6,3.04c-.31,1.55-2.13,3.27-3.99,3.81Z"/>
        </g>
        <g>
          <path class="cls-5" d="m68.34,84.43l-2.71.39c-.66.09-.9-.65-.56-1.64l.67-1.97c.33-.98,1.13-1.89,1.8-2.05l2.74-.66c.75-.18,1.09.53.75,1.6l-.7,2.15c-.35,1.09-1.26,2.07-2,2.18Z"/>
          <path class="cls-5" d="m76.53,83.25l-3.51.51c-.84.12-1.22-.7-.86-1.83l.7-2.21c.35-1.1,1.3-2.14,2.16-2.35l3.53-.85c.97-.23,1.5.55,1.14,1.76l-.72,2.45c-.37,1.25-1.47,2.38-2.44,2.52Z"/>
          <path class="cls-5" d="m87.44,81.67l-4.73.68c-1.12.16-1.71-.76-1.34-2.05l.73-2.53c.36-1.25,1.54-2.47,2.66-2.74l4.72-1.13c1.32-.32,2.13.55,1.77,1.95l-.73,2.84c-.37,1.45-1.78,2.79-3.1,2.98Z"/>
          <path class="cls-5" d="m102.7,79.47l-6.71.97c-1.57.23-2.51-.83-2.14-2.33l.72-2.95c.36-1.46,1.87-2.92,3.43-3.29l6.64-1.59c1.88-.45,3.19.51,2.86,2.17l-.67,3.37c-.34,1.73-2.23,3.37-4.13,3.65Z"/>
        </g>
        <g>
          <path class="cls-5" d="m65.17,94.08l-2.64-.06c-.64-.02-.85-.9-.49-1.96l.72-2.09c.36-1.04,1.16-1.92,1.81-1.98l2.68-.24c.74-.07,1.05.8.68,1.94l-.75,2.3c-.38,1.17-1.29,2.11-2.02,2.09Z"/>
          <path class="cls-5" d="m73.21,94.27l-3.45-.08c-.83-.02-1.17-1.02-.79-2.23l.76-2.38c.37-1.18,1.34-2.18,2.18-2.26l3.49-.31c.96-.09,1.46.9,1.07,2.21l-.78,2.65c-.4,1.35-1.52,2.43-2.48,2.41Z"/>
          <path class="cls-5" d="m84.05,94.53l-4.71-.11c-1.12-.03-1.67-1.19-1.27-2.59l.79-2.74c.39-1.36,1.59-2.53,2.71-2.63l4.72-.42c1.32-.12,2.11,1.02,1.72,2.55l-.79,3.11c-.41,1.59-1.84,2.86-3.16,2.83Z"/>
        </g>
        <g>
          <path class="cls-5" d="m61.77,104.4l-2.56-.58c-.62-.14-.79-1.18-.4-2.31l.76-2.23c.38-1.11,1.19-1.96,1.82-1.9l2.61.24c.72.07.99,1.11.6,2.33l-.8,2.47c-.41,1.26-1.32,2.15-2.03,1.99Z"/>
          <path class="cls-5" d="m69.62,106.19l-3.38-.77c-.81-.18-1.11-1.39-.7-2.69l.81-2.55c.4-1.27,1.38-2.23,2.2-2.15l3.43.31c.95.09,1.41,1.3.99,2.72l-.85,2.87c-.43,1.46-1.57,2.48-2.51,2.26Z"/>
          <path class="cls-5" d="m80.33,108.63l-4.67-1.07c-1.1-.25-1.62-1.69-1.18-3.21l.86-2.98c.42-1.48,1.64-2.58,2.75-2.48l4.7.43c1.32.12,2.08,1.58,1.65,3.26l-.87,3.42c-.45,1.75-1.92,2.93-3.23,2.63Z"/>
          <path class="cls-5" d="m100.3,108.68c-.47,2.37-2.39,3.97-4.2,3.56l-7.43-1.7c-1.45-.33-2.19-2.23-1.7-4.23l4.3-17.61c.43-1.75,1.9-3.26,3.34-3.39l7.29-.65c1.76-.16,2.92,1.34,2.51,3.37l-4.1,20.64Z"/>
        </g>
      </g>
      <path class="cls-3" d="m72.35,67.29l33.79-13.98c3.03-1.25,6.02-4.29,6.49-6.67l.66-3.33c.45-2.27-1.73-2.77-4.69-1.23l-33.65,17.43c-1.22.63-2.57,2.3-3.07,3.78l-.73,2.14c-.52,1.51,0,2.36,1.2,1.87Z"/>
    </g>
    <g>
      <path class="cls-7" d="m72.27,65.9c-.1.04-.12-.03-.05-.22s.15-.31.25-.35l1.61-.72c.34-.15.58-.42.71-.82l.26-.78c.13-.38.02-.48-.32-.33l-1.61.75c-.09.04-.12-.02-.06-.17l.62-1.84c.05-.16.13-.26.22-.31l1.28-.64c.1-.05.12.02.06.21s-.15.31-.25.36l-1.08.53s-.03.02-.03.05l-.38,1.13s0,.04,0,.03l1.42-.68c.56-.27.73-.04.49.7l-.28.86c-.25.77-.67,1.29-1.24,1.54l-1.61.7Z"/>
      <path class="cls-7" d="m75.42,64.52c-.11.05-.13-.03-.07-.23s.15-.32.26-.37l1.78-.79c.38-.17.64-.46.77-.87l.26-.82c.13-.4,0-.5-.37-.33l-1.78.83c-.1.05-.13-.01-.08-.18l.63-1.92c.05-.16.14-.28.24-.33l1.41-.71c.11-.05.14.02.07.21s-.16.33-.27.38l-1.19.59s-.03.03-.04.05l-.39,1.19s0,.04,0,.03l1.57-.75c.62-.3.82-.07.57.7l-.29.9c-.26.81-.71,1.36-1.33,1.63l-1.78.78Z"/>
      <path class="cls-7" d="m82.19,60.51c-.25.81-.7,1.36-1.36,1.64l-1.97.86c-.11.05-.14-.03-.08-.24s.16-.34.27-.39l1.96-.87c.39-.17.65-.47.78-.89l.15-.5c.14-.44,0-.57-.38-.39l-1.95.91c-.11.05-.14-.02-.08-.22s.15-.32.26-.37l1.94-.92c.37-.18.62-.47.75-.89l.13-.43c.13-.44,0-.57-.38-.37l-.61.3c-.12.06-.15-.01-.09-.22s.16-.34.28-.4l.6-.3c.67-.34.88-.09.62.77l-.14.44c-.13.41-.33.77-.61,1.08.17.11.19.39.05.84l-.17.55Z"/>
      <path class="cls-7" d="m83.72,60.75c-.11.17-.18.27-.28.31-.15.07-.2,0-.13-.22.03-.11.08-.2.15-.32l3.18-5.25-2.67,1.32c-.14.07-.17,0-.11-.22s.16-.35.3-.42l3.06-1.54c.16-.08.2,0,.14.22-.04.12-.09.25-.22.45l-3.42,5.66Z"/>
      <path class="cls-7" d="m90.55,56.74c-.25.89-.79,1.52-1.6,1.87l-1.6.7c-.76.33-1.02.08-.77-.78l.17-.58c.14-.48.38-.9.72-1.26-.18-.11-.21-.37-.08-.81l.14-.47c.26-.9.78-1.54,1.57-1.93l1.44-.72c.83-.42,1.12-.16.86.77l-.14.49c-.13.45-.36.85-.69,1.21.23.1.28.4.15.9l-.17.61Zm-.35-.39c.13-.48-.04-.61-.53-.38l-1.55.72c-.46.22-.76.55-.89,1.02l-.16.54c-.13.45.03.57.5.36l1.55-.69c.49-.22.79-.55.92-1.01l.15-.55Zm.67-2.54c.13-.48-.04-.61-.52-.37l-1.46.72c-.46.23-.76.58-.89,1.04l-.13.46c-.13.45.02.57.46.36l1.52-.72c.46-.22.76-.56.89-1.02l.13-.48Z"/>
      <path class="cls-7" d="m92.56,57.04c-1,.44-1.33.08-1.02-1.05l.74-2.69c.3-1.09.93-1.88,1.91-2.37l1.16-.58c1.03-.52,1.4-.21,1.11.93l-.73,2.81c-.31,1.18-1,2.01-2.05,2.47l-1.12.49Zm3.3-5.46c.17-.66-.07-.82-.72-.51l-1.14.57c-.62.31-1.01.78-1.19,1.42l-.73,2.66c-.18.67.04.87.67.59l1.13-.5c.66-.29,1.08-.79,1.26-1.48l.72-2.75Z"/>
      <path class="cls-7" d="m98.02,54.65c-1.13.5-1.54.14-1.23-1.06l.73-2.84c.29-1.15.98-1.99,2.09-2.55l1.32-.66c1.17-.59,1.62-.29,1.34.91l-.71,2.97c-.3,1.25-1.06,2.15-2.26,2.67l-1.27.56Zm3.57-5.85c.17-.7-.12-.86-.86-.49l-1.3.64c-.7.35-1.14.86-1.31,1.53l-.71,2.81c-.18.7.08.9.8.58l1.28-.57c.75-.33,1.22-.87,1.39-1.6l.7-2.9Z"/>
      <path class="cls-7" d="m108.51,48.63c-.23,1.06-.97,1.86-2.19,2.39l-2.38,1.04c-1.13.49-1.57.24-1.33-.77l.16-.69c.13-.57.43-1.08.9-1.54-.3-.09-.39-.39-.27-.9l.13-.55c.25-1.05.94-1.85,2.09-2.43l2.12-1.07c1.23-.61,1.74-.39,1.51.71l-.12.57c-.11.54-.4,1.03-.86,1.49.39.07.52.41.4,1l-.15.72Zm-.63-.39c.12-.57-.17-.69-.9-.35l-2.3,1.07c-.68.32-1.08.75-1.2,1.3l-.15.63c-.12.53.15.64.83.33l2.3-1.02c.73-.33,1.15-.75,1.27-1.3l.14-.66Zm.58-2.99c.12-.57-.17-.68-.89-.32l-2.15,1.06c-.68.34-1.07.78-1.2,1.32l-.13.54c-.12.52.13.64.78.33l2.25-1.07c.69-.33,1.09-.76,1.21-1.3l.12-.56Z"/>
    </g>
  </g>
</svg>