<?xml version="1.0" encoding="UTF-8"?>
<svg id="Layer_1" data-name="Layer 1" xmlns="http://www.w3.org/2000/svg" xmlns:xlink="http://www.w3.org/1999/xlink" viewBox="0 0 128 128">
  <defs>
    <style>
      .cls-1 {
        fill: #1b0049;
      }

      .cls-2, .cls-3, .cls-4 {
        fill: aqua;
      }

      .cls-3 {
        stroke: #1d1049;
        stroke-miterlimit: 10;
        stroke-width: .53px;
      }

      .cls-4 {
        filter: url(#outer-glow-1);
      }
    </style>
    <filter id="outer-glow-1" filterUnits="userSpaceOnUse">
      <feOffset dx="0" dy="0"/>
      <feGaussianBlur result="blur" stdDeviation="6.51"/>
      <feFlood flood-color="aqua" flood-opacity=".75"/>
      <feComposite in2="blur" operator="in"/>
      <feComposite in="SourceGraphic"/>
    </filter>
  </defs>
  <g>
    <g>
      <polygon class="cls-1" points="17.21 116.45 2.08 37.03 42.02 31.53 71.19 30.48 68.73 111.51 38.19 120.58 17.21 116.45"/>
      <path class="cls-2" d="m70.38,31.29l-2.41,79.63-29.82,8.85-20.27-3.98L3,37.69l39.12-5.39,28.26-1.01m1.61-1.62l-1.67.06-28.26,1.01h-.08s-.08.01-.08.01L2.79,36.15l-1.63.22.31,1.62,14.88,78.09.2,1.04,1.04.2,20.27,3.98.38.07.37-.11,29.82-8.85,1.08-.32.03-1.13,2.41-79.63.05-1.67h0Z"/>
    </g>
    <path class="cls-2" d="m37.49,113.65c-2.51-22.81-6.39-47.52-7.23-70.39,0,0,.16-.02.16-.02,1.05,5.82,1.76,11.67,2.51,17.53.7,5.86,1.13,11.74,1.65,17.61.8,8.78,2.34,26.47,3.07,35.25,0,0-.16.02-.16.02h0Z"/>
    <path class="cls-2" d="m24.42,38.67c-2.52.31-5.03.19-7.54-.05-2.45-.25-5.22-.25-7.51-.68,4.96.2,10.31-.45,15.05.73h0Z"/>
    <path class="cls-2" d="m34.73,37.87c4.48-1.7,9.13-2.53,13.84-3.14,3.49-.55,10.54-1.59,14.04-2.06,0,0,.03.15.03.15-3.44.82-10.38,2.39-13.84,3.14-4.62,1.13-9.25,2.04-14.04,2.06,0,0-.03-.15-.03-.15h0Z"/>
    <g>
      <polygon class="cls-3" points="6.69 47.96 26.88 49.79 26.08 42.65 5.49 41.28 6.69 47.96"/>
      <polygon class="cls-3" points="8.31 56.94 27.92 58.99 27.21 52.74 7.18 50.66 8.31 56.94"/>
    </g>
  </g>
  <g>
    <g>
      <polygon class="cls-1" points="48.21 70.51 44.54 69.28 45.37 8.59 122.09 7.47 125.86 8.73 114.96 72.76 48.21 70.51"/>
      <path class="cls-2" d="m121.97,8.23l3.03,1.01-10.68,62.74-65.98-2.23-3.03-1.01.81-59.4,75.85-1.11m.24-1.52h-.26s-75.85,1.12-75.85,1.12l-1.48.02-.02,1.48-.81,59.4-.02,1.11,1.05.35,3.03,1.01.21.07h.22s65.98,2.24,65.98,2.24l1.33.04.22-1.31,10.68-62.74.22-1.28-1.24-.41-3.03-1.01-.25-.08h0Z"/>
    </g>
    <polygon class="cls-4" points="49.28 12.72 118.27 11.71 108.79 67.41 48.57 65.38 49.28 12.72"/>
    <path class="cls-2" d="m111.65,68.7c2.31-16.43,6.75-39.94,9.62-56.53,0,0,.05,0,.05,0-2.84,16.65-6.28,40.31-9.67,56.52h0Z"/>
    <path class="cls-2" d="m48.52,68.82c17.56.55,42.22.95,59.51,2.01,0,0,0,.05,0,.05-17.19-.16-42.19-1.28-59.5-2.06h0Z"/>
    <path class="cls-2" d="m113.46,71.77c-.64-.11-1.93.01-2.19-.65.42-.16.78-.07,1.15.13.28.15.95.33,1.04.52h0Z"/>
  </g>
</svg>