<?xml version="1.0" encoding="UTF-8"?>
<svg id="Layer_1" data-name="Layer 1" xmlns="http://www.w3.org/2000/svg" viewBox="0 0 128 128">
  <defs>
    <style>
      .cls-1 {
        fill: #1b0049;
      }

      .cls-2 {
        fill: aqua;
      }
    </style>
  </defs>
  <path class="cls-1" d="m51.7,22.78c-6.16.16-9.84.27-9.84.27l.62,20.17-25.31,64.51c1.25.69,9.06,3.59,10.73-.76,1.28-3.33,8.13-23.14,12.95-34.67,1.64-3.92,5.28-6.77,9.35-7.43l44.44-7.17c2.92-.47,5.91.9,7.76,3.53,5.2,7.39,12.62,19.44,13.86,21.31,1.59,2.39,4.28-1.36,5.33-3.01l-26.51-41.04-4.11-16.76s-2.7.07-7.48.2l-31.78.85Z"/>
  <path class="cls-2" d="m75.49,53.53l-4.63.63c-.45.06-.86-.25-.93-.69h0c-.06-.44.25-.85.7-.91l4.62-.6c.43-.06.84.25.9.68h0c.07.43-.23.83-.66.89Z"/>
  <g>
    <path class="cls-1" d="m101.88,24.93l-10.13-.84-.36-4.38c-.05-.63.44-1.08,1.09-1.01l5.97.6c1.57.16,2.96,1.53,3.14,3.08l.28,2.55Z"/>
    <path class="cls-1" d="m27,27.93l14.94-2.08-1.16-5.17c-.17-.74-1.03-1.26-1.93-1.15l-8.73,1.02c-2.44.28-4.13,2.12-3.75,4.11l.63,3.28Z"/>
  </g>
  <g>
    <path class="cls-2" d="m93.53,46.36c-.74-3.73-4.16-6.43-7.74-6.1-3.68.34-6.21,3.75-5.56,7.68s4.34,6.84,8.11,6.29c3.67-.53,5.95-4.08,5.2-7.87Z"/>
    <path class="cls-2" d="m64.26,49.83c-.53-4.16-4.43-7.15-8.83-6.74-4.53.42-8,4.28-7.61,8.69s4.62,7.66,9.3,6.98,7.68-4.68,7.14-8.93Z"/>
  </g>
  <g>
    <path class="cls-2" d="m87.77,33.45l.9-9.43c.08-1.32,1.09-2.26,2.44-2.3l10.05.91c.76-.02,1.55.37,2.08,1.04,4.38,5.53,22.56,26.77,20.63,49.66-.03.35-.11.68-.23.99l-2.04,5.21c-.54,1.39-2.12,1.52-3.01.25-12.23-17.4-13.45-30.11-27.18-39.84-2.13-1.51-3.77-4.07-3.63-6.5Z"/>
    <path class="cls-2" d="m68.78,20.82c19.15-.41,19,.8,18.91,1.66l-.86,11.37c-.29,2.85-2.54,5.03-5.57,5.29l-20.95,1.84c-3.57.31-7.02-1.6-8.37-4.68l-5.13-12.63c-.42-.96-.04-2.37,21.97-2.85Z"/>
    <path class="cls-2" d="m50.64,36.01l-4.54-10.51c-.58-1.5-2.28-2.52-4.15-2.47l-14.75,1.91c-1.26.04-2.4.62-2.99,1.53-5.12,7.84-31.47,44.18-14.7,75.05.24.44.58.83.98,1.13l6.67,5.07c1.72,1.31,4.71.06,5.74-2.34,12.8-29.8,9.39-45.75,25.38-61.4,2.21-2.16,3.38-5.32,2.35-7.98Z"/>
  </g>
  <g>
    <g>
      <g>
        <polygon class="cls-1" points="31.4 33.92 35.25 36.82 38.72 33.49 38.3 27.52 31.09 27.81 31.4 33.92"/>
        <polygon class="cls-1" points="39.27 41.44 35.43 38.55 31.82 42.06 32.15 48.62 39.71 47.84 39.27 41.44"/>
      </g>
      <g>
        <polygon class="cls-1" points="39.8 34.3 36.36 37.59 40.24 40.46 47.31 39.89 46.77 33.87 39.8 34.3"/>
        <polygon class="cls-1" points="30.68 41.23 34.32 37.79 30.37 34.88 22.65 35.35 22.84 41.86 30.68 41.23"/>
      </g>
    </g>
    <g>
      <g>
        <path class="cls-1" d="m100.22,27.7c.35,1.56-.6,2.91-2.13,3s-3.1-1.13-3.44-2.72c-.33-1.58.66-2.9,2.2-2.97,1.52-.06,3.02,1.14,3.37,2.68Z"/>
        <path class="cls-1" d="m102.62,38.44c.37,1.64-.59,3.12-2.15,3.28-1.58.16-3.17-1.07-3.52-2.76-.35-1.67.65-3.12,2.22-3.24,1.55-.13,3.09,1.09,3.45,2.72Z"/>
      </g>
      <g>
        <path class="cls-1" d="m104.41,35.71c-1.51.12-3.04-1.08-3.39-2.69s.58-2.95,2.08-3.03c1.48-.09,2.96,1.09,3.33,2.65.37,1.57-.52,2.95-2.01,3.07Z"/>
        <path class="cls-1" d="m93.9,36.58c-1.63.13-3.24-1.12-3.57-2.79-.33-1.66.74-3.07,2.35-3.17,1.6-.1,3.16,1.13,3.5,2.75.35,1.63-.67,3.08-2.28,3.21Z"/>
      </g>
    </g>
  </g>
  <polygon class="cls-2" points="105.54 21.79 105.65 21.79 105.62 21.67 105.51 21.67 105.54 21.79"/>
  <g>
    <path class="cls-1" d="m90.58,26.88h0c-.52-.12-.91-.62-.87-1.12l.16-1.79c.04-.49.5-.78,1.02-.66h0c.52.12.9.62.86,1.1l-.15,1.78c-.04.5-.5.8-1.02.68Z"/>
    <path class="cls-1" d="m44.59,28.98h0c.66-.2,1-.81.76-1.38l-.88-2.04c-.24-.56-.97-.87-1.63-.68h0c-.67.19-1.01.8-.77,1.36l.88,2.06c.24.57.98.87,1.65.68Z"/>
  </g>
</svg>