<?xml version="1.0" encoding="UTF-8"?>
<svg id="Layer_1" data-name="Layer 1" xmlns="http://www.w3.org/2000/svg" viewBox="0 0 128 128">
  <defs>
    <style>
      .cls-1, .cls-2 {
        fill: #1b0049;
      }

      .cls-3, .cls-4 {
        fill: aqua;
      }

      .cls-2 {
        stroke: aqua;
        stroke-width: .8px;
      }

      .cls-2, .cls-4 {
        stroke-miterlimit: 10;
      }

      .cls-4 {
        stroke: #1b0049;
        stroke-width: 1.26px;
      }
    </style>
  </defs>
  <g>
    <path class="cls-2" d="m9.89,97.1c-.9.57-1.73,1.29-2.45,2.17-3.52,4.35-2.85,10.72,1.5,14.24,4.35,3.52,10.72,2.85,14.24-1.5.71-.88,1.24-1.84,1.62-2.84l.41-1.39c.09-.42.16-.84.2-1.27.52-3.14,1.19-4.63,7.24-12.1l42.48-52.45c6.9-8.51,8.66-9.38,15.6-12.11.74-.22,1.46-.5,2.16-.85,0,0,.02,0,.03-.01h0c1.64-.82,3.13-1.99,4.35-3.5,4.25-5.24,3.82-12.75-.74-17.49l-4.26,10.62c-1.16,2.88-1.66,2.68-6.53.73-4.87-1.95-5.38-2.16-4.22-5.04l4.13-10.31c-3.38.35-6.63,1.98-8.94,4.83-1.81,2.23-2.76,4.87-2.92,7.53-1.2,7.18-1.74,9.13-8.57,17.56l-42.48,52.45c-5.94,7.33-7.32,8.4-10.17,9.53-.57.16-1.13.38-1.66.64l-1,.55Zm13.59,9.91l-1.73,1.5.04,2.29-2.32.46-1.12,2.09-2.36-.87-1.91,1.01-1.53-1.62-2.22-.06-.53-2.09-2.23-1.18.8-2.23-1.21-2.03,1.73-1.5-.04-2.29,2.32-.46,1.12-2.09,2.36.87,1.91-1.01,1.53,1.62,2.22.06.53,2.09,2.23,1.18-.8,2.23,1.21,2.03Z"/>
    <g>
      <path class="cls-3" d="m30.41,87c-1.75-1.42-2.02-4-.6-5.75l35.59-43.95c1.42-1.75,4-2.02,5.75-.6,1.75,1.42,2.02,4,.6,5.75l-35.59,43.95c-1.42,1.75-4,2.02-5.75.6Z"/>
      <path class="cls-3" d="m16.31,95.03c.7-.21,3.77,1.5,5.35,2.78,1.57,1.27,3.89,3.93,3.83,4.65.51-1.28-1.36-4.48-2.94-5.75-1.57-1.27-5.09-2.44-6.24-1.68Z"/>
      <path class="cls-3" d="m73.48,20.64c1.9,4.93,7.67,9.6,12.88,10.43-6.44.68-12.21-3.99-12.88-10.43Z"/>
    </g>
    <path class="cls-1" d="m66.15,37.92c1.08-1.34,3.04-1.54,4.38-.46,1.34,1.08,1.54,3.04.46,4.38l-35.59,43.95c-1.08,1.34-3.04,1.54-4.38.46s-1.54-3.04-.46-4.38l35.59-43.95Z"/>
  </g>
  <g>
    <g>
      <path class="cls-1" d="m76.8,122.16l-1.23-8.83c-1.43-.64-2.8-1.4-4.1-2.27l-6.36,6.94-3.99-5.45,3.33-8.27c-.91-1.27-1.72-2.61-2.4-4.01l-8.98,2.83-.73-6.72,7.02-5.5c-.16-1.55-.19-3.12-.08-4.67l-9.19-2.04,2.73-6.18,8.83-1.23c.64-1.43,1.4-2.8,2.27-4.1l-6.94-6.36,5.45-3.99,8.27,3.33c1.26-.91,2.61-1.72,4.01-2.4l-2.85-9.03,6.73-.73,5.39,7.08c.76-.08,1.54-.12,2.39-.12.76,0,1.56.03,2.42.1l2.02-9.26,6.19,2.73,1.23,8.83c1.43.64,2.8,1.4,4.1,2.27l6.36-6.94,3.99,5.45-3.33,8.27c.91,1.26,1.72,2.61,2.4,4.01l8.98-2.83.73,6.72-7.02,5.5c.16,1.55.19,3.12.08,4.67l9.19,2.04-2.73,6.18-8.83,1.23c-.64,1.43-1.4,2.8-2.27,4.1l6.94,6.36-5.45,3.99-8.27-3.33c-1.26.91-2.61,1.72-4.01,2.4l2.83,8.98-6.72.73-5.49-7.02c-.93.1-1.88.14-2.82.14-.62,0-1.24-.02-1.86-.06l-2.04,9.19-6.18-2.73Zm-7.51-31.08c.1.6.24,1.2.4,1.79,2.15,7.68,9.22,13.04,17.2,13.04.85,0,1.71-.06,2.56-.19l-5.86-5.74c-4.17-1.16-7.47-4.44-8.63-8.6-.11-.38-.19-.76-.26-1.15l-5.41.84Zm29.04,10.68c5.32-4.45,7.62-11.81,5.75-18.51-.65-2.32-1.77-4.5-3.28-6.38l-1.91,8.17c1.16,4.6-.4,9.4-4,12.45l3.43,4.27Zm-11.44-17.84c-.37,0-.75.05-1.11.15-1.06.3-1.95.99-2.49,1.96-.54.96-.68,2.08-.38,3.14.5,1.78,2.14,3.02,3.99,3.02.37,0,.75-.05,1.11-.15,2.2-.61,3.48-2.9,2.87-5.1-.5-1.78-2.14-3.02-3.99-3.02Zm0-13.71c-1.63,0-3.24.22-4.8.66-5.44,1.52-9.79,5.48-11.82,10.7l7.99-2.37c1.48-1.45,3.31-2.5,5.31-3.06,1.08-.3,2.2-.46,3.33-.46,1.43,0,2.83.24,4.17.72l1.98-5.11c-1.97-.72-4.03-1.09-6.14-1.09Z"/>
      <path class="cls-3" d="m91.25,52.16l5.16,2.28,1.23,8.83c1.67.73,3.27,1.62,4.77,2.67l6.21-6.78,3.33,4.55-3.33,8.27c1.07,1.44,2.01,3.01,2.78,4.68l8.77-2.76.61,5.61-7.02,5.5c.21,1.83.23,3.66.08,5.45l8.97,1.99-2.28,5.16-8.83,1.23c-.73,1.67-1.62,3.27-2.67,4.77l6.78,6.21-4.55,3.33-8.27-3.33c-1.44,1.07-3.01,2.01-4.68,2.79l2.76,8.77-5.61.61-5.49-7.02c-1.04.12-2.07.18-3.09.18-.79,0-1.57-.03-2.35-.1l-1.99,8.97-5.16-2.28-1.23-8.83c-1.67-.73-3.27-1.62-4.77-2.67l-6.21,6.78-3.33-4.55,3.33-8.27c-1.07-1.44-2.01-3.01-2.79-4.68l-8.77,2.76-.61-5.61,7.02-5.49c-.21-1.83-.23-3.66-.08-5.45l-8.97-1.99,2.28-5.16,8.83-1.23c.73-1.67,1.62-3.27,2.67-4.77l-6.78-6.21,4.55-3.33,8.27,3.33c1.44-1.07,3.01-2.01,4.69-2.79l-2.78-8.82,5.61-.61,5.39,7.08c.89-.11,1.78-.15,2.67-.15.98,0,1.96.05,2.92.14l1.97-9.05m-22,30.36l9.32-2.77c1.42-1.43,3.2-2.47,5.15-3.01,1.04-.29,2.1-.43,3.16-.43,1.54,0,3.08.31,4.53.91l2.44-6.28c-2.22-.9-4.58-1.36-6.96-1.36-1.67,0-3.35.23-4.97.68-6.03,1.69-10.79,6.33-12.66,12.26m28.98,20.12c5.88-4.57,8.46-12.36,6.45-19.57-.79-2.83-2.24-5.42-4.21-7.56l-2.22,9.53c1.22,4.61-.46,9.47-4.23,12.34l4.22,5.25m-11.35-9.82c.42,0,.85-.06,1.28-.18,2.53-.71,4.01-3.34,3.31-5.87-.59-2.1-2.51-3.48-4.59-3.48-.42,0-.85.06-1.28.18-2.53.71-4.01,3.34-3.31,5.87.59,2.1,2.51,3.48,4.59,3.48m0,13.71c1.28,0,2.58-.13,3.87-.41l-6.85-6.7c-4.03-1.06-7.22-4.19-8.35-8.2-.16-.56-.27-1.13-.34-1.7l-6.65,1.03c.12.84.29,1.67.51,2.48,2.28,8.16,9.72,13.51,17.8,13.51m3.46-56.15l-.33,1.5-1.74,7.98c-.68-.04-1.31-.06-1.93-.06-.73,0-1.42.03-2.09.09l-4.96-6.52-.43-.57-.71.08-5.61.61-1.52.17.46,1.46,2.45,7.78c-1.16.59-2.27,1.27-3.33,2.01l-7.62-3.07-.65-.26-.56.41-4.55,3.33-1.24.91,1.13,1.04,5.98,5.48c-.7,1.09-1.33,2.24-1.88,3.42l-8.14,1.14-.69.1-.28.64-2.28,5.16-.62,1.4,1.5.33,7.92,1.76c-.06,1.3-.04,2.6.08,3.89l-6.48,5.07-.55.43.08.7.61,5.61.17,1.52,1.46-.46,7.74-2.44c.59,1.16,1.27,2.27,2.01,3.33l-3.07,7.62-.26.65.41.56,3.33,4.55.91,1.24,1.04-1.13,5.48-5.98c1.09.7,2.24,1.33,3.42,1.88l1.13,8.14.1.69.64.28,5.16,2.28,1.4.62.33-1.5,1.76-7.92c.45.02.91.03,1.36.03.84,0,1.69-.04,2.53-.11l5.07,6.48.43.55.7-.08,5.61-.61,1.52-.17-.46-1.46-2.44-7.74c1.16-.59,2.27-1.27,3.33-2.01l7.62,3.07.65.26.56-.41,4.55-3.33,1.24-.91-1.13-1.04-5.98-5.48c.7-1.09,1.33-2.24,1.88-3.42l8.14-1.14.69-.1.28-.64,2.28-5.16.62-1.4-1.5-.33-7.92-1.76c.06-1.3.04-2.6-.08-3.89l6.48-5.07.55-.43-.08-.7-.61-5.61-.17-1.52-1.46.46-7.74,2.44c-.59-1.16-1.27-2.27-2.01-3.33l3.07-7.62.26-.65-.41-.56-3.33-4.55-.91-1.24-1.04,1.13-5.48,5.98c-1.09-.7-2.24-1.33-3.42-1.88l-1.14-8.14-.1-.69-.64-.28-5.16-2.28-1.41-.62h0Zm-18.98,30.19c2.13-4.44,6.06-7.76,10.88-9.11,1.51-.42,3.06-.63,4.63-.63,1.82,0,3.61.28,5.32.84l-1.53,3.94c-1.23-.38-2.5-.57-3.8-.57-1.18,0-2.36.16-3.49.48-2.05.57-3.93,1.64-5.46,3.11l-6.55,1.94h0Zm28.17,4.46l1.56-6.71c1.06,1.55,1.86,3.27,2.37,5.08,1.75,6.26-.28,13.11-5.06,17.44l-2.65-3.29c3.41-3.18,4.87-7.94,3.78-12.52h0Zm-12.65,6.52c-1.57,0-2.96-1.05-3.38-2.56-.52-1.86.57-3.8,2.43-4.32.31-.09.63-.13.94-.13,1.57,0,2.96,1.05,3.38,2.56.52,1.86-.57,3.8-2.43,4.32-.31.09-.63.13-.94.13h0Zm-16.85.03l4.17-.65c.05.2.1.41.15.61,1.21,4.32,4.6,7.73,8.91,8.99l4.79,4.69c-.39.03-.78.04-1.17.04-7.7,0-14.52-5.18-16.59-12.59-.1-.36-.19-.73-.27-1.09h0Z"/>
    </g>
    <path class="cls-4" d="m111.35,85.19l-.16-1.34,7.03-5.5-.15-1.36-7.98,2.51-.89-1.92c-.7-1.5-1.55-2.94-2.54-4.26l-.8-1.08,3.34-8.28-.81-1.1-5.66,6.17-1.73-1.21c-1.36-.95-2.82-1.77-4.34-2.43l-1.24-.54-1.23-8.84-1.24-.55-1.8,8.24-2.11-.19c-1.99-.18-3.61-.17-5.09,0l-1.37.17-5.4-7.1-1.34.15,2.53,8.03-1.92.89c-1.5.7-2.94,1.55-4.27,2.54l-1.08.8-8.27-3.34-1.1.81,6.17,5.66-1.21,1.73c-.95,1.36-1.77,2.82-2.43,4.35l-.54,1.24-8.84,1.23-.55,1.25,8.17,1.81-.19,2.1c-.14,1.65-.12,3.32.07,4.96l.16,1.34-7.03,5.5.15,1.36,7.99-2.51.89,1.92c.7,1.5,1.55,2.94,2.54,4.26l.8,1.08-3.34,8.27.81,1.1,5.66-6.17,1.73,1.21c1.36.95,2.82,1.77,4.35,2.43l1.24.54,1.23,8.84,1.25.55,1.81-8.17,2.1.19c1.65.14,3.32.12,4.96-.07l1.34-.16,5.5,7.03,1.36-.15-2.51-7.98,1.92-.89c1.5-.7,2.94-1.55,4.26-2.54l1.08-.8,8.27,3.34,1.1-.81-6.17-5.66,1.21-1.73c.95-1.36,1.77-2.82,2.43-4.35l.54-1.24,8.83-1.23.55-1.25-8.17-1.81.19-2.1c.14-1.65.12-3.32-.07-4.96Zm-44.89-2.27c1.82-7.34,7.47-13.16,14.75-15.2,4.71-1.32,9.75-.95,14.21,1.04l1.65.73-4.3,11.1-1.85-.91c-2.03-.99-4.35-1.21-6.52-.6-1.57.44-3,1.29-4.13,2.46l-.35.36-14.25,4.23.8-3.22Zm26.82,3.25c.99,3.54-1.08,7.22-4.62,8.21-3.54.99-7.22-1.08-8.21-4.62s1.08-7.22,4.62-8.21c3.54-.99,7.22,1.08,8.21,4.62Zm-.76,22.03c-11.16,3.12-22.78-3.42-25.9-14.58-.32-1.14-.54-2.32-.67-3.51l-.19-1.79,11.77-1.82.14,2.07c.04.63.15,1.26.32,1.88.89,3.19,3.45,5.67,6.68,6.46l.5.12,10.51,10.29-3.16.88Zm6.69-3.23l-1.46,1.06-7.46-9.27,1.71-1.15c3.3-2.23,4.8-6.29,3.73-10.12l-.13-.47,3.39-14.53,2.4,2.29c2.72,2.6,4.69,5.89,5.71,9.53,2.35,8.42-.82,17.53-7.89,22.67Z"/>
  </g>
</svg>