<?xml version="1.0" encoding="UTF-8"?>
<svg id="Layer_1" data-name="Layer 1" xmlns="http://www.w3.org/2000/svg" viewBox="0 0 128 128">
  <defs>
    <style>
      .cls-1 {
        fill: #1b0049;
      }

      .cls-2 {
        fill: aqua;
      }
    </style>
  </defs>
  <g>
    <path class="cls-1" d="m100.21,76.32c-6.63,16.73-15.74,33.05-29.82,44.68-11.24,9.34-25.8,10.6-30.63-5.76-7.47-27.82,13.78-78.64,35.18-97.1,11.1-9.96,25.28-11.87,30.77,4.7,5.09,17.29.45,37.01-5.5,53.47h0Zm-5.5-2.09c5.57-15.02,10.56-34.29,6.72-50.08-3.76-14.24-15.54-11.45-24.84-4-4.5,3.56-8.48,7.86-12.02,12.48-13.77,18.68-22.94,41.52-24.34,64.79-.14,8.26.25,17.79,6.15,23.95,11.18,9.96,26.17-7.92,32.37-16.62,6.62-9.39,11.89-19.77,15.95-30.52h0Z"/>
    <path class="cls-1" d="m95.49,51c8.61,14.96,18.24,34.97,18.31,52.45-.7,20.09-17.65,16.22-29.64,7.45-23.17-16.61-43.92-49.83-51.4-77.19-2.13-8.87-4.57-20.34.61-28.64,6.88-9.49,19.7-2.55,26.76,3.03,14.64,11.66,25.88,26.93,35.37,42.9h0Zm-1.03.6c-9.43-15.7-20.83-30.79-35.73-41.61-5.51-3.67-13.22-8.64-19.8-5.59-7.98,4.88-4.03,20.48-1.81,28.07,8.22,26.47,32.59,66.01,57.1,79.65,20.23,10.2,18.14-14.16,14.71-26.74-3.14-11.87-8.33-23.16-14.46-33.78h0Z"/>
    <path class="cls-1" d="m79.81,91.32c-18.11,1.32-36.66-.38-53.77-6.69-8.43-3.28-17.47-7.69-22.32-15.83-9.02-17.15,13.14-26.74,26.53-29.63,17.55-4.01,35.88-4.09,53.63-1.28,61.31,10.7,54.42,48.16-4.07,53.42h0Zm-.38-4.66c11.47-.99,23.3-3.21,33.42-8.77,12.05-6.72,14.65-16.09,3.08-25.2-24-18.32-75.6-20.62-101.77-5.83-7.53,4.24-13.4,12.23-8.17,20.62,4.74,7.26,13.25,10.96,21.26,13.77,16.75,5.39,34.7,6.74,52.18,5.4h0Z"/>
  </g>
  <path class="cls-2" d="m87.06,68.98c2.29-5.6-.12-12.76-5.49-16.23s-12.39-2.03-15.13,3.77-.08,13.78,5.95,17.16,12.31,1.04,14.66-4.7Z"/>
  <path class="cls-2" d="m51.86,39.74c1.16-2.21.09-5.28-2.42-6.89s-5.64-1.2-6.89,1.04-.13,5.44,2.51,7.06,5.63,1.03,6.81-1.2Z"/>
  <path class="cls-2" d="m98.85,88.53c1.2-3.3-.13-7.28-3.01-8.97s-6.43-.45-7.77,2.93.07,7.6,3.14,9.25,6.41.14,7.63-3.2Z"/>
  <path class="cls-2" d="m82.3,31.45c.63-1.36-.02-3.3-1.45-4.35s-3.16-.81-3.82.56,0,3.37,1.48,4.42,3.15.75,3.79-.63Z"/>
</svg>