<?xml version="1.0" encoding="UTF-8"?>
<svg id="Layer_1" data-name="Layer 1" xmlns="http://www.w3.org/2000/svg" viewBox="0 0 128 128">
  <defs>
    <style>
      .cls-1 {
        stroke-width: .31px;
      }

      .cls-1, .cls-2, .cls-3, .cls-4, .cls-5 {
        stroke-miterlimit: 10;
      }

      .cls-1, .cls-2, .cls-4 {
        fill: #1b0049;
        stroke: aqua;
      }

      .cls-2 {
        stroke-width: .2px;
      }

      .cls-6, .cls-3 {
        fill: aqua;
      }

      .cls-3 {
        stroke-width: 1.6px;
      }

      .cls-3, .cls-5 {
        stroke: #1b0049;
      }

      .cls-7 {
        fill: #001c49;
      }

      .cls-4 {
        stroke-width: .21px;
      }

      .cls-5 {
        fill: none;
        stroke-width: 2.62px;
      }
    </style>
  </defs>
  <g>
    <path class="cls-5" d="m86.78,50.15c-5.88,3.81-25.45,37.57-23.67,55.54"/>
    <path class="cls-5" d="m86.53,49.98c-7.21.49-46.27,16.3-57.75,29.01"/>
    <path class="cls-5" d="m29.04,78.92c-3.08-1.4-16.2,5.55-17.89,16.49"/>
    <path class="cls-5" d="m30.07,78.9c-1.33-2.63-14.71-7.05-22.43-2.36"/>
    <path class="cls-5" d="m33.23,97.39c1.21-1.9.91-13.83-3.38-18.35"/>
    <path class="cls-5" d="m118.34,54.13c-8.49,1.8-47.78,31.03-55.24,51.55"/>
    <path class="cls-5" d="m98.81,34.76c-2.55-1.77-12.1,4.07-12.28,15.22"/>
    <path class="cls-5" d="m63.19,105.14c-2.96-3.75-24.61-22.31-34.42-26.68"/>
  </g>
  <circle class="cls-3" cx="86.53" cy="49.98" r="4.64"/>
  <circle class="cls-3" cx="28.78" cy="78.99" r="4.64"/>
  <circle class="cls-3" cx="62.83" cy="104.92" r="4.64"/>
  <circle class="cls-3" cx="118.26" cy="54.01" r="3.03"/>
  <circle class="cls-3" cx="98.49" cy="33.88" r="3.03"/>
  <circle class="cls-3" cx="7.64" cy="76.54" r="3.03"/>
  <circle class="cls-3" cx="11.14" cy="95.4" r="3.03"/>
  <circle class="cls-3" cx="33.64" cy="97.42" r="3.03"/>
  <g>
    <polyline class="cls-1" points="31.22 78.74 30.93 75.74 26.63 75.74 26.33 78.74"/>
    <g>
      <ellipse class="cls-1" cx="28.78" cy="69.63" rx="5.45" ry="6.92"/>
      <g>
        <g>
          <path class="cls-6" d="m25.1,68.89c.53-.23,1.53-.22,2.48.17l.31,1.01c-.68.68-2.8.67-3.1-.6l.31-.58Z"/>
          <path class="cls-7" d="m25.09,68.88c.81-.42,1.8-.28,2.61.07.13.39.22.78.33,1.17,0,0-.06.05-.06.05-.97.76-2.89.62-3.23-.7,0-.01.34-.57.34-.59h0Zm.02.02l-.29.59c.34,1.07,2.18,1.22,2.97.49,0,0-.03.13-.03.13-.11-.33-.23-.67-.33-1.01l.09.1c-.76-.28-1.6-.48-2.41-.3h0Z"/>
        </g>
        <g>
          <path class="cls-6" d="m32.46,68.89c-.53-.23-1.53-.22-2.48.17l-.31,1.01c.68.68,2.8.67,3.1-.6l-.31-.58Z"/>
          <path class="cls-7" d="m32.45,68.9c-.8-.18-1.65.02-2.41.3,0,0,.09-.1.09-.1-.1.34-.22.67-.33,1.01l-.03-.13c.79.73,2.64.58,2.97-.49,0,0-.29-.59-.29-.59h0Zm.02-.02s.34.57.34.59c-.34,1.32-2.26,1.46-3.23.7,0,0-.06-.05-.06-.05.11-.39.21-.79.33-1.17.81-.34,1.8-.49,2.61-.07h0Z"/>
        </g>
      </g>
    </g>
  </g>
  <g>
    <polyline class="cls-1" points="65.27 104.89 64.98 101.89 60.68 101.89 60.38 104.89"/>
    <g>
      <ellipse class="cls-1" cx="62.83" cy="95.78" rx="5.45" ry="6.92"/>
      <g>
        <g>
          <path class="cls-6" d="m59.15,95.04c.53-.23,1.53-.22,2.48.17l.31,1.01c-.68.68-2.8.67-3.1-.6l.31-.58Z"/>
          <path class="cls-7" d="m59.14,95.03c.81-.42,1.8-.28,2.61.07.13.39.22.78.33,1.17,0,0-.06.05-.06.05-.97.76-2.89.62-3.23-.7,0-.01.34-.57.34-.59h0Zm.02.02s-.29.59-.29.59c.34,1.07,2.18,1.22,2.97.49,0,0-.03.13-.03.13-.11-.33-.23-.67-.33-1.01l.09.1c-.76-.28-1.6-.48-2.41-.3h0Z"/>
        </g>
        <g>
          <path class="cls-6" d="m66.51,95.04c-.53-.23-1.53-.22-2.48.17l-.31,1.01c.68.68,2.8.67,3.1-.6l-.31-.58Z"/>
          <path class="cls-7" d="m66.5,95.06c-.8-.18-1.65.02-2.41.3,0,0,.09-.1.09-.1-.1.34-.22.67-.33,1.01l-.03-.13c.79.73,2.64.58,2.97-.49,0,0-.29-.59-.29-.59h0Zm.02-.02s.34.57.34.59c-.34,1.32-2.26,1.46-3.23.7,0,0-.06-.05-.06-.05.11-.39.21-.79.33-1.17.81-.34,1.8-.49,2.61-.07h0Z"/>
        </g>
      </g>
    </g>
  </g>
  <g>
    <g>
      <polyline class="cls-2" points="119.98 54.42 119.79 52.49 117.02 52.49 116.84 54.42"/>
      <g>
        <ellipse class="cls-2" cx="118.41" cy="48.56" rx="3.5" ry="4.45"/>
        <g>
          <g>
            <path class="cls-6" d="m116.04,48.09c.34-.15.99-.14,1.59.11l.2.65c-.44.44-1.8.43-1.99-.39l.2-.37Z"/>
            <path class="cls-7" d="m116.04,48.08c.52-.27,1.16-.18,1.68.04,0,0,.01.04.01.04l.18.65s.03.05-.02.08c-.62.49-1.85.4-2.08-.44,0,0,0-.01,0-.02,0,0,.22-.37.22-.37h0Zm.01.01l-.19.38c.22.69,1.4.78,1.91.31,0,0-.02.08-.02.08l-.21-.65.06.06c-.49-.18-1.02-.32-1.55-.19h0Z"/>
          </g>
          <g>
            <path class="cls-6" d="m120.78,48.09c-.34-.15-.99-.14-1.59.11l-.2.65c.44.44,1.8.43,1.99-.39l-.2-.37Z"/>
            <path class="cls-7" d="m120.77,48.09c-.52-.13-1.06.02-1.55.19l.06-.06-.21.65-.02-.08c.51.47,1.7.37,1.91-.31,0,0-.19-.38-.19-.38h0Zm.01-.01s.22.37.22.38c-.22.87-1.5.94-2.11.42.02-.05.2-.7.21-.75.52-.22,1.16-.31,1.68-.04h0Z"/>
          </g>
        </g>
      </g>
    </g>
    <path class="cls-6" d="m119.81,43.34s-4.17-1.44-5.43,2.04c-1.26,3.48.69,6.98-1.85,8.08,0,0,2.57-.27,2.95-4.03.38-3.76,4.46-5.02,4.33-3.58,0,0-1.13,1.48.92,1.73,2.05.24,1.51,5.61-.29,6.18,0,0,3.89-.91,3.54-4.3-.35-3.39-3.08-7.32-4.34-6.16"/>
  </g>
  <path class="cls-6" d="m68.09,93.99l1.11-4.2s-1.59.98-1.73,1.07-3.81-4.24-7.08-4.63c0,0,2.33,2.02,2.16,2.64,0,0-4.25.02-4.89,1.24l1.4.7s-2.9.81-3.04,1.23,1.55-.28,1.76.17-.27,2.19-.27,2.19c0,0,.95-2.29,2.68-2.58,1.73-.29,5.56-.46,6.88,1.25,1.32,1.71,1.22,2.51,1.22,2.51l-.19-1.58Z"/>
  <g>
    <path class="cls-6" d="m86.71,39c1.63.77,13.99,4.66,9.59,10.79-4.41,6.13-.13-5.95-9.16-7.57"/>
    <g>
      <polyline class="cls-1" points="88.97 50.23 88.68 47.23 84.37 47.23 84.08 50.23"/>
      <g>
        <ellipse class="cls-1" cx="86.53" cy="41.12" rx="5.45" ry="6.92"/>
        <g>
          <g>
            <path class="cls-6" d="m82.85,40.38c.53-.23,1.53-.22,2.48.17l.31,1.01c-.68.68-2.8.67-3.1-.6l.31-.58Z"/>
            <path class="cls-7" d="m82.84,40.37c.81-.42,1.8-.28,2.61.07.13.39.22.78.33,1.17,0,0-.06.05-.06.05-.97.76-2.89.62-3.23-.7,0-.01.34-.57.34-.59h0Zm.02.02l-.29.59c.34,1.07,2.18,1.22,2.97.49,0,0-.03.13-.03.13-.11-.33-.23-.67-.33-1.01l.09.1c-.76-.28-1.6-.48-2.41-.3h0Z"/>
          </g>
          <g>
            <path class="cls-6" d="m90.2,40.38c-.53-.23-1.53-.22-2.48.17l-.31,1.01c.68.68,2.8.67,3.1-.6l-.31-.58Z"/>
            <path class="cls-7" d="m90.19,40.39c-.8-.18-1.65.02-2.41.3,0,0,.09-.1.09-.1-.1.34-.22.67-.33,1.01l-.03-.13c.79.73,2.64.58,2.97-.49,0,0-.29-.59-.29-.59h0Zm.02-.02s.34.57.34.59c-.34,1.32-2.26,1.46-3.23.7,0,0-.06-.05-.06-.05.11-.39.21-.79.33-1.17.81-.34,1.8-.49,2.61-.07h0Z"/>
          </g>
        </g>
      </g>
    </g>
    <path class="cls-6" d="m84.48,38.33c-3.61-.29-3.77,6.49-3.77,6.49-2.25-9.25,2.16-11.47,4.39-10.94,4.94-1.61,10.41,1.7,7.28,10.79,0,0-.9-6.99-6.42-6.4,0,0-.99-2.3-.8-3.27,0,0-.71,2.58-.68,3.33Z"/>
  </g>
  <path class="cls-6" d="m29.67,64.87l-2.04,1.61.4-1.61s-2.93,1.98-2.93,2.52l.26-2.12s-2.23,4.03-2.03,4.36c0,0-.93-4.98,1.96-6.44s5.93-1.24,7.21,0c1.28,1.24,3.34,3.99,1.73,6.29,0,0-1.95-2.38-2.13-3.26s-1.41.48-2.02.84-.4-2.2-.4-2.2Z"/>
  <g>
    <circle class="cls-6" cx="11.14" cy="86.44" r="6.54"/>
    <g>
      <polyline class="cls-4" points="12.78 95.61 12.58 93.61 9.7 93.61 9.51 95.61"/>
      <g>
        <ellipse class="cls-4" cx="11.14" cy="89.52" rx="3.64" ry="4.63"/>
        <g>
          <g>
            <path class="cls-6" d="m8.68,89.02c.36-.16,1.02-.15,1.66.11l.21.68c-.45.45-1.87.45-2.07-.4l.21-.39Z"/>
            <path class="cls-7" d="m8.68,89.02c.54-.28,1.2-.18,1.75.04.08.26.15.52.22.78,0,0-.04.03-.04.03-.65.51-1.93.42-2.16-.47,0,0,.23-.38.23-.39h0Zm.01.02s-.2.39-.2.39c.22.71,1.46.81,1.99.33-.02.24-.16-.36-.24-.58,0,0,.06.07.06.07-.51-.18-1.06-.33-1.61-.2h0Z"/>
          </g>
          <g>
            <path class="cls-6" d="m13.6,89.02c-.36-.16-1.02-.15-1.66.11l-.21.68c.45.45,1.87.45,2.07-.4l-.21-.39Z"/>
            <path class="cls-7" d="m13.6,89.03c-.54-.13-1.1.02-1.61.2l.06-.07c-.08.22-.22.82-.24.58.53.49,1.76.39,1.99-.33,0,0-.2-.39-.2-.39h0Zm.01-.02s.23.38.23.39c-.23.88-1.51.97-2.16.47,0,0-.04-.03-.04-.03.07-.26.14-.53.22-.78.54-.23,1.21-.32,1.75-.04h0Z"/>
          </g>
        </g>
      </g>
    </g>
    <path class="cls-6" d="m7.77,87.77s1.31-1.32,3.37-1.32c2.06,0,3.37,1.32,3.37,1.32,0,0,.95-3.89-3-3.71-3.95.18-3.6,1.79-4.11,3.21"/>
  </g>
  <g>
    <polyline class="cls-4" points="35.48 98.2 35.29 96.2 32.41 96.2 32.21 98.2"/>
    <g>
      <ellipse class="cls-4" cx="33.85" cy="92.11" rx="3.64" ry="4.63"/>
      <g>
        <g>
          <path class="cls-6" d="m31.39,91.62c.36-.16,1.02-.15,1.66.11l.21.68c-.45.45-1.87.45-2.07-.4l.21-.39Z"/>
          <path class="cls-7" d="m31.38,91.61c.54-.28,1.2-.18,1.75.04.08.26.15.52.22.78,0,0-.04.03-.04.03-.65.51-1.93.42-2.16-.47,0,0,.23-.38.23-.39h0Zm.01.02s-.2.39-.2.39c.22.71,1.46.81,1.99.33-.02.24-.16-.36-.24-.58,0,0,.06.07.06.07-.51-.18-1.06-.33-1.61-.2h0Z"/>
        </g>
        <g>
          <path class="cls-6" d="m36.31,91.62c-.36-.16-1.02-.15-1.66.11l-.21.68c.45.45,1.87.45,2.07-.4l-.21-.39Z"/>
          <path class="cls-7" d="m36.3,91.62c-.54-.13-1.1.02-1.61.2l.06-.07c-.08.22-.22.82-.24.58.53.49,1.76.39,1.99-.33,0,0-.2-.39-.2-.39h0Zm.01-.02s.23.38.23.39c-.23.88-1.51.97-2.16.47,0,0-.04-.03-.04-.03.07-.26.14-.53.22-.78.54-.23,1.21-.32,1.75-.04h0Z"/>
        </g>
      </g>
    </g>
  </g>
  <g>
    <polyline class="cls-4" points="9.28 76.62 9.08 74.61 6.2 74.61 6.01 76.62"/>
    <g>
      <ellipse class="cls-4" cx="7.64" cy="70.52" rx="3.64" ry="4.63"/>
      <g>
        <g>
          <path class="cls-6" d="m5.18,70.03c.36-.16,1.02-.15,1.66.11l.21.68c-.45.45-1.87.45-2.07-.4l.21-.39Z"/>
          <path class="cls-7" d="m5.17,70.02c.54-.28,1.2-.18,1.75.04.08.26.15.52.22.78,0,0-.04.03-.04.03-.65.51-1.93.42-2.16-.47,0,0,.23-.38.23-.39h0Zm.01.02l-.2.39c.22.71,1.46.81,1.99.33-.02.24-.16-.36-.24-.58,0,0,.06.07.06.07-.51-.18-1.06-.33-1.61-.2h0Z"/>
        </g>
        <g>
          <path class="cls-6" d="m10.1,70.03c-.36-.16-1.02-.15-1.66.11l-.21.68c.45.45,1.87.45,2.07-.4l-.21-.39Z"/>
          <path class="cls-7" d="m10.1,70.04c-.54-.13-1.1.02-1.61.2l.06-.07c-.08.22-.22.82-.24.58.53.49,1.76.39,1.99-.33,0,0-.2-.39-.2-.39h0Zm.01-.02s.23.38.23.39c-.23.88-1.51.97-2.16.47,0,0-.04-.03-.04-.03.07-.26.14-.53.22-.78.54-.23,1.21-.32,1.75-.04h0Z"/>
        </g>
      </g>
    </g>
  </g>
  <g>
    <polyline class="cls-4" points="100.13 33.88 99.93 31.87 97.06 31.87 96.86 33.88"/>
    <g>
      <ellipse class="cls-4" cx="98.49" cy="27.79" rx="3.64" ry="4.63"/>
      <g>
        <g>
          <path class="cls-6" d="m96.03,27.29c.36-.16,1.02-.15,1.66.11l.21.68c-.45.45-1.87.45-2.07-.4l.21-.39Z"/>
          <path class="cls-7" d="m96.03,27.29c.54-.28,1.2-.18,1.75.04.08.26.15.52.22.78,0,0-.04.03-.04.03-.65.51-1.93.42-2.16-.47,0,0,.23-.38.23-.39h0Zm.01.02s-.2.39-.2.39c.22.71,1.46.81,1.99.33-.02.24-.16-.36-.24-.58,0,0,.06.07.06.07-.51-.18-1.06-.33-1.61-.2h0Z"/>
        </g>
        <g>
          <path class="cls-6" d="m100.96,27.29c-.36-.16-1.02-.15-1.66.11l-.21.68c.45.45,1.87.45,2.07-.4l-.21-.39Z"/>
          <path class="cls-7" d="m100.95,27.3c-.54-.13-1.1.02-1.61.2l.06-.07c-.08.22-.22.82-.24.58.53.49,1.76.39,1.99-.33,0,0-.2-.39-.2-.39h0Zm.01-.02s.23.38.23.39c-.23.88-1.51.97-2.16.47,0,0-.04-.03-.04-.03.07-.26.14-.53.22-.78.54-.23,1.21-.32,1.75-.04h0Z"/>
        </g>
      </g>
    </g>
  </g>
  <path class="cls-6" d="m98.49,25.32l-.6-.91-.6-.98-.63-3.59s.84-1.39,1.83-1.39c.99,0,1.83,1.39,1.83,1.39l-.63,3.59-.6.98-.6.91"/>
</svg>