<?xml version="1.0" encoding="UTF-8"?>
<svg id="Layer_1" data-name="Layer 1" xmlns="http://www.w3.org/2000/svg" xmlns:xlink="http://www.w3.org/1999/xlink" viewBox="0 0 128 128">
  <defs>
    <style>
      .cls-1, .cls-2, .cls-3 {
        fill: #1b0049;
      }

      .cls-4 {
        fill: aqua;
      }

      .cls-2 {
        stroke: aqua;
        stroke-miterlimit: 10;
        stroke-width: .96px;
      }

      .cls-3 {
        filter: url(#outer-glow-1);
      }

      .cls-5 {
        filter: url(#outer-glow-2);
      }
    </style>
    <filter id="outer-glow-1" filterUnits="userSpaceOnUse">
      <feOffset dx="0" dy="0"/>
      <feGaussianBlur result="blur" stdDeviation="5.38"/>
      <feFlood flood-color="aqua" flood-opacity=".75"/>
      <feComposite in2="blur" operator="in"/>
      <feComposite in="SourceGraphic"/>
    </filter>
    <filter id="outer-glow-2" filterUnits="userSpaceOnUse">
      <feOffset dx="0" dy="0"/>
      <feGaussianBlur result="blur-2" stdDeviation="4.74"/>
      <feFlood flood-color="aqua" flood-opacity=".75"/>
      <feComposite in2="blur-2" operator="in"/>
      <feComposite in="SourceGraphic"/>
    </filter>
  </defs>
  <g>
    <g>
      <g>
        <ellipse class="cls-1" cx="102.19" cy="105.52" rx="8.29" ry="3.24" transform="translate(-36.21 154.75) rotate(-65.5)"/>
        <polygon class="cls-1" points="106.72 100.67 105.17 102.32 105.17 73.19 106.72 71.53 106.72 100.67"/>
      </g>
      <g>
        <ellipse class="cls-1" cx="117.6" cy="89.03" rx="8.29" ry="3.24" transform="translate(-12.18 159.11) rotate(-65.5)"/>
        <polygon class="cls-1" points="122.13 84.18 120.58 85.83 120.58 56.69 122.13 55.04 122.13 84.18"/>
      </g>
      <polygon class="cls-1" points="105.17 76.02 105.17 73.19 122.13 55.04 122.13 57.87 105.17 76.02"/>
      <polygon class="cls-1" points="105.17 81.93 105.17 79.1 122.13 60.95 122.13 63.79 105.17 81.93"/>
    </g>
    <g>
      <ellipse class="cls-1" cx="57.45" cy="105.03" rx="5.26" ry="8.07" transform="translate(-62.11 111.27) rotate(-64.31)"/>
      <polygon class="cls-1" points="65.07 106.95 62.47 106.3 62.47 78.93 65.07 79.59 65.07 106.95"/>
    </g>
    <g>
      <g>
        <polygon class="cls-4" points="5.19 14.49 11.28 12.52 111.7 3.31 109.93 59.94 106.35 62.06 14.65 91.55 5.19 14.49"/>
        <path class="cls-1" d="m111.05,4l-1.74,55.57-3.22,1.92L15.18,90.72,5.87,14.92l5.53-1.78L111.05,4m1.3-1.38l-1.42.13L11.29,11.89h-.14s-.13.06-.13.06l-5.53,1.78-.99.32.13,1.03,9.3,75.8.19,1.51,1.45-.47,90.91-29.24.14-.04.12-.07,3.22-1.92.59-.35.02-.69,1.74-55.57.04-1.42h0Z"/>
      </g>
      <polygon class="cls-3" points="107.73 7.41 17.27 16.63 25.44 82.03 106.05 57.23 107.73 7.41"/>
      <g>
        <line class="cls-4" x1="20.32" y1="85.1" x2="11.98" y2="17.79"/>
        <path class="cls-1" d="m20.3,85.1c-2.75-19.07-5.98-47.94-8.34-67.31,0,0,.04,0,.04,0,2.4,19.45,6.43,48.15,8.3,67.32h0Z"/>
      </g>
      <g>
        <line class="cls-4" x1="105.94" y1="60.64" x2="26.26" y2="86.04"/>
        <path class="cls-1" d="m105.95,60.66c-23.05,7.38-56.82,18.51-79.68,25.4,0,0-.01-.04-.01-.04,22.5-7.52,56.83-18.24,79.7-25.36h0Z"/>
      </g>
      <g>
        <line class="cls-4" x1="16.73" y1="89.96" x2="20.68" y2="88.04"/>
        <path class="cls-1" d="m16.72,89.95c1.28-.64,2.55-1.78,3.97-1.89-1.1.95-2.68,1.45-3.97,1.89h0Z"/>
      </g>
    </g>
    <g>
      <ellipse class="cls-1" cx="78.46" cy="112.43" rx="5.26" ry="8.07" transform="translate(-56.87 134.39) rotate(-64.31)"/>
      <polygon class="cls-1" points="86.08 114.34 83.48 113.69 83.48 86.32 86.08 86.98 86.08 114.34"/>
    </g>
    <g>
      <ellipse class="cls-1" cx="20.32" cy="118.11" rx="5.26" ry="8.07" transform="translate(-94.92 85.21) rotate(-64.31)"/>
      <polygon class="cls-1" points="27.94 120.02 25.34 119.37 25.34 92.01 27.94 92.66 27.94 120.02"/>
    </g>
  </g>
  <g class="cls-5">
    <polygon class="cls-2" points="48.59 20.85 86.34 36.94 53.21 64.6 72.49 39.87 48.59 20.85"/>
  </g>
</svg>