<?xml version="1.0" encoding="UTF-8"?>
<svg id="Layer_1" data-name="Layer 1" xmlns="http://www.w3.org/2000/svg" viewBox="0 0 128 128">
  <defs>
    <style>
      .cls-1 {
        fill: #1b0049;
      }

      .cls-2, .cls-3 {
        fill: aqua;
      }

      .cls-3 {
        stroke: #1b0049;
        stroke-miterlimit: 10;
        stroke-width: .59px;
      }
    </style>
  </defs>
  <path class="cls-1" d="m88.33,123.75c-16.95.93-40.52,1.5-55.86-6.53-8.57-4.58-11.03-13.05-5.23-21.08,4.31-5.99,10.55-10.12,16.99-13.33,2.58-1.09,5.21-2.49,8.18-2.13,7.15,2.05-6.8,14.97-9.46,17.07-1.89,1.47-3.95,2.78-6.25,3.69C14.5,109.65,1.85,71.57,4.79,54.85c.64-4.36,2.83-9.83,7.89-10.86,0,0,1.66-.5,1.66-.5l13.29-3.92c8.74-2.57,17.78-5.49,26.41-8.47,1.54-.38,7.71-3.22,6.31.51-1.06,2.16-2.32,3.96-3.22,6.14-6.24,13.72,3.86,25.71,14.39,33.55,5.07,3.67,10.36,7.74,16.4,8.3,3.66.16,6.11-2.18,8.11-5.26,3.5-5.53,5.42-11.93,7.55-18.26,2.81-8.71,5.39-17.67,8.63-26.44,6.34-17.56,15.17-34.99,28.91-47.97.63-.6,1.63-.57,2.22.06.55.59.57,1.49.06,2.09-18.25,21.04-25.29,48.21-33.09,74.39-4.36,14.25-11.6,35.62-30.65,26.11-9.98-5.31-20.29-15.71-24.58-26.1-4.17-10.11-1.47-18.44,4.19-27.08.11-.2.16-.52.16-.4,0,.02.03.09.08.1-.53-.03-1.22.12-1.85.29-14.84,4.71-29.13,11.18-43.81,16.41-3.44.9-4.42,4.6-4.95,7.95-2.46,16.81,10.03,57.25,32.67,40.48,1.79-1.34,3.41-2.89,4.98-4.55,2.11-2.39,4.69-4.95,5.7-7.92.05-.23.08-.49.01-.57,0-.03-.42-.15-.87-.1-8.24,1.38-21.11,12.85-21.92,21.3-.45,11.12,23.07,13.57,31.37,14.69,9.05,1.02,18.24,1.43,27.44,1.81,1.93.08,2.02,2.97.05,3.14h0Z"/>
  <g>
    <g>
      <path class="cls-2" d="m137.22,87.48l-4.82,14.33c-.68,2.02-2.19,3.66-4.15,4.49l-38.73,16.46,12.41-40.21c.63-2.04,2.1-3.71,4.04-4.59l13.76-6.26,17.49,15.79Z"/>
      <path class="cls-1" d="m137.41,87.43c-1.66,5.05-3.25,10.11-5.02,15.21-.56,1.26-1.46,2.36-2.59,3.16-.95.73-2.56,1.25-3.63,1.76,0,0-7.29,3.15-7.29,3.15l-29.14,12.6s-1.19.51-1.19.51c0,0,.39-1.23.39-1.23,2.24-7.1,10.45-33.13,12.54-39.74.53-1.98,1.86-3.78,3.66-4.79,4.85-2.26,9.67-4.35,14.5-6.53,0,0,.12-.05.12-.06,0,0,.1.09.1.09l17.55,15.88h0Zm-.38.1l-17.43-15.69s.23.03.21.04c-4.78,2.23-9.65,4.42-14.36,6.68-1.67.98-2.83,2.61-3.32,4.48,0,0-.57,1.9-.57,1.9l-2.29,7.6-9.17,30.39s-.81-.72-.8-.72c0,0,29.3-12.23,29.3-12.23,0,0,7.32-3.06,7.32-3.06,1-.48,2.65-.98,3.53-1.64,1.04-.72,1.88-1.73,2.42-2.88,1.75-4.88,3.43-9.89,5.18-14.86h0Z"/>
    </g>
    <rect class="cls-3" x="121.08" y="68.17" width="23.56" height="13.1" transform="translate(181.44 219.21) rotate(-137.93)"/>
    <polygon class="cls-1" points="113.23 96.48 89.96 123.15 89.08 122.35 113.23 96.48 113.23 96.48"/>
  </g>
</svg>