<?xml version="1.0" encoding="UTF-8"?>
<svg id="Layer_1" data-name="Layer 1" xmlns="http://www.w3.org/2000/svg" viewBox="0 0 128 128">
  <defs>
    <style>
      .cls-1, .cls-2, .cls-3 {
        fill: aqua;
      }

      .cls-4, .cls-5, .cls-2, .cls-6, .cls-3 {
        stroke-miterlimit: 10;
      }

      .cls-4, .cls-2 {
        stroke-width: 1.56px;
      }

      .cls-4, .cls-2, .cls-6, .cls-3 {
        stroke: #1b0049;
      }

      .cls-4, .cls-6 {
        fill: none;
      }

      .cls-5 {
        fill: #1b0049;
        stroke: aqua;
      }

      .cls-5, .cls-3 {
        stroke-width: 1.26px;
      }

      .cls-6 {
        stroke-width: 1.3px;
      }
    </style>
  </defs>
  <g>
    <polygon class="cls-5" points="38.91 20.7 6.54 16.17 4 103.71 63.89 80.97 53.23 32.45 38.91 20.7"/>
    <polygon class="cls-1" points="53.23 32.45 40.6 31.71 38.91 20.7 53.23 32.45"/>
  </g>
  <path class="cls-3" d="m123.18,75.04c.53,1.48.82,3.07.82,4.73,0,7.78-6.31,14.09-14.09,14.09s-14.09-6.31-14.09-14.09,6.31-14.09,14.09-14.09c2.54,0,4.93.67,6.99,1.85l-6.99,12.23,13.27-4.73Z"/>
  <g>
    <polygon class="cls-2" points="114.78 58.72 121.32 11 72.04 19.94 69.21 46.96 114.78 58.72"/>
    <g>
      <line class="cls-6" x1="119.42" y1="24.87" x2="70.86" y2="27.74"/>
      <line class="cls-6" x1="118.35" y1="31.8" x2="70.46" y2="31.62"/>
      <line class="cls-6" x1="117.53" y1="38.67" x2="70.05" y2="35.49"/>
      <line class="cls-6" x1="116.6" y1="45.47" x2="69.65" y2="39.33"/>
      <line class="cls-6" x1="120.38" y1="17.88" x2="71.27" y2="23.83"/>
      <line class="cls-6" x1="115.68" y1="52.21" x2="69.25" y2="43.16"/>
    </g>
    <g>
      <line class="cls-4" x1="90.11" y1="52.11" x2="94.47" y2="15.63"/>
      <line class="cls-4" x1="81.87" y1="50.01" x2="85.6" y2="17.27"/>
      <line class="cls-4" x1="75.15" y1="48.3" x2="78.39" y2="18.6"/>
      <line class="cls-4" x1="100.38" y1="55.27" x2="105.6" y2="14.12"/>
    </g>
  </g>
  <g>
    <rect class="cls-3" x="44.72" y="95.44" width="30.82" height="5.11"/>
    <rect class="cls-3" x="44.72" y="103.67" width="48.97" height="5.11"/>
    <rect class="cls-3" x="44.72" y="111.9" width="10.05" height="5.11"/>
  </g>
</svg>