<?xml version="1.0" encoding="UTF-8"?>
<svg id="Layer_1" data-name="Layer 1" xmlns="http://www.w3.org/2000/svg" viewBox="0 0 128 128">
  <defs>
    <style>
      .cls-1 {
        fill: #1b0049;
      }

      .cls-2 {
        fill: aqua;
      }
    </style>
  </defs>
  <g>
    <path class="cls-2" d="m39.5,83.1l-1.03,6.19,10.21-.33c.33,2.02.86,3.98,1.58,5.85l-6.04,7.85,2.21,5.87,8.68-5.39c1.29,1.57,2.73,3,4.31,4.28l-1.32,9.82,4.85,3.98,4.82-9.09c1.91.72,3.91,1.34,5.99,1.66l3.65,9.2,6.19,1.03-.34-10.27c2.03-.33,3.98-.86,5.85-1.58l7.85,6.04,5.87-2.21-5.39-8.68c1.57-1.29,3-2.73,4.28-4.31l9.82,1.32,3.98-4.85-9.01-4.82c.7-1.87,1.23-3.83,1.55-5.85l9.16-3.78,1.03-6.19-10.21.33c-.33-2.02-.86-3.98-1.58-5.85l6.04-7.85-2.21-5.87-8.68,5.39c-1.29-1.57-2.73-3-4.31-4.28l1.32-9.82-4.85-3.98-4.82,9.01c-1.87-.7-3.83-1.23-5.85-1.55l-3.78-9.16-6.19-1.03.33,10.21c-2.02.33-3.98.86-5.85,1.58l-7.85-6.04-5.87,2.21,5.39,8.68c-1.57,1.29-3,2.73-4.28,4.31l-9.82-1.32-3.98,4.85,9.01,4.82c-.7,1.87-1.23,3.83-1.55,5.85l-9.16,3.78Zm38.85,21.53c-4.55,0-8.99-1.52-12.57-4.29l4.49-6c2.3,1.82,5.14,2.81,8.08,2.81,2.25,0,4.46-.58,6.41-1.69l10.81-.17c-3.78,5.79-10.26,9.34-17.22,9.34Zm20.54-20.54c0,.94-.06,1.88-.19,2.81l-7.43-.89c.09-.63.14-1.28.14-1.92,0-4.63-2.48-8.93-6.48-11.28l-5.32-9.23c10.74.65,19.28,9.6,19.28,20.5Zm-20.54-5.3c2.92,0,5.3,2.38,5.3,5.3s-2.38,5.3-5.3,5.3-5.3-2.38-5.3-5.3,2.38-5.3,5.3-5.3Zm-7.78-13.72l2.95,6.88c-4.9,1.95-8.15,6.64-8.23,11.95l-5.23,9.54c-1.47-2.88-2.25-6.09-2.25-9.35,0-8.32,5.1-15.88,12.76-19.01Z"/>
    <path class="cls-1" d="m51.31,79.83l-.24,1.48-9.17,3.79-.25,1.5,9.3-.3.38,2.32c.3,1.82.78,3.61,1.44,5.32l.54,1.4-6.05,7.86.53,1.42,7.9-4.91,1.49,1.81c1.17,1.42,2.49,2.74,3.92,3.9l1.17.95-1.32,9.83,1.16.95,4.39-8.28,2.21.83c2.08.78,3.81,1.27,5.45,1.52l1.52.23,3.66,9.22,1.48.25-.31-9.36,2.32-.38c1.82-.3,3.61-.78,5.33-1.44l1.4-.54,7.86,6.05,1.42-.53-4.91-7.9,1.81-1.49c1.42-1.17,2.74-2.49,3.9-3.92l.95-1.17,9.83,1.32.96-1.17-8.2-4.39.83-2.2c.65-1.72,1.12-3.51,1.41-5.33l.24-1.48,9.17-3.78.25-1.5-9.3.3-.38-2.32c-.3-1.82-.78-3.61-1.44-5.32l-.54-1.4,6.05-7.86-.53-1.42-7.9,4.91-1.49-1.81c-1.17-1.42-2.49-2.74-3.92-3.9l-1.17-.95,1.33-9.83-1.17-.96-4.39,8.2-2.2-.83c-1.72-.65-3.51-1.12-5.33-1.41l-1.48-.24-3.78-9.17-1.5-.25.3,9.3-2.32.38c-1.82.3-3.61.78-5.32,1.44l-1.4.54-7.86-6.05-1.42.53,4.91,7.9-1.81,1.49c-1.42,1.17-2.74,2.49-3.9,3.92l-.95,1.17-9.83-1.32-.96,1.17,8.2,4.39-.83,2.2c-.65,1.72-1.12,3.51-1.41,5.33Zm47.38,15.86c-4.15,7.31-11.94,11.85-20.33,11.85-5.43,0-10.72-1.91-14.9-5.37l-1.54-1.28,7.93-10.59,1.71,1.53c1.88,1.67,4.29,2.59,6.8,2.59,1.81,0,3.59-.48,5.15-1.39l.48-.28,16.52-.26-1.82,3.2Zm-27.74-11.51c0-4.08,3.32-7.41,7.41-7.41s7.41,3.32,7.41,7.41-3.32,7.41-7.41,7.41-7.41-3.32-7.41-7.41Zm7.41-23.36c12.88,0,23.36,10.48,23.36,23.36,0,1.32-.11,2.65-.33,3.95l-.34,1.98-13.14-1.57.47-2.25c.14-.69.22-1.4.22-2.11,0-3.68-2-7.1-5.22-8.92l-.5-.28-8.17-14.16h3.65Zm-8.13,1.46l1.88-.7,5.21,12.16-2.18.72c-4.2,1.39-7.02,5.3-7.02,9.72v.54l-7.98,14.54-1.88-3.17c-2.13-3.59-3.26-7.71-3.26-11.91,0-9.72,6.12-18.52,15.23-21.91Z"/>
  </g>
  <g>
    <path class="cls-2" d="m62.47,30.62c-.24-1.53-.64-3.02-1.17-4.43l6.82-3.65-3.02-3.67-7.44,1c-.97-1.19-2.05-2.29-3.24-3.26l4.09-6.58-4.45-1.67-5.95,4.58c-1.41-.54-2.9-.95-4.43-1.2l.25-7.74-4.69.78-2.86,6.94c-1.53.24-3.02.64-4.43,1.17l-3.65-6.82-3.67,3.02,1,7.44c-1.19.97-2.29,2.06-3.26,3.24l-6.58-4.09-1.67,4.45,4.58,5.95c-.54,1.41-.95,2.9-1.2,4.43l-7.74-.25.78,4.69,6.94,2.86c.24,1.53.64,3.02,1.17,4.43l-6.82,3.65,3.02,3.67,7.44-1c.97,1.19,2.06,2.29,3.24,3.26l-4.09,6.58,4.45,1.67,5.95-4.58c1.41.54,2.9.95,4.43,1.2l-.26,7.78,4.69-.78,2.76-6.97c1.57-.24,3.09-.71,4.53-1.26l3.65,6.89,3.67-3.02-1-7.44c1.19-.97,2.29-2.05,3.26-3.24l6.58,4.09,1.67-4.45-4.58-5.95c.54-1.41.95-2.9,1.2-4.43l7.74.25-.78-4.69-6.94-2.86Zm-35.54,12.1l8.19.13c1.48.84,3.15,1.28,4.86,1.28,2.23,0,4.38-.75,6.12-2.13l3.4,4.54c-2.71,2.1-6.08,3.25-9.52,3.25-5.27,0-10.18-2.69-13.04-7.07Zm12.09-24.02l-4.03,6.99c-3.03,1.78-4.91,5.03-4.91,8.54,0,.49.04.97.11,1.46l-5.63.67c-.1-.7-.15-1.42-.15-2.13,0-8.26,6.47-15.04,14.61-15.53Zm4.97,15.53c0,2.21-1.8,4.01-4.01,4.01-2.21,0-4.01-1.8-4.01-4.01s1.8-4.01,4.01-4.01c2.21,0,4.01,1.8,4.01,4.01Zm11.55,0c0,2.47-.59,4.9-1.7,7.08l-3.96-7.22c-.06-4.02-2.52-7.57-6.23-9.05l2.23-5.21c5.8,2.38,9.67,8.1,9.67,14.4Z"/>
    <path class="cls-1" d="m59.4,26.97l-.63-1.66,6.21-3.32-.73-.89-7.44,1-.72-.88c-.88-1.09-1.88-2.09-2.96-2.97l-1.37-1.13,3.72-5.99-1.08-.4-5.95,4.58-1.06-.41c-1.3-.5-2.66-.86-4.03-1.09l-1.76-.29.23-7.05-1.13.19-2.87,6.95-1.12.18c-1.38.22-2.73.58-4.04,1.07l-1.66.63-3.32-6.21-.89.73,1,7.44-.88.72c-1.09.88-2.09,1.88-2.97,2.96l-1.13,1.37-5.99-3.72-.4,1.08,4.58,5.95-.41,1.06c-.5,1.3-.86,2.66-1.09,4.03l-.29,1.76-7.05-.23.19,1.13,6.95,2.87.18,1.12c.22,1.38.58,2.73,1.07,4.04l.63,1.66-6.21,3.32.73.89,7.44-1,.72.88c.88,1.09,1.88,2.09,2.96,2.97l1.37,1.13-3.72,5.99,1.08.4,5.95-4.58,1.06.41c1.3.5,2.66.86,4.03,1.09l1.76.29-.23,7.09,1.12-.19,2.77-6.98,1.15-.18c1.24-.19,2.55-.56,4.13-1.15l1.67-.63,3.32,6.27.88-.72-1-7.44.88-.72c1.09-.88,2.09-1.88,2.97-2.95l1.13-1.37,5.99,3.72.4-1.08-4.58-5.95.41-1.06c.5-1.3.86-2.66,1.09-4.03l.29-1.76,7.04.23-.19-1.13-6.95-2.87-.18-1.12c-.22-1.38-.58-2.73-1.07-4.04Zm-36.2,13.62l12.51.2.36.21c1.18.69,2.53,1.06,3.9,1.06,1.9,0,3.73-.7,5.15-1.96l1.3-1.16,6.01,8.03-1.17.97c-3.16,2.62-7.17,4.07-11.29,4.07-6.36,0-12.26-3.44-15.4-8.98l-1.38-2.43Zm16.78-.68c-3.09,0-5.61-2.52-5.61-5.61s2.52-5.61,5.61-5.61c3.09,0,5.61,2.52,5.61,5.61s-2.52,5.61-5.61,5.61Zm2.76-23.31l-6.19,10.72-.38.21c-2.44,1.38-3.95,3.97-3.95,6.76,0,.54.06,1.07.17,1.6l.36,1.71-9.95,1.19-.26-1.5c-.17-.99-.25-1.99-.25-2.99,0-9.76,7.94-17.7,17.7-17.7h2.76Zm14.93,17.7c0,3.18-.85,6.3-2.47,9.02l-1.43,2.4-6.04-11.01v-.41c0-3.35-2.14-6.31-5.32-7.36l-1.65-.55,3.95-9.21,1.42.53c6.9,2.56,11.54,9.23,11.54,16.59Z"/>
  </g>
</svg>