<?xml version="1.0" encoding="UTF-8"?>
<svg id="Layer_1" data-name="Layer 1" xmlns="http://www.w3.org/2000/svg" xmlns:xlink="http://www.w3.org/1999/xlink" viewBox="0 0 128 128">
  <defs>
    <style>
      .cls-1, .cls-2 {
        fill: #1b0049;
      }

      .cls-3 {
        stroke: #1d1049;
        stroke-width: .41px;
      }

      .cls-3, .cls-4, .cls-5, .cls-6 {
        fill: aqua;
      }

      .cls-3, .cls-5, .cls-2 {
        stroke-miterlimit: 10;
      }

      .cls-5 {
        stroke: #1b0049;
      }

      .cls-5, .cls-2 {
        stroke-width: .87px;
      }

      .cls-2 {
        stroke: aqua;
      }

      .cls-6 {
        filter: url(#outer-glow-2);
      }
    </style>
    <filter id="outer-glow-2" filterUnits="userSpaceOnUse">
      <feOffset dx="0" dy="0"/>
      <feGaussianBlur result="blur" stdDeviation="5.02"/>
      <feFlood flood-color="aqua" flood-opacity=".75"/>
      <feComposite in2="blur" operator="in"/>
      <feComposite in="SourceGraphic"/>
    </filter>
  </defs>
  <g>
    <g>
      <g>
        <polygon class="cls-1" points="12.62 121.4 .96 60.2 31.73 55.96 54.21 55.15 52.32 117.59 28.78 124.58 12.62 121.4"/>
        <path class="cls-4" d="m53.59,55.78l-1.86,61.36-22.98,6.82-15.62-3.07L1.67,60.71l30.15-4.16,21.77-.78m1.24-1.25l-1.29.05-21.77.78h-.06s-.06.01-.06.01L1.5,59.52l-1.26.17.24,1.25,11.47,60.18.15.8.8.16,15.62,3.07.29.06.28-.08,22.98-6.82.84-.25.03-.87,1.86-61.36.04-1.29h0Z"/>
      </g>
      <path class="cls-4" d="m28.24,119.24c-1.99-18.07-4.87-36.06-5.57-54.25,1.88,8.62,2.5,18.09,3.33,27.07.69,8.98,1.87,18.39,2.25,27.18h0Z"/>
      <path class="cls-4" d="m18.17,61.46c-3.82.35-7.9-.16-11.6-.56,3.82.15,7.95-.34,11.6.56h0Z"/>
      <path class="cls-4" d="m26.12,60.84c3.45-1.31,7.03-1.95,10.67-2.42,3.6-.56,7.21-1.09,10.82-1.59,0,0,.02.12.02.12-3.55.84-7.1,1.65-10.67,2.42-3.56.87-7.13,1.57-10.82,1.59,0,0-.02-.12-.02-.12h0Z"/>
      <g>
        <polygon class="cls-3" points="4.51 68.62 20.07 70.03 19.45 64.53 3.58 63.47 4.51 68.62"/>
        <polygon class="cls-3" points="5.76 75.54 20.87 77.12 20.33 72.31 4.89 70.7 5.76 75.54"/>
      </g>
    </g>
    <g>
      <g>
        <polygon class="cls-1" points="36.5 85.99 33.68 85.05 34.32 38.28 93.44 37.42 96.35 38.39 87.95 87.74 36.5 85.99"/>
        <path class="cls-4" d="m93.35,38l2.34.78-8.23,48.35-50.85-1.72-2.34-.78.62-45.77,58.46-.86m.18-1.17h-.2s-58.46.86-58.46.86l-1.14.02-.02,1.14-.62,45.77v.86s.8.27.8.27l2.34.78.16.05h.17s50.85,1.73,50.85,1.73l1.02.03.17-1.01,8.23-48.35.17-.99-.95-.32-2.34-.78-.19-.06h0Z"/>
      </g>
      <polygon class="cls-6" points="37.34 41.46 90.49 40.69 83.19 83.61 36.79 82.04 37.34 41.46"/>
      <path class="cls-4" d="m85.4,84.61c1.78-12.66,5.2-30.78,7.41-43.56,0,0,.04,0,.04,0-2.19,12.83-4.84,31.07-7.45,43.55h0Z"/>
      <path class="cls-4" d="m36.74,84.7c13.54.42,32.53.73,45.86,1.55,0,0,0,.04,0,.04-13.25-.12-32.51-.99-45.86-1.59h0Z"/>
      <path class="cls-4" d="m86.79,86.97c-.52-.1-1.44.03-1.69-.5.32-.12.6-.06.89.1.24.13.65.21.8.4h0Z"/>
    </g>
  </g>
  <g>
    <g>
      <path class="cls-2" d="m122.63,46.62l-38.68,20.72c-1.46.78-2.63,2.89-2.57,4.69h0c.05,1.79,1.31,2.53,2.76,1.67l38.54-22.89c.6-.36,1.08-1.57,1.06-2.7h0c-.01-1.14-.51-1.8-1.11-1.48Z"/>
      <path class="cls-5" d="m101.46,60.68c.07,3.25-1.72,7.04-4.1,8.53-2.5,1.57-4.69.03-4.78-3.52-.09-3.56,1.98-7.53,4.5-8.8,2.4-1.2,4.31.52,4.38,3.78Z"/>
    </g>
    <g>
      <path class="cls-2" d="m122.62,33.61l-39.12,13.87c-1.48.53-2.67,2.45-2.61,4.28h0c.06,1.83,1.33,2.8,2.8,2.19l38.98-16.11c.61-.25,1.08-1.38,1.07-2.53h0c-.01-1.15-.51-1.91-1.12-1.7Z"/>
      <path class="cls-5" d="m119.75,36.84c.03,2.66-1.14,5.35-2.67,6.03-1.59.71-2.97-1-3.01-3.85-.04-2.86,1.27-5.62,2.87-6.13s2.77,1.29,2.81,3.95Z"/>
    </g>
    <g>
      <path class="cls-2" d="m122.61,20.44l-39.56,6.8c-1.5.26-2.71,1.99-2.65,3.86h0c.06,1.86,1.35,3.08,2.84,2.74l39.42-9.11c.61-.14,1.09-1.2,1.08-2.36h0c-.01-1.16-.51-2.03-1.13-1.92Z"/>
      <path class="cls-5" d="m109.9,25.15c.05,3.04-1.45,5.91-3.44,6.44s-3.89-1.65-3.96-4.95c-.07-3.31,1.65-6.24,3.74-6.53,2-.27,3.6,1.99,3.65,5.04Z"/>
    </g>
    <g>
      <path class="cls-2" d="m122.6,7.12l-40.01-.48c-1.53-.02-2.75,1.51-2.69,3.41h0c.06,1.9,1.37,3.38,2.89,3.3l39.87-1.9c.62-.03,1.1-1.01,1.09-2.18h0c-.01-1.18-.52-2.14-1.14-2.15Z"/>
      <path class="cls-5" d="m114.01,9.44c.04,2.93-1.33,5.42-3.14,5.57s-3.53-2.28-3.59-5.45c-.06-3.18,1.5-5.69,3.4-5.6s3.28,2.54,3.32,5.48Z"/>
    </g>
  </g>
</svg>