<?xml version="1.0" encoding="UTF-8"?>
<svg id="Layer_1" data-name="Layer 1" xmlns="http://www.w3.org/2000/svg" viewBox="0 0 128 128">
  <defs>
    <style>
      .cls-1, .cls-2, .cls-3 {
        stroke: aqua;
        stroke-miterlimit: 10;
      }

      .cls-1, .cls-3 {
        fill: none;
      }

      .cls-4, .cls-2 {
        fill: #1b0049;
      }

      .cls-5 {
        fill: aqua;
      }

      .cls-2, .cls-3 {
        stroke-width: .5px;
      }
    </style>
  </defs>
  <rect class="cls-4" x="24.2" y="45.18" width="43.11" height="22.5" rx="3.57" ry="3.57"/>
  <polygon class="cls-4" points="105.22 36.35 10.77 36.35 10.77 104.19 38.26 104.19 38.26 116.87 85.96 116.87 85.96 104.55 105.22 104.55 105.22 36.35"/>
  <path class="cls-5" d="m47.05,102.26h0c1.42,0,2.58,1.15,2.58,2.58v10.87h-5.15v-10.87c0-1.42,1.15-2.58,2.58-2.58Z"/>
  <path class="cls-5" d="m54.68,102.26h0c1.42,0,2.58,1.15,2.58,2.58v10.87h-5.15v-10.87c0-1.42,1.15-2.58,2.58-2.58Z"/>
  <path class="cls-5" d="m62.18,102.26h0c1.42,0,2.58,1.15,2.58,2.58v10.87h-5.15v-10.87c0-1.42,1.15-2.58,2.58-2.58Z"/>
  <path class="cls-5" d="m69.81,102.26h0c1.42,0,2.58,1.15,2.58,2.58v10.87h-5.15v-10.87c0-1.42,1.15-2.58,2.58-2.58Z"/>
  <path class="cls-5" d="m77.42,102.26h0c1.42,0,2.58,1.15,2.58,2.58v10.87h-5.15v-10.87c0-1.42,1.15-2.58,2.58-2.58Z"/>
  <rect class="cls-5" x="26.88" y="47.71" width="38.16" height="17.69"/>
  <rect class="cls-5" x="29.41" y="42.65" width="2.53" height="5.05"/>
  <rect class="cls-5" x="34.46" y="42.65" width="2.53" height="5.05"/>
  <rect class="cls-5" x="39.52" y="42.65" width="2.53" height="5.05"/>
  <rect class="cls-5" x="44.57" y="42.65" width="2.53" height="5.05"/>
  <rect class="cls-5" x="49.63" y="42.65" width="2.53" height="5.05"/>
  <rect class="cls-5" x="54.68" y="42.65" width="2.53" height="5.05"/>
  <rect class="cls-5" x="59.73" y="42.65" width="2.53" height="5.05"/>
  <rect class="cls-5" x="66.3" y="48.97" width="2.53" height="5.05" transform="translate(119.07 -16.07) rotate(90)"/>
  <rect class="cls-5" x="66.3" y="54.03" width="2.53" height="5.05" transform="translate(124.12 -11.02) rotate(90)"/>
  <rect class="cls-5" x="66.3" y="59.08" width="2.53" height="5.05" transform="translate(129.18 -5.96) rotate(90)"/>
  <rect class="cls-5" x="23.09" y="59.08" width="2.53" height="5.05" transform="translate(-37.25 85.96) rotate(-90)"/>
  <rect class="cls-5" x="23.09" y="54.03" width="2.53" height="5.05" transform="translate(-32.2 80.91) rotate(-90)"/>
  <rect class="cls-5" x="23.09" y="48.97" width="2.53" height="5.05" transform="translate(-27.14 75.86) rotate(-90)"/>
  <rect class="cls-5" x="29.41" y="65.4" width="2.53" height="5.05"/>
  <rect class="cls-5" x="34.46" y="65.4" width="2.53" height="5.05"/>
  <rect class="cls-5" x="39.52" y="65.4" width="2.53" height="5.05"/>
  <rect class="cls-5" x="44.57" y="65.4" width="2.53" height="5.05"/>
  <rect class="cls-5" x="49.63" y="65.4" width="2.53" height="5.05"/>
  <rect class="cls-5" x="54.68" y="65.4" width="2.53" height="5.05"/>
  <rect class="cls-5" x="59.73" y="65.4" width="2.53" height="5.05"/>
  <polyline class="cls-1" points="21.83 51.95 15.59 54.18 15.59 84.35 33.02 84.35"/>
  <line class="cls-1" x1="22.41" y1="56.79" x2="15.59" y2="59.24"/>
  <polyline class="cls-1" points="33.02 89.23 33.02 79.29 74.53 79.29"/>
  <line class="cls-1" x1="30.57" y1="69.32" x2="33.28" y2="79.55"/>
  <line class="cls-1" x1="35.55" y1="70.1" x2="38.16" y2="79.29"/>
  <line class="cls-1" x1="40.67" y1="69.85" x2="43.35" y2="79.29"/>
  <line class="cls-1" x1="45.59" y1="69.85" x2="48.27" y2="79.29"/>
  <line class="cls-1" x1="50.78" y1="69.65" x2="53.2" y2="79.3"/>
  <line class="cls-1" x1="55.71" y1="69.82" x2="58.38" y2="79.55"/>
  <line class="cls-1" x1="60.89" y1="69.65" x2="63.57" y2="79.29"/>
  <polyline class="cls-1" points="45.93 104.6 45.93 96.52 50.79 89.47 85.91 89.47 91.36 84.35 91.47 76.68 71.14 61.62 91.64 61.62 91.64 51.66 69.52 51.66"/>
  <polyline class="cls-1" points="55.94 104.26 55.94 96.18 60.89 89.44"/>
  <polyline class="cls-1" points="63.65 104.26 63.65 96.18 68.59 89.44"/>
  <polyline class="cls-1" points="71.1 104.26 71.1 96.18 76.04 89.44"/>
  <polyline class="cls-1" points="78.81 104.26 78.81 96.18 83.75 89.44"/>
  <circle class="cls-5" cx="92.59" cy="75.54" r="4.23"/>
  <circle class="cls-5" cx="92.59" cy="62.87" r="4.23"/>
  <circle class="cls-5" cx="92.59" cy="50.24" r="4.23"/>
  <path class="cls-5" d="m126.76,24.5v-7.61h-21.54v105.2h8.69v-39.69h3.35c1.79,0,3.24-1.45,3.24-3.24v-5.47c0-1.79-1.45-3.24-3.24-3.24h-3.35V24.5h12.86Z"/>
  <g>
    <polygon class="cls-3" points="85.34 25.84 114.75 16.13 114.75 10.73 85.34 20.44 85.34 25.84"/>
    <path class="cls-2" d="m114.75,5.76h0s-32.68,10.79-32.68,10.79v43.29c-1.69-1.05-3.91-1.31-6.34-.51-5.31,1.75-9.61,7.83-9.61,13.58s4.3,8.98,9.61,7.23,9.61-7.83,9.61-13.58V30.81l29.41-9.71v27.95c-1.69-1.05-3.91-1.31-6.34-.51-5.31,1.75-9.61,7.83-9.61,13.58s4.3,8.98,9.61,7.23,9.61-7.83,9.61-13.58h0V4.68l-3.27,1.08Zm0,10.37l-29.41,9.71v-5.4l29.41-9.71v5.4Z"/>
  </g>
</svg>