<?xml version="1.0" encoding="UTF-8"?>
<svg id="Layer_1" data-name="Layer 1" xmlns="http://www.w3.org/2000/svg" viewBox="0 0 128 128">
  <defs>
    <style>
      .cls-1 {
        fill: #1b0049;
      }

      .cls-2 {
        fill: aqua;
      }
    </style>
  </defs>
  <path class="cls-2" d="m92.73,68.97c-1.56,15.17-15.66,18.23-32.67,18.1-17.01-.14-30.26-3.42-27.62-18.59,4.45-25.57-5.57-24.86-5.57-24.86,1.07,4.95-.73,24.2-1.6,28.96-2.79,15.35,7.82,14.93,21.72,19.91,5.01,1.78,6.58,8,6.17,10.83-1.44,10.01-4.38,12.42-10.83,13.5-1.52.15-2.98.34-4.37.54,0,0,0,0,0,0h0c-8.68,1.29-14.64,3.54-15.09,6.16l64.23.49c.27-2.62-5.05-4.95-13.34-6.37h0s0,0,0,0c-1.33-.23-2.74-.43-4.21-.61-6.14-1.17-8.41-3.63-7.08-13.63.38-2.83,3.65-9.01,9.14-10.7,15.23-4.74,25.69-4.16,27.15-19.5.45-4.77,3.97-23.98,6.4-28.9,0,0-9.79-.87-12.41,24.69Z"/>
  <path class="cls-1" d="m39.75,42.55l-4.17,24.42c-2.33,13.65,9.61,16.6,24.94,16.72,15.32.12,28.04-2.62,29.48-16.27l2.59-24.42-52.84-.45Z"/>
  <path class="cls-1" d="m92.78,41.27l2.43-22.95c1.24-11.73-9.77-14.19-23.67-14.32-13.9-.13-25.58,2.13-27.58,13.87l-3.92,22.95,52.73.45Z"/>
  <path class="cls-2" d="m92.78,41.27l2.43-22.95c1.24-11.73-9.77-14.19-23.67-14.32-13.9-.13-25.58,2.13-27.58,13.87l-3.92,22.95,52.73.45Z"/>
  <g>
    <path class="cls-1" d="m87.69,12.53c-2.04-.02-3.87,1.35-4.07,3.07s1.29,3.14,3.35,3.16c2.06.02,3.88-1.37,4.08-3.09s-1.31-3.12-3.35-3.14Z"/>
    <path class="cls-1" d="m76.15,12.43c-2.04-.02-3.89,1.35-4.12,3.07s1.25,3.14,3.3,3.16,3.91-1.37,4.12-3.09-1.26-3.12-3.31-3.14Z"/>
    <path class="cls-1" d="m64.61,12.33c-2.04-.02-3.91,1.35-4.17,3.07s1.2,3.14,3.26,3.16,3.93-1.37,4.17-3.09-1.22-3.12-3.26-3.14Z"/>
    <path class="cls-1" d="m48.86,15.29c-.28,1.72,1.15,3.14,3.21,3.16s3.95-1.37,4.22-3.09-1.17-3.12-3.22-3.14c-2.04-.02-3.93,1.35-4.21,3.07Z"/>
    <path class="cls-1" d="m72.72,22.66c.23-1.75-1.25-3.17-3.31-3.19-2.06-.02-3.93,1.38-4.18,3.13-.25,1.76,1.23,3.2,3.31,3.22,2.08.02,3.95-1.4,4.19-3.15Z"/>
    <path class="cls-1" d="m57.76,19.36c-2.06-.02-3.96,1.38-4.23,3.13s1.18,3.2,3.26,3.22,3.98-1.4,4.24-3.15-1.2-3.17-3.27-3.19Z"/>
    <path class="cls-1" d="m42.77,24.85c.57.46,1.36.75,2.28.75,2.08.02,4-1.4,4.28-3.15s-1.16-3.17-3.22-3.19c-.91,0-1.78.26-2.5.7"/>
    <path class="cls-1" d="m94.99,20.42c-.6-.46-1.4-.74-2.3-.74-2.06-.02-3.89,1.38-4.09,3.13s1.32,3.2,3.4,3.22c.91,0,1.78-.26,2.48-.71"/>
    <path class="cls-1" d="m84.4,22.76c.21-1.75-1.3-3.17-3.36-3.19s-3.91,1.38-4.14,3.13,1.28,3.2,3.35,3.22,3.93-1.4,4.14-3.15Z"/>
    <path class="cls-1" d="m86.03,26.83c-2.08-.02-3.94,1.4-4.15,3.18s1.31,3.26,3.4,3.28c2.1.02,3.96-1.42,4.16-3.21s-1.33-3.23-3.41-3.25Z"/>
    <path class="cls-1" d="m73.44,33.19c2.1.02,3.98-1.42,4.21-3.21s-1.28-3.23-3.36-3.25-3.96,1.4-4.2,3.18,1.26,3.26,3.36,3.28Z"/>
    <path class="cls-1" d="m61.59,33.09c2.1.02,4-1.42,4.25-3.21s-1.23-3.23-3.31-3.25-3.98,1.4-4.25,3.18,1.21,3.26,3.31,3.28Z"/>
    <path class="cls-1" d="m50.78,26.53c-2.08-.02-4.01,1.4-4.3,3.18s1.17,3.26,3.26,3.28,4.02-1.42,4.3-3.21c.28-1.78-1.19-3.23-3.27-3.25Z"/>
    <path class="cls-1" d="m63.12,37.27c-.26,1.82,1.24,3.32,3.36,3.34,2.12.02,4.03-1.45,4.27-3.27s-1.26-3.29-3.36-3.31c-2.1-.02-4.01,1.43-4.27,3.24Z"/>
    <path class="cls-1" d="m51.21,37.17c-.29,1.82,1.2,3.32,3.31,3.34s4.05-1.45,4.32-3.27-1.22-3.29-3.32-3.31c-2.1-.02-4.03,1.43-4.32,3.24Z"/>
    <path class="cls-1" d="m40.25,39.62c.58.48,1.39.77,2.31.78,2.12.02,4.08-1.45,4.37-3.27.3-1.81-1.17-3.29-3.27-3.31-.92,0-1.81.27-2.55.73"/>
    <path class="cls-1" d="m93.44,35c-.61-.47-1.42-.76-2.34-.77-2.1-.02-3.97,1.43-4.17,3.24s1.34,3.32,3.46,3.34c.93,0,1.81-.27,2.52-.74"/>
    <path class="cls-1" d="m75.03,37.37c-.23,1.82,1.29,3.32,3.41,3.34,2.12.02,4.01-1.45,4.22-3.27.22-1.81-1.31-3.29-3.41-3.31-2.1-.02-3.99,1.43-4.22,3.24Z"/>
    <path class="cls-1" d="m74.61,8.5c.23-1.69-1.23-3.06-3.26-3.08s-3.86,1.33-4.1,3.02,1.22,3.09,3.26,3.1,3.88-1.35,4.11-3.04Z"/>
    <path class="cls-1" d="m63.12,8.4c.25-1.69-1.19-3.06-3.22-3.08s-3.88,1.33-4.15,3.02,1.17,3.09,3.21,3.1,3.9-1.35,4.15-3.04Z"/>
    <path class="cls-1" d="m46.73,11.27c.23.04.46.06.71.07,2.04.02,3.92-1.35,4.2-3.04.06-.36.04-.7-.05-1.02"/>
    <path class="cls-1" d="m94.28,11.69c-.24.04-.48.06-.73.05-2.04-.02-3.54-1.41-3.34-3.1.04-.36.16-.7.33-1.01"/>
    <path class="cls-1" d="m82.03,11.64c2.04.02,3.86-1.35,4.06-3.04s-1.28-3.06-3.3-3.08-3.84,1.33-4.06,3.02,1.26,3.09,3.3,3.1Z"/>
    <line class="cls-1" x1="94.47" y1="25.3" x2="94.99" y2="20.42"/>
    <line class="cls-1" x1="92.91" y1="40.07" x2="93.44" y2="35"/>
    <line class="cls-1" x1="43.61" y1="19.96" x2="42.77" y2="24.85"/>
    <line class="cls-1" x1="41.12" y1="34.55" x2="40.25" y2="39.62"/>
    <path class="cls-1" d="m94.28,11.69c-.82-1.69-2.09-3.02-3.74-4.07"/>
    <path class="cls-1" d="m46.73,11.27c1.28-1.67,2.92-2.98,4.86-3.99"/>
  </g>
</svg>