<?xml version="1.0" encoding="UTF-8"?>
<svg id="Layer_1" data-name="Layer 1" xmlns="http://www.w3.org/2000/svg" viewBox="0 0 128 128">
  <defs>
    <style>
      .cls-1 {
        fill: #1b0049;
      }

      .cls-2 {
        fill: aqua;
      }
    </style>
  </defs>
  <path class="cls-2" d="m115.85,7.26H10.24c-2.72,0-4.93,2.21-4.93,4.93v105.61c0,2.72,2.21,4.93,4.93,4.93h105.61c2.72,0,4.93-2.21,4.93-4.93V12.19c0-2.72-2.21-4.93-4.93-4.93Zm-33.9,60.22c-1.07,8.5-7.93,15.36-16.43,16.43-12.47,1.57-22.96-8.92-21.39-21.39,1.07-8.5,7.93-15.36,16.43-16.43,12.47-1.57,22.96,8.92,21.39,21.39Z"/>
  <g>
    <path class="cls-1" d="m63.04,39.03c-14.34,0-25.97,11.63-25.97,25.97s11.63,25.97,25.97,25.97,25.97-11.63,25.97-25.97-11.63-25.97-25.97-25.97Zm0,45.03c-10.53,0-19.07-8.54-19.07-19.07s8.54-19.07,19.07-19.07,19.07,8.54,19.07,19.07-8.54,19.07-19.07,19.07Z"/>
    <path class="cls-1" d="m96.75,32.04h.02c-9.9-9.9-13.54-19.11-13.54-24.81l-40.36.06c0,5.7-3.7,14.91-13.6,24.81h.01c-8.28,8.5-13.38,20.1-13.38,32.89,0,26.04,21.11,47.15,47.15,47.15s47.15-21.11,47.15-47.15c0-12.83-5.13-24.46-13.44-32.96Zm-33.71,65.25c-17.83,0-32.29-14.46-32.29-32.29s14.46-32.29,32.29-32.29,32.29,14.46,32.29,32.29-14.46,32.29-32.29,32.29Z"/>
  </g>
  <polygon class="cls-2" points="63.05 28.43 55.4 30.98 63.04 23.34 63.04 23.34 70.69 30.98 63.03 28.43 63.05 28.43"/>
</svg>