<?xml version="1.0" encoding="UTF-8"?>
<svg id="Layer_1" data-name="Layer 1" xmlns="http://www.w3.org/2000/svg" xmlns:xlink="http://www.w3.org/1999/xlink" viewBox="0 0 128 128">
  <defs>
    <style>
      .cls-1 {
        fill: #fff;
      }

      .cls-2 {
        fill: #1b0049;
      }

      .cls-3 {
        fill: aqua;
      }
    </style>
    <filter id="outer-glow-1" filterUnits="userSpaceOnUse">
      <feOffset dx="0" dy="0"/>
      <feGaussianBlur result="blur" stdDeviation="6.22"/>
      <feFlood flood-color="aqua" flood-opacity=".75"/>
      <feComposite in2="blur" operator="in"/>
      <feComposite in="SourceGraphic"/>
    </filter>
  </defs>
  <rect class="cls-2" x="6.19" y="25.24" width="115.62" height="77.52" rx="5.25" ry="5.25"/>
  <rect class="cls-3" x="8.57" y="32.5" width="110.86" height="66.43" rx="4.76" ry="4.76"/>
  <rect class="cls-2" x="94.04" y="37.08" width="22.47" height="5.92" rx="2.19" ry="2.19"/>
  <g>
    <circle class="cls-2" cx="80.17" cy="67.71" r="27.68"/>
    <circle class="cls-3" cx="80.17" cy="67.53" r="24.71"/>
    <path class="cls-3" d="m80.35,64.83c-8.21,0-14.87,6.66-14.87,14.87s6.66,14.87,14.87,14.87,14.87-6.66,14.87-14.87-6.66-14.87-14.87-14.87Zm0,27.41c-6.93,0-12.54-5.62-12.54-12.54s5.62-12.54,12.54-12.54,12.54,5.62,12.54,12.54-5.62,12.54-12.54,12.54Z"/>
    <path class="cls-2" d="m61.11,72.44c0-11.44,8.61-20.71,19.23-20.71s19.23,9.27,19.23,20.71v1.47c0-10.62-8.61-19.23-19.23-19.23s-19.23,8.61-19.23,19.23v-1.47Z"/>
    <path class="cls-3" d="m64.3,76.46c0,2.68.64,5.21,1.8,7.43.64,2.17,1.74,4.15,3.22,5.78-4.97-3.48-8.21-9.24-8.21-15.77,0-10.62,8.61-19.23,19.23-19.23s19.23,8.61,19.23,19.23c0,6.52-3.25,12.29-8.21,15.77,1.39-1.59,2.64-3.71,3.25-5.79.96-1.81,1.77-5.37,1.77-7.43,0-8.8-7.18-16.04-16.04-16.04s-16.04,7.13-16.04,16.04Z"/>
    <path class="cls-2" d="m66.12,83.89c-1.16-2.22-1.82-4.75-1.82-7.43,0-8.86,7.18-16.04,16.04-16.04s16.04,7.18,16.04,16.04c0,2.05-.84,5.77-1.77,7.43.39-1.33.6-2.73.6-4.19,0-8.21-6.66-14.87-14.87-14.87s-14.87,6.66-14.87,14.87c0,1.38.29,2.92.64,4.19Z"/>
    <circle class="cls-2" cx="80.35" cy="79.7" r="12.54" transform="translate(-11.19 146.24) rotate(-80.78)"/>
  </g>
  <g>
    <circle class="cls-3" cx="76.25" cy="42.01" r="6.73"/>
    <circle class="cls-2" cx="76.23" cy="42.12" r="4.14"/>
  </g>
  <g>
    <circle class="cls-3" cx="63.03" cy="46.26" r="4.14"/>
    <circle class="cls-2" cx="63.03" cy="46.26" r="2.8"/>
  </g>
  <rect class="cls-2" x="39.08" y="57.9" width="5.54" height="23.26" rx="2.77" ry="2.77"/>
  <rect class="cls-2" x="28.02" y="55.7" width="5.54" height="27.68" rx="2.77" ry="2.77"/>
  <g>
    <ellipse class="cls-2" cx="39.08" cy="30.12" rx="10.03" ry="4.6"/>
    <g>
      <path class="cls-3" d="m30.46,29.54c0,1.39,3.72,2.51,8.3,2.51s8.3-1.12,8.3-2.51v-1.65c0-1.39-3.72-2.51-8.3-2.51s-8.3,1.12-8.3,2.51v1.65Z"/>
      <path class="cls-1" d="m31.84,28.18c.33.49,1.03.43,1.55.56,3.73.47,7.67.84,11.36-.06.26-.11.58-.21.66-.51-.02.32-.34.51-.6.65-2.04,1.2-12.13,1.98-12.97-.65h0Z"/>
    </g>
  </g>
</svg>