<?xml version="1.0" encoding="UTF-8"?>
<svg id="Layer_1" data-name="Layer 1" xmlns="http://www.w3.org/2000/svg" xmlns:xlink="http://www.w3.org/1999/xlink" viewBox="0 0 128 128">
  <defs>
    <style>
      .cls-1 {
        fill: #1b0049;
      }

      .cls-2 {
        fill: aqua;
      }
    </style>
    <filter id="outer-glow-1" filterUnits="userSpaceOnUse">
      <feOffset dx="0" dy="0"/>
      <feGaussianBlur result="blur" stdDeviation="6.22"/>
      <feFlood flood-color="aqua" flood-opacity=".75"/>
      <feComposite in2="blur" operator="in"/>
      <feComposite in="SourceGraphic"/>
    </filter>
  </defs>
  <path class="cls-1" d="m118.87,4H9.13c-2.83,0-5.13,2.29-5.13,5.13v109.75c0,2.83,2.29,5.13,5.13,5.13h109.75c2.83,0,5.13-2.29,5.13-5.13V9.13c0-2.83-2.29-5.13-5.13-5.13Zm-35.22,62.58c-1.11,8.83-8.24,15.96-17.07,17.07-12.96,1.63-23.86-9.27-22.23-22.23,1.11-8.83,8.24-15.96,17.07-17.07,12.96-1.63,23.86,9.27,22.23,22.23Z"/>
  <path class="cls-2" d="m64,15c-27.06,0-49,21.94-49,49s21.94,49,49,49,49-21.94,49-49S91.06,15,64,15Zm0,68.81c-10.94,0-19.81-8.87-19.81-19.81s8.87-19.81,19.81-19.81,19.81,8.87,19.81,19.81-8.87,19.81-19.81,19.81Z"/>
  <path class="cls-1" d="m64,24.56c-21.78,0-39.44,17.66-39.44,39.44s17.66,39.44,39.44,39.44,39.44-17.66,39.44-39.44-17.66-39.44-39.44-39.44Zm0,66.42c-14.9,0-26.98-12.08-26.98-26.98s12.08-26.98,26.98-26.98,26.98,12.08,26.98,26.98-12.08,26.98-26.98,26.98Z"/>
  <circle class="cls-2" cx="15" cy="15" r="3.98"/>
</svg>