<?xml version="1.0" encoding="UTF-8"?>
<svg id="Layer_1" data-name="Layer 1" xmlns="http://www.w3.org/2000/svg" xmlns:xlink="http://www.w3.org/1999/xlink" viewBox="0 0 128 128">
  <defs>
    <style>
      .cls-1 {
        fill: #1b0049;
      }

      .cls-2, .cls-3, .cls-4 {
        fill: aqua;
      }

      .cls-3 {
        stroke: #1d1049;
        stroke-miterlimit: 10;
        stroke-width: .51px;
      }

      .cls-4 {
        filter: url(#outer-glow-1);
      }
    </style>
    <filter id="outer-glow-1" filterUnits="userSpaceOnUse">
      <feOffset dx="0" dy="0"/>
      <feGaussianBlur result="blur" stdDeviation="6.32"/>
      <feFlood flood-color="aqua" flood-opacity=".75"/>
      <feComposite in2="blur" operator="in"/>
      <feComposite in="SourceGraphic"/>
    </filter>
  </defs>
  <g>
    <g>
      <polygon class="cls-1" points="18.56 114.94 3.87 37.81 42.65 32.46 70.98 31.45 68.59 110.14 38.93 118.94 18.56 114.94"/>
      <path class="cls-2" d="m70.19,32.24l-2.34,77.33-28.96,8.59-19.68-3.87L4.76,38.45l37.99-5.24,27.44-.98m1.57-1.58l-1.62.06-27.44.98h-.08s-.08.01-.08.01l-37.99,5.24-1.58.22.3,1.57,14.45,75.84.19,1.01,1.01.2,19.68,3.87.37.07.36-.11,28.96-8.59,1.05-.31.03-1.1,2.34-77.33.05-1.62h0Z"/>
    </g>
    <path class="cls-2" d="m38.25,112.21c-2.44-22.15-6.21-46.15-7.02-68.36,0,0,.15-.02.15-.02,1.02,5.65,1.71,11.34,2.44,17.02.68,5.69,1.1,11.4,1.6,17.1.78,8.52,2.28,25.71,2.98,34.23,0,0-.15.02-.15.02h0Z"/>
    <path class="cls-2" d="m25.56,39.4c-2.45.3-4.88.19-7.32-.05-2.38-.24-5.07-.24-7.29-.66,4.82.19,10.01-.44,14.61.71h0Z"/>
    <path class="cls-2" d="m35.57,38.62c4.35-1.65,8.86-2.45,13.44-3.05,3.39-.53,10.23-1.54,13.63-2.01,0,0,.03.15.03.15-3.35.8-10.08,2.32-13.44,3.05-4.48,1.1-8.98,1.98-13.63,2.01,0,0-.03-.15-.03-.15h0Z"/>
    <g>
      <polygon class="cls-3" points="8.35 48.43 27.95 50.2 27.17 43.26 7.18 41.94 8.35 48.43"/>
      <polygon class="cls-3" points="9.92 57.14 28.96 59.13 28.28 53.07 8.82 51.04 9.92 57.14"/>
    </g>
  </g>
  <g>
    <g>
      <polygon class="cls-1" points="48.66 70.32 45.1 69.13 45.9 10.19 120.41 9.1 124.07 10.32 113.49 72.51 48.66 70.32"/>
      <path class="cls-2" d="m120.29,9.84l2.94.98-10.37,60.93-64.08-2.17-2.94-.98.78-57.68,73.66-1.08m.23-1.48h-.25s-73.66,1.08-73.66,1.08l-1.43.02-.02,1.43-.78,57.68v1.08s1.01.34,1.01.34l2.94.98.2.07h.21s64.08,2.17,64.08,2.17l1.29.04.22-1.27,10.37-60.93.21-1.25-1.2-.4-2.94-.98-.24-.08h0Z"/>
    </g>
    <polygon class="cls-4" points="49.71 14.2 116.7 13.22 107.49 67.31 49.02 65.34 49.71 14.2"/>
    <path class="cls-2" d="m110.28,68.57c2.25-15.96,6.56-38.79,9.34-54.89,0,0,.05,0,.05,0-2.76,16.17-6.1,39.15-9.39,54.88h0Z"/>
    <path class="cls-2" d="m48.96,68.68c17.06.53,41,.92,57.79,1.95,0,0,0,.05,0,.05-16.69-.15-40.97-1.25-57.79-2h0Z"/>
    <path class="cls-2" d="m112.03,71.55c-.62-.11-1.88.01-2.13-.63.41-.15.76-.07,1.12.12.28.15.92.32,1.01.51h0Z"/>
  </g>
</svg>