<?xml version="1.0" encoding="UTF-8"?>
<svg id="Layer_1" data-name="Layer 1" xmlns="http://www.w3.org/2000/svg" viewBox="0 0 128 128">
  <defs>
    <style>
      .cls-1 {
        fill: #1b0049;
      }

      .cls-2, .cls-3 {
        fill: aqua;
      }

      .cls-3 {
        stroke: #1b0049;
        stroke-miterlimit: 10;
        stroke-width: 1.7px;
      }
    </style>
  </defs>
  <g>
    <g>
      <polygon class="cls-1" points="10.28 81.43 94.9 73.2 124.95 103.86 16.23 125.01 10.28 81.43"/>
      <path class="cls-2" d="m94.57,74.08l28.66,29.24-106.29,20.67-5.71-41.81,83.33-8.11m.65-1.77l-.81.08-83.33,8.11-1.76.17.24,1.75,5.71,41.81.24,1.79,1.77-.34,106.29-20.67,3.11-.6-2.22-2.26-28.66-29.24-.57-.58h0Z"/>
    </g>
    <g>
      <g>
        <polygon class="cls-3" points="23.88 91.37 16.13 92.32 15.1 86.14 22.47 85.35 23.88 91.37"/>
        <polygon class="cls-3" points="31.36 90.46 23.88 91.37 22.47 85.35 29.6 84.59 31.36 90.46"/>
        <polygon class="cls-3" points="38.59 89.58 31.36 90.46 29.6 84.59 36.5 83.85 38.59 89.58"/>
        <polygon class="cls-3" points="45.58 88.74 38.59 89.58 36.5 83.85 43.18 83.13 45.58 88.74"/>
        <polygon class="cls-3" points="52.33 87.91 45.58 88.74 43.18 83.13 49.64 82.44 52.33 87.91"/>
        <polygon class="cls-3" points="58.86 87.12 52.33 87.91 49.64 82.44 55.91 81.77 58.86 87.12"/>
        <polygon class="cls-3" points="65.18 86.35 58.86 87.12 55.91 81.77 61.98 81.12 65.18 86.35"/>
        <polygon class="cls-3" points="71.3 85.61 65.18 86.35 61.98 81.12 67.87 80.48 71.3 85.61"/>
        <polygon class="cls-3" points="77.24 84.89 71.3 85.61 67.87 80.48 73.58 79.87 77.24 84.89"/>
        <polygon class="cls-3" points="82.99 84.19 77.24 84.89 73.58 79.87 79.13 79.28 82.99 84.19"/>
        <polygon class="cls-3" points="88.56 83.51 82.99 84.19 79.13 79.28 84.52 78.7 88.56 83.51"/>
        <polygon class="cls-3" points="93.98 82.85 88.56 83.51 84.52 78.7 89.76 78.14 93.98 82.85"/>
        <polygon class="cls-3" points="99.23 82.21 93.98 82.85 89.76 78.14 94.84 77.59 99.23 82.21"/>
      </g>
      <g>
        <polygon class="cls-3" points="27.31 97.83 19.21 98.94 17.96 92.09 25.65 91.16 27.31 97.83"/>
        <polygon class="cls-3" points="35.12 96.75 27.31 97.83 25.65 91.16 33.07 90.26 35.12 96.75"/>
        <polygon class="cls-3" points="42.64 95.72 35.12 96.75 33.07 90.26 40.24 89.38 42.64 95.72"/>
        <polygon class="cls-3" points="49.9 94.72 42.64 95.72 40.24 89.38 47.17 88.54 49.9 94.72"/>
        <polygon class="cls-3" points="56.91 93.75 49.9 94.72 47.17 88.54 53.87 87.73 56.91 93.75"/>
        <polygon class="cls-3" points="63.68 92.82 56.91 93.75 53.87 87.73 60.35 86.94 63.68 92.82"/>
        <polygon class="cls-3" points="70.22 91.92 63.68 92.82 60.35 86.94 66.63 86.18 70.22 91.92"/>
        <polygon class="cls-3" points="76.54 91.05 70.22 91.92 66.63 86.18 72.71 85.44 76.54 91.05"/>
        <polygon class="cls-3" points="82.66 90.21 76.54 91.05 72.71 85.44 78.59 84.72 82.66 90.21"/>
        <polygon class="cls-3" points="88.58 89.39 82.66 90.21 78.59 84.72 84.3 84.03 88.58 89.39"/>
        <polygon class="cls-3" points="94.32 88.6 88.58 89.39 84.3 84.03 89.84 83.35 94.32 88.6"/>
        <polygon class="cls-3" points="99.88 87.83 94.32 88.6 89.84 83.35 95.22 82.7 99.88 87.83"/>
        <polygon class="cls-3" points="105.27 87.09 99.88 87.83 95.22 82.7 100.43 82.07 105.27 87.09"/>
      </g>
      <g>
        <polygon class="cls-3" points="32.78 104.74 24.36 106.05 22.76 98.46 30.73 97.36 32.78 104.74"/>
        <polygon class="cls-3" points="40.88 103.48 32.78 104.74 30.73 97.36 38.41 96.3 40.88 103.48"/>
        <polygon class="cls-3" points="48.66 102.26 40.88 103.48 38.41 96.3 45.82 95.28 48.66 102.26"/>
        <polygon class="cls-3" points="56.16 101.09 48.66 102.26 45.82 95.28 52.97 94.29 56.16 101.09"/>
        <polygon class="cls-3" points="63.39 99.97 56.16 101.09 52.97 94.29 59.87 93.34 63.39 99.97"/>
        <polygon class="cls-3" points="70.36 98.88 63.39 99.97 59.87 93.34 66.54 92.43 70.36 98.88"/>
        <polygon class="cls-3" points="77.08 97.83 70.36 98.88 66.54 92.43 72.99 91.54 77.08 97.83"/>
        <polygon class="cls-3" points="83.57 96.82 77.08 97.83 72.99 91.54 79.22 90.68 83.57 96.82"/>
        <polygon class="cls-3" points="89.84 95.84 83.57 96.82 79.22 90.68 85.25 89.85 89.84 95.84"/>
        <polygon class="cls-3" points="95.9 94.9 89.84 95.84 85.25 89.85 91.09 89.04 95.9 94.9"/>
        <polygon class="cls-3" points="101.77 93.98 95.9 94.9 91.09 89.04 96.75 88.26 101.77 93.98"/>
        <polygon class="cls-3" points="107.44 93.1 101.77 93.98 96.75 88.26 102.23 87.51 107.44 93.1"/>
      </g>
      <g>
        <polygon class="cls-3" points="28.39 114.25 19.18 115.88 17.77 107.08 26.45 105.73 28.39 114.25"/>
        <polygon class="cls-3" points="37.21 112.69 28.39 114.25 26.45 105.73 34.79 104.43 37.21 112.69"/>
        <polygon class="cls-3" points="45.68 111.19 37.21 112.69 34.79 104.43 42.8 103.18 45.68 111.19"/>
        <polygon class="cls-3" points="53.81 109.76 45.68 111.19 42.8 103.18 50.52 101.97 53.81 109.76"/>
        <polygon class="cls-3" points="90.03 103.35 53.81 109.76 50.52 101.97 85.12 96.58 90.03 103.35"/>
        <polygon class="cls-3" points="96.49 102.21 90.03 103.35 85.12 96.58 91.34 95.61 96.49 102.21"/>
        <polygon class="cls-3" points="102.74 101.11 96.49 102.21 91.34 95.61 97.35 94.67 102.74 101.11"/>
        <polygon class="cls-3" points="108.76 100.04 102.74 101.11 97.35 94.67 103.17 93.76 108.76 100.04"/>
        <polygon class="cls-3" points="114.59 99.01 108.76 100.04 103.17 93.76 108.8 92.88 114.59 99.01"/>
      </g>
    </g>
  </g>
  <g>
    <g>
      <g>
        <polygon class="cls-1" points="3.83 9.6 107.51 3.08 95.11 74.24 10.67 82.9 3.83 9.6"/>
        <path class="cls-2" d="m106.49,4l-12.11,69.45-82.94,8.51L4.76,10.39l101.73-6.39m2.05-1.84l-2.16.14L4.65,8.69l-1.75.11.16,1.75,6.68,71.57.16,1.71,1.71-.18,82.94-8.51,1.28-.13.22-1.27L108.17,4.29l.37-2.13h0Z"/>
      </g>
      <polygon class="cls-2" points="14.91 77.49 9.96 16.14 101.32 10.09 91.56 69.8 14.91 77.49"/>
    </g>
    <g>
      <polygon class="cls-1" points="16.53 21.9 66.52 18.47 64.75 44.25 18.74 47.95 16.53 21.9"/>
      <path class="cls-2" d="m65.6,19.39l-1.65,24.07-44.44,3.57-2.07-24.34,48.15-3.3m1.83-1.83l-1.95.13-48.15,3.3-1.73.12.15,1.73,2.07,24.34.14,1.69,1.69-.14,44.44-3.57,1.46-.12.1-1.46,1.65-24.07.13-1.95h0Z"/>
    </g>
    <g>
      <polygon class="cls-1" points="29.33 32.21 79.35 28.78 75.98 54.68 30.5 58.34 29.33 32.21"/>
      <path class="cls-2" d="m78.37,29.7l-3.14,24.19-43.92,3.53-1.09-24.42,48.15-3.3m1.96-1.84l-2.07.14-48.15,3.3-1.66.11.07,1.66,1.09,24.42.08,1.76,1.76-.14,43.92-3.53,1.38-.11.18-1.37,3.14-24.19.27-2.06h0Z"/>
    </g>
  </g>
</svg>