<?xml version="1.0" encoding="UTF-8"?>
<svg id="Layer_1" data-name="Layer 1" xmlns="http://www.w3.org/2000/svg" viewBox="0 0 128 128">
  <defs>
    <style>
      .cls-1 {
        fill: #1b0049;
      }

      .cls-2 {
        fill: aqua;
      }
    </style>
  </defs>
  <g>
    <path class="cls-1" d="m29.09,14.09c-1.56,0-2.7.94-3.37,2.5L5.42,79.67c-1.2,4.06-.78,10.05,1.39,16.42h0c3.41,10.01,10.06,17.33,15.21,17.36l84.48.45c5.15.03,11.67-7.23,14.89-17.2h0c2.05-6.35,2.36-12.33,1.09-16.4l-21.47-63.31c-.7-1.56-1.86-2.52-3.42-2.53l-68.5-.37Z"/>
    <path class="cls-2" d="m29.09,14.09c-1.55-.05-2.82,1.12-3.37,2.5,0,0-11.45,35.59-11.45,35.59-1.88,5.86-6.77,21.02-8.59,26.69-3,9.72,2,22.99,8.66,30.25,2.11,2.19,4.79,4.37,7.99,4.33,0,0,4.67.03,4.67.03,18.64.08,56.14.32,74.78.4,0,0,4.67.03,4.67.03,7.46-.59,12.52-10.33,14.74-16.63,1.9-5.82,3.09-12.43.8-18.31,0,0-3.01-8.85-3.01-8.85-3.79-11.25-14.04-41.5-17.97-53.12-.31-.69-.75-1.34-1.35-1.82-.59-.48-1.36-.73-2.12-.72,0,0-4.56-.02-4.56-.02-16.47-.09-47.13-.25-63.89-.34h0Zm.01-1.98c19.02.32,49.71.4,68.45.6,2.22-.11,4.44,1.72,5.15,3.71,4.14,11.76,8.07,23.59,12.73,35.18,3.43,8.71,7.22,17.31,10.37,26.12,2.5,6.71,1.34,14.28-.81,20.84-2.77,7.8-7.89,17.14-16.64,19.25-1.2.25-5.3.17-6.59.17-21.11-.13-58.67-.25-79.74-.37-14.51-.84-24.61-27.05-20.53-39.41C6.7,61.23,17.66,32.97,23.84,15.98c.71-2.03,2.95-3.99,5.27-3.87h0Z"/>
  </g>
  <path class="cls-2" d="m7.87,76.47c1.81-1.57,4.3-2.15,6.65-2.12,0,0,7.06-.16,7.06-.16l14.12-.17c25.71-.22,51.91.01,77.64.86,2.35,0,4.83.62,6.63,2.19-1.92-1.41-4.32-1.85-6.63-1.73-25.74.57-51.93.52-77.64.02,0,0-14.12-.32-14.12-.32l-7.06-.23c-2.31-.15-4.72.24-6.65,1.66h0Z"/>
</svg>