<?xml version="1.0" encoding="UTF-8"?>
<svg id="Layer_1" data-name="Layer 1" xmlns="http://www.w3.org/2000/svg" viewBox="0 0 128 128">
  <defs>
    <style>
      .cls-1 {
        fill: #1b0049;
      }

      .cls-2, .cls-3 {
        fill: aqua;
      }

      .cls-3 {
        stroke: aqua;
        stroke-miterlimit: 10;
        stroke-width: 5.18px;
      }
    </style>
  </defs>
  <g>
    <g>
      <path class="cls-1" d="m71.28,5.11c-.77-.57-1.78-.42-2.85.24l-40.29,29.58c-2.57,1.97-5.52,5.83-8.02,10.78h0c-4.04,7.99-5.47,16.13-3.45,18.82l42.02,56.13c3.25,4.34,12.36,3.15,21.11-3.43h0c5.55-4.18,9.59-9.42,11.22-14.13l21.08-65.01c.34-1.5.04-2.78-1.03-3.57L71.28,5.11Z"/>
      <path class="cls-2" d="m71.28,5.11c-.86-.64-2.02-.29-2.85.24,0,0-26.53,19.48-26.53,19.48l-13.26,9.74c-2.24,1.6-3.98,3.79-5.53,6.04-3.8,5.81-8.77,16.11-6.89,23.07.43,1.07,1.67,2.4,2.33,3.37,10.09,13.48,26.9,35.93,36.98,49.4.8.94,2.86,4.01,3.76,4.89,2.61,2.39,6.56,2.13,9.77,1.32,10.07-2.88,20-11.65,22.72-21.95,0,0,20.32-62.61,20.32-62.61.25-1.06.19-2.31-.58-3.16-.37-.42-.86-.7-1.3-1.04-10.34-7.65-28.44-21.02-38.94-28.79h0Zm1.17-1.59c11.05,8.26,29,21.67,39.91,29.78,1.57,1.27,1.93,3.56,1.41,5.33-1.73,5.21-3.33,10.46-4.97,15.69-5.33,15.62-8.58,31.84-13.24,47.64-1.63,5.95-5.24,11.26-9.69,15.38-4.4,4.08-9.51,7.52-15.8,9.23-4.63,1.28-10.73,1.11-14.2-2.97-.73-.84-2.87-3.77-3.6-4.72-10.93-14.59-27.95-37.26-38.87-51.83-5.03-7.33,1.83-22.25,6.26-28.8,1.79-2.57,3.88-5.17,6.53-6.97,3.35-2.37,10.16-7.06,13.57-9.35,0,0,27.52-18.16,27.52-18.16,1.36-.96,3.69-1.44,5.18-.25h0Z"/>
    </g>
    <path class="cls-2" d="m30.78,34.02c1.99-.33,3.55,1.19,4.8,2.5,0,0,3.98,3.9,3.98,3.9l7.85,7.9c14.18,14.52,28.56,29.39,41.83,44.76,1.09,1.55,1.77,3.36,1.97,5.21-.56-2.78-2.17-5.07-4.24-6.93-13.79-13.63-27.45-27.86-40.53-42.13,0,0-7.5-8.24-7.5-8.24,0,0-3.7-4.17-3.7-4.17-1.18-1.39-2.46-2.93-4.46-2.82h0Z"/>
  </g>
  <g>
    <path class="cls-3" d="m82.81,37.37c2.1-2.99.75-7.6-2.77-10.4-3.42-2.72-7.98-3.01-10.43-.56-2.62,2.63-1.94,7.49,1.82,10.77,3.89,3.39,9.11,3.42,11.38.2Z"/>
    <line class="cls-3" x1="72.57" y1="48.85" x2="60.65" y2="37.88"/>
    <line class="cls-3" x1="54.35" y1="44.4" x2="66.89" y2="56.67"/>
    <g>
      <line class="cls-3" x1="64.16" y1="19.79" x2="74.9" y2="18.15"/>
      <line class="cls-3" x1="72.04" y1="12.87" x2="61.67" y2="14.09"/>
    </g>
    <polygon class="cls-2" points="90.62 30.24 91.72 42.28 106.52 46.33 103.84 34.02 90.62 30.24"/>
  </g>
</svg>