<?xml version="1.0" encoding="UTF-8"?>
<svg id="Layer_1" data-name="Layer 1" xmlns="http://www.w3.org/2000/svg" viewBox="0 0 128 128">
  <defs>
    <style>
      .cls-1 {
        fill: #1b0049;
      }

      .cls-2 {
        fill: aqua;
      }
    </style>
  </defs>
  <g>
    <g>
      <g>
        <path class="cls-1" d="m65.11,24.34c-1.23-1.29-2.62-2.07-3.96-2.37L15.82,14.6c-3.05-.32-5.79,1.02-7.35,3.87h0c-2.45,4.47-.95,11.18,3.12,15.44l66.76,69.86c4.07,4.26,12.97,8.44,20.67,9.45h0c4.89.64,8.22-.09,9.31-1.82l12.33-27.17c.25-.84-.17-1.95-1.41-3.24l-54.13-56.65Z"/>
        <path class="cls-2" d="m65.11,24.34c-1.47-1.64-3.54-2.47-5.69-2.65,0,0-6.35-1.03-6.35-1.03-6.32-1.01-19.07-3.11-25.39-4.13-1.9-.27-7.64-1.27-9.52-1.55,0,0-1.59-.26-1.59-.26-2.63-.58-5.54.32-7.23,2.45-4.1,5.31-1.59,13.19,2.92,17.44,0,0,17.77,18.6,17.77,18.6l35.54,37.19s8.89,9.3,8.89,9.3c2.94,3.12,5.82,6.36,9.68,8.37,4.91,3,19.89,8.44,24.15,3.32,3.56-7.83,8.68-19.23,12.34-27.17.36-1.78-1.33-3.09-2.39-4.28,0,0-3.54-3.71-3.54-3.71-12.74-13.4-36.62-38.27-49.6-51.9h0Zm1.79-1.71c15,15.96,37.9,40.37,53.16,55.59,1.91,1.8,4.14,4.11,3.06,7.14-2.72,6.97-4.93,14.14-7.52,21.16-.85,2.27-1.88,5.43-3.06,7.54-6.1,8.67-23.51,2.6-30.89-1.59-2.56-1.43-5.34-3.39-7.52-5.75,0,0-1.12-1.16-1.12-1.16-1.33-1.42-9.6-9.97-11.13-11.6-12.49-13.08-42.51-44.32-54.61-57.08C1.87,30.77-.18,20.65,5.31,13.84c2.75-3.47,7.64-5.21,11.97-4.3,11.6,1.86,24.9,5.15,36.38,7.96,0,0,6.28,1.53,6.28,1.53,2.61.47,5.18,1.72,6.97,3.6h0Z"/>
      </g>
      <path class="cls-2" d="m18.85,15.51c4.16,2.06,8.71,7.35,12.09,10.53,3.79,3.78,7.57,7.57,11.32,11.38,20.61,20.98,40.94,42.32,60.58,64.21,1.79,1.96,3.64,4.05,4.59,6.58-1.16-2.43-3.11-4.3-5.01-6.17-24.78-24.39-48.81-49.59-72.25-75.26-3.13-3.33-7.38-8.85-11.32-11.27h0Z"/>
    </g>
    <g>
      <path class="cls-2" d="m89.22,52.53c-13.36-13.98-29.5-26.32-37.44-27.82-5.11-.97-5.98,2.6-2.53,9.61,3.19,6.49,9.89,15.54,19.32,25.4,20.51,21.46,39.49,32.48,41.79,26.29,1.03-2.78-1.56-8.59-6.17-15.36-3.68-5.41-8.84-11.7-14.97-18.12Zm-10.33,3.6c-3.59-3.75-5.35-7-4.02-7.25,1.27-.24,4.92,2.36,8.2,5.79,3.28,3.43,5.18,6.64,4.2,7.18-1.03.58-4.8-1.98-8.39-5.73Z"/>
      <path class="cls-1" d="m85.32,53.89c-6.96-7.28-14.93-13.11-18.1-13.02-1.86.05-1.71,2.12.16,5.44,1.65,2.93,4.6,6.77,8.51,10.86,8.5,8.89,17.12,14.49,19.03,12.69.95-.89.04-3.44-2.07-6.7-1.74-2.69-4.34-5.92-7.54-9.27Zm-8.19,2.85c-6.48-6.78-9.46-12.48-6.87-12.7,2.38-.2,8.66,4.34,14.2,10.14,5.54,5.8,8.92,11.36,7.44,12.5-1.62,1.24-8.29-3.16-14.77-9.94Z"/>
      <path class="cls-1" d="m93.12,62.43c-1.58-2.22-3.62-4.7-5.94-7.23l2.92-1.16c4.7,5.03,8.81,9.96,11.9,14.31l-8.87-5.92Z"/>
      <path class="cls-1" d="m67.08,56.8c-6.5-7.06-11.67-13.92-14.76-19.47l14.05,9.22c1.65,2.62,3.89,5.52,6.59,8.53l-5.88,1.72Z"/>
    </g>
  </g>
  <path class="cls-2" d="m21.44,23.36c1.38,1.01,2.96,2.42,4.7,4.22l68.81,71.54c1.74,1.8,2.97,3.33,3.73,4.55l1.42,4.06c-.18,1.33-2.08,1.59-5.37.54h0s0,0,0,0c-4.98-1.59-11.61-5.85-15.29-9.68L19,35.74c-3.68-3.83-6.49-9.37-6.25-12.72h0c.16-2.21,1.51-3.04,3.53-2.45l5.16,2.79Z"/>
</svg>