<?xml version="1.0" encoding="UTF-8"?>
<svg id="Layer_1" data-name="Layer 1" xmlns="http://www.w3.org/2000/svg" viewBox="0 0 128 128">
  <defs>
    <style>
      .cls-1 {
        fill: #1b0049;
      }

      .cls-2 {
        fill: aqua;
      }

      .cls-3 {
        fill: none;
        stroke: aqua;
        stroke-miterlimit: 10;
        stroke-width: 6.02px;
      }
    </style>
  </defs>
  <g>
    <g>
      <path class="cls-1" d="m117.82,57.19c1.23-1.45,1.7-2.88,1.54-4.11l-11.83-43.22c-.85-2.68-3.81-4.59-8.3-5.01h0c-7.06-.67-15.49,2.73-19.52,7.53L13.42,91.09c-4.04,4.79-5.95,13.68-4.09,20.52h0c1.18,4.35,3.57,6.95,6.35,7.33l44.6,4.3c1.23-.05,2.56-.76,3.78-2.22l53.75-63.83Z"/>
      <path class="cls-2" d="m117.82,57.19c.95-1.14,1.72-2.58,1.54-4.11,0,0-8.46-30.9-8.46-30.9-.69-2.41-2.5-9.22-3.17-11.59-1.85-7.01-11.89-6.4-17.39-4.71-5.22,1.46-9.64,4.75-12.82,9.1-14.81,17.58-36.72,43.62-51.59,61.27-1.79,2.17-11.26,13.3-12.88,15.33-3.94,5.37-5.21,12.58-3.95,19.07.75,3.72,3.02,8.25,7.33,8.37,0,0,3.99.36,3.99.36,0,0,7.97.76,7.97.76l31.89,3.11c.92-.04,1.79-.45,2.52-1,1.37-1.07,4.22-4.82,5.44-6.18,12.83-15.14,36.54-43.46,49.58-58.88h0Zm1.28,1.08c-13.21,15.47-36.9,43.42-49.64,58.82,0,0-3.51,4.23-3.51,4.23-1.05,1.37-3.03,3.61-5.83,3.59-14.66-1.29-29.43-1.11-44.07-2.56-3.91-.12-7.2-3.17-8.7-6.43-3.29-7.13-2.57-15.34.54-22.37,1.11-2.64,3.24-5.11,5.08-7.27,0,0,10.31-12.26,10.31-12.26,14.89-17.68,36.72-43.69,51.55-61.31,0,0,1.29-1.53,1.29-1.53,3.25-4.24,8.16-7.18,13.19-8.69,7.2-2.25,18.43-2.11,21.44,6.44,2.11,8.34,8.21,34.91,10.23,43.72.38,2.12-.64,4.1-1.87,5.63h0Z"/>
    </g>
    <path class="cls-2" d="m107.02,13.38c-1.5,4.73-6.84,10-9.8,13.94,0,0-10.86,13.21-10.86,13.21-19.86,23.99-40.32,48.25-60.86,71.7-1.84,2.17-3.91,4.25-6.44,5.6,2.45-1.49,4.37-3.63,6.14-5.85,19.62-24.24,40.03-48.52,60.29-72.18,0,0,11.17-12.95,11.17-12.95,3.07-3.77,8.59-8.85,10.35-13.48h0Z"/>
  </g>
  <line class="cls-3" x1="88.08" y1="87.9" x2="72.35" y2="74.26"/>
  <path class="cls-2" d="m81.56,82.22c-3.83,5.01-7.59,10.79-8.07,17.09-.03,1.57.23,3.26,1.75,3.74,0,0-1.2,3.41-1.2,3.41-7.93-3.69-1.7-15.28,1.72-20.21,1.29-1.89,2.72-3.66,4.23-5.36l1.58,1.33h0Z"/>
  <path class="cls-2" d="m99.56,70.29c-2.88-4.88-12.88,2.06-15.82,4.7-1.75,1.48-3.39,3.12-4.95,4.83l-1.3-1.1c4.45-5.71,15.92-17.25,23.69-11.98.65.52,1.18,1.17,1.58,1.86l-3.2,1.69h0Z"/>
  <path class="cls-2" d="m63.17,79.66c2.61,1.74,7.3-.16,10.64-4.13,3.34-3.97,4.47-8.96,2.36-11.31-2.28-2.54-7.42-1.04-11.3,3.56-3.87,4.6-4.54,9.99-1.7,11.88Z"/>
  <path class="cls-2" d="m97.38,73.94c.76,1.16,2.97.14,4.97-2.24,2-2.38,3.17-5.37,2.59-6.74s-2.9-.55-5.08,2.04c-2.18,2.59-3.28,5.73-2.49,6.94Z"/>
  <polygon class="cls-2" points="72.22 108.73 78.48 101.3 77.35 100.8 70.96 108.39 72.22 108.73"/>
  <polygon class="cls-2" points="89.62 89.24 91.5 82.02 82.89 92.25 89.62 89.24"/>
</svg>