<?xml version="1.0" encoding="UTF-8"?>
<svg id="Layer_1" data-name="Layer 1" xmlns="http://www.w3.org/2000/svg" viewBox="0 0 128 128">
  <defs>
    <style>
      .cls-1 {
        fill: none;
        stroke: aqua;
        stroke-miterlimit: 10;
        stroke-width: 6.84px;
      }

      .cls-2 {
        fill: #1b0049;
      }

      .cls-3 {
        fill: aqua;
      }
    </style>
  </defs>
  <g>
    <g>
      <path class="cls-2" d="m18.34,53.04c-1.55,1-2.54,2.3-2.97,3.67l-10.49,51.06c-.57,3.22.77,6.55,3.9,8.99h0c4.92,3.83,12.66,3.96,17.77.66l84-54.12c5.12-3.3,10.48-11.86,12.15-19.95h0c1.06-5.14.46-8.95-1.44-10.58l-31.04-24.3c-.94-.49-2.23-.33-3.78.67L18.34,53.04Z"/>
      <path class="cls-3" d="m18.34,53.04c-1.34.86-2.48,2.13-2.97,3.67,0,0-6.43,31.3-6.43,31.3-.51,2.65-3.55,17.16-4.02,19.56-1.58,10.51,12.58,14.82,20.4,10.55,1.96-1.07,4.82-3.03,6.76-4.25,16.52-10.63,43.87-28.27,60.43-38.94,0,0,13.43-8.65,13.43-8.65,1.88-1.28,4.9-2.98,6.59-4.5,6.33-6.03,11.33-16.12,10.56-24.98-.2-1.3-.59-2.64-1.48-3.63-2.01-1.71-4.17-3.31-6.24-4.97l-25.14-19.73c-1.73-.82-3.46.46-4.87,1.37,0,0-4.47,2.88-4.47,2.88,0,0-8.94,5.76-8.94,5.76-11.33,7.3-41.9,27-53.62,34.55h0Zm-1.03-1.6c16.6-10.52,46.49-29.6,62.62-40.21,0,0,4.44-2.92,4.44-2.92,1.94-1.39,4.49-2.77,6.88-1.43,3.11,2.37,6.61,4.92,9.78,7.26,5.42,3.84,11.06,7.59,16.5,11.4,1,.74,3.94,2.73,4.93,3.45,0,0,.82.58.82.58,2.25,1.57,3.42,4.67,3.61,6.7.91,10.19-4.48,21.46-11.77,28.41-1.85,1.67-4.95,3.47-7.06,4.88-23.39,15.11-53.79,34.72-77.18,49.82,0,0-1.68,1.08-1.68,1.08,0,0-.42.27-.42.27-3.37,2.18-7.45,3.14-11.32,3.04-8.77,0-18.47-7.3-16.42-16.95,1.43-6.48,3-13.03,4.56-19.48,0,0,7.89-31.03,7.89-31.03.61-2.06,2.09-3.74,3.81-4.89h0Z"/>
    </g>
    <path class="cls-3" d="m6.83,104.27c2.75-3.97,9.13-7.43,13.02-10.23,0,0,13.83-9.19,13.83-9.19,25.23-16.67,51.19-33.29,77.01-49.11,2.33-1.46,4.83-2.91,7.6-3.28-2.74.54-5.08,2.11-7.35,3.66-25.09,16.97-50.93,33.73-76.55,49.82,0,0-14.09,8.8-14.09,8.8-3.96,2.58-10.47,5.78-13.47,9.54h0Z"/>
  </g>
  <line class="cls-1" x1="53.98" y1="33.64" x2="59.53" y2="55.08"/>
  <path class="cls-3" d="m55.93,42.62c5.77-4.15,13.09-10.5,14.27-17.72.07-.9-.13-1.59-.46-1.99,0,0,3.35-2.38,3.35-2.38,4.94,8.62-9.37,20.26-15.89,24.06,0,0-1.27-1.97-1.27-1.97h0Z"/>
  <path class="cls-3" d="m38.16,47.5c-.43,6.21,9.76,3.18,13.15,1.71,1.93-.8,3.82-1.77,5.65-2.83l1.05,1.63c-5.54,3.66-12.31,7.8-19.26,6.12-2.89-.7-4.9-3.91-4.7-6.8,0,0,4.1.17,4.1.17h0Z"/>
  <path class="cls-3" d="m68.71,53.41c-1.15-3.01-5.46-3.06-9.7-.33-4.24,2.73-7.29,7.53-6.78,10.95.55,3.71,5.02,4.39,9.93,1.23,4.91-3.16,7.8-8.58,6.54-11.84Z"/>
  <path class="cls-3" d="m40.9,44.33c-.04-1.57-2.13-1.46-4.67.17-2.54,1.64-4.74,4.29-4.92,6-.19,1.79,1.89,1.87,4.66.09,2.77-1.78,4.97-4.62,4.93-6.26Z"/>
  <polygon class="cls-3" points="74.96 18.58 67.03 23.69 67.64 24.72 75.74 19.5 74.96 18.58"/>
  <polygon class="cls-3" points="53.43 31.55 48.83 38.37 59.75 31.33 53.43 31.55"/>
</svg>