<?xml version="1.0" encoding="UTF-8"?>
<svg id="Layer_1" data-name="Layer 1" xmlns="http://www.w3.org/2000/svg" viewBox="0 0 128 128">
  <defs>
    <style>
      .cls-1 {
        stroke: aqua;
        stroke-miterlimit: 10;
        stroke-width: 5.14px;
      }

      .cls-1, .cls-2 {
        fill: aqua;
      }

      .cls-3 {
        fill: #1b0049;
      }
    </style>
  </defs>
  <g>
    <g>
      <path class="cls-3" d="m8.2,84.45c-.95,1.55-1.04,2.87-.46,3.84l27.79,32.7c1.85,2,5.92,2.77,11.29,1.88h0c8.43-1.39,17.13-6.55,20.28-11.66L118.67,27.39c3.14-5.11,2.49-13.03-1.9-18.21h0c-2.79-3.3-6.4-4.8-9.77-4.34l-53.29,8.74c-1.42.39-2.73,1.34-3.68,2.89L8.2,84.45Z"/>
      <path class="cls-2" d="m8.2,84.45c-.7,1.12-1.19,2.62-.46,3.84,0,0,21.19,24.93,21.19,24.93.92,1.08,5.79,6.82,6.62,7.79,6.69,5.8,22.45-.73,28.18-5.98,2.13-1.76,3.59-4.09,4.97-6.44,0,0,8.57-13.93,8.57-13.93,8.54-13.89,25.76-41.84,34.3-55.73,1.3-2.16,5.14-8.33,6.43-10.45,3.99-5.65,3.24-13.79-1.05-19.07-2.5-3.19-6.67-5.36-10.77-4.43,0,0-4.04.66-4.04.66-5.37.93-10.75,1.82-16.14,2.69,0,0-32.29,5.26-32.29,5.26-1.73.45-3.1,1.77-3.94,3.31,0,0-2.77,4.5-2.77,4.5-10.07,16.23-28.57,46.53-38.8,63.05h0Zm-1.67-1.03c11.71-18.73,30.45-48.86,41.65-67.51,1.07-1.94,2.95-3.72,5.22-4.22,10.75-1.8,21.46-4.33,32.07-6.78,2.55-.55,9.51-2.13,12.04-2.5,2.53-.37,6.66-1.11,9.19-1.49,8.98-1,16.1,7.02,17.53,15.1.85,4.3.34,9.24-1.97,13.18-.16.29-.64,1.09-.83,1.39-14.93,24.3-34.32,55.86-49.24,80.16,0,0-1.07,1.74-1.07,1.74,0,0-.53.87-.53.87-1.12,1.77-2.66,3.48-4.15,4.78-7.58,6.61-23.06,12.69-32.35,6.7-.46-.37-1-.81-1.39-1.26,0,0-1.3-1.63-1.3-1.63,0,0-5.1-6.43-5.1-6.43,0,0-20.06-25.97-20.06-25.97l-.14-.18c-1.17-1.81-.62-4.32.42-5.95h0Z"/>
    </g>
    <path class="cls-2" d="m34.98,117.92c.2-2.75,1.55-5.28,2.95-7.59l4.12-7.07s8.37-14.06,8.37-14.06c15.31-25.57,31.32-51.39,47.54-76.42,1.45-2.32,3.23-4.5,5.47-6.07-2.12,1.73-3.73,3.96-5.07,6.31-15.04,25.78-30.87,51.68-46.8,76.88,0,0-8.78,13.81-8.78,13.81l-4.45,6.87c-1.49,2.27-2.96,4.62-3.34,7.35h0Z"/>
  </g>
  <g>
    <path class="cls-1" d="m48.46,46.68c-2.81-.64-8,3.87-11.77,10.04-3.77,6.16-5.03,12.23-2.69,13.63,2.5,1.5,8.1-2.85,12.35-9.81,4.25-6.95,5.11-13.18,2.11-13.86Z"/>
    <line class="cls-1" x1="58.69" y1="51.63" x2="45.24" y2="73.63"/>
    <line class="cls-1" x1="51.28" y1="76.99" x2="65.69" y2="53.41"/>
    <g>
      <line class="cls-1" x1="24.97" y1="82.59" x2="25.41" y2="69.45"/>
      <line class="cls-1" x1="18.3" y1="77.24" x2="17.28" y2="90.64"/>
    </g>
    <polygon class="cls-2" points="42.22 41.84 54.87 33.55 60.86 15.39 48.39 24.62 42.22 41.84"/>
  </g>
</svg>