<?xml version="1.0" encoding="UTF-8"?>
<svg id="Layer_1" data-name="Layer 1" xmlns="http://www.w3.org/2000/svg" viewBox="0 0 128 128">
  <defs>
    <style>
      .cls-1 {
        fill: #1b0049;
      }

      .cls-2 {
        fill: aqua;
      }
    </style>
  </defs>
  <g>
    <g>
      <path class="cls-1" d="m34.46,25.85c-1.14-.08-2.08.3-2.76.98L7,57.86c-1.68,2.22-2.53,5.85-2.14,10.06h0c.65,6.96,4.61,13.09,8.96,14.07l89.24,19.9c6.81,1.52,15.12-3.46,18.63-11.71h0c2.15-5.06,2.01-10.06,0-13.68l-26.52-44.92c-.69-.9-1.81-1.5-3.31-1.61l-57.39-4.11Z"/>
      <path class="cls-2" d="m34.46,25.85c-1-.08-2.05.25-2.76.98-3.56,4.47-21.08,26.48-24.26,30.47-5.29,6.48-2.36,20.14,4.89,24.14,1.17.59,2.49.73,3.74,1.05,0,0,7.6,1.69,7.6,1.69,9.6,2.14,35.67,7.95,45.61,10.17,0,0,30.41,6.78,30.41,6.78,2.52.55,5.08,1.33,7.68.88,10.22-1.61,18.16-13.29,15.2-23.34-.68-2.1-2.63-4.86-3.7-6.83-4.98-8.49-18.54-31.49-23.71-40.27-1.52-2.09-4.9-1.59-7.17-1.89-13.81-.99-39.48-2.83-53.53-3.84h0Zm.17-2.31c10.15.79,36.05,2.81,45.86,3.54,0,0,7.65.56,7.65.56,2.87.26,6.85-.03,8.74,2.74,5.49,8.89,10.61,17.99,16.72,26.52,2.95,4.3,6.1,8.48,9.01,12.8.43.69,2.61,3.71,3.03,4.44,8.15,15-7.32,36.06-24.12,32.28-27.52-6.17-62.42-13.73-89.81-19.98C.36,82.39-3.84,63.35,3.87,54.54c8.46-9.81,17.47-19.46,26.03-29.13,1.13-1.3,3.05-1.99,4.72-1.86h0Z"/>
    </g>
    <path class="cls-2" d="m9.44,56.3c2.15-.97,4.6-.69,6.86-.37,0,0,6.86.83,6.86.83,4.57.58,9.14,1.18,13.7,1.81,25.09,3.52,50.14,7.34,75.02,12.14,2.26.53,4.46,1.4,6.37,2.71-2.02-1.12-4.23-1.79-6.48-2.18-25.13-3.09-50.19-6.83-75.16-11.09-4.54-.77-9.08-1.58-13.61-2.4l-6.79-1.28c-2.25-.45-4.54-.92-6.77-.16h0Z"/>
  </g>
  <g>
    <path class="cls-2" d="m97.73,47.58c-1.87-3.92-8.59-7.51-16.99-10.02l8.86-1.25-10.05-3.73-14.02,1.84c-1.59-.2-3.19-.38-4.83-.52-15.73-1.3-30.11,1.18-33.65,6.22-4.3,6.12,8.1,14.46,30.69,17.6,25.26,3.51,43.97-1.83,39.99-10.15Zm-18.53-14.16l7.28,2.63-37.18,1.63,29.9-4.26Zm-20.22,14.34c-6.99-.81-11.88-3.3-11.18-5.45.65-2,6.01-3.06,12.17-2.46,6.34.61,11.75,2.8,11.92,5,.19,2.37-5.68,3.74-12.91,2.91Z"/>
    <polygon class="cls-2" points="66.37 28.72 36.55 26.64 33.95 30.34 66.31 32.91 66.37 28.72"/>
  </g>
</svg>