<?xml version="1.0" encoding="UTF-8"?>
<svg id="Layer_1" data-name="Layer 1" xmlns="http://www.w3.org/2000/svg" xmlns:xlink="http://www.w3.org/1999/xlink" viewBox="0 0 128 128">
  <defs>
    <style>
      .cls-1, .cls-2 {
        fill: #1b0049;
      }

      .cls-2 {
        stroke: aqua;
        stroke-miterlimit: 10;
        stroke-width: 1.06px;
      }

      .cls-3 {
        fill: aqua;
      }

      .cls-4 {
        filter: url(#outer-glow-1);
      }
    </style>
    <filter id="outer-glow-1" filterUnits="userSpaceOnUse">
      <feOffset dx="0" dy="0"/>
      <feGaussianBlur result="blur" stdDeviation="6.22"/>
      <feFlood flood-color="aqua" flood-opacity=".75"/>
      <feComposite in2="blur" operator="in"/>
      <feComposite in="SourceGraphic"/>
    </filter>
  </defs>
  <g>
    <path class="cls-1" d="m48.39,33.01c-5.29,0-8.35,0-8.35,0l-.76,18.86-18.9,44.29c.72.63,5.3,3.78,6.41,1.36.87-1.9,5.89-14.19,9.72-21.98,1.37-2.79,4.21-4.56,7.32-4.56h40.12c3.11,0,5.95,1.77,7.32,4.56,3.83,7.79,8.86,20.08,9.72,21.98,1.1,2.43,5.01-.15,6.64-1.36l-19.13-44.29-.76-18.86s-3.06,0-8.35,0h-30.99Z"/>
    <rect class="cls-3" x="61.13" y="63.01" width="5.73" height="1.47" rx=".73" ry=".73"/>
    <g>
      <path class="cls-1" d="m89.78,30.01h7.01c1.89,0,3.42,1.53,3.42,3.42v3.08h-11.79v-5.14c0-.75.61-1.36,1.36-1.36Z" transform="translate(4.72 -11.17) rotate(6.95)"/>
      <path class="cls-1" d="m27.78,30.01h11.79v3.08c0,1.89-1.53,3.42-3.42,3.42h-7.01c-.75,0-1.36-.61-1.36-1.36v-5.14h0Z" transform="translate(71.13 62.19) rotate(173.05)"/>
    </g>
    <g>
      <ellipse class="cls-3" cx="78.26" cy="59.81" rx="6.85" ry="6.99"/>
      <ellipse class="cls-3" cx="49.74" cy="59.81" rx="6.85" ry="6.99"/>
    </g>
    <g>
      <path class="cls-3" d="m81.65,45.9l2.97-10.33c.37-1.5,1.72-2.55,3.27-2.55l11.65,1.42c.94,0,1.8.51,2.26,1.33,3.81,6.8,20.03,32.83,10.2,55.33-.14.32-.33.61-.56.86l-3.82,4.22c-.99,1.1-2.77.83-3.42-.49-8.99-18.36-7.21-31.01-20.02-42.63-1.95-1.77-3.17-4.58-2.53-7.14Z"/>
      <path class="cls-3" d="m64.43,31.39c20.17,0,19.74,1.4,19.45,2.38l-3.29,12.48c-.87,2.98-3.6,5.03-6.7,5.03h-19.77c-3.1,0-5.83-2.05-6.7-5.03l-3.29-12.48c-.28-.97.15-2.38,20.31-2.38Z"/>
      <path class="cls-3" d="m46.35,45.9l-2.97-10.33c-.37-1.5-1.72-2.55-3.27-2.55l-11.65,1.42c-.94,0-1.8.51-2.26,1.33-3.81,6.8-20.03,32.83-10.2,55.33.14.32.33.61.56.86l3.82,4.22c.99,1.1,2.77.83,3.42-.49,8.99-18.36,7.21-31.01,20.02-42.63,1.95-1.77,3.17-4.58,2.53-7.14Z"/>
    </g>
    <g>
      <g>
        <g>
          <polygon class="cls-1" points="31.29 42.84 34.07 45.67 36.9 42.84 36.9 37.23 31.29 37.23 31.29 42.84"/>
          <polygon class="cls-1" points="36.9 50.06 34.12 47.23 31.29 50.06 31.29 55.67 36.9 55.67 36.9 50.06"/>
        </g>
        <g>
          <polygon class="cls-1" points="37.71 43.64 34.88 46.42 37.71 49.26 43.32 49.26 43.32 43.64 37.71 43.64"/>
          <polygon class="cls-1" points="30.49 49.26 33.32 46.48 30.49 43.64 24.88 43.64 24.88 49.26 30.49 49.26"/>
        </g>
      </g>
      <g>
        <g>
          <circle class="cls-1" cx="93.73" cy="40.34" r="3.28"/>
          <circle class="cls-1" cx="93.73" cy="52.56" r="3.28"/>
        </g>
        <g>
          <circle class="cls-1" cx="99.84" cy="46.45" r="3.28"/>
          <circle class="cls-1" cx="87.63" cy="46.45" r="3.28"/>
        </g>
      </g>
    </g>
    <g>
      <rect class="cls-1" x="85.65" y="34.77" width="2.1" height="4.2" rx="1.05" ry="1.05" transform="translate(13.57 -22.53) rotate(16.05)"/>
      <rect class="cls-1" x="40.25" y="34.77" width="2.1" height="4.2" rx="1.05" ry="1.05" transform="translate(91.18 60.88) rotate(163.95)"/>
    </g>
  </g>
  <g class="cls-4">
    <polygon class="cls-2" points="89.49 56.3 89.49 51.66 85.76 51.66 85.76 57.84 95.24 67.33 128.99 67.33 128.99 63.59 96.79 63.59 89.49 56.3"/>
    <polygon class="cls-2" points="116.5 44.6 104.98 44.6 104.98 48.33 118.05 48.33 123.88 42.5 128.99 42.5 128.99 38.76 122.34 38.76 116.5 44.6"/>
    <polygon class="cls-2" points="110.66 38.49 98.86 38.49 98.86 42.23 112.2 42.23 127.4 28.28 128.99 28.28 128.99 24.54 124.6 24.54 110.66 38.49"/>
    <rect class="cls-2" x="98.86" y="50.97" width="30.13" height="3.73"/>
    <rect class="cls-2" x="62.13" y="-.97" width="3.73" height="35.19"/>
    <rect class="cls-2" x="62.15" y="70.89" width="3.73" height="58.11"/>
    <polygon class="cls-2" points="86.09 65.01 83.45 67.65 114.87 99.08 128.99 99.08 128.99 95.34 116.41 95.34 86.09 65.01"/>
    <polygon class="cls-2" points="88.57 9.75 99.29 -.97 94.01 -.97 84.83 8.21 84.83 29.75 88.57 29.75 88.57 9.75"/>
    <polygon class="cls-2" points="128.99 7.03 128.99 3.3 120.02 3.3 111.02 12.3 111.02 12.3 95.6 27.71 100.88 27.71 112.56 16.03 128.99 16.03 128.99 12.3 116.3 12.3 121.56 7.03 128.99 7.03"/>
    <polygon class="cls-2" points="27.12 27.71 32.4 27.71 17.53 12.85 16.98 12.3 7.98 3.3 -.99 3.3 -.99 7.03 6.44 7.03 11.7 12.3 -.99 12.3 -.99 16.03 15.44 16.03 27.12 27.71"/>
    <polygon class="cls-2" points="39.43 29.75 43.17 29.75 43.17 8.21 33.99 -.97 28.68 -1 39.43 9.75 39.43 29.75"/>
    <polygon class="cls-2" points="10.44 65.88 21.26 65.88 22.14 65.88 37.38 65.88 42.96 60.3 42.96 51.76 39.22 51.76 39.22 58.75 35.83 62.15 25.88 62.15 29.85 58.18 28.8 58.18 28.8 53.94 20.6 62.15 14.17 62.15 24.56 51.76 22.39 51.76 22.39 48.65 16.21 54.82 16.21 41.17 28.8 41.17 28.8 37.43 12.48 37.43 12.48 58.56 8.89 62.15 -.99 62.15 -.99 65.88 9.66 65.88 10.44 65.88"/>
    <polygon class="cls-2" points="11.59 95.34 -.99 95.34 -.99 99.08 13.13 99.08 44.52 67.69 41.88 65.05 11.59 95.34"/>
  </g>
</svg>