<?xml version="1.0" encoding="UTF-8"?>
<svg id="Layer_1" data-name="Layer 1" xmlns="http://www.w3.org/2000/svg" xmlns:xlink="http://www.w3.org/1999/xlink" viewBox="0 0 128 128">
  <defs>
    <style>
      .cls-1 {
        fill: #1b0049;
      }

      .cls-2 {
        fill: aqua;
      }
    </style>
    <filter id="outer-glow-1" filterUnits="userSpaceOnUse">
      <feOffset dx="0" dy="0"/>
      <feGaussianBlur result="blur" stdDeviation="6.22"/>
      <feFlood flood-color="aqua" flood-opacity=".75"/>
      <feComposite in2="blur" operator="in"/>
      <feComposite in="SourceGraphic"/>
    </filter>
  </defs>
  <rect class="cls-1" x="17.82" y="69.17" width="20.4" height="6.38" rx="1.39" ry="1.39" transform="translate(-9.09 140.51) rotate(-130.26)"/>
  <path class="cls-2" d="m53.81,99.29c-15.31-13.53-30.29-31.97-42.25-46.69-2.78-18.15,1.75-32.34,10.91-40.37l16.14,19.87,1.1-.89L23.58,11.33c9.73-7.32,24.55-8.85,41.75-2.41,48.12,50.31,66.41,81.76,39.53,103.59-17.96,14.59-39.25,18.96-60.65-17.49l2.54-4.79"/>
  <path class="cls-1" d="m36.2,29.04l-13.68-16.85c-8.55,7.44-13.2,20.13-11.44,36,22.08,27.18,64.95,79.96,89.98,59.64,25.02-20.33-17.85-73.11-39.93-100.29-15.18-4.97-28.54-3.02-37.58,3.82l13.68,16.85-1.02.83Z"/>
  <rect class="cls-2" x="52.54" y="19.4" width="14.81" height="75.65" rx="7.4" ry="7.4" transform="translate(-22.67 50.6) rotate(-39.09)"/>
  <circle class="cls-1" cx="59.95" cy="57.23" r="5.09"/>
  <rect class="cls-1" x="40.43" y="27.83" width="9.82" height="22.83" rx="3.31" ry="3.31" transform="translate(-14.6 37.37) rotate(-39.09)"/>
  <path class="cls-1" d="m36.99,82.57l-1.47,1.42c-.55.53-.57,1.41-.04,1.96l12.22,12.7c.53.55,1.41.57,1.96.04l1.7-1.63c-4.86-4.47-9.68-9.39-14.36-14.49Z"/>
  <circle class="cls-1" cx="70.66" cy="70.41" r="2.01"/>
  <circle class="cls-1" cx="78.11" cy="79.59" r="2.01"/>
</svg>