<?xml version="1.0" encoding="UTF-8"?>
<svg id="Layer_1" data-name="Layer 1" xmlns="http://www.w3.org/2000/svg" viewBox="0 0 128 128">
  <defs>
    <style>
      .cls-1 {
        fill: none;
      }

      .cls-1, .cls-2 {
        stroke: aqua;
        stroke-miterlimit: 10;
      }

      .cls-3, .cls-2 {
        fill: #1b0049;
      }

      .cls-4 {
        fill: aqua;
      }

      .cls-2 {
        stroke-width: .5px;
      }
    </style>
  </defs>
  <rect class="cls-3" x="17.34" y="12.3" width="93.31" height="110.64"/>
  <path class="cls-4" d="m17.34,122.93c-5.37,0-9.73-4.35-9.73-9.73,0-2.53.97-4.83,2.55-6.56V28.58c-1.58-1.73-2.55-4.03-2.55-6.56,0-5.37,4.35-9.73,9.73-9.73"/>
  <path class="cls-4" d="m110.66,12.3c5.37,0,9.73,4.35,9.73,9.73,0,2.53-.97,4.83-2.55,6.56v78.06c1.58,1.73,2.55,4.03,2.55,6.56,0,5.37-4.35,9.73-9.73,9.73"/>
  <rect class="cls-1" x="27.64" y="41.52" width="72.72" height="61.23"/>
  <g>
    <path class="cls-4" d="m104.88,9.14l-1.97-1.1c-.68-.38-1.55-.15-1.94.53l-25.29,43.11,6.17,3.46,23.59-44.06c.37-.69.12-1.55-.56-1.93Z"/>
    <path class="cls-3" d="m103.88,5.28h1.5c.28,0,.5.23.5.5v2.96h-2.51v-2.96c0-.28.23-.5.5-.5Z" transform="translate(16.8 -50.28) rotate(29.28)"/>
    <path class="cls-2" d="m65.54,68.78c4.17-5.26,7.54-10.45,9.16-16.4.15-.56.78-.83,1.28-.55l5.57,3.12c.51.28.59.96.2,1.38-4.22,4.49-6.73,10.59-9.18,16.44-.23.54-.88.77-1.39.48l-5.36-3.01c-.53-.3-.66-1-.28-1.47Z"/>
    <path class="cls-4" d="m66.08,70.4c-.94,1.68-2.45,7.76-3.08,10.41-.09.36.36.61.62.35,1.93-1.92,6.33-6.38,7.27-8.06"/>
  </g>
</svg>