<?xml version="1.0" encoding="UTF-8"?>
<svg xmlns="http://www.w3.org/2000/svg" viewBox="0 0 128 128">
  <defs>
    <style>
      .cls-1 {
        fill: #1b0049;
      }

      .cls-2 {
        fill: aqua;
      }

      .cls-3 {
        isolation: isolate;
      }

      .cls-4 {
        mix-blend-mode: hard-light;
      }
    </style>
  </defs>
  <g class="cls-3">
    <g id="Layer_1" data-name="Layer 1">
      <g>
        <g class="cls-4">
          <g>
            <ellipse class="cls-1" cx="101.71" cy="116.04" rx="5.26" ry="8.06" transform="translate(-46.95 157.39) rotate(-64.31)"/>
            <polygon class="cls-1" points="109.33 117.96 106.74 117.3 106.74 89.95 109.33 90.6 109.33 117.96"/>
          </g>
          <path class="cls-1" d="m109.36,90.87c-.15,6.79,11.54,6.05,8.04,17.38,1.3-7.28-2.55-8.53-7.76-12-1.63-1.18-2.91-3.29-2.94-5.38,0,0,2.66,0,2.66,0h0Z"/>
        </g>
        <g>
          <g>
            <ellipse class="cls-2" cx="10.8" cy="53.46" rx="7.78" ry="3.04" transform="translate(-42.32 41.12) rotate(-65.5)"/>
            <polygon class="cls-2" points="15.05 48.9 13.61 50.45 13.61 23.1 15.05 21.55 15.05 48.9"/>
          </g>
          <g>
            <ellipse class="cls-2" cx="25.27" cy="37.97" rx="7.78" ry="3.04" transform="translate(-19.76 45.22) rotate(-65.5)"/>
            <polygon class="cls-2" points="29.52 33.42 28.07 34.97 28.07 7.62 29.52 6.07 29.52 33.42"/>
          </g>
          <polygon class="cls-2" points="13.61 25.76 13.61 23.1 29.52 6.07 29.52 8.73 13.61 25.76"/>
          <polygon class="cls-2" points="13.61 31.31 13.61 28.65 29.52 11.62 29.52 14.28 13.61 31.31"/>
        </g>
        <g>
          <ellipse class="cls-1" cx="11.43" cy="108.67" rx="5.26" ry="8.06" transform="translate(-91.46 71.86) rotate(-64.31)"/>
          <polygon class="cls-1" points="19.04 110.59 16.45 109.94 16.45 82.58 19.04 83.23 19.04 110.59"/>
        </g>
        <g>
          <g>
            <path class="cls-1" d="m77.18,13.71c-14.25,4.89-28.56,14.8-38.76,25.95-3.04,3.32-5.89,6.92-8.43,10.74-13.84,20.85-15.29,46.55,7.85,52.76,27.15,7.29,65.22-15.24,80.94-47.15,3.68-7.47,5.53-14.74,5.41-21.37-.42-23.51-24.29-28.74-47-20.93Zm-16.74,38.05c-3.9.48-5.42-2.22-3.67-5.84s5.82-6.67,9.5-7.43c3.87-.8,6.05,1.37,4.62,5.07-1.52,3.91-6.33,7.69-10.46,8.2Z"/>
            <path class="cls-1" d="m69.11,32.06c-7.39,1.8-15.58,8.18-19.22,15.01-4.05,7.59-1.62,14.01,6.7,13.46,9.41-.61,20.67-9.48,23.57-18.53,2.55-7.94-2.88-11.93-11.05-9.94Zm-9.88,22.45c-5.35.56-7.26-3.28-4.79-8.21,2.31-4.59,7.85-8.92,12.79-10,5.29-1.16,8.44,1.68,6.58,6.76-2.02,5.5-8.81,10.84-14.59,11.45Z"/>
            <path class="cls-2" d="m70.02,30c-6.78,1.73-13.96,6.59-18.75,12.25-1.39,1.64-2.61,3.39-3.61,5.2-4.9,8.94-2.35,16.8,7.48,16.38,8.8-.38,19.3-7.14,25.14-15.65,1.53-2.23,2.67-4.52,3.33-6.75,2.79-9.43-3.96-13.89-13.59-11.43Zm-13.43,30.54c-8.31.54-10.74-5.87-6.7-13.46,3.64-6.83,11.83-13.21,19.22-15.01,8.17-1.99,13.6,2,11.05,9.94-2.91,9.05-14.17,17.92-23.57,18.53Z"/>
            <path class="cls-2" d="m67.24,36.31c-4.95,1.08-10.49,5.41-12.79,10-2.48,4.93-.56,8.77,4.79,8.21,5.77-.61,12.57-5.95,14.59-11.45,1.86-5.08-1.29-7.91-6.58-6.76Zm-6.79,15.45c-3.9.48-5.42-2.22-3.67-5.84s5.82-6.67,9.5-7.43c3.87-.8,6.05,1.37,4.62,5.07-1.52,3.91-6.33,7.69-10.46,8.2Z"/>
          </g>
          <path class="cls-2" d="m56.21,65.95c8.44-1.1,18.24-7.11,24.62-15.23l35.33,7.98c-15.88,27.69-52.2,48.43-75.88,44.59l15.94-37.34Z"/>
          <path class="cls-2" d="m40.46,38.47c9.51-10.07,22.31-18.68,34.73-23.2l-6.28,13.88c-6.14,2.01-12.61,6.27-17.44,11.43l-11.01-2.11Z"/>
        </g>
      </g>
    </g>
  </g>
</svg>