<?xml version="1.0" encoding="UTF-8"?>
<svg id="Layer_1" data-name="Layer 1" xmlns="http://www.w3.org/2000/svg" viewBox="0 0 128 128">
  <defs>
    <style>
      .cls-1 {
        fill: none;
      }

      .cls-1, .cls-2, .cls-3, .cls-4 {
        stroke: aqua;
        stroke-miterlimit: 10;
      }

      .cls-1, .cls-4 {
        stroke-width: .3px;
      }

      .cls-2 {
        stroke-width: 2px;
      }

      .cls-2, .cls-3 {
        fill: #1b0049;
      }

      .cls-4 {
        fill: #fff;
      }
    </style>
  </defs>
  <rect class="cls-3" x="8.81" y="27.1" width="110.39" height="73.8"/>
  <rect class="cls-3" x="10.71" y="87.45" width="106.2" height="13.45"/>
  <rect class="cls-2" x="17.14" y="37.33" width="93.69" height="44.72"/>
  <path class="cls-4" d="m89.08,48.96c-6.66,0-12.06,5.4-12.06,12.06s5.4,12.06,12.06,12.06,12.06-5.4,12.06-12.06-5.4-12.06-12.06-12.06Zm-3.48,1.95h7v4.31h-7v-4.31Zm-3.53,18.17l-3.5-6.06,3.73-2.15,3.5,6.06-3.73,2.15Zm7.01-4.35c-2.05,0-3.71-1.66-3.71-3.71s1.66-3.71,3.71-3.71,3.71,1.66,3.71,3.71-1.66,3.71-3.71,3.71Zm6.99,4.39l-3.73-2.15,3.5-6.06,3.73,2.15-3.5,6.06Z"/>
  <path class="cls-4" d="m39,48.85c-6.66,0-12.06,5.4-12.06,12.06s5.4,12.06,12.06,12.06,12.06-5.4,12.06-12.06-5.4-12.06-12.06-12.06Zm-3.48,1.95h7v4.31h-7v-4.31Zm-3.53,18.17l-3.5-6.06,3.73-2.15,3.5,6.06-3.73,2.15Zm7.01-4.35c-2.05,0-3.71-1.66-3.71-3.71s1.66-3.71,3.71-3.71,3.71,1.66,3.71,3.71-1.66,3.71-3.71,3.71Zm6.99,4.39l-3.73-2.15,3.5-6.06,3.73,2.15-3.5,6.06Z"/>
  <circle class="cls-1" cx="89.08" cy="61.02" r="13.3"/>
  <circle class="cls-1" cx="89.08" cy="61.02" r="15.2"/>
  <circle class="cls-1" cx="39.02" cy="61.02" r="16.98"/>
  <circle class="cls-1" cx="39.02" cy="61.02" r="19.04"/>
  <circle class="cls-1" cx="39.02" cy="61.02" r="20.72"/>
  <path class="cls-1" d="m17.14,67.19c1.9,6.75,6.84,12.23,13.25,14.86"/>
  <path class="cls-1" d="m47.65,82.05c8.27-3.4,14.09-11.53,14.09-21.03,0-12.55-10.18-22.73-22.73-22.73-10.41,0-19.19,7-21.88,16.56"/>
  <line class="cls-1" x1="103.39" y1="53.6" x2="110.83" y2="81.06"/>
  <circle class="cls-1" cx="39.02" cy="60.75" r="13.3"/>
  <circle class="cls-1" cx="39.02" cy="60.75" r="15.2"/>
</svg>