<?xml version="1.0" encoding="UTF-8"?>
<svg id="Layer_1" data-name="Layer 1" xmlns="http://www.w3.org/2000/svg" viewBox="0 0 128 128">
  <defs>
    <style>
      .cls-1, .cls-2 {
        fill: #1b0049;
      }

      .cls-2 {
        stroke: aqua;
        stroke-miterlimit: 10;
        stroke-width: 1.2px;
      }

      .cls-3 {
        fill: aqua;
      }
    </style>
  </defs>
  <polygon class="cls-2" points="4.76 29.63 123.24 29.63 123.24 88.91 113.38 88.91 113.38 98.37 14.62 98.37 14.62 88.91 4.76 88.91 4.76 29.63"/>
  <g>
    <rect class="cls-3" x="102.15" y="88.71" width="5.31" height="9.66" transform="translate(209.61 187.08) rotate(180)"/>
    <rect class="cls-3" x="16.9" y="88.71" width="5.31" height="9.66" transform="translate(39.11 187.08) rotate(180)"/>
    <rect class="cls-3" x="94.4" y="88.71" width="5.31" height="9.66" transform="translate(194.11 187.08) rotate(180)"/>
    <rect class="cls-3" x="24.65" y="88.71" width="5.31" height="9.66" transform="translate(54.61 187.08) rotate(180)"/>
    <rect class="cls-3" x="86.65" y="88.71" width="5.31" height="9.66" transform="translate(178.61 187.08) rotate(180)"/>
    <rect class="cls-3" x="32.4" y="88.71" width="5.31" height="9.66" transform="translate(70.11 187.08) rotate(180)"/>
    <rect class="cls-3" x="78.9" y="88.71" width="5.31" height="9.66" transform="translate(163.11 187.08) rotate(180)"/>
    <rect class="cls-3" x="40.15" y="88.71" width="5.31" height="9.66" transform="translate(85.61 187.08) rotate(180)"/>
    <rect class="cls-3" x="71.15" y="88.71" width="5.31" height="9.66" transform="translate(147.61 187.08) rotate(180)"/>
    <rect class="cls-3" x="63.4" y="88.71" width="5.31" height="9.66" transform="translate(132.11 187.08) rotate(180)"/>
    <rect class="cls-3" x="55.65" y="88.71" width="5.31" height="9.66" transform="translate(116.61 187.08) rotate(180)"/>
    <rect class="cls-3" x="47.9" y="88.71" width="5.31" height="9.66" transform="translate(101.11 187.08) rotate(180)"/>
  </g>
  <g>
    <g>
      <rect class="cls-3" x="74.12" y="76.93" width="2.95" height="3.37" transform="translate(151.19 157.24) rotate(180)"/>
      <rect class="cls-3" x="79.01" y="76.93" width="2.95" height="3.37" transform="translate(160.98 157.24) rotate(180)"/>
      <rect class="cls-3" x="74.12" y="41.14" width="2.95" height="3.37" transform="translate(151.19 85.66) rotate(180)"/>
      <rect class="cls-3" x="79.01" y="41.14" width="2.95" height="3.37" transform="translate(160.98 85.66) rotate(180)"/>
      <rect class="cls-3" x="86.55" y="55.92" width="3.37" height="2.95" transform="translate(145.64 -30.84) rotate(90)"/>
      <rect class="cls-3" x="86.55" y="50.33" width="3.37" height="2.95" transform="translate(140.05 -36.43) rotate(90)"/>
      <rect class="cls-3" x="65.96" y="55.92" width="3.37" height="2.95" transform="translate(125.04 -10.25) rotate(90)"/>
      <rect class="cls-3" x="65.96" y="50.33" width="3.37" height="2.95" transform="translate(119.45 -15.84) rotate(90)"/>
      <rect class="cls-3" x="86.55" y="68.06" width="3.37" height="2.95" transform="translate(157.77 -18.7) rotate(90)"/>
      <rect class="cls-3" x="86.55" y="62.47" width="3.37" height="2.95" transform="translate(152.18 -24.29) rotate(90)"/>
      <rect class="cls-3" x="65.96" y="68.06" width="3.37" height="2.95" transform="translate(137.18 1.89) rotate(90)"/>
      <rect class="cls-3" x="65.96" y="62.47" width="3.37" height="2.95" transform="translate(131.59 -3.7) rotate(90)"/>
      <rect class="cls-1" x="69.12" y="44.51" width="17.64" height="32.42" rx="1.82" ry="1.82" transform="translate(155.88 121.45) rotate(180)"/>
      <g>
        <rect class="cls-1" x="72.77" y="48.52" width="10.34" height="24.41"/>
        <path class="cls-3" d="m81.89,49.73v21.98h-7.9v-21.98h7.9m1.33-2.44h-10.56c-.61,0-1.11.5-1.11,1.11v24.64c0,.61.5,1.11,1.11,1.11h10.56c.61,0,1.11-.5,1.11-1.11v-24.64c0-.61-.5-1.11-1.11-1.11h0Z"/>
      </g>
    </g>
    <g>
      <rect class="cls-3" x="102.91" y="76.93" width="2.95" height="3.37" transform="translate(208.78 157.24) rotate(180)"/>
      <rect class="cls-3" x="107.81" y="76.93" width="2.95" height="3.37" transform="translate(218.56 157.24) rotate(180)"/>
      <rect class="cls-3" x="102.91" y="41.14" width="2.95" height="3.37" transform="translate(208.78 85.66) rotate(180)"/>
      <rect class="cls-3" x="107.81" y="41.14" width="2.95" height="3.37" transform="translate(218.56 85.66) rotate(180)"/>
      <rect class="cls-3" x="115.35" y="55.92" width="3.37" height="2.95" transform="translate(174.43 -59.63) rotate(90)"/>
      <rect class="cls-3" x="115.35" y="50.33" width="3.37" height="2.95" transform="translate(168.84 -65.23) rotate(90)"/>
      <rect class="cls-3" x="94.75" y="55.92" width="3.37" height="2.95" transform="translate(153.84 -39.04) rotate(90)"/>
      <rect class="cls-3" x="94.75" y="50.33" width="3.37" height="2.95" transform="translate(148.24 -44.63) rotate(90)"/>
      <rect class="cls-3" x="115.35" y="68.06" width="3.37" height="2.95" transform="translate(186.57 -47.5) rotate(90)"/>
      <rect class="cls-3" x="115.35" y="62.47" width="3.37" height="2.95" transform="translate(180.98 -53.09) rotate(90)"/>
      <rect class="cls-3" x="94.75" y="68.06" width="3.37" height="2.95" transform="translate(165.97 -26.9) rotate(90)"/>
      <rect class="cls-3" x="94.75" y="62.47" width="3.37" height="2.95" transform="translate(160.38 -32.49) rotate(90)"/>
      <rect class="cls-1" x="97.91" y="44.51" width="17.64" height="32.42" rx="1.82" ry="1.82" transform="translate(213.47 121.45) rotate(180)"/>
      <g>
        <rect class="cls-1" x="101.57" y="48.52" width="10.34" height="24.41"/>
        <path class="cls-3" d="m110.68,49.73v21.98h-7.9v-21.98h7.9m1.33-2.44h-10.56c-.61,0-1.11.5-1.11,1.11v24.64c0,.61.5,1.11,1.11,1.11h10.56c.61,0,1.11-.5,1.11-1.11v-24.64c0-.61-.5-1.11-1.11-1.11h0Z"/>
      </g>
    </g>
    <g>
      <rect class="cls-3" x="16.53" y="76.93" width="2.95" height="3.37" transform="translate(36.01 157.24) rotate(180)"/>
      <rect class="cls-3" x="21.43" y="76.93" width="2.95" height="3.37" transform="translate(45.8 157.24) rotate(180)"/>
      <rect class="cls-3" x="16.53" y="41.14" width="2.95" height="3.37" transform="translate(36.01 85.66) rotate(180)"/>
      <rect class="cls-3" x="21.43" y="41.14" width="2.95" height="3.37" transform="translate(45.8 85.66) rotate(180)"/>
      <rect class="cls-3" x="28.97" y="55.92" width="3.37" height="2.95" transform="translate(88.05 26.75) rotate(90)"/>
      <rect class="cls-3" x="28.97" y="50.33" width="3.37" height="2.95" transform="translate(82.46 21.16) rotate(90)"/>
      <rect class="cls-3" x="8.37" y="55.92" width="3.37" height="2.95" transform="translate(67.46 47.34) rotate(90)"/>
      <rect class="cls-3" x="8.37" y="50.33" width="3.37" height="2.95" transform="translate(61.86 41.75) rotate(90)"/>
      <rect class="cls-3" x="28.97" y="68.06" width="3.37" height="2.95" transform="translate(100.19 38.89) rotate(90)"/>
      <rect class="cls-3" x="28.97" y="62.47" width="3.37" height="2.95" transform="translate(94.59 33.29) rotate(90)"/>
      <rect class="cls-3" x="8.37" y="68.06" width="3.37" height="2.95" transform="translate(79.59 59.48) rotate(90)"/>
      <rect class="cls-3" x="8.37" y="62.47" width="3.37" height="2.95" transform="translate(74 53.89) rotate(90)"/>
      <rect class="cls-1" x="11.53" y="44.51" width="17.64" height="32.42" rx="1.82" ry="1.82" transform="translate(40.71 121.45) rotate(180)"/>
      <g>
        <rect class="cls-1" x="15.19" y="48.52" width="10.34" height="24.41"/>
        <path class="cls-3" d="m24.3,49.73v21.98h-7.9v-21.98h7.9m1.33-2.44h-10.56c-.61,0-1.11.5-1.11,1.11v24.64c0,.61.5,1.11,1.11,1.11h10.56c.61,0,1.11-.5,1.11-1.11v-24.64c0-.61-.5-1.11-1.11-1.11h0Z"/>
      </g>
    </g>
    <g>
      <rect class="cls-3" x="45.33" y="76.93" width="2.95" height="3.37" transform="translate(93.6 157.24) rotate(180)"/>
      <rect class="cls-3" x="50.22" y="76.93" width="2.95" height="3.37" transform="translate(103.39 157.24) rotate(180)"/>
      <rect class="cls-3" x="45.33" y="41.14" width="2.95" height="3.37" transform="translate(93.6 85.66) rotate(180)"/>
      <rect class="cls-3" x="50.22" y="41.14" width="2.95" height="3.37" transform="translate(103.39 85.66) rotate(180)"/>
      <rect class="cls-3" x="57.76" y="55.92" width="3.37" height="2.95" transform="translate(116.84 -2.05) rotate(90)"/>
      <rect class="cls-3" x="57.76" y="50.33" width="3.37" height="2.95" transform="translate(111.25 -7.64) rotate(90)"/>
      <rect class="cls-3" x="37.16" y="55.92" width="3.37" height="2.95" transform="translate(96.25 18.55) rotate(90)"/>
      <rect class="cls-3" x="37.16" y="50.33" width="3.37" height="2.95" transform="translate(90.66 12.96) rotate(90)"/>
      <rect class="cls-3" x="57.76" y="68.06" width="3.37" height="2.95" transform="translate(128.98 10.09) rotate(90)"/>
      <rect class="cls-3" x="57.76" y="62.47" width="3.37" height="2.95" transform="translate(123.39 4.5) rotate(90)"/>
      <rect class="cls-3" x="37.16" y="68.06" width="3.37" height="2.95" transform="translate(108.39 30.69) rotate(90)"/>
      <rect class="cls-3" x="37.16" y="62.47" width="3.37" height="2.95" transform="translate(102.79 25.09) rotate(90)"/>
      <rect class="cls-1" x="40.33" y="44.51" width="17.64" height="32.42" rx="1.82" ry="1.82" transform="translate(98.3 121.45) rotate(180)"/>
      <g>
        <rect class="cls-1" x="43.98" y="48.52" width="10.34" height="24.41"/>
        <path class="cls-3" d="m53.1,49.73v21.98h-7.9v-21.98h7.9m1.33-2.44h-10.56c-.61,0-1.11.5-1.11,1.11v24.64c0,.61.5,1.11,1.11,1.11h10.56c.61,0,1.11-.5,1.11-1.11v-24.64c0-.61-.5-1.11-1.11-1.11h0Z"/>
      </g>
    </g>
  </g>
</svg>