<?xml version="1.0" encoding="UTF-8"?>
<svg id="Layer_1" data-name="Layer 1" xmlns="http://www.w3.org/2000/svg" xmlns:xlink="http://www.w3.org/1999/xlink" viewBox="0 0 128 128">
  <defs>
    <style>
      .cls-1 {
        fill: #1b0049;
      }

      .cls-2 {
        fill: aqua;
      }
    </style>
    <filter id="outer-glow-1" filterUnits="userSpaceOnUse">
      <feOffset dx="0" dy="0"/>
      <feGaussianBlur result="blur" stdDeviation="6.22"/>
      <feFlood flood-color="aqua" flood-opacity=".75"/>
      <feComposite in2="blur" operator="in"/>
      <feComposite in="SourceGraphic"/>
    </filter>
  </defs>
  <path class="cls-1" d="m93.79,9.21h-50.26c-3.3,0-5.97,2.67-5.97,5.97v25.64c0,.94-.37,1.84-1.04,2.5l-7.24,7.24c-.66.66-1.04,1.57-1.04,2.5v5.91c0,1.13.93,2.04,2.06,2.01l5.97-.15c1.13-.03,2.06.88,2.06,2.01v6.3c0,.94-.37,1.84-1.04,2.5l-7.65,7.65c-.66.66-1.04,1.57-1.04,2.5v31.01c0,3.3,2.67,5.97,5.97,5.97h59.19c3.3,0,5.97-2.67,5.97-5.97V15.18c0-3.3-2.67-5.97-5.97-5.97Z"/>
  <rect class="cls-2" x="83.61" y="24.23" width="21.18" height="6.53" transform="translate(121.7 -66.71) rotate(90)"/>
  <rect class="cls-2" x="76.35" y="24.23" width="21.18" height="6.53" transform="translate(114.44 -59.45) rotate(90)"/>
  <rect class="cls-2" x="67.23" y="22.36" width="24.91" height="6.53" transform="translate(105.32 -54.06) rotate(90)"/>
  <rect class="cls-2" x="61.84" y="24.23" width="21.18" height="6.53" transform="translate(99.92 -44.93) rotate(90)"/>
  <rect class="cls-2" x="52.72" y="22.36" width="24.91" height="6.53" transform="translate(90.8 -39.54) rotate(90)"/>
  <rect class="cls-2" x="47.32" y="24.23" width="21.18" height="6.53" transform="translate(85.41 -30.42) rotate(90)"/>
  <rect class="cls-2" x="40.06" y="24.23" width="21.18" height="6.53" transform="translate(78.15 -23.16) rotate(90)"/>
  <rect class="cls-2" x="32.81" y="24.23" width="21.18" height="6.53" transform="translate(70.89 -15.9) rotate(90)"/>
</svg>