<?xml version="1.0" encoding="UTF-8"?>
<svg id="Layer_1" data-name="Layer 1" xmlns="http://www.w3.org/2000/svg" viewBox="0 0 128 128">
  <defs>
    <style>
      .cls-1 {
        stroke-width: 1.92px;
      }

      .cls-1, .cls-2 {
        fill: aqua;
      }

      .cls-1, .cls-2, .cls-3, .cls-4 {
        stroke-miterlimit: 10;
      }

      .cls-1, .cls-2, .cls-4 {
        stroke: #1b0049;
      }

      .cls-2 {
        stroke-width: 2px;
      }

      .cls-3 {
        fill: #1b0049;
        stroke: aqua;
      }

      .cls-4 {
        fill: none;
      }
    </style>
  </defs>
  <polyline class="cls-3" points="85.87 10.91 106.42 10.91 119.27 20.99 119.27 114.32 102.29 114.32 26.8 114.32 9.82 114.32 9.82 20.99 22.67 10.91 43.22 10.91"/>
  <path class="cls-2" d="m30.48,76.89h68.12c2.1,0,3.81,1.71,3.81,3.81v36.39H26.67v-36.39c0-2.1,1.71-3.81,3.81-3.81Z"/>
  <g>
    <path d="m68.09,57.34c-.89,0-1.72.38-2.61,1.32v5.73c.79.7,1.68.94,2.42.94,1.54,0,2.79-1.23,2.79-4.17,0-2.55-.83-3.82-2.61-3.82Z"/>
    <path d="m29.85,44.57v32.32h69.59v-32.32H29.85Zm19.94,23.87h-10.67v-2.25l5.86-8.65h-5.17v-3.3h9.82v2.25l-5.9,8.65h6.05v3.31Zm8.57,0h-3.34v-10.91h-4.53v-3.3h7.87v14.21Zm-1.82-16.43c-1.29,0-2.22-1.03-2.22-2.58s.93-2.62,2.22-2.62,2.22,1.08,2.22,2.62-.93,2.58-2.22,2.58Zm12.33,16.77c-1.24,0-2.46-.56-3.47-1.53h-.1l.19,2.3v4.16h-4.19v-19.48h3.41l.3,1.45h.1c1.14-1.04,2.69-1.79,4.21-1.79,3.53,0,5.66,2.84,5.66,7.23,0,4.87-2.96,7.67-6.13,7.67Zm27.06,4.5h-1.83v-2.64h-5.67v2.17h-1.41c-.2-1.33-.44-2.02-.89-2.78v-1.67h7.97v-2.23h1.83v7.14Zm-3.83-8.77c-2.55,0-4.02-1.89-4.02-3.91s1.47-3.91,4.02-3.91,4.01,1.89,4.01,3.91-1.47,3.91-4.01,3.91Zm0-9.27c-2.55,0-4.02-1.89-4.02-3.91s1.47-3.91,4.02-3.91,4.01,1.89,4.01,3.91-1.47,3.91-4.01,3.91Z"/>
    <path d="m92.1,49.76c-1.33,0-2.19.53-2.19,1.58s.86,1.58,2.19,1.58,2.18-.53,2.18-1.58-.85-1.58-2.18-1.58Z"/>
    <path d="m92.1,59.02c-1.33,0-2.19.53-2.19,1.58s.86,1.58,2.19,1.58,2.18-.53,2.18-1.58-.85-1.58-2.18-1.58Z"/>
  </g>
  <line class="cls-4" x1="26.67" y1="91.95" x2="102.42" y2="91.95"/>
  <line class="cls-4" x1="26.67" y1="105.83" x2="102.42" y2="105.83"/>
  <rect class="cls-1" x="45.95" y="10.91" width="53.49" height="11.46"/>
</svg>