<?xml version="1.0" encoding="UTF-8"?>
<svg id="Layer_1" data-name="Layer 1" xmlns="http://www.w3.org/2000/svg" viewBox="0 0 128 128">
  <defs>
    <style>
      .cls-1 {
        fill: #1b0049;
      }

      .cls-2 {
        fill: aqua;
      }
    </style>
  </defs>
  <g>
    <path class="cls-1" d="m64,3.81C37.98,3.81,15.81,20.32,7.41,43.44c-2.33,6.41-3.6,13.34-3.6,20.56,0,33.24,26.95,60.19,60.19,60.19,26.05,0,48.23-16.55,56.61-39.7,2.32-6.4,3.58-13.3,3.58-20.49,0-33.24-26.95-60.19-60.19-60.19Zm0,70.01c-5.42,0-9.82-4.4-9.82-9.82s4.4-9.82,9.82-9.82,9.82,4.4,9.82,9.82-4.4,9.82-9.82,9.82Z"/>
    <path class="cls-1" d="m64,43.11c-11.54,0-20.89,9.35-20.89,20.89s9.35,20.89,20.89,20.89,20.89-9.35,20.89-20.89-9.35-20.89-20.89-20.89Zm0,34.33c-7.43,0-13.45-6.02-13.45-13.45s6.02-13.45,13.45-13.45,13.45,6.02,13.45,13.45-6.02,13.45-13.45,13.45Z"/>
    <path class="cls-2" d="m64,39.3c-10.66,0-19.74,6.75-23.2,16.21-.97,2.65-1.5,5.51-1.5,8.49,0,13.64,11.06,24.7,24.7,24.7,10.7,0,19.81-6.8,23.24-16.31.95-2.62,1.46-5.44,1.46-8.39,0-13.64-11.06-24.7-24.7-24.7Zm0,45.59c-11.54,0-20.89-9.35-20.89-20.89s9.35-20.89,20.89-20.89,20.89,9.35,20.89,20.89-9.35,20.89-20.89,20.89Z"/>
    <path class="cls-2" d="m64,50.55c-7.43,0-13.45,6.02-13.45,13.45s6.02,13.45,13.45,13.45,13.45-6.02,13.45-13.45-6.02-13.45-13.45-13.45Zm0,23.27c-5.42,0-9.82-4.4-9.82-9.82s4.4-9.82,9.82-9.82,9.82,4.4,9.82,9.82-4.4,9.82-9.82,9.82Z"/>
  </g>
  <path class="cls-2" d="m66.56,91.14c9.56-.91,18.01-6.83,22.1-15.51l28.62,10.38c-8.53,20.63-28.41,34.57-50.72,35.57v-30.43Z"/>
  <path class="cls-2" d="m10.84,41.7C19.33,21.24,39.17,7.42,61.44,6.43v30.43c-9.51.9-17.93,6.79-22.05,15.4l-28.55-10.56Z"/>
</svg>