<?xml version="1.0" encoding="UTF-8"?>
<svg id="Layer_1" data-name="Layer 1" xmlns="http://www.w3.org/2000/svg" viewBox="0 0 128 128">
  <defs>
    <style>
      .cls-1 {
        fill: #1b0049;
      }

      .cls-1, .cls-2 {
        stroke: aqua;
        stroke-miterlimit: 10;
        stroke-width: .3px;
      }

      .cls-2 {
        fill: aqua;
      }
    </style>
  </defs>
  <g>
    <path class="cls-2" d="m23.33,54.05h81.34c2.37,0,4.29,1.92,4.29,4.29v64.17H19.04V58.34c0-2.37,1.92-4.29,4.29-4.29Z"/>
    <path class="cls-1" d="m19.04,122.52V58.34c0-2.37,1.92-4.29,4.29-4.29h81.34c2.37,0,4.29,1.92,4.29,4.29v64.17h13.56V16.41l-11.12-10.92H5.48v117.04h13.56Z"/>
  </g>
  <path class="cls-2" d="m39.48,5.48v34.77c0,3.74,3.03,6.78,6.78,6.78h50.23c3.74,0,6.78-3.03,6.78-6.78V5.48h-63.78Zm52.02,30.92c0,1.78-1.44,3.22-3.22,3.22h-9.17c-1.78,0-3.22-1.44-3.22-3.22v-17.36c0-1.78,1.44-3.22,3.22-3.22h9.17c1.78,0,3.22,1.44,3.22,3.22v17.36Z"/>
</svg>