<?xml version="1.0" encoding="UTF-8"?>
<svg id="Layer_1" data-name="Layer 1" xmlns="http://www.w3.org/2000/svg" viewBox="0 0 128 128">
  <defs>
    <style>
      .cls-1 {
        fill: #1b0049;
      }

      .cls-2 {
        fill: aqua;
      }
    </style>
  </defs>
  <g>
    <g>
      <path class="cls-1" d="m6.74,42.79c-7.97,24.55.83,50.51,20.07,65.52,5.34,4.16,11.48,7.48,18.29,9.69,31.36,10.18,65.03-7,75.21-38.36,7.97-24.57-.85-50.57-20.12-65.56-5.32-4.14-11.45-7.44-18.24-9.65C50.59-5.75,16.92,11.43,6.74,42.79Zm66.05,21.43c-1.66,5.12-7.15,7.92-12.27,6.26-5.12-1.66-7.92-7.15-6.26-12.27,1.66-5.12,7.15-7.92,12.27-6.26s7.92,7.15,6.26,12.27Z"/>
      <path class="cls-1" d="m43.82,54.82c-3.53,10.88,2.43,22.57,13.31,26.1,10.88,3.53,22.57-2.43,26.1-13.31,3.53-10.88-2.43-22.57-13.31-26.1-10.88-3.53-22.57,2.43-26.1,13.31Zm32.39,10.51c-2.27,7.01-9.79,10.84-16.8,8.57-7.01-2.27-10.84-9.79-8.57-16.8,2.27-7.01,9.79-10.84,16.8-8.57,7.01,2.27,10.84,9.79,8.57,16.8Z"/>
      <path class="cls-2" d="m40.22,53.65c-3.26,10.06.33,20.69,8.19,26.85,2.2,1.73,4.74,3.1,7.55,4.01,12.87,4.18,26.69-2.87,30.87-15.74,3.27-10.09-.35-20.77-8.28-26.92-2.18-1.69-4.69-3.04-7.47-3.95-12.87-4.18-26.69,2.87-30.87,15.74Zm43.01,13.95c-3.53,10.88-15.22,16.84-26.1,13.31s-16.84-15.22-13.31-26.1c3.53-10.88,15.22-16.84,26.1-13.31s16.84,15.22,13.31,26.1Z"/>
      <path class="cls-2" d="m50.84,57.1c-2.27,7.01,1.56,14.53,8.57,16.8,7.01,2.27,14.53-1.56,16.8-8.57,2.27-7.01-1.56-14.53-8.57-16.8-7.01-2.27-14.53,1.56-16.8,8.57Zm21.95,7.12c-1.66,5.12-7.15,7.92-12.27,6.26-5.12-1.66-7.92-7.15-6.26-12.27,1.66-5.12,7.15-7.92,12.27-6.26s7.92,7.15,6.26,12.27Z"/>
    </g>
    <path class="cls-2" d="m89.91,67.11c2.07-9.3-.94-19.08-7.87-25.6l18.55-23.82c16.85,14.36,23.92,37.39,18.03,58.74l-28.71-9.32Z"/>
    <path class="cls-2" d="m26.21,104.54C9.51,90.27,2.54,67.32,8.43,46.01l28.71,9.32c-2.06,9.25.91,18.99,7.78,25.52l-18.7,23.71Z"/>
  </g>
  <g>
    <path class="cls-1" d="m64.56,124.64l-9.14-16.49c-2.55,6.75-8.17,12.21-14.23,13.3l-27.92,5.04,1.09-21.45h-.05s.67-12.81.67-12.81l39.19-7.08c1.81-.33,3.62.46,4.61,2.02l6.16,9.69,10.12-14.18c.69-.96,1.71-1.61,2.87-1.82l30.01-5.42c3.98-.72,8.51.81,11.83,3.99,3.31,3.17,4.88,7.42,4.3,11.65-1.21,8.85-8.01,16.83-15.48,18.18l-27.92,5.04.78-15.38-16.9,25.7Zm-33.61-22.59l-.46,9,2.15-.42c1.99-.36,4.46-2.96,4.9-6.12.21-1.55-.19-2.55-.63-2.97-.12-.11-.49-.46-1.36-.31l-4.59.83Zm67.41-12.18l-.46,9,2.15-.42c1.99-.36,4.46-2.96,4.89-6.12.21-1.55-.19-2.55-.63-2.97-.12-.11-.49-.46-1.36-.31l-4.59.83Z"/>
    <path class="cls-2" d="m53.22,100.63l10.53,19,19.68-29.92,18.07-3.26c3.28-.59,5.5,2.15,4.95,6.12s-3.64,7.68-6.92,8.27l-5.34,1.05.7-13.61-11.45,2.07-1.06,20.79,24.77-4.48c6.35-1.15,12.36-8.32,13.41-16.03,1.05-7.7-6.8-13.95-13.16-12.8l-23.58,4.26-6.43,1.16c-.51.09-.96.38-1.25.8l-12.31,17.24-8.18-12.86c-.43-.68-1.23-1.02-2.02-.88l-13.63,2.46-23.58,4.26-.39,7.61,18.07-3.26c3.28-.59,5.5,2.15,4.95,6.12-.54,3.97-3.64,7.68-6.92,8.27l-5.34,1.05.7-13.61-11.45,2.07-1.06,20.79,24.77-4.48c6.35-1.15,12.36-8.32,13.41-16.03.1-.74.12-1.48.06-2.19"/>
  </g>
</svg>