<?xml version="1.0" encoding="UTF-8"?>
<svg id="Layer_1" data-name="Layer 1" xmlns="http://www.w3.org/2000/svg" viewBox="0 0 128 128">
  <defs>
    <style>
      .cls-1 {
        fill: aqua;
      }

      .cls-2 {
        fill: #1b0049;
        stroke-width: .8px;
      }

      .cls-2, .cls-3 {
        stroke: aqua;
        stroke-miterlimit: 10;
      }

      .cls-3 {
        fill: none;
        stroke-width: 4.04px;
      }
    </style>
  </defs>
  <path class="cls-3" d="m87.87,96.31c22.47-14.89,15.03-39.96,40.5-35.58"/>
  <path class="cls-3" d="m79.42,107.6c5.14-2.21,10.12-15.68,49.08-20.95"/>
  <g>
    <polygon class="cls-2" points="68.75 124.24 52.95 124.24 38.66 78.09 82.57 47 105.38 53.88 93.28 104.82 68.75 124.24"/>
    <path class="cls-1" d="m43.25,78.76c6.2.94,12.89,1.05,18.76,2.96-3.19-.06-6.31-.55-9.43-1.17-3.05-.62-6.46-1.01-9.33-1.8h0Z"/>
    <path class="cls-1" d="m100.04,57.07c-9.23,6.85-21.85,17.45-31.39,23.32,8.6-7.27,22.2-16.82,31.39-23.32h0Z"/>
    <path class="cls-1" d="m68.59,122.5c-.72-10.94-2.72-26.57-2.44-37.25,1.41,10.66,2,26.52,2.44,37.25h0Z"/>
    <path class="cls-1" d="m57.18,87.98c-.18-1.16-1.65-2.31-3.29-2.53s-2.81.58-2.55,1.78,1.75,2.26,3.33,2.45c1.57.19,2.69-.56,2.51-1.7Z"/>
    <path class="cls-1" d="m58.12,93.95c-.16-1.03-1.53-2.02-3.06-2.2s-2.64.55-2.41,1.61,1.61,1.98,3.1,2.13c1.47.15,2.53-.53,2.37-1.54Z"/>
    <path class="cls-1" d="m58.96,99.25c-.14-.92-1.42-1.79-2.86-1.92s-2.48.52-2.28,1.47,1.5,1.75,2.9,1.87,2.39-.51,2.25-1.41Z"/>
    <path class="cls-1" d="m56.7,103.09c.08,0,.16,0,.25,0,1.18.09,1.91.72,1.96,1.02,0,.02,0,.04-.03.07-.1.11-.43.3-1.06.3-.07,0-.14,0-.21,0-1.08-.07-1.92-.66-1.99-1.01,0-.04,0-.05.02-.08.12-.15.5-.31,1.06-.31m0-.8c-1.21,0-2.03.58-1.86,1.35.18.83,1.4,1.56,2.72,1.65.09,0,.18,0,.26,0,1.17,0,1.99-.55,1.87-1.3-.13-.82-1.33-1.59-2.69-1.7-.11,0-.21-.01-.31-.01h0Z"/>
    <path class="cls-1" d="m60.37,108.27c-.12-.74-1.25-1.42-2.54-1.5s-2.23.48-2.07,1.24,1.31,1.39,2.56,1.46,2.15-.46,2.04-1.19Z"/>
    <path class="cls-1" d="m58.39,111.6s.1,0,.15,0c.89.04,1.49.42,1.62.61-.11.09-.43.23-.98.23h-.12c-.89-.04-1.51-.42-1.65-.62.11-.09.43-.23.97-.23m0-.8c-1.13,0-1.92.5-1.78,1.15.14.67,1.23,1.25,2.42,1.3.05,0,.1,0,.15,0,1.1,0,1.89-.48,1.79-1.11-.11-.67-1.18-1.28-2.4-1.34-.06,0-.13,0-.19,0h0Z"/>
    <path class="cls-1" d="m59.12,115.26h.11c.76.03,1.27.29,1.45.45-.15.08-.45.18-.9.18h-.08c-.75-.02-1.28-.29-1.47-.45.15-.08.45-.18.89-.18m0-.8c-1.1,0-1.88.47-1.75,1.07.13.61,1.16,1.13,2.3,1.16.04,0,.07,0,.11,0,1.07,0,1.85-.45,1.76-1.03-.1-.61-1.11-1.15-2.27-1.19-.05,0-.09,0-.14,0h0Z"/>
  </g>
  <g>
    <path class="cls-2" d="m74.36,32.54c-21.69-4.57-43.05,9.36-47.62,31.04l-7.83-1.65c5.48-26.01,31.1-42.71,57.11-37.23l-1.65,7.83Z"/>
    <path class="cls-2" d="m77.69,15.38C46.72,8.85,16.22,28.74,9.69,59.71l-8.18-1.72c3.62-17.19,13.72-31.94,28.44-41.53S62.23,3.57,79.42,7.2l-1.72,8.18Z"/>
    <path class="cls-2" d="m70.65,49.6c-5.91-1.25-11.96-.12-17.02,3.19-5.06,3.3-8.54,8.37-9.78,14.29l-6.96-1.47c1.64-7.77,6.2-14.44,12.86-18.78s14.6-5.82,22.37-4.19l-1.47,6.96Z"/>
  </g>
</svg>