<?xml version="1.0" encoding="UTF-8"?>
<svg id="Layer_1" data-name="Layer 1" xmlns="http://www.w3.org/2000/svg" xmlns:xlink="http://www.w3.org/1999/xlink" viewBox="0 0 128 128">
  <defs>
    <style>
      .cls-1 {
        stroke-width: .86px;
      }

      .cls-1, .cls-2, .cls-3 {
        fill: #1b0049;
        stroke: aqua;
        stroke-miterlimit: 10;
      }

      .cls-4 {
        filter: url(#outer-glow-3);
      }

      .cls-5 {
        filter: url(#outer-glow-1);
      }

      .cls-2, .cls-3 {
        stroke-width: .8px;
      }

      .cls-3 {
        filter: url(#outer-glow-4);
      }

      .cls-6 {
        filter: url(#outer-glow-2);
      }
    </style>
    <filter id="outer-glow-1" filterUnits="userSpaceOnUse">
      <feOffset dx="0" dy="0"/>
      <feGaussianBlur result="blur" stdDeviation="6.38"/>
      <feFlood flood-color="aqua" flood-opacity=".75"/>
      <feComposite in2="blur" operator="in"/>
      <feComposite in="SourceGraphic"/>
    </filter>
    <filter id="outer-glow-2" filterUnits="userSpaceOnUse">
      <feOffset dx="0" dy="0"/>
      <feGaussianBlur result="blur-2" stdDeviation="6.38"/>
      <feFlood flood-color="aqua" flood-opacity=".75"/>
      <feComposite in2="blur-2" operator="in"/>
      <feComposite in="SourceGraphic"/>
    </filter>
    <filter id="outer-glow-3" filterUnits="userSpaceOnUse">
      <feOffset dx="0" dy="0"/>
      <feGaussianBlur result="blur-3" stdDeviation="6.38"/>
      <feFlood flood-color="aqua" flood-opacity=".75"/>
      <feComposite in2="blur-3" operator="in"/>
      <feComposite in="SourceGraphic"/>
    </filter>
    <filter id="outer-glow-4" filterUnits="userSpaceOnUse">
      <feOffset dx="0" dy="0"/>
      <feGaussianBlur result="blur-4" stdDeviation="6.38"/>
      <feFlood flood-color="aqua" flood-opacity=".75"/>
      <feComposite in2="blur-4" operator="in"/>
      <feComposite in="SourceGraphic"/>
    </filter>
  </defs>
  <polyline class="cls-2" points="68.74 86.89 49.69 103.62 54.65 103.6 71.79 88.78 71.44 87.58"/>
  <polyline class="cls-2" points="71.65 87.72 53.69 87.72 54.58 84.58 71.32 84.58"/>
  <polyline class="cls-1" points="47.26 103.58 77.98 103.71 79.11 107.13 46.1 107.13"/>
  <g class="cls-5">
    <path class="cls-2" d="m64,75.17c-12.11,0-21.93-9.82-21.93-21.93s9.82-21.93,21.93-21.93,21.93,9.82,21.93,21.93c0,11.34-8.61,20.67-19.64,21.81,9.32-.89,17.07-7.13,20.14-15.62.91-2.53,1.41-5.25,1.41-8.09,0-13.16-10.67-23.84-23.84-23.84-10.28,0-19.05,6.51-22.39,15.64-.94,2.56-1.45,5.32-1.45,8.2,0,13.16,10.67,23.84,23.84,23.84Z"/>
  </g>
  <path class="cls-2" d="m64.75,64.02l15.34,53.96c.23.93,2.09,1.51,4.15,1.31s3.58-1.04,3.2-2.08l-15.89-55.89"/>
  <path class="cls-2" d="m60.43,64.02l-15.34,53.96c-.23.93-2.09,1.51-4.15,1.31-2.06-.2-3.58-1.04-3.2-2.08l16.42-57.76"/>
  <g class="cls-6">
    <path class="cls-2" d="m104.18,55.67c0-22.19-17.99-40.18-40.18-40.18S23.82,33.48,23.82,55.67c0,11.98,5.25,22.73,13.56,30.09-7-6.89-11.35-16.47-11.35-27.06,0-20.97,17-37.97,37.97-37.97s37.97,17,37.97,37.97c0,10.6-4.35,20.18-11.35,27.06,8.32-7.36,13.56-18.11,13.56-30.09Z"/>
  </g>
  <g class="cls-4">
    <path class="cls-2" d="m64,4C38.05,4,15.95,20.47,7.57,43.52c-2.32,6.4-3.59,13.3-3.59,20.5,0,32.15,25.28,58.4,57.05,59.95-30.56-1.55-54.85-26.81-54.85-57.76,0-6.94,1.22-13.59,3.46-19.75C17.7,24.25,39,8.38,64,8.38c31.94,0,57.83,25.89,57.83,57.83,0,6.91-1.21,13.54-3.44,19.69-7.8,21.55-28.05,37.14-52.06,38.1,24.96-.96,46.01-17.15,54.12-39.54,2.31-6.38,3.57-13.26,3.57-20.43,0-33.15-26.87-60.02-60.02-60.02Z"/>
  </g>
  <circle class="cls-3" cx="63.8" cy="51.57" r="12.46" transform="translate(-14.88 28.34) rotate(-22.5)"/>
</svg>