<?xml version="1.0" encoding="UTF-8"?>
<svg id="Layer_1" data-name="Layer 1" xmlns="http://www.w3.org/2000/svg" viewBox="0 0 128 128">
  <defs>
    <style>
      .cls-1 {
        fill: #1b0049;
      }

      .cls-2 {
        fill: aqua;
      }
    </style>
  </defs>
  <path class="cls-1" d="m80.95,23.57l-.82.08c-.21.02-.46-.18-.57-.45l-2.62-6.91c-.1-.27-.01-.5.2-.51l.83-.04c.21-.01.47.2.57.47l2.6,6.85c.1.27.02.5-.19.52Z"/>
  <path class="cls-1" d="m84.25,32.28l-.8.13c-.2.03-.45-.16-.56-.43l-2.61-6.87c-.1-.27-.02-.51.19-.53l.81-.09c.21-.02.46.18.56.45l2.58,6.81c.1.27.02.51-.18.54Z"/>
  <path class="cls-1" d="m89.23,45.42l-.77.19c-.2.05-.44-.13-.54-.4l-2.59-6.82c-.1-.27-.02-.52.18-.56l.79-.15c.2-.04.44.15.54.41l2.56,6.75c.1.26.02.52-.17.57Z"/>
  <path class="cls-2" d="m105.46,100.18l-33.87,22.23c-2.72,1.78-6.04.62-7.34-2.66L21.2,11.09c-1.4-3.52.45-6.36,4.01-6.33l44.07.36c2.23.02,4.82,2.21,5.84,4.9l31.69,83.52c.96,2.54.38,5.5-1.35,6.63Z"/>
  <path class="cls-1" d="m66.98,116.46L25.87,12.39c-.8-2.03.23-3.68,2.26-3.7l41.44-.39c1.32-.01,2.86,1.27,3.47,2.87l31.39,82.57c.58,1.51.21,3.26-.83,3.92l-32.4,20.42c-1.58,1-3.49.28-4.24-1.61Z"/>
  <g>
    <polygon class="cls-2" points="66.92 42.73 69.55 40.33 72.39 44.3 66.92 42.73"/>
    <polygon class="cls-2" points="70.24 51.32 75.98 45.68 78.93 53.38 70.24 51.32"/>
    <polygon class="cls-2" points="73.9 61.01 80.75 53.8 81.15 62.42 73.9 61.01"/>
    <polygon class="cls-2" points="64.49 42.3 60.7 41.39 62.4 36.89 67.01 40.22 64.49 42.3"/>
    <polygon class="cls-2" points="67.98 51.33 59.28 49.22 65.08 43.82 73.25 46.06 67.98 51.33"/>
    <polygon class="cls-2" points="62.67 43.57 58.36 42.44 58.72 47.23 62.67 43.57"/>
    <polygon class="cls-2" points="66.07 52.37 56.19 50.18 59.54 58.75 66.07 52.37"/>
    <polygon class="cls-2" points="71.75 61.07 61.94 59.11 68.45 52.53 77.57 54.7 71.75 61.07"/>
    <polygon class="cls-2" points="69.98 62.24 58 60.22 64.64 67.94 69.98 62.24"/>
    <polygon class="cls-2" points="76.02 74.15 74.28 69.65 66.74 68.44 72.25 62.35 80.11 63.88 75.66 69.15 77.38 73.61 76.02 74.15"/>
  </g>
</svg>