<?xml version="1.0" encoding="UTF-8"?>
<svg id="Layer_1" data-name="Layer 1" xmlns="http://www.w3.org/2000/svg" viewBox="0 0 128 128">
  <defs>
    <style>
      .cls-1 {
        stroke-width: 5.35px;
      }

      .cls-1, .cls-2, .cls-3 {
        stroke: #1b0049;
      }

      .cls-1, .cls-2, .cls-3, .cls-4 {
        stroke-miterlimit: 10;
      }

      .cls-1, .cls-2, .cls-4 {
        fill: aqua;
      }

      .cls-5 {
        fill: #1b0049;
      }

      .cls-2, .cls-3, .cls-4 {
        stroke-width: 2.68px;
      }

      .cls-3 {
        fill: none;
      }

      .cls-4 {
        stroke: aqua;
      }
    </style>
  </defs>
  <g>
    <rect class="cls-1" x="4.76" y="4.76" width="118.48" height="118.48" rx="10.06" ry="10.06"/>
    <rect class="cls-2" x="14.08" y="14.08" width="99.84" height="99.84" rx="5.09" ry="5.09"/>
    <g>
      <g>
        <line class="cls-3" x1="64" y1="9.73" x2="64" y2="13.99"/>
        <line class="cls-3" x1="76.19" y1="9.73" x2="76.19" y2="13.99"/>
        <line class="cls-3" x1="70.1" y1="9.73" x2="70.1" y2="13.99"/>
        <line class="cls-3" x1="57.9" y1="9.73" x2="57.9" y2="13.99"/>
        <line class="cls-3" x1="51.81" y1="9.73" x2="51.81" y2="13.99"/>
      </g>
      <g>
        <line class="cls-3" x1="64" y1="118.27" x2="64" y2="114.01"/>
        <line class="cls-3" x1="51.81" y1="118.27" x2="51.81" y2="114.01"/>
        <line class="cls-3" x1="57.9" y1="118.27" x2="57.9" y2="114.01"/>
        <line class="cls-3" x1="70.1" y1="118.27" x2="70.1" y2="114.01"/>
        <line class="cls-3" x1="76.19" y1="118.27" x2="76.19" y2="114.01"/>
      </g>
    </g>
  </g>
  <rect class="cls-5" x="18.52" y="18.52" width="90.96" height="90.96"/>
  <g>
    <g>
      <line class="cls-3" x1="118.27" y1="64" x2="114.01" y2="64"/>
      <line class="cls-3" x1="118.27" y1="76.19" x2="114.01" y2="76.19"/>
      <line class="cls-3" x1="118.27" y1="70.1" x2="114.01" y2="70.1"/>
      <line class="cls-3" x1="118.27" y1="57.9" x2="114.01" y2="57.9"/>
      <line class="cls-3" x1="118.27" y1="51.81" x2="114.01" y2="51.81"/>
    </g>
    <g>
      <line class="cls-3" x1="9.73" y1="64" x2="13.99" y2="64"/>
      <line class="cls-3" x1="9.73" y1="51.81" x2="13.99" y2="51.81"/>
      <line class="cls-3" x1="9.73" y1="57.9" x2="13.99" y2="57.9"/>
      <line class="cls-3" x1="9.73" y1="70.1" x2="13.99" y2="70.1"/>
      <line class="cls-3" x1="9.73" y1="76.19" x2="13.99" y2="76.19"/>
    </g>
  </g>
  <path class="cls-4" d="m37.56,77.94c2.24,0,4.24-.45,6-1.35,1.75-.9,3.3-2.12,4.62-3.65l.57.66c-1.39,1.62-3.05,2.9-4.98,3.83-1.93.93-4,1.39-6.22,1.39-2.04,0-3.95-.38-5.73-1.15-1.79-.77-3.35-1.83-4.69-3.19-1.34-1.36-2.4-2.94-3.16-4.74-.77-1.8-1.15-3.72-1.15-5.75s.38-3.95,1.15-5.75c.77-1.8,1.82-3.38,3.16-4.74,1.34-1.36,2.91-2.42,4.69-3.19,1.78-.77,3.7-1.15,5.73-1.15s4.06.41,5.91,1.22c1.84.81,3.44,1.95,4.8,3.43l-.57.66c-1.3-1.39-2.79-2.47-4.47-3.25-1.68-.78-3.57-1.17-5.66-1.17-.83,0-1.67.13-2.52.38-.86.25-1.67.67-2.43,1.26-.83.62-1.59,1.39-2.28,2.32-.69.93-1.25,2.18-1.66,3.76-.41,1.58-.62,3.65-.62,6.22s.21,4.64.62,6.22.97,2.82,1.66,3.74c.69.92,1.45,1.7,2.28,2.35.77.56,1.58.97,2.43,1.24.86.27,1.7.4,2.52.4Z"/>
  <path class="cls-5" d="m27.78,73.87c1.12,1.09,2.36,1.98,3.72,2.66-.47-.41-.97-.93-1.5-1.55-.53-.62-1-1.39-1.42-2.3-.47-1.09-.83-2.35-1.06-3.78-.24-1.43-.35-3.06-.35-4.89s.12-3.46.35-4.89c.24-1.43.59-2.69,1.06-3.78.41-.94.89-1.72,1.42-2.32.53-.6,1.03-1.11,1.5-1.53-1.36.65-2.6,1.53-3.72,2.66-1.3,1.33-2.3,2.84-3.01,4.54-.71,1.7-1.06,3.47-1.06,5.33s.35,3.64,1.06,5.33c.71,1.7,1.71,3.21,3.01,4.54Z"/>
  <path class="cls-4" d="m76.05,53.55c-.68-1.23-1.73-2.27-3.15-3.11-1.43-.84-3.28-1.26-5.57-1.26h-12.98v29.65h5.09v-13.47h7.89c2.28,0,4.14-.42,5.57-1.26,1.43-.84,2.48-1.89,3.15-3.15.68-1.26,1.01-2.49,1.01-3.69s-.34-2.46-1.01-3.7Zm-4.98,7.37c-.6,1.1-1.37,1.96-2.3,2.59-.93.63-1.91.95-2.93.95h-6.4v-14.37h6.4c1.02,0,2,.31,2.93.92.93.62,1.7,1.46,2.3,2.52.6,1.07.9,2.29.9,3.67s-.3,2.62-.9,3.72Z"/>
  <rect class="cls-5" x="55.25" y="50.08" width="3.29" height="27.85"/>
  <path class="cls-5" d="m74.13,62.02c.66-.63,1.16-1.37,1.51-2.21.34-.84.52-1.7.52-2.57s-.18-1.72-.54-2.55-.86-1.57-1.49-2.23c-1.26-1.23-2.9-1.98-4.91-2.25.57.39,1.07.81,1.49,1.26,1.44,1.59,2.16,3.5,2.16,5.72s-.72,4.19-2.16,5.81c-.45.48-.96.92-1.53,1.31,2.04-.27,3.7-1.04,4.96-2.3Z"/>
  <path class="cls-4" d="m94.91,77.94c2.18,0,3.97-.54,5.35-1.62,1.39-1.08,2.41-2.48,3.08-4.2s1-3.55,1-5.47v-17.22h.84v17.22c0,1.45-.18,2.89-.55,4.34-.37,1.45-.98,2.76-1.84,3.94s-2,2.12-3.43,2.83c-1.43.71-3.21,1.06-5.33,1.06-.5,0-1.17-.04-1.99-.13-.83-.09-1.71-.31-2.66-.66-.94-.35-1.89-.94-2.83-1.77-1.27-1.12-2.19-2.5-2.77-4.14-.57-1.64-.86-3.53-.86-5.69v-16.99h4.96v19.6c0,1.92.21,3.47.64,4.65.43,1.18.99,2.07,1.68,2.68.69.6,1.45,1.02,2.28,1.24.83.22,1.64.33,2.43.33Z"/>
  <path class="cls-5" d="m87.17,75.6c.86.74,1.74,1.28,2.66,1.64-.03-.06-.06-.1-.09-.13-.03-.03-.07-.06-.13-.09-.89-.83-1.52-1.84-1.9-3.05-.47-1.33-.71-2.96-.71-4.91v-18.72h-3.19v16.11c0,4.13,1.12,7.18,3.36,9.16Z"/>
</svg>