<?xml version="1.0" encoding="UTF-8"?>
<svg id="Layer_1" data-name="Layer 1" xmlns="http://www.w3.org/2000/svg" viewBox="0 0 128 128">
  <defs>
    <style>
      .cls-1, .cls-2 {
        fill: #1b0049;
      }

      .cls-3 {
        fill: aqua;
      }

      .cls-2 {
        stroke: aqua;
        stroke-miterlimit: 10;
        stroke-width: .69px;
      }
    </style>
  </defs>
  <path class="cls-2" d="m5.25,102.1l4.81,9.53c1.14,2.26,3.45,3.68,5.97,3.68h95.93c2.53,0,4.84-1.42,5.97-3.68l4.81-9.53"/>
  <path class="cls-2" d="m111.51,48.96l11.53,50.68c.53,2.33-1.24,4.55-3.63,4.55H8.6c-2.39,0-4.16-2.22-3.63-4.55l11.53-50.68"/>
  <g>
    <path class="cls-1" d="m9.38,49.3c-1.26,0-2.4-.65-3.03-1.75-.63-1.09-.64-2.4,0-3.5L22.84,15.31c1.05-1.83,3.01-2.96,5.12-2.96h72.08c2.11,0,4.07,1.14,5.12,2.96l16.5,28.75c.63,1.1.63,2.4,0,3.5-.63,1.09-1.76,1.75-3.03,1.75H9.38Z"/>
    <path class="cls-3" d="m100.04,12.69c1.99,0,3.83,1.06,4.82,2.79l16.5,28.75c1.21,2.1-.31,4.72-2.74,4.72H9.38c-2.42,0-3.94-2.62-2.74-4.72L23.14,15.48c.99-1.73,2.83-2.79,4.82-2.79h72.08m0-.69H27.96c-2.23,0-4.31,1.2-5.42,3.14L6.04,43.89c-.69,1.2-.69,2.64,0,3.84.7,1.2,1.94,1.92,3.33,1.92h109.25c1.39,0,2.63-.72,3.33-1.92.7-1.2.7-2.64,0-3.84l-16.5-28.75c-1.11-1.94-3.19-3.14-5.42-3.14h0Z"/>
  </g>
  <polyline class="cls-3" points="103.81 48.96 114.39 95.43 13.61 95.43 24.19 48.96"/>
</svg>