<?xml version="1.0" encoding="UTF-8"?>
<svg id="Layer_2" data-name="Layer 2" xmlns="http://www.w3.org/2000/svg" xmlns:xlink="http://www.w3.org/1999/xlink" viewBox="0 0 128 128">
  <defs>
    <style>
      .cls-1, .cls-2, .cls-3 {
        fill: #1b0049;
      }

      .cls-4, .cls-5 {
        fill: aqua;
      }

      .cls-2 {
        stroke-width: 2.31px;
      }

      .cls-2, .cls-3 {
        stroke: aqua;
      }

      .cls-2, .cls-3, .cls-5 {
        stroke-miterlimit: 10;
      }

      .cls-3 {
        stroke-width: .43px;
      }

      .cls-6 {
        fill: #1bffff;
      }

      .cls-7 {
        filter: url(#outer-glow-2);
      }

      .cls-5 {
        filter: url(#outer-glow-1);
        stroke: #1b0049;
        stroke-width: 1.58px;
      }
    </style>
    <filter id="outer-glow-1" filterUnits="userSpaceOnUse">
      <feOffset dx="0" dy="0"/>
      <feGaussianBlur result="blur" stdDeviation="7.92"/>
      <feFlood flood-color="aqua" flood-opacity=".75"/>
      <feComposite in2="blur" operator="in"/>
      <feComposite in="SourceGraphic"/>
    </filter>
    <filter id="outer-glow-2" filterUnits="userSpaceOnUse">
      <feOffset dx="0" dy="0"/>
      <feGaussianBlur result="blur-2" stdDeviation="11.93"/>
      <feFlood flood-color="aqua" flood-opacity=".75"/>
      <feComposite in2="blur-2" operator="in"/>
      <feComposite in="SourceGraphic"/>
    </filter>
  </defs>
  <path class="cls-5" d="m-51.98,63.26c-8.16-.94-17.83.23-19.53,1.94l-9.07-9.86,22.45-34.54c2.28.77,4.81,2.43,7.9,4.87l1.34-3.14-13.74-9.81c-13.72-10.85-16.61-6.44-34.51,24.61l-21.12-22.96s-5.02,13.78-20.6,6.35c4.95,8.63,11.97,19,25.82,10.3l11.85,13.17c-20.96,34.17-25.46,40.9-40.08,30.72l-1.67,2.27,14.07,10.68c14.55,10.13,19.07,3.53,39.78-30.23l2.64,2.93-21.44,32.94,1.61,1.4,21.28-32.74,16.65,18.49s9.5-8.76,25.29-4.01c15.79,4.75,19.2,13.31,15.59,19.53-3.61,6.22-16.52,6.22-25.42,0l3.01,7.09s19.84,6.51,25.95-8.09c5.15-12.31-10.44-29.89-28.03-31.91Zm-32.96-12.66c12.73-22.08,17.91-30.84,24.67-30.27l-21.76,33.43-2.9-3.16Z"/>
  <g>
    <g>
      <circle class="cls-2" cx="64" cy="63.92" r="59.98"/>
      <g>
        <polygon class="cls-4" points="65.15 6.55 64 14.66 62.85 6.55 65.15 6.55 65.15 6.55"/>
        <polygon class="cls-4" points="62.85 121.3 64 113.18 65.15 121.3 62.85 121.3 62.85 121.3"/>
        <polygon class="cls-4" points="36.31 13.66 39.37 21.26 34.31 14.81 36.31 13.66 36.31 13.66"/>
        <polygon class="cls-4" points="91.69 114.19 88.63 106.58 93.69 113.04 91.69 114.19 91.69 114.19"/>
      </g>
      <g>
        <polygon class="cls-4" points="14.89 34.23 21.34 39.29 13.73 36.23 14.89 34.23 14.89 34.23"/>
        <polygon class="cls-4" points="113.11 93.61 106.66 88.55 114.27 91.61 113.11 93.61 113.11 93.61"/>
        <polygon class="cls-4" points="6.62 62.77 14.74 63.92 6.62 65.08 6.62 62.77 6.62 62.77"/>
        <polygon class="cls-4" points="121.38 65.08 113.26 63.92 121.38 62.77 121.38 65.08 121.38 65.08"/>
      </g>
      <g>
        <polygon class="cls-4" points="114.27 36.23 106.66 39.29 113.11 34.23 114.27 36.23 114.27 36.23"/>
        <polygon class="cls-4" points="13.73 91.61 21.34 88.55 14.89 93.61 13.73 91.61 13.73 91.61"/>
        <polygon class="cls-4" points="93.69 14.81 88.63 21.26 91.69 13.66 93.69 14.81 93.69 14.81"/>
        <polygon class="cls-4" points="34.31 113.04 39.37 106.58 36.31 114.19 34.31 113.04 34.31 113.04"/>
      </g>
      <path class="cls-4" d="m62.63,62.62l15.42-14.19.35.92-6.86-.89-.62-.08.55-.29c1.79-.95,14.04-7.44,15.51-8.22,0,0-1.22,2.57-1.22,2.57-.31.66-6.86,14.51-6.93,14.65,0,0,.27-1.46.27-1.46l1.74-9.34-1.36,9.41-.37-.1,4.86-13.88,1.3,1.24-13.64,5.5s-.07-.37-.07-.37c.73.02,7.49.21,8,.23,0,0-.74.89-.74.89l-13.47,16.06s-2.74-2.61-2.74-2.61h0Z"/>
      <path class="cls-4" d="m65.82,62.57l16.7,25.17-1.17.35.96-8.21.1-.86s.35.79.35.79c1.53,3.43,9.06,20.3,10.42,23.36,0,0-3.88-3.34-3.88-3.34-.94-.8-16.8-14.49-17.22-14.85,0,0,1.98,1.1,1.98,1.1l10.94,6.1-11.16-5.69.25-.39,16.64,11.91-1.79,1.33-6.62-19.36.45-.07-.13,8.27-.03,1.73-1.15-1.38-19.3-23.24,3.65-2.71h0Z"/>
      <circle class="cls-3" cx="64" cy="63.92" r="3.44"/>
    </g>
    <g id="glow_exclam" class="cls-7">
      <g>
        <polygon class="cls-6" points="22.91 33.76 37.91 7.22 29.45 93.29 27.65 95.95 22.91 33.76"/>
        <path class="cls-1" d="m36.92,10.37l-8.12,82.68-.61.9-4.57-60.04,13.31-23.54m1.99-6.29l-16.69,29.52,4.9,64.35,3-4.42L38.91,4.08h0Z"/>
      </g>
      <g>
        <path class="cls-6" d="m25.77,123.4c-1.27,0-2.35-.73-2.99-2.01-.95-1.92-1.2-5.88.37-10.4,2.54-7.28,7.55-12.36,10.47-12.36.62,0,1.12.23,1.53.7.71.8,1.78,3.08,1.01,9.4-1,8.24-6.32,13.85-9.61,14.58-.26.06-.52.09-.78.09h0Z"/>
        <path class="cls-1" d="m33.62,99.32c.42,0,.73.14,1.02.47.51.57,1.61,2.58.84,8.86-1.05,8.6-6.52,13.43-9.08,14-.21.05-.43.07-.63.07-1,0-1.86-.59-2.38-1.63-.89-1.79-1.11-5.53.41-9.87,2.34-6.7,7.2-11.9,9.82-11.9m0-1.36c-3.48,0-8.65,5.76-11.11,12.81-1.64,4.7-1.38,8.84-.34,10.93.73,1.46,2.03,2.39,3.6,2.39.3,0,.61-.03.92-.1,3.36-.75,9.06-6.28,10.14-15.17.95-7.81-.68-10.86-3.21-10.86h0Z"/>
      </g>
    </g>
  </g>
</svg>