<?xml version="1.0" encoding="UTF-8"?>
<svg id="Layer_2" data-name="Layer 2" xmlns="http://www.w3.org/2000/svg" xmlns:xlink="http://www.w3.org/1999/xlink" viewBox="0 0 128 128">
  <defs>
    <style>
      .cls-1, .cls-2 {
        fill: aqua;
      }

      .cls-3 {
        stroke-width: 2.31px;
      }

      .cls-3, .cls-4 {
        fill: #1b0049;
        stroke: aqua;
      }

      .cls-3, .cls-4, .cls-2 {
        stroke-miterlimit: 10;
      }

      .cls-4 {
        stroke-width: .43px;
      }

      .cls-2 {
        filter: url(#outer-glow-1);
        stroke: #1b0049;
        stroke-width: 1.58px;
      }
    </style>
    <filter id="outer-glow-1" filterUnits="userSpaceOnUse">
      <feOffset dx="0" dy="0"/>
      <feGaussianBlur result="blur" stdDeviation="7.92"/>
      <feFlood flood-color="aqua" flood-opacity=".75"/>
      <feComposite in2="blur" operator="in"/>
      <feComposite in="SourceGraphic"/>
    </filter>
  </defs>
  <g>
    <circle class="cls-3" cx="65.05" cy="63.84" r="59.98"/>
    <g>
      <polygon class="cls-1" points="66.2 6.47 65.05 14.58 63.9 6.47 66.2 6.47 66.2 6.47"/>
      <polygon class="cls-1" points="63.9 121.22 65.05 113.11 66.2 121.22 63.9 121.22 63.9 121.22"/>
      <polygon class="cls-1" points="37.36 13.58 40.42 21.18 35.36 14.73 37.36 13.58 37.36 13.58"/>
      <polygon class="cls-1" points="92.74 114.11 89.68 106.51 94.74 112.96 92.74 114.11 92.74 114.11"/>
    </g>
    <g>
      <polygon class="cls-1" points="15.94 34.16 22.39 39.21 14.78 36.16 15.94 34.16 15.94 34.16"/>
      <polygon class="cls-1" points="114.16 93.53 107.71 88.48 115.32 91.53 114.16 93.53 114.16 93.53"/>
      <polygon class="cls-1" points="7.67 62.69 15.79 63.84 7.67 65 7.67 62.69 7.67 62.69"/>
      <polygon class="cls-1" points="122.43 65 114.31 63.84 122.43 62.69 122.43 65 122.43 65"/>
    </g>
    <g>
      <polygon class="cls-1" points="115.32 36.16 107.71 39.21 114.16 34.16 115.32 36.16 115.32 36.16"/>
      <polygon class="cls-1" points="14.78 91.53 22.39 88.48 15.94 93.53 14.78 91.53 14.78 91.53"/>
      <polygon class="cls-1" points="94.74 14.73 89.68 21.18 92.74 13.58 94.74 14.73 94.74 14.73"/>
      <polygon class="cls-1" points="35.36 112.96 40.42 106.51 37.36 114.11 35.36 112.96 35.36 112.96"/>
    </g>
    <path class="cls-1" d="m63.68,62.54l15.42-14.19.35.92-6.86-.89-.62-.08.55-.29c1.79-.95,14.04-7.44,15.51-8.22,0,0-1.22,2.57-1.22,2.57-.31.66-6.86,14.51-6.93,14.65,0,0,.27-1.46.27-1.46l1.74-9.34-1.36,9.41-.37-.1,4.86-13.88s1.3,1.24,1.3,1.24l-13.64,5.5s-.07-.37-.07-.37c.73.02,7.49.21,8,.23,0,0-.74.89-.74.89l-13.47,16.06s-2.74-2.61-2.74-2.61h0Z"/>
    <path class="cls-1" d="m66.87,62.49l16.7,25.17-1.17.35.96-8.21s.1-.86.1-.86l.35.79c1.53,3.43,9.06,20.3,10.42,23.36,0,0-3.88-3.34-3.88-3.34-.94-.8-16.8-14.49-17.22-14.85,0,0,1.98,1.1,1.98,1.1l10.94,6.1-11.16-5.69s.25-.39.25-.39l16.64,11.91-1.79,1.33-6.62-19.36s.45-.07.45-.07l-.13,8.27-.03,1.73-1.15-1.38-19.3-23.24,3.65-2.71h0Z"/>
    <circle class="cls-4" cx="65.05" cy="63.84" r="3.44"/>
  </g>
  <path class="cls-2" d="m96.02,63.26c-8.16-.94-17.83.23-19.53,1.94l-9.07-9.86,22.45-34.54c2.28.77,4.81,2.43,7.9,4.87l1.34-3.14-13.74-9.81c-13.72-10.85-16.61-6.44-34.51,24.61L29.73,14.36s-5.02,13.78-20.6,6.35c4.95,8.63,11.97,19,25.82,10.3l11.85,13.17c-20.96,34.17-25.46,40.9-40.08,30.72l-1.67,2.27,14.07,10.68c14.55,10.13,19.07,3.53,39.78-30.23l2.64,2.93-21.44,32.94,1.61,1.4,21.28-32.74,16.65,18.49s9.5-8.76,25.29-4.01c15.79,4.75,19.2,13.31,15.59,19.53-3.61,6.22-16.52,6.22-25.42,0l3.01,7.09s19.84,6.51,25.95-8.09c5.15-12.31-10.44-29.89-28.03-31.91Zm-32.96-12.66c12.73-22.08,17.91-30.84,24.67-30.27l-21.76,33.43-2.9-3.16Z"/>
</svg>