<?xml version="1.0" encoding="UTF-8"?>
<svg id="Layer_2" data-name="Layer 2" xmlns="http://www.w3.org/2000/svg" xmlns:xlink="http://www.w3.org/1999/xlink" viewBox="0 0 128 128">
  <defs>
    <style>
      .cls-1, .cls-2 {
        fill: #1b0049;
      }

      .cls-3 {
        fill: aqua;
        filter: url(#outer-glow-6);
        stroke-width: 2.41px;
      }

      .cls-3, .cls-2 {
        stroke: aqua;
        stroke-miterlimit: 10;
      }

      .cls-2 {
        stroke-width: 3.29px;
      }

      .cls-4 {
        filter: url(#outer-glow-5);
      }
    </style>
    <filter id="outer-glow-2" filterUnits="userSpaceOnUse">
      <feOffset dx="0" dy="0"/>
      <feGaussianBlur result="blur" stdDeviation="8.24"/>
      <feFlood flood-color="aqua" flood-opacity=".75"/>
      <feComposite in2="blur" operator="in"/>
      <feComposite in="SourceGraphic"/>
    </filter>
    <filter id="outer-glow-5" filterUnits="userSpaceOnUse">
      <feOffset dx="0" dy="0"/>
      <feGaussianBlur result="blur-2" stdDeviation="8.24"/>
      <feFlood flood-color="aqua" flood-opacity=".75"/>
      <feComposite in2="blur-2" operator="in"/>
      <feComposite in="SourceGraphic"/>
    </filter>
    <filter id="outer-glow-6" filterUnits="userSpaceOnUse">
      <feOffset dx="0" dy="0"/>
      <feGaussianBlur result="blur-3" stdDeviation="3.89"/>
      <feFlood flood-color="aqua" flood-opacity=".75"/>
      <feComposite in2="blur-3" operator="in"/>
      <feComposite in="SourceGraphic"/>
    </filter>
  </defs>
  <g class="cls-4">
    <polygon class="cls-2" points="55.07 112.73 27.33 84.01 4 84.01 4 43.99 27.33 43.99 55.07 15.27 55.07 112.73"/>
  </g>
  <path class="cls-1" d="m82.44,94.76c16.96-16.96,16.96-44.57,0-61.53l6.13-6.13c20.34,20.34,20.34,53.44,0,73.78l-6.13-6.13Z"/>
  <path class="cls-1" d="m96.04,109.08c24.86-24.86,24.86-65.31,0-90.16l6.57-6.57c13.8,13.8,21.39,32.14,21.39,51.65s-7.6,37.86-21.39,51.65l-6.57-6.57Z"/>
  <path class="cls-3" d="m69.55,80.89c4.51-4.51,7-10.51,7-16.89s-2.48-12.38-7-16.89l5.31-5.31c5.93,5.93,9.2,13.82,9.2,22.2s-3.27,16.27-9.2,22.2l-5.31-5.31Z"/>
</svg>