<?xml version="1.0" encoding="UTF-8"?>
<svg id="Layer_2" data-name="Layer 2" xmlns="http://www.w3.org/2000/svg" viewBox="0 0 128 128">
  <defs>
    <style>
      .cls-1 {
        fill: #1b0049;
      }

      .cls-2 {
        fill: none;
      }

      .cls-2, .cls-3 {
        stroke: #1b0049;
        stroke-miterlimit: 10;
        stroke-width: 1.28px;
      }

      .cls-3 {
        fill: aqua;
      }
    </style>
  </defs>
  <rect class="cls-1" x="38.54" y="87.58" width="50.93" height="23.61"/>
  <g>
    <rect class="cls-2" x="38.54" y="32.56" width="50.93" height="78.63" rx="6.38" ry="6.38"/>
    <path class="cls-3" d="m95.9,19.75h-12.99v-11.07c0-2.58-2.1-4.68-4.68-4.68h-28.46c-2.58,0-4.68,2.1-4.68,4.68v11.07h-12.99c-3.52,0-6.38,2.86-6.38,6.38v91.49c0,3.52,2.86,6.38,6.38,6.38h63.79c3.52,0,6.38-2.86,6.38-6.38V26.13c0-3.52-2.86-6.38-6.38-6.38Zm-6.43,85.06c0,3.52-2.86,6.38-6.38,6.38h-38.17c-3.52,0-6.38-2.86-6.38-6.38V38.94c0-3.52,2.86-6.38,6.38-6.38h38.17c3.52,0,6.38,2.86,6.38,6.38v65.86Z"/>
  </g>
</svg>