<?xml version="1.0" encoding="UTF-8"?>
<svg id="Layer_2" data-name="Layer 2" xmlns="http://www.w3.org/2000/svg" xmlns:xlink="http://www.w3.org/1999/xlink" viewBox="0 0 128 128">
  <defs>
    <style>
      .cls-1 {
        fill: none;
      }

      .cls-1, .cls-2 {
        stroke: #1b0049;
        stroke-miterlimit: 10;
        stroke-width: 1.28px;
      }

      .cls-2, .cls-3 {
        fill: aqua;
      }

      .cls-3 {
        filter: url(#outer-glow-2);
      }
    </style>
    <filter id="outer-glow-2" filterUnits="userSpaceOnUse">
      <feOffset dx="0" dy="0"/>
      <feGaussianBlur result="blur" stdDeviation="3"/>
      <feFlood flood-color="aqua" flood-opacity=".75"/>
      <feComposite in2="blur" operator="in"/>
      <feComposite in="SourceGraphic"/>
    </filter>
  </defs>
  <g>
    <rect class="cls-1" x="38.54" y="32.56" width="50.93" height="78.63" rx="6.38" ry="6.38"/>
    <path class="cls-2" d="m95.9,19.75h-12.99v-11.07c0-2.58-2.1-4.68-4.68-4.68h-28.46c-2.58,0-4.68,2.1-4.68,4.68v11.07h-12.99c-3.52,0-6.38,2.86-6.38,6.38v91.49c0,3.52,2.86,6.38,6.38,6.38h63.79c3.52,0,6.38-2.86,6.38-6.38V26.13c0-3.52-2.86-6.38-6.38-6.38Zm-6.43,85.06c0,3.52-2.86,6.38-6.38,6.38h-38.17c-3.52,0-6.38-2.86-6.38-6.38V38.94c0-3.52,2.86-6.38,6.38-6.38h38.17c3.52,0,6.38,2.86,6.38,6.38v65.86Z"/>
  </g>
  <path class="cls-3" d="m77.18,85.15c-1.83-5.14-13.62-38.39-15.75-44.36l3.67,30.92-9.5-3.41-8.48-3.04,2.85,8.03,12.43,35.05-3.27-29.66c6.28,2.25,14.28,5.12,18.04,6.47Z"/>
</svg>