<?xml version="1.0" encoding="UTF-8"?>
<svg id="Layer_2" data-name="Layer 2" xmlns="http://www.w3.org/2000/svg" viewBox="0 0 128 128">
  <defs>
    <style>
      .cls-1 {
        fill: #1b0049;
        stroke: #1b0049;
        stroke-miterlimit: 10;
        stroke-width: .79px;
      }

      .cls-2 {
        opacity: .25;
      }
    </style>
  </defs>
  <g id="bt_base" class="cls-2">
    <path class="cls-1" d="m58.83,41.36l-28.15,15.8,24.18,8.16,7.87-7.07,3.21,65.75,26.84-64.75-16.66-13.01,21.21-19.03L61.21,4l.88,31.29L31.16,13.66l27.67,27.7Zm15.03,13.35l7.74,6.97-5.49,7.49-2.25-14.46Zm-5.89-38.52l15.79,11.18-13.02,7.31-2.77-18.49Z"/>
    <path class="cls-1" d="m71.92,46.4l17.76,13.86-22.09,53.52-2.53-61.22-10.72,9.62-16.85-5.69,25.99-14.58-18.8-16.79,20.05,15.65-1.73-33.26,30.48,20.08-21.55,18.8Zm-3.07-7.5l18.68-11.54-22.01-15.29,3.33,26.83Zm1.43,8.98l4.33,27.77,10.54-14.39-14.86-13.38Z"/>
  </g>
</svg>