<?xml version="1.0" encoding="UTF-8"?>
<svg id="Layer_2" data-name="Layer 2" xmlns="http://www.w3.org/2000/svg" xmlns:xlink="http://www.w3.org/1999/xlink" viewBox="0 0 128 128">
  <defs>
    <style>
      .cls-1 {
        fill: #1b0049;
        stroke: aqua;
        stroke-miterlimit: 10;
        stroke-width: .9px;
      }
    </style>
    <filter id="outer-glow-2" filterUnits="userSpaceOnUse">
      <feOffset dx="0" dy="0"/>
      <feGaussianBlur result="blur" stdDeviation="11.93"/>
      <feFlood flood-color="aqua" flood-opacity=".75"/>
      <feComposite in2="blur" operator="in"/>
      <feComposite in="SourceGraphic"/>
    </filter>
  </defs>
  <g id="bt_base">
    <path class="cls-1" d="m26.47,13.66l35.34,21.63-1-31.29,41.26,23.21-24.23,19.03,19.04,13.01-30.67,64.75-3.67-65.75-9,7.07-27.63-8.16,32.16-15.8L26.47,13.66Zm51.37,55.51l6.27-7.49-8.84-6.97,2.57,14.46Zm-6.14-34.49l14.88-7.31-18.04-11.18,3.16,18.49Z"/>
    <path class="cls-1" d="m97.68,27.6L62.84,7.52l1.98,33.26-22.91-15.65,21.48,16.79-29.7,14.58,19.25,5.69,12.25-9.62,2.9,61.22,25.24-53.52-20.29-13.86,24.63-18.8Zm-31.94-15.54l25.15,15.29-21.35,11.54-3.8-26.83Zm22.42,49.2l-12.04,14.39-4.94-27.77,16.99,13.38Z"/>
  </g>
</svg>