<?xml version="1.0" encoding="UTF-8"?>
<svg id="Layer_2" data-name="Layer 2" xmlns="http://www.w3.org/2000/svg" viewBox="0 0 128 128">
  <defs>
    <style>
      .cls-1 {
        fill: #1b0049;
      }

      .cls-2 {
        fill: aqua;
      }
    </style>
  </defs>
  <g>
    <path class="cls-2" d="m79.79,71.25v-35.63c0-10-7.08-18.14-15.79-18.14s-15.79,8.14-15.79,18.14v13.18h-12.53v-13.18c0-17.79,12.7-32.27,28.32-32.27s28.32,14.47,28.32,32.27v35.63h-12.53Z"/>
    <path class="cls-1" d="m64,4c15.28,0,27.67,14.15,27.67,31.61v34.98h-11.22v-34.98c0-10.38-7.36-18.79-16.44-18.79s-16.44,8.41-16.44,18.79v12.53h-11.22v-12.53c0-17.46,12.39-31.61,27.67-31.61m0-1.3c-15.97,0-28.97,14.77-28.97,32.92v13.83h13.83v-13.83c0-9.64,6.79-17.49,15.14-17.49s15.14,7.84,15.14,17.49v36.28h13.83v-36.28c0-18.15-13-32.92-28.97-32.92h0Z"/>
  </g>
  <g>
    <rect class="cls-1" x="30.2" y="65.89" width="67.6" height="58.77"/>
    <path class="cls-2" d="m97.15,66.54v57.46H30.85v-57.46h66.3m1.3-1.3H29.55v60.07h68.9v-60.07h0Z"/>
  </g>
</svg>