<?xml version="1.0" encoding="UTF-8"?>
<svg id="Layer_2" data-name="Layer 2" xmlns="http://www.w3.org/2000/svg" viewBox="0 0 128 128">
  <defs>
    <style>
      .cls-1 {
        fill: #1b0049;
      }

      .cls-2 {
        fill: aqua;
      }
    </style>
  </defs>
  <g>
    <polygon class="cls-1" points="65.17 43.14 62.58 32.66 49.2 30.08 52.24 40.43 64.84 64.63 65.17 43.14"/>
    <path class="cls-1" d="m72.67,79.16c-1.24-.78-2.71-1.4-4.4-1.84-1.58-.41-2.87-.52-3.87-.33-1,.19-1.39.63-1.19,1.32.2.69.94,1.42,2.21,2.22,1.27.8,2.67,1.4,4.22,1.82,1.55.42,2.84.54,3.86.35,1.03-.19,1.46-.63,1.29-1.31-.17-.69-.88-1.43-2.12-2.22Z"/>
    <path class="cls-1" d="m4,13.2l21.06,65.55,53.39,16.38,1.21,19.67,16.22-14.33,18.17,5.58,9.95-71.79L4,13.2Zm40.97,14.16l20.96,3.99,2.97,12.66-.88,26.77-3.24-.82-16-30.17-3.8-12.44Zm30.97,56.87c-1.59.28-3.58.09-5.94-.55-2.36-.64-4.5-1.57-6.44-2.79-1.95-1.22-3.08-2.36-3.4-3.4-.32-1.06.24-1.75,1.71-2.08,1.49-.33,3.49-.17,6.03.49,2.55.66,4.82,1.62,6.79,2.86,1.96,1.24,3.07,2.4,3.32,3.46.25,1.05-.45,1.72-2.06,2Z"/>
  </g>
  <g>
    <path class="cls-2" d="m78,82.23c-.25-1.06-1.36-2.22-3.32-3.46-1.96-1.24-4.23-2.2-6.79-2.86-2.54-.66-4.54-.82-6.03-.49-1.46.33-2.03,1.02-1.71,2.08.32,1.05,1.45,2.18,3.4,3.4,1.94,1.22,4.09,2.15,6.44,2.79,2.37.64,4.35.83,5.94.55,1.61-.28,2.3-.95,2.06-2Zm-4.5.46c-1.03.19-2.32.07-3.86-.35-1.55-.42-2.95-1.02-4.22-1.82-1.27-.8-2.01-1.54-2.21-2.22-.2-.69.19-1.13,1.19-1.32,1-.19,2.29-.08,3.87.33,1.69.44,3.16,1.06,4.4,1.84,1.24.79,1.95,1.52,2.12,2.22.17.69-.26,1.13-1.29,1.31Z"/>
    <path class="cls-2" d="m68.01,70.77l.88-26.77-2.97-12.66-20.96-3.99,3.8,12.44,16,30.17,3.24.82Zm-18.81-40.7l13.38,2.59,2.59,10.47-.34,21.5-12.59-24.2-3.04-10.35Z"/>
  </g>
</svg>