<?xml version="1.0" encoding="UTF-8"?>
<svg id="Layer_2" data-name="Layer 2" xmlns="http://www.w3.org/2000/svg" viewBox="0 0 128 128">
  <defs>
    <style>
      .cls-1 {
        fill: #1b0049;
      }

      .cls-2 {
        fill: aqua;
      }
    </style>
  </defs>
  <g>
    <path class="cls-1" d="m61.21,60.12l1.55,1.6,10.26-12.33c-3.88-1.05-6.42,2.62-11.81,10.73Z"/>
    <path class="cls-1" d="m4,13.2l21.06,65.55,53.39,16.38,1.21,19.67,16.22-14.33,18.17,5.58,9.95-71.79L4,13.2Zm87.62,70.97c-3.53,3.43-12.72-1.32-12.72-1.32l-1.39-2.56c4.12,3.13,10.28,5.01,12.27,3.66,2.09-1.42.66-4.76-7.39-8.68-7.87-3.83-12.23-2.05-12.23-2.05l-8.39-8.64-7.22,8.5-.73-.62,7.2-8.65-1.38-1.43c-6.71,9.2-8.02,10.69-14.38,5.94l-6.33-4.94.39-.58c6.55,4.89,7.72,3.2,13.81-7.13l-6.67-6.87c-5.22,2.36-9.51-2.74-12.83-7.07,7.86,4.79,8.52-1.22,8.52-1.22l12.35,12.7c7.1-13.26,8.48-15.44,16.97-8.05l8.27,6.67-.81,1.4c-1.82-1.58-3.32-2.71-4.66-3.37l-10.74,12.64,4.73,4.86c.77-.42,5.51.39,9.67,1.82,9.27,3.2,16.97,11.78,13.69,14.98Z"/>
  </g>
  <path class="cls-2" d="m77.94,69.19c-4.16-1.43-8.9-2.24-9.67-1.82l-4.73-4.86,10.74-12.64c1.34.65,2.84,1.79,4.66,3.37l.81-1.4-8.27-6.67c-8.49-7.39-9.87-5.21-16.97,8.05l-12.35-12.7s-.66,6.01-8.52,1.22c3.32,4.33,7.61,9.43,12.83,7.07l6.67,6.87c-6.1,10.33-7.27,12.02-13.81,7.13l-.39.58,6.33,4.94c6.36,4.75,7.67,3.26,14.38-5.94l1.38,1.42-7.2,8.65.73.62,7.22-8.5,8.39,8.64s4.36-1.78,12.23,2.05c8.05,3.92,9.48,7.26,7.39,8.68-1.99,1.35-8.15-.53-12.27-3.66l1.39,2.56s9.19,4.76,12.72,1.32c3.29-3.2-4.41-11.78-13.69-14.98Zm-16.72-9.07c5.4-8.11,7.93-11.78,11.81-10.73l-10.26,12.33-1.55-1.6Z"/>
</svg>