<?xml version="1.0" encoding="UTF-8"?>
<svg id="Layer_2" data-name="Layer 2" xmlns="http://www.w3.org/2000/svg" viewBox="0 0 128 128">
  <defs>
    <style>
      .cls-1 {
        fill: #1b0049;
      }

      .cls-2 {
        fill: aqua;
      }
    </style>
  </defs>
  <g>
    <path class="cls-1" d="m64.06,79.9c-.6-.73-1.26-1.21-1.99-1.42-.73-.21-1.27-.09-1.63.36-.36.45-.45,1.09-.29,1.93.16.83.55,1.63,1.16,2.38.61.76,1.26,1.23,1.93,1.44.68.21,1.21.08,1.59-.38.39-.46.5-1.11.35-1.95-.16-.84-.53-1.63-1.13-2.37Z"/>
    <path class="cls-1" d="m64.19,34c-2.08-2.54-4.27-4.36-6.57-5.45.48.49.87.93,1.19,1.32,2.42,3.13,4.06,7.19,4.93,12.11.49,2.79.71,5.08.67,6.89-.04,1.8-.6,3.64-1.66,5.51-.5.85-.95,1.59-1.36,2.24-.41.64-.79,1.36-1.13,2.16-.24.64-.38,1.33-.42,2.08-.04.74-.03,1.49.03,2.25.44-.98,1.32-2,2.67-3.06,1.55-1.09,2.8-1.99,3.75-2.69.96-.71,1.8-1.62,2.52-2.74,1.23-2.13,1.57-4.98.98-8.56-.72-4.37-2.59-8.41-5.6-12.06Z"/>
    <path class="cls-1" d="m4,13.2l21.06,65.55,53.39,16.38,1.21,19.67,16.22-14.33,18.17,5.58,9.95-71.79L4,13.2Zm62.01,72.47c-.6.7-1.41.89-2.45.57-1.03-.32-2.01-1.05-2.96-2.22-.94-1.16-1.54-2.38-1.79-3.65-.25-1.28-.1-2.27.45-2.99.56-.72,1.39-.92,2.48-.61,1.1.32,2.12,1.05,3.06,2.21.94,1.16,1.52,2.39,1.76,3.68.24,1.29.05,2.29-.55,2.99Zm5.33-32.4c-.45,1.7-1.14,3.06-2.07,4.09-.92,1.02-1.9,1.85-2.93,2.49-1.03.63-1.92,1.27-2.67,1.9-1.48,1.08-2.38,2.17-2.71,3.29-.32,1.11-.3,2.6.05,4.49.02.12.08.41.17.88l-1.38-.38c-.32-1.64-.6-3.08-.84-4.33-.21-1.07-.4-2.4-.57-3.99-.17-1.6,0-3.04.52-4.31.48-1.06.89-1.85,1.26-2.36.36-.51.78-1.22,1.26-2.13.94-1.73,1.43-3.37,1.46-4.92.03-1.56-.19-3.66-.66-6.31-.57-3.22-1.41-5.85-2.5-7.87-1.09-2.03-2.3-3.57-3.6-4.61-1.3-1.04-2.54-1.66-3.73-1.88-1.86-.34-3.32-.11-4.37.69-1.04.79-1.8,1.76-2.26,2.93-.47,1.15-.79,2.15-.97,3-.18.84-.28,1.81-.3,2.89-.02,1.08,0,1.96.06,2.65l-1.1-.23c-.1-.88-.14-1.93-.11-3.16.02-1.24.11-2.34.26-3.32.15-.79.48-1.87,1.01-3.24.53-1.38,1.47-2.58,2.81-3.59,1.36-1.01,3.3-1.31,5.82-.86,2.95.52,5.71,1.85,8.24,4.01,2.54,2.16,4.69,4.79,6.44,7.88,1.74,3.07,2.87,6.23,3.39,9.46.46,2.86.47,5.15,0,6.87Z"/>
  </g>
  <g>
    <path class="cls-2" d="m71.33,46.4c-.52-3.23-1.65-6.39-3.39-9.46-1.75-3.09-3.89-5.72-6.44-7.88-2.53-2.15-5.29-3.49-8.24-4.01-2.52-.44-4.46-.15-5.82.86-1.35,1.01-2.28,2.2-2.81,3.59-.52,1.37-.86,2.45-1.01,3.24-.15.98-.24,2.09-.26,3.32-.03,1.23,0,2.28.11,3.16l1.1.23c-.06-.68-.08-1.57-.06-2.65.02-1.08.12-2.04.3-2.89.18-.85.5-1.85.97-3,.46-1.17,1.22-2.14,2.26-2.93,1.05-.79,2.51-1.03,4.37-.69,1.19.21,2.43.84,3.73,1.88,1.3,1.04,2.51,2.58,3.6,4.61,1.09,2.02,1.92,4.65,2.5,7.87.47,2.65.69,4.75.66,6.31-.03,1.55-.52,3.19-1.46,4.92-.48.92-.9,1.63-1.26,2.13-.36.51-.78,1.3-1.26,2.36-.52,1.27-.69,2.71-.52,4.31.17,1.59.37,2.92.57,3.99.24,1.24.52,2.69.84,4.33l1.38.38c-.09-.47-.15-.76-.17-.88-.36-1.88-.38-3.38-.05-4.49.33-1.11,1.22-2.21,2.71-3.29.76-.63,1.65-1.26,2.67-1.9,1.03-.64,2.01-1.47,2.93-2.49.93-1.03,1.62-2.39,2.07-4.09.46-1.72.46-4,0-6.87Zm-2.52,8.23c-.72,1.12-1.56,2.03-2.52,2.74-.95.7-2.21,1.6-3.75,2.69-1.35,1.06-2.23,2.09-2.67,3.06-.06-.76-.07-1.51-.03-2.25.04-.75.18-1.44.42-2.08.35-.8.73-1.51,1.13-2.16.41-.65.86-1.39,1.36-2.24,1.06-1.88,1.62-3.72,1.66-5.51.04-1.81-.18-4.1-.67-6.89-.86-4.92-2.51-8.98-4.93-12.11-.32-.39-.71-.84-1.19-1.32,2.3,1.09,4.5,2.91,6.57,5.45,3.01,3.65,4.88,7.69,5.6,12.06.59,3.58.26,6.43-.98,8.56Z"/>
    <path class="cls-2" d="m64.8,78.99c-.94-1.16-1.96-1.9-3.06-2.21-1.09-.31-1.92-.11-2.48.61-.56.71-.71,1.71-.45,2.99.25,1.27.85,2.49,1.79,3.65.94,1.16,1.92,1.9,2.96,2.22,1.04.32,1.86.13,2.45-.57.6-.7.79-1.7.55-2.99-.24-1.3-.83-2.52-1.76-3.68Zm.04,5.22c-.38.46-.92.58-1.59.38-.67-.2-1.32-.68-1.93-1.44-.61-.75-1-1.55-1.16-2.38-.16-.84-.07-1.48.29-1.93.36-.45.9-.57,1.63-.36.73.21,1.39.69,1.99,1.42.59.74.97,1.52,1.13,2.37.16.84.04,1.49-.35,1.95Z"/>
  </g>
</svg>