<?xml version="1.0" encoding="UTF-8"?>
<svg id="Layer_2" data-name="Layer 2" xmlns="http://www.w3.org/2000/svg" viewBox="0 0 128 128">
  <defs>
    <style>
      .cls-1 {
        fill: #1b0049;
      }

      .cls-2 {
        fill: aqua;
      }
    </style>
  </defs>
  <g>
    <polygon class="cls-1" points="57.13 46.15 63.05 83.91 74.22 86.94 68.91 48 57.13 46.15"/>
    <path class="cls-1" d="m4,13.2l21.06,65.55,53.39,16.38,1.21,19.67,16.22-14.33,18.17,5.57,9.95-71.79L4,13.2Zm47.68,18.73c-.24-1.46.44-2.66,2.05-3.57,1.63-.93,3.7-1.27,6.21-1.03,2.55.25,4.88,1.04,6.98,2.38,2.11,1.36,3.28,2.82,3.48,4.37.2,1.54-.58,2.75-2.32,3.6-1.71.84-3.89,1.09-6.52.74-2.59-.34-4.82-1.15-6.72-2.41-1.88-1.26-2.93-2.61-3.17-4.07Zm8.69,52.77l-6.62-40.86,18.28,2.78,5.6,42.86-17.26-4.77Z"/>
    <path class="cls-1" d="m56.85,34.94c1.22.81,2.69,1.32,4.43,1.54,1.64.21,3.02.04,4.16-.49,1.14-.54,1.65-1.31,1.51-2.31-.14-1-.88-1.94-2.22-2.81-1.34-.86-2.85-1.38-4.5-1.55-1.64-.17-2.99.05-4.06.64-1.06.59-1.51,1.37-1.36,2.33.15.96.83,1.85,2.05,2.65Z"/>
  </g>
  <g>
    <path class="cls-2" d="m61.56,38.42c2.63.34,4.81.1,6.52-.74,1.74-.85,2.52-2.06,2.32-3.6-.2-1.55-1.37-3.01-3.48-4.37-2.1-1.34-4.43-2.13-6.98-2.38-2.51-.24-4.58.1-6.21,1.03-1.61.92-2.28,2.11-2.05,3.57.24,1.46,1.29,2.82,3.17,4.07,1.9,1.27,4.13,2.07,6.72,2.41Zm-5.4-8.46c1.07-.59,2.42-.81,4.06-.64,1.65.17,3.15.69,4.5,1.55,1.34.87,2.09,1.81,2.22,2.81.14,1-.37,1.77-1.51,2.31-1.14.54-2.52.7-4.16.49-1.74-.22-3.21-.73-4.43-1.54-1.21-.81-1.9-1.69-2.05-2.65-.15-.96.3-1.74,1.36-2.33Z"/>
    <path class="cls-2" d="m72.04,46.61l-18.28-2.78,6.62,40.86,17.26,4.77-5.6-42.86Zm-14.9-.46l11.77,1.85,5.31,38.94-11.17-3.03-5.92-37.76Z"/>
  </g>
</svg>