<?xml version="1.0" encoding="UTF-8"?>
<svg id="Layer_2" data-name="Layer 2" xmlns="http://www.w3.org/2000/svg" xmlns:xlink="http://www.w3.org/1999/xlink" viewBox="0 0 128 128">
  <defs>
    <style>
      .cls-1 {
        fill: #1b0049;
      }

      .cls-2, .cls-3 {
        fill: aqua;
      }

      .cls-3 {
        filter: url(#outer-glow-10);
        stroke: #1b0049;
        stroke-miterlimit: 10;
        stroke-width: 1.59px;
      }
    </style>
    <filter id="outer-glow-10" filterUnits="userSpaceOnUse">
      <feOffset dx="0" dy="0"/>
      <feGaussianBlur result="blur" stdDeviation="7.96"/>
      <feFlood flood-color="aqua" flood-opacity=".75"/>
      <feComposite in2="blur" operator="in"/>
      <feComposite in="SourceGraphic"/>
    </filter>
  </defs>
  <g>
    <path class="cls-1" d="m95.6,32.55c0-15.77-14.15-28.55-31.6-28.55s-31.6,12.78-31.6,28.55c0,10.51,6.29,19.69,15.64,24.65l-15.64,66.8h63.2l-15.64-66.8c9.36-4.96,15.64-14.14,15.64-24.65Z"/>
    <g>
      <polygon class="cls-2" points="41.63 117.13 44.64 104.01 54.78 117.13 41.63 117.13"/>
      <path class="cls-2" d="m60.42,39.36v73.05l-13.59-17.52,7.55-32.2v-8.33c-9.47-6.06-14.76-13.94-14.76-21.81,0-11.07,9.04-20.23,20.81-21.79v15.04s-11.02,6.78-11.02,6.78l11.02,6.78Z"/>
      <polygon class="cls-2" points="86.37 117.13 73.22 117.13 83.36 104.01 86.37 117.13"/>
      <path class="cls-2" d="m81.17,94.9l-13.59,17.52V39.36l11.02-6.78-11.02-6.78v-15.04c11.77,1.56,20.81,10.72,20.81,21.79,0,7.87-5.28,15.75-14.76,21.81v8.33l7.55,32.2Z"/>
    </g>
  </g>
  <path class="cls-3" d="m-53.14,208.13c-8.19-.94-17.9.24-19.61,1.95l-9.11-9.9,22.54-34.68c2.29.77,4.83,2.44,7.93,4.89l1.35-3.16-13.8-9.85c-13.78-10.9-16.67-6.47-34.65,24.71l-21.21-23.06s-5.04,13.84-20.69,6.38c4.97,8.66,12.02,19.07,25.93,10.34l11.9,13.22c-21.04,34.31-25.57,41.06-40.25,30.84l-1.68,2.28,14.13,10.72c14.61,10.17,19.15,3.54,39.94-30.35l2.65,2.95-21.53,33.07,1.61,1.41,21.36-32.88,16.72,18.57s9.54-8.8,25.39-4.03c15.85,4.77,19.28,13.37,15.65,19.61-3.63,6.25-16.59,6.25-25.52,0l3.02,7.12s19.92,6.54,26.06-8.13c5.17-12.36-10.49-30.01-28.14-32.04Zm-33.09-12.71c12.78-22.17,17.98-30.96,24.77-30.39l-21.85,33.56-2.92-3.17Z"/>
</svg>