<?xml version="1.0" encoding="UTF-8"?>
<svg id="Layer_2" data-name="Layer 2" xmlns="http://www.w3.org/2000/svg" xmlns:xlink="http://www.w3.org/1999/xlink" viewBox="0 0 128 128">
  <defs>
    <style>
      .cls-1 {
        filter: url(#drop-shadow-8);
      }

      .cls-2 {
        fill: aqua;
        stroke: #1b0049;
        stroke-miterlimit: 10;
        stroke-width: .37px;
      }

      .cls-3 {
        fill: none;
      }
    </style>
    <filter id="drop-shadow-8" filterUnits="userSpaceOnUse">
      <feOffset dx="-2" dy="2.96"/>
      <feGaussianBlur result="blur" stdDeviation="1.48"/>
      <feFlood flood-color="#1b0049" flood-opacity=".75"/>
      <feComposite in2="blur" operator="in"/>
      <feComposite in="SourceGraphic"/>
    </filter>
  </defs>
  <g class="cls-1">
    <path class="cls-3" d="m97.98,14.29c3.66,1.97,4.17,5.87,2.01,9.23-12.52,19.72-25.18,39.35-38,58.88,0,0-6-3.98-6-3.98,12.7-18.99,25.6-37.86,38.56-56.67,0,0,1.05-1.5,1.05-1.5.23-.35.35-.67.39-.82.04-.17.06-.13.02-.26-.03-.12-.23-.36-.57-.6-1.71-1.1-4.39-1.47-6.57-1.58-8.44-.32-18.5,2.83-25.42,7.66-.72.55-1.42,1.09-2.04,1.74-.4.38-2.88,3.19-3.3,3.66-10.64,11.97-21.38,24.32-32.1,36.23-1.36,1.53-3.81,4.08-4.95,5.81-5.48,7.74-7.59,18.28-4.21,27.21,5.23,13.88,21.5,20.66,35.25,15.31,7.76-2.82,14.01-9.11,17.85-16.39,13.68-25.09,31.34-57.24,45.03-82.23.46-.86,1.44-2.59,1.9-3.49.46-.9.8-1.94-.09-2.7-1.22-1.04-2.71-1.43-4.38-1.81-1.19-.25-2.44-.4-3.7-.49-11.71-.68-23.6,2.15-34.4,6.62-3.09,1.35-6.22,2.84-9.11,4.64,6.07-3.07,12.7-4.8,19.46-5.7,4.41-.46,9.19-.83,13.32,1.25Z"/>
    <path class="cls-2" d="m65.2,18.74c-1.44.73-2.85,1.51-4.22,2.39-2.15,1.36-4.45,3.95-6.24,5.78l-5.63,5.78c-9.35,9.53-18.89,19.23-28.16,28.87-1.61,1.68-3.85,3.98-5.31,5.9"/>
    <path class="cls-2" d="m15.64,67.46c-.11.15-.23.3-.33.44-4.41,5.97-7.1,13.23-7.47,20.65-1.09,17.29,12.15,32.48,29.16,34.67,15.96,2.26,31.01-7.07,38.28-20.99,13.52-25.6,30.61-58.38,44.01-83.96.53-1.02,1.39-2.63,1.89-3.63,2.08-4.05.58-7.91-3.47-9.78-4.15-1.86-8.54-1.95-12.93-1.87-13.47.65-27.64,4.59-39.52,10.91-2.73,1.51-5.49,3.24-7.86,5.45-1.37,1.3-3.67,3.74-5.02,5.1-12.2,12.51-27.25,27.83-39.57,40.26,0,0,1.71,1.65,2.84,2.74,1.46-1.92,3.7-4.22,5.31-5.9,9.27-9.64,18.81-19.34,28.16-28.87l5.63-5.78c1.78-1.83,4.08-4.42,6.24-5.78,1.37-.89,2.78-1.67,4.22-2.39,2.89-1.8,6.01-3.29,9.11-4.64,10.81-4.46,22.7-7.3,34.4-6.62,1.27.09,2.52.24,3.7.49,1.67.38,3.16.77,4.38,1.81.9.75.56,1.8.09,2.7-.46.89-1.44,2.63-1.9,3.49-13.69,24.99-31.35,57.13-45.03,82.23-3.84,7.28-10.1,13.56-17.85,16.39-13.75,5.35-30.02-1.43-35.25-15.31-3.38-8.93-1.27-19.47,4.21-27.21,1.14-1.72,3.58-4.28,4.95-5.81,10.71-11.9,21.46-24.26,32.1-36.23.43-.47,2.91-3.28,3.3-3.66.62-.64,1.32-1.18,2.04-1.74,6.91-4.83,16.98-7.98,25.42-7.66,2.18.11,4.85.47,6.57,1.58.34.23.53.48.57.6.03.13.01.09-.02.26-.04.16-.16.47-.39.82,0,0-1.05,1.5-1.05,1.5-12.97,18.81-25.86,37.68-38.56,56.67,0,0,6,3.98,6,3.98,12.82-19.53,25.47-39.16,38-58.88,2.17-3.37,1.65-7.26-2.01-9.23-4.13-2.09-8.91-1.71-13.32-1.25-6.76.9-13.39,2.63-19.46,5.7"/>
  </g>
</svg>