<?xml version="1.0" encoding="UTF-8"?>
<svg id="Layer_2" data-name="Layer 2" xmlns="http://www.w3.org/2000/svg" xmlns:xlink="http://www.w3.org/1999/xlink" viewBox="0 0 128 128">
  <defs>
    <style>
      .cls-1 {
        fill: #1b0049;
      }

      .cls-2, .cls-3 {
        fill: aqua;
      }

      .cls-3 {
        stroke: #1b0049;
        stroke-miterlimit: 10;
        stroke-width: .49px;
      }

      .cls-4 {
        opacity: .2;
      }
    </style>
    <filter id="outer-glow-5" filterUnits="userSpaceOnUse">
      <feOffset dx="0" dy="0"/>
      <feGaussianBlur result="blur" stdDeviation="11.93"/>
      <feFlood flood-color="aqua" flood-opacity=".75"/>
      <feComposite in2="blur" operator="in"/>
      <feComposite in="SourceGraphic"/>
    </filter>
    <filter id="outer-glow-9" filterUnits="userSpaceOnUse">
      <feOffset dx="0" dy="0"/>
      <feGaussianBlur result="blur-2" stdDeviation="11.01"/>
      <feFlood flood-color="aqua" flood-opacity=".75"/>
      <feComposite in2="blur-2" operator="in"/>
      <feComposite in="SourceGraphic"/>
    </filter>
  </defs>
  <g class="cls-4">
    <g>
      <path class="cls-2" d="m33.74,103.21l88.6,10.38c2.65.31,2.85-3.23.61-7.77l-25.02-50.73c-1.54-3.11-4.83-6.64-7.47-7.99L13.53,10.95c-6.04-3.08-10.64-2.45-9.95,1.69l12.73,74.11c1.31,7.94,9.39,15.51,17.44,16.45Z"/>
      <path class="cls-1" d="m33.99,101.11c23.54,2.9,61.58,7.95,84.79,10.79,0,0,2.83.35,2.83.35.46.05,1.03.14,1.14.12.2-.03.2-.04.29-.15.51-1.08,0-3.12-.51-4.39-.55-1.36-1.7-3.66-2.38-5.06,0,0-4.97-10.25-4.97-10.25-4.99-10.11-13.13-27.22-18.03-37.16-1.96-3.6-4.88-6.76-8.76-8.25,0,0-2.6-1.18-2.6-1.18-6.73-2.98-44.39-20.11-51.92-23.52,0,0-20.76-9.42-20.76-9.42-2.15-1.01-4.56-2.11-6.85-1.77-.32.11-.49.11-.55.32-.08.47.06,1,.19,1.7,3.27,17.73,6.63,35.5,9.81,53.24.65,3.72,2.3,13.25,2.92,16.84,0,0,.46,2.81.46,2.81,1.11,7.17,7.66,13.89,14.9,14.99h0Zm-.49,4.2c-8.58-1.18-15.9-6.97-19.16-15.03-.76-1.72-.99-4.19-1.38-6.01,0,0-.96-5.62-.96-5.62,0,0-1.91-11.23-1.91-11.23C7.11,49.07,4.18,30.71,1.35,12.34c-.28-2.46,1.54-4.97,4.07-5.29,3.46-.56,6.56.88,9.45,2.32,0,0,20.5,9.96,20.5,9.96,7.69,3.73,44.42,21.59,51.22,24.95,0,0,2.56,1.25,2.56,1.25,3.63,1.51,6.6,4.5,8.69,7.79,7.51,14.47,16.97,33.84,24.37,48.42,1.45,3.08,3.64,6.31,3.47,9.9-.06,1.83-1.45,3.48-3.49,3.18-5.46-.62-15.14-1.66-20.71-2.25-14.35-1.53-53.14-5.68-67.99-7.27h0Z"/>
    </g>
    <g>
      <path class="cls-1" d="m99.26,57.79c-5.97,6.34-12.65,12.86-18.94,18.91-2.65,2.77-6.51.12-8.8-1.71C48.26,57.23,25.45,38.81,4.18,18.69c24.27,16.41,47.23,34.71,69.63,53.57.7.6,1.82,1.65,2.66,2.03.5.27,1.07.41,1.43.43,0,0-.01.02-.04.03-.1.11.4-.33.42-.34,6.74-5.55,13.99-11.41,20.98-16.61h0Z"/>
      <polygon class="cls-1" points="87.21 68.21 121.1 102.08 84.29 71.41 87.21 68.21 87.21 68.21"/>
      <polygon class="cls-1" points="15.25 80.35 55.91 57.67 57.85 61.55 15.25 80.35 15.25 80.35"/>
    </g>
  </g>
  <g>
    <path class="cls-3" d="m32.77,97.44v-4.7c0-6.55,4.64-11.85,10.37-11.85,5.73,0,10.37,5.31,10.37,11.85v6.78s-4.21,0-4.21,0v-6.78c0-3.89-2.76-7.04-6.16-7.04-3.4,0-6.16,3.15-6.16,7.04v4.7"/>
    <g>
      <rect class="cls-1" x="30.47" y="97.19" width="25.34" height="22.03"/>
      <path class="cls-2" d="m55.57,97.44v21.54h-24.86v-21.54h24.86m.49-.49h-25.83v22.52h25.83v-22.52h0Z"/>
    </g>
  </g>
</svg>