<?xml version="1.0" encoding="UTF-8"?>
<svg id="Layer_2" data-name="Layer 2" xmlns="http://www.w3.org/2000/svg" viewBox="0 0 128 128">
  <defs>
    <style>
      .cls-1 {
        fill: #1d1049;
        stroke: #6fcbdc;
        stroke-miterlimit: 10;
        stroke-width: .69px;
      }
    </style>
  </defs>
  <path class="cls-1" d="m85.97,102.72l.45-5.47-9.54,6.94,20.53-.34-2.39-3.27,10.18,5.11-38.29,1.86,28.44-23.97-3.02,11.33c3.31-2.31,6.26-4.75,8.81-7.31,18.76-18.79,14.99-42.75-10.92-52.13-13.74-5.27-31.79-5-47.04.69-21.93,7.88-33.3,26.09-29.62,42.52,1.92,8.65,7.85,17.02,17.64,24.31l-.04.05c-12.16-4.44-21.63-12.17-26.12-21.61C-9.66,49.43,33.54,16.18,79.23,20.91c61.42,7.44,60.65,64.03,6.75,81.81Z"/>
</svg>