<?xml version="1.0" encoding="UTF-8"?>
<svg id="Layer_2" data-name="Layer 2" xmlns="http://www.w3.org/2000/svg" viewBox="0 0 128 128">
  <defs>
    <style>
      .cls-1 {
        fill: #1b0049;
      }

      .cls-2, .cls-3 {
        fill: aqua;
      }

      .cls-3 {
        stroke: #1b0049;
        stroke-miterlimit: 10;
      }
    </style>
  </defs>
  <g>
    <path class="cls-1" d="m97.11,41.86c-22.42-2.36-26.91,5.5-44.16,27.03-10.98,13.7-31.54,21.4-48.95,21.4,4.68-1.32,11.54-10.54,13.13-13.91,45.04-.13,29.06-45.92,87.76-38.32l-3.7,6.22,12.01-3.13-16.97-10.48-.04,5.12-5.21-11.42,32.41,18.11-37.82,13.21,11.54-13.82Z"/>
    <path class="cls-2" d="m96.64,42.05c-2.2.13-4.24-.05-6.42-.07-2.27-.03-4.53.2-6.77.55-9.25,1.55-15.74,8.88-21.41,15.81-2.9,3.55-5.75,7.17-8.62,10.76-12.67,15.28-33.28,22.11-52.7,21.7,0,0,3.15-1,3.15-1,1.41-.45,2.72-1.41,3.92-2.43,3.53-3.17,6.64-7.05,8.89-11.21,0,0,.14-.28.14-.28h.31c13.65.03,24.06-4.63,32.75-15.21,5.49-6.35,10.6-13.42,17.95-17.83,11.04-6.82,24.65-6.82,37.13-5.28,0,0,.76.08.76.08,0,0-.4.67-.4.67,0,0-3.7,6.22-3.7,6.22l-.56-.74s12.01-3.13,12.01-3.13l-.14.91s-16.97-10.48-16.97-10.48c0,0,.76-.42.76-.42,0,0-.54,5.11-.54,5.11,0,.01-5.67-11.21-5.67-11.21,0,0-.63-1.39-.63-1.39l1.33.74s32.41,18.11,32.41,18.11l.97.54-1.05.37-37.82,13.21-1.7.59c4.11-4.99,8.29-9.77,12.61-14.7h0Zm.93-.38c-3.77,4.74-7.66,9.62-11.62,14.33l-.55-.79,37.82-13.21-.08.91s-32.41-18.11-32.41-18.11l.7-.64s4.76,11.64,4.76,11.63c0,0-.46-5.12-.46-5.12l-.08-.83s.84.41.84.41c0,0,16.97,10.48,16.97,10.48l.99.61s-1.13.3-1.13.3l-12.01,3.13-1.18.31c.39-.62,3.85-6.49,4.32-7.26,0,0,.37.75.37.75-7.25-.87-14.66-1.25-21.89-.1-9.36,1.36-17.87,6.2-24.08,13.3-5.71,6.16-10.46,13.42-17.5,18.28-7,5.01-15.74,6.81-24.21,6.84,0,0,.45-.29.45-.29-2.36,4.36-5.47,8.23-9.15,11.54-1.26,1.06-2.61,2.09-4.3,2.63,0,0-.14-.98-.14-.98,17.99-.29,36.96-7.21,48.63-21.31,2.87-3.59,5.72-7.2,8.63-10.77,5.75-7.07,12.52-14.59,22-16.16,4.69-.75,9.66-.84,14.3.13h0Z"/>
  </g>
  <g>
    <path class="cls-2" d="m55.61,72.62c9.17,10.92,19.57,21.24,49.89,17.32l-3.7-6.22,12.01,3.13-16.97,10.48-.04-5.12-5.21,11.42,32.41-18.11-37.82-13.21,11.54,13.82c-19.36,2.03-25.35-3.55-37.73-18.97-1.06,1.33-3.21,4-4.37,5.45Z"/>
    <path class="cls-1" d="m56.11,72.62c3.1,3.27,6.01,6.76,9.64,9.47,9.19,7.22,21.41,8.79,32.78,8,2.03-.06,4.87-.46,6.91-.65,0,0-.37.75-.37.75-.43-.75-4-6.7-4.32-7.26,0,0,1.18.31,1.18.31l12.01,3.13,1.13.3-.99.61s-16.97,10.48-16.97,10.48c0,0-.84.41-.84.41l.08-.83s.46-5.12.46-5.12c0,0-4.76,11.63-4.76,11.63,0,0-.7-.64-.7-.64l32.41-18.11.08.91-37.82-13.21.55-.79,11.54,13.82.61.73-.94.09c-7.45.74-15.55.77-22.18-3.25-6.55-3.95-11.23-10.11-16-15.91,0,0,.78,0,.78,0-1.39,1.74-2.8,3.42-4.26,5.13h0Zm-1,.01c1.58-2.09,3.21-4.2,4.87-6.25,0,0,.39.48.39.48,11.35,14.23,18.01,21.05,37.29,18.79,0,0-.33.82-.33.82l-11.54-13.82-1.16-1.39s1.71.6,1.71.6l37.82,13.21,1.05.37-.97.54-32.41,18.11s-1.33.74-1.33.74c0,0,.63-1.39.63-1.39,0,0,5.67-11.22,5.67-11.22,0,0,.54,5.11.54,5.11l-.76-.42s16.97-10.48,16.97-10.48c0,0,.14.91.14.91l-12.01-3.13.56-.74,3.7,6.22s.4.67.4.67l-.76.08c-9.23,1.11-18.88,1.44-27.89-1.21-9.24-2.59-16.87-9.06-22.56-16.6h0Z"/>
  </g>
  <path class="cls-3" d="m50.76,55.96c-11.43-11.72-30.13-18.25-46.15-18.25,4.68,1.32,11.54,10.54,13.13,13.91,13.74.04,21.8,4.33,28.04,10.05,1.7-1.8,3.32-3.72,4.98-5.71Z"/>
</svg>