<?xml version="1.0" encoding="UTF-8"?>
<svg id="Layer_2" data-name="Layer 2" xmlns="http://www.w3.org/2000/svg" viewBox="0 0 128 128">
  <defs>
    <style>
      .cls-1, .cls-2 {
        fill: #1b0049;
      }

      .cls-3 {
        fill: aqua;
      }

      .cls-2 {
        stroke: #1b0049;
        stroke-miterlimit: 10;
      }
    </style>
  </defs>
  <rect class="cls-2" x="13.02" y="28.37" width="101.96" height="71.25"/>
  <g>
    <g>
      <path class="cls-1" d="m44.44,88.93v-13.61h-25.8l26.19-35.81h8.92v33.34h6.03v2.47h-6.03v13.61h-9.32Zm0-16.09l.07-28.65-20.88,28.65h20.82Z"/>
      <path class="cls-3" d="m53.26,40.01v33.34h6.03v1.47h-6.03v13.61h-8.32v-13.61h-25.32l25.46-34.81h8.17m-30.61,33.34h22.3l.07-30.69-22.37,30.69m31.61-34.34h-9.68l-.3.41-25.46,34.81-1.16,1.59h26.29v13.61h10.32v-13.61h6.03v-3.47h-6.03v-33.34h0Zm-29.65,33.34l19.4-26.61-.06,26.61h-19.33Z"/>
    </g>
    <polygon class="cls-3" points="51.79 86.96 51.79 41.48 46.49 41.48 46.41 74.82 46.41 86.96 51.79 86.96"/>
    <g>
      <path class="cls-1" d="m90.42,88.93c-3.44,0-6.71-.64-9.72-1.92s-5.69-3.06-7.96-5.33c-2.27-2.27-4.07-4.94-5.37-7.96-1.3-3.01-1.95-6.29-1.95-9.73s.66-6.71,1.95-9.73c1.29-3.01,3.1-5.69,5.37-7.96,2.27-2.27,4.95-4.06,7.96-5.33,3.02-1.27,6.29-1.92,9.72-1.92s6.91.7,10.03,2.07c3.12,1.37,5.86,3.33,8.15,5.82l.3.33-1.61,1.86-.38-.41c-2.11-2.25-4.55-4.03-7.28-5.3-2.72-1.26-5.82-1.9-9.21-1.9-1.32,0-2.68.2-4.05.61-1.36.4-2.66,1.08-3.88,2.01-1.33,1-2.58,2.26-3.7,3.73-1.11,1.46-2.01,3.47-2.67,5.97-.67,2.52-1.01,5.93-1.01,10.14s.34,7.62,1.01,10.14c.67,2.5,1.57,4.5,2.67,5.93,1.12,1.46,2.37,2.73,3.7,3.77,1.21.89,2.52,1.55,3.89,1.98,1.37.42,2.73.64,4.05.64h9.14v-19.46h-11.48v-2.47h20.8v24.4h-18.46Z"/>
      <path class="cls-3" d="m90.42,39.57c3.48,0,6.76.67,9.82,2.02,3.07,1.35,5.73,3.25,7.98,5.7l-.96,1.1c-2.16-2.31-4.64-4.11-7.43-5.41-2.8-1.3-5.94-1.95-9.42-1.95-1.37,0-2.77.21-4.19.63-1.42.42-2.77,1.12-4.05,2.1-1.37,1.03-2.64,2.31-3.79,3.83-1.15,1.52-2.07,3.57-2.76,6.14-.69,2.58-1.03,6-1.03,10.27s.34,7.69,1.03,10.27c.69,2.58,1.61,4.61,2.76,6.11,1.15,1.5,2.42,2.79,3.79,3.86,1.27.93,2.62,1.62,4.05,2.06,1.42.44,2.82.66,4.19.66h9.64v-20.46h-11.48v-1.47h19.8v23.4h-17.96c-3.38,0-6.56-.63-9.53-1.88-2.97-1.25-5.57-2.99-7.8-5.23-2.23-2.23-3.99-4.83-5.26-7.8-1.28-2.97-1.91-6.14-1.91-9.53s.64-6.56,1.91-9.53c1.28-2.97,3.03-5.57,5.26-7.8,2.23-2.23,4.83-3.97,7.8-5.23,2.97-1.25,6.14-1.88,9.53-1.88m0-1c-3.5,0-6.84.66-9.92,1.95-3.07,1.29-5.8,3.12-8.12,5.44-2.31,2.31-4.15,5.04-5.47,8.11-1.32,3.08-1.99,6.42-1.99,9.92s.67,6.85,1.99,9.92c1.32,3.07,3.16,5.8,5.47,8.11,2.31,2.31,5.04,4.14,8.12,5.44,3.08,1.3,6.41,1.95,9.92,1.95h18.96v-25.4h-21.8v3.47h11.48v18.46h-8.64c-1.27,0-2.58-.21-3.9-.62-1.31-.41-2.57-1.05-3.75-1.91-1.28-1-2.49-2.24-3.59-3.67-1.07-1.38-1.94-3.32-2.59-5.76-.66-2.48-1-5.84-1-10.01s.34-7.53,1-10.01c.65-2.44,1.52-4.39,2.59-5.8,1.09-1.44,2.3-2.66,3.59-3.63,1.18-.91,2.43-1.56,3.73-1.94,1.33-.39,2.64-.59,3.91-.59,3.32,0,6.35.62,9,1.86,2.67,1.24,5.06,2.98,7.12,5.19l.76.81.73-.84.96-1.1.58-.67-.6-.66c-2.34-2.54-5.14-4.54-8.32-5.94-3.18-1.4-6.62-2.11-10.23-2.11h0Z"/>
    </g>
    <path class="cls-3" d="m75.48,49.8c.69-1.57,1.47-2.86,2.36-3.86.88-1.01,1.72-1.85,2.5-2.54-2.26,1.08-4.32,2.55-6.18,4.42-2.16,2.21-3.83,4.69-5,7.43-1.18,2.75-1.77,5.67-1.77,8.76s.59,6.03,1.77,8.83c1.18,2.8,2.84,5.27,5,7.43,1.91,1.87,4,3.36,6.25,4.49-.83-.74-1.69-1.61-2.58-2.61-.88-1-1.67-2.27-2.36-3.79-1.57-3.58-2.35-8.36-2.35-14.35,0-3.04.2-5.71.59-8.02.39-2.31.98-4.37,1.77-6.18Z"/>
    <rect class="cls-3" x="101.6" y="66.5" width="5.37" height="20.46"/>
  </g>
</svg>