<?xml version="1.0" encoding="UTF-8"?>
<svg id="Layer_2" data-name="Layer 2" xmlns="http://www.w3.org/2000/svg" viewBox="0 0 128 128">
  <defs>
    <style>
      .cls-1, .cls-2 {
        fill: #1b0049;
      }

      .cls-3 {
        fill: aqua;
      }

      .cls-2 {
        stroke: #1b0049;
        stroke-miterlimit: 10;
      }
    </style>
  </defs>
  <rect class="cls-2" x="28.07" y="28.07" width="71.87" height="71.87"/>
  <g>
    <g>
      <path class="cls-1" d="m63.96,88.93c-.85,0-1.98-.08-3.36-.22-1.41-.15-2.94-.53-4.54-1.13-1.62-.61-3.26-1.63-4.86-3.04-2.17-1.91-3.76-4.3-4.74-7.09-.97-2.76-1.46-6-1.46-9.62v-28.76h9.24v33.1c0,3.12.35,5.66,1.04,7.56.68,1.87,1.57,3.3,2.65,4.25,1.09.95,2.3,1.61,3.59,1.95,1.33.35,2.64.53,3.92.53,3.5,0,6.39-.87,8.6-2.58,2.22-1.73,3.89-4,4.95-6.78,1.08-2.8,1.62-5.8,1.62-8.91v-29.13h2.4v29.13c0,2.43-.31,4.9-.94,7.33-.63,2.46-1.68,4.72-3.13,6.72-1.47,2.02-3.45,3.66-5.89,4.86-2.44,1.21-5.5,1.82-9.09,1.82Z"/>
      <path class="cls-3" d="m82.51,39.57v28.63c0,2.4-.31,4.81-.92,7.21-.61,2.4-1.63,4.59-3.05,6.55-1.42,1.96-3.32,3.53-5.7,4.71-2.38,1.18-5.33,1.77-8.87,1.77-.83,0-1.94-.07-3.31-.22-1.37-.15-2.85-.52-4.42-1.1-1.57-.59-3.14-1.57-4.71-2.94-2.11-1.86-3.64-4.16-4.6-6.88-.96-2.72-1.44-5.87-1.44-9.46v-28.26h8.24v32.6c0,3.19.36,5.77,1.07,7.73.71,1.96,1.64,3.45,2.8,4.45,1.15,1.01,2.42,1.69,3.79,2.06,1.37.37,2.72.55,4.05.55,3.63,0,6.6-.89,8.9-2.69,2.31-1.79,4.01-4.12,5.11-6.99,1.1-2.87,1.66-5.9,1.66-9.09v-28.63h1.4m1-1h-3.4v29.63c0,3.05-.53,5.99-1.59,8.73-1.03,2.68-2.65,4.89-4.79,6.56-2.12,1.64-4.9,2.48-8.29,2.48-1.23,0-2.51-.17-3.79-.52-1.22-.33-2.36-.95-3.39-1.85-1.02-.89-1.87-2.25-2.51-4.04-.67-1.84-1.01-4.33-1.01-7.39v-33.6h-10.24v29.26c0,3.68.5,6.97,1.49,9.79,1.01,2.87,2.65,5.33,4.88,7.3,1.66,1.45,3.34,2.5,5.02,3.13,1.64.62,3.21,1.01,4.66,1.16,1.4.15,2.55.23,3.42.23,3.67,0,6.8-.63,9.31-1.87,2.51-1.24,4.56-2.93,6.07-5.02,1.49-2.05,2.57-4.37,3.21-6.89.63-2.47.95-4.98.95-7.46v-29.63h0Z"/>
    </g>
    <path class="cls-3" d="m52.56,83.06c1.42,1.23,2.89,2.13,4.42,2.72-.05-.1-.1-.17-.15-.22-.05-.05-.12-.1-.22-.15-1.47-1.37-2.53-3.07-3.16-5.08-.79-2.21-1.18-4.93-1.18-8.17v-31.13h-5.3v26.79c0,6.87,1.86,11.95,5.59,15.23Z"/>
  </g>
</svg>