<?xml version="1.0" encoding="UTF-8"?>
<svg id="Layer_2" data-name="Layer 2" xmlns="http://www.w3.org/2000/svg" viewBox="0 0 128 128">
  <defs>
    <style>
      .cls-1, .cls-2 {
        fill: #1b0049;
      }

      .cls-3 {
        fill: aqua;
      }

      .cls-2 {
        stroke: #1b0049;
        stroke-miterlimit: 10;
      }
    </style>
  </defs>
  <rect class="cls-2" x="28.07" y="28.07" width="71.87" height="71.87"/>
  <g>
    <g>
      <polygon class="cls-1" points="48.19 88.71 48.19 39.29 79.81 39.29 79.81 41.76 57.51 41.76 57.51 62.76 74.29 62.76 74.29 65.24 57.51 65.24 57.51 86.24 79.81 86.24 79.81 88.71 48.19 88.71"/>
      <path class="cls-3" d="m79.31,39.79v1.47h-22.3v22h16.78v1.47h-16.78v22h22.3v1.47h-30.61v-48.42h30.61m1-1h-32.61v50.42h32.61v-3.47h-22.3v-20h16.78v-3.47h-16.78v-20h22.3v-3.47h0Z"/>
    </g>
    <rect class="cls-3" x="50.17" y="41.26" width="5.37" height="45.48"/>
  </g>
</svg>