<?xml version="1.0" encoding="UTF-8"?>
<svg id="Layer_2" data-name="Layer 2" xmlns="http://www.w3.org/2000/svg" xmlns:xlink="http://www.w3.org/1999/xlink" viewBox="0 0 128 128">
  <defs>
    <style>
      .cls-1 {
        filter: url(#outer-glow-6);
      }

      .cls-1, .cls-2, .cls-3 {
        fill: #100425;
      }

      .cls-4 {
        fill: aqua;
        filter: url(#outer-glow-7);
        stroke: aqua;
        stroke-miterlimit: 10;
        stroke-width: 2.87px;
      }

      .cls-2 {
        filter: url(#outer-glow-5);
      }

      .cls-3 {
        filter: url(#outer-glow-4);
      }
    </style>
    <filter id="outer-glow-4" filterUnits="userSpaceOnUse">
      <feOffset dx="0" dy="0"/>
      <feGaussianBlur result="blur" stdDeviation="5"/>
      <feFlood flood-color="#1b0049" flood-opacity=".75"/>
      <feComposite in2="blur" operator="in"/>
      <feComposite in="SourceGraphic"/>
    </filter>
    <filter id="outer-glow-5" filterUnits="userSpaceOnUse">
      <feOffset dx="0" dy="0"/>
      <feGaussianBlur result="blur-2" stdDeviation="5"/>
      <feFlood flood-color="#1b0049" flood-opacity=".75"/>
      <feComposite in2="blur-2" operator="in"/>
      <feComposite in="SourceGraphic"/>
    </filter>
    <filter id="outer-glow-6" filterUnits="userSpaceOnUse">
      <feOffset dx="0" dy="0"/>
      <feGaussianBlur result="blur-3" stdDeviation="5"/>
      <feFlood flood-color="#1b0049" flood-opacity=".75"/>
      <feComposite in2="blur-3" operator="in"/>
      <feComposite in="SourceGraphic"/>
    </filter>
    <filter id="outer-glow-7" filterUnits="userSpaceOnUse">
      <feOffset dx="0" dy="0"/>
      <feGaussianBlur result="blur-4" stdDeviation="5"/>
      <feFlood flood-color="aqua" flood-opacity=".75"/>
      <feComposite in2="blur-4" operator="in"/>
      <feComposite in="SourceGraphic"/>
    </filter>
  </defs>
  <path class="cls-3" d="m100.67,54.23c-20.22-20.22-53.13-20.22-73.35,0l-7.3-7.3c24.25-24.25,63.7-24.25,87.95,0l-7.3,7.3Z"/>
  <path class="cls-2" d="m116.37,38.03c-28.88-28.88-75.86-28.88-104.74,0l-7.63-7.63C20.03,14.37,41.34,5.54,64,5.54s43.97,8.83,60,24.85l-7.63,7.63Z"/>
  <path class="cls-1" d="m84.64,70.05c-5.51-5.51-12.84-8.55-20.64-8.55s-15.13,3.04-20.64,8.55l-6.49-6.49c7.25-7.25,16.88-11.24,27.13-11.24s19.88,3.99,27.13,11.24l-6.49,6.49Z"/>
  <circle class="cls-4" cx="64" cy="89.13" r="16.63"/>
</svg>