<?xml version="1.0" encoding="UTF-8"?>
<svg id="Layer_2" data-name="Layer 2" xmlns="http://www.w3.org/2000/svg" viewBox="0 0 128 128">
  <defs>
    <style>
      .cls-1, .cls-2 {
        fill: #1b0049;
      }

      .cls-3 {
        fill: aqua;
      }

      .cls-2 {
        stroke: #1b0049;
        stroke-miterlimit: 10;
      }
    </style>
  </defs>
  <rect class="cls-2" x="13.02" y="28.37" width="101.96" height="71.25"/>
  <g>
    <g>
      <path class="cls-1" d="m38.43,88.93c-3.41,0-6.57-.84-9.38-2.5-2.81-1.65-5.07-3.92-6.73-6.73-1.66-2.81-2.5-5.97-2.5-9.38v-.5h2.55v.5c0,2.94.72,5.65,2.14,8.06,1.42,2.42,3.37,4.38,5.79,5.82,2.41,1.44,5.15,2.17,8.13,2.17,2.27,0,4.02-.54,5.22-1.6,1.23-1.09,2.1-2.46,2.61-4.08.52-1.67.84-3.38.94-5.1.1-1.75.15-3.27.15-4.53,0-2.2-.58-4.25-1.73-6.1-1.14-1.84-2.98-3.29-5.47-4.33-.86-.38-1.75-.68-2.65-.9-.91-.21-2-.4-3.25-.54l-.75-.09,9.96-17.5h-22.16v-2.55h34.03l-9.91,17.65c.91.32,1.92.8,3.01,1.44,1.33.78,2.63,1.81,3.86,3.06,1.23,1.26,2.27,2.75,3.07,4.44.81,1.71,1.23,3.62,1.23,5.7s-.39,4.24-1.17,6.32c-.78,2.09-2.07,4.05-3.83,5.81-1.76,1.71-3.78,3.06-6.01,4.01-2.23.95-4.64,1.44-7.15,1.44Z"/>
      <path class="cls-3" d="m54.47,39.57l-9.79,17.44c1.03.29,2.2.82,3.5,1.58,1.3.76,2.55,1.75,3.75,2.98,1.2,1.23,2.19,2.66,2.98,4.3.78,1.64,1.18,3.47,1.18,5.48s-.38,4.11-1.14,6.15c-.76,2.04-2,3.91-3.72,5.63-1.72,1.67-3.67,2.97-5.85,3.9-2.18.93-4.5,1.4-6.95,1.4-3.34,0-6.38-.81-9.12-2.43-2.75-1.62-4.93-3.8-6.55-6.55-1.62-2.75-2.43-5.79-2.43-9.13h1.55c0,3.04.74,5.81,2.21,8.32,1.47,2.5,3.46,4.5,5.96,6,2.5,1.5,5.3,2.24,8.39,2.24,2.4,0,4.26-.58,5.56-1.73,1.3-1.15,2.22-2.59,2.76-4.31.54-1.72.86-3.46.96-5.22.1-1.77.15-3.29.15-4.56,0-2.31-.6-4.43-1.8-6.37-1.2-1.94-3.1-3.45-5.7-4.53-.88-.39-1.79-.7-2.72-.92-.93-.22-2.04-.4-3.31-.55l10.01-17.59h-22.52v-1.55h32.67m1.71-1H20.8v3.55h21.8l-9.16,16.09-.75,1.31,1.5.17c1.23.14,2.31.32,3.2.53.87.21,1.73.5,2.55.86,2.41,1,4.18,2.39,5.26,4.14,1.1,1.77,1.65,3.73,1.65,5.84,0,1.25-.05,2.77-.14,4.51-.09,1.68-.4,3.35-.91,4.98-.48,1.53-1.31,2.83-2.47,3.86-1.1.98-2.75,1.48-4.89,1.48-2.89,0-5.54-.71-7.88-2.1-2.34-1.4-4.23-3.3-5.61-5.65-1.37-2.33-2.07-4.96-2.07-7.81v-1h-3.55v1c0,3.5.86,6.74,2.57,9.63,1.7,2.88,4.02,5.2,6.9,6.9,2.89,1.7,6.13,2.57,9.63,2.57,2.58,0,5.05-.5,7.35-1.48,2.29-.98,4.36-2.36,6.15-4.1,1.82-1.82,3.15-3.83,3.96-6,.8-2.14,1.2-4.33,1.2-6.49s-.43-4.14-1.28-5.91c-.83-1.74-1.9-3.27-3.17-4.57-1.26-1.28-2.59-2.34-3.96-3.14-.9-.53-1.75-.95-2.54-1.27l9.2-16.4.84-1.49h0Z"/>
    </g>
    <g>
      <path class="cls-1" d="m89.72,88.49c-3.44,0-6.71-.64-9.72-1.92s-5.69-3.06-7.96-5.33c-2.27-2.26-4.07-4.94-5.37-7.96-1.3-3.01-1.95-6.29-1.95-9.73s.66-6.71,1.95-9.73c1.29-3.01,3.1-5.69,5.37-7.96,2.27-2.27,4.95-4.06,7.96-5.33,3.02-1.27,6.29-1.92,9.72-1.92s6.91.7,10.03,2.07c3.12,1.37,5.86,3.33,8.15,5.82l.3.33-1.61,1.86-.38-.4c-2.11-2.25-4.55-4.03-7.28-5.3-2.72-1.26-5.82-1.9-9.21-1.9-1.32,0-2.68.2-4.05.61-1.36.4-2.66,1.08-3.88,2.01-1.33,1-2.58,2.26-3.7,3.73-1.11,1.46-2.01,3.47-2.67,5.97-.67,2.52-1.01,5.93-1.01,10.14s.34,7.62,1.01,10.14c.67,2.5,1.57,4.5,2.67,5.93,1.12,1.46,2.37,2.73,3.7,3.77,1.21.89,2.52,1.55,3.89,1.98,1.37.42,2.73.64,4.05.64h9.14v-19.46h-11.48v-2.47h20.8v24.4h-18.46Z"/>
      <path class="cls-3" d="m89.72,39.13c3.48,0,6.76.67,9.82,2.02,3.07,1.35,5.73,3.25,7.98,5.7l-.96,1.1c-2.16-2.31-4.64-4.11-7.43-5.41-2.8-1.3-5.94-1.95-9.42-1.95-1.37,0-2.77.21-4.19.63-1.42.42-2.77,1.12-4.05,2.1-1.37,1.03-2.64,2.31-3.79,3.83-1.15,1.52-2.07,3.57-2.76,6.14-.69,2.58-1.03,6-1.03,10.27s.34,7.69,1.03,10.27c.69,2.58,1.61,4.61,2.76,6.11,1.15,1.5,2.42,2.79,3.79,3.86,1.28.93,2.62,1.62,4.05,2.06,1.42.44,2.82.66,4.19.66h9.64v-20.46h-11.48v-1.47h19.8v23.4h-17.96c-3.38,0-6.56-.63-9.53-1.88-2.97-1.25-5.57-2.99-7.8-5.23-2.23-2.23-3.99-4.83-5.26-7.8-1.28-2.97-1.91-6.14-1.91-9.53s.64-6.56,1.91-9.53c1.28-2.97,3.03-5.57,5.26-7.8,2.23-2.23,4.83-3.97,7.8-5.23,2.97-1.25,6.15-1.88,9.53-1.88m0-1c-3.5,0-6.84.66-9.92,1.95-3.07,1.29-5.8,3.13-8.12,5.44-2.31,2.31-4.15,5.04-5.47,8.11-1.32,3.08-1.99,6.42-1.99,9.92s.67,6.85,1.99,9.92c1.32,3.07,3.16,5.8,5.47,8.11,2.31,2.31,5.04,4.14,8.12,5.44,3.08,1.3,6.41,1.95,9.92,1.95h18.96v-25.4h-21.8v3.47h11.48v18.46h-8.64c-1.27,0-2.58-.21-3.9-.62-1.31-.41-2.57-1.05-3.75-1.91-1.28-1-2.49-2.24-3.59-3.67-1.07-1.38-1.94-3.32-2.59-5.76-.66-2.48-1-5.84-1-10.01s.34-7.53,1-10.01c.65-2.44,1.52-4.39,2.59-5.8,1.09-1.44,2.3-2.66,3.59-3.63,1.18-.91,2.43-1.56,3.73-1.94,1.33-.39,2.64-.59,3.91-.59,3.32,0,6.35.62,9,1.86,2.66,1.24,5.06,2.98,7.12,5.19l.76.81.73-.84.96-1.1.59-.67-.6-.66c-2.34-2.54-5.14-4.54-8.32-5.94-3.18-1.4-6.62-2.11-10.23-2.11h0Z"/>
    </g>
    <path class="cls-3" d="m50.2,82.1c2.94-3.04,4.42-6.62,4.42-10.74,0-2.01-.42-3.75-1.25-5.22-.83-1.47-1.67-2.65-2.5-3.53-1.13-1.23-2.29-2.18-3.5-2.87-1.2-.69-2.22-1.13-3.05-1.32l-1.84-.44,9.49-16.93h-5.89l-9.42,16.48c.64.15,1.33.32,2.06.52.74.2,1.47.47,2.21.81,2.8,1.13,4.91,2.8,6.33,5,1.37,2.01,2.06,4.42,2.06,7.21v.37c0,1.32-.05,2.92-.15,4.78-.1,1.87-.47,3.66-1.1,5.37-.49,1.32-1.15,2.48-1.99,3.46,1.42-.69,2.8-1.67,4.12-2.94Z"/>
    <path class="cls-3" d="m74.78,49.36c.69-1.57,1.47-2.86,2.35-3.86.88-1.01,1.72-1.85,2.5-2.54-2.26,1.08-4.32,2.55-6.18,4.42-2.16,2.21-3.83,4.69-5,7.43-1.18,2.75-1.77,5.67-1.77,8.76s.59,6.03,1.77,8.83,2.84,5.27,5,7.43c1.91,1.87,4,3.36,6.26,4.49-.83-.74-1.69-1.61-2.58-2.61-.88-1-1.67-2.27-2.35-3.79-1.57-3.58-2.36-8.36-2.36-14.35,0-3.04.2-5.71.59-8.02.39-2.31.98-4.37,1.77-6.18Z"/>
    <rect class="cls-3" x="100.83" y="66.06" width="5.37" height="20.46"/>
  </g>
</svg>