<?xml version="1.0" encoding="UTF-8"?>
<svg id="Layer_2" data-name="Layer 2" xmlns="http://www.w3.org/2000/svg" viewBox="0 0 128 128">
  <defs>
    <style>
      .cls-1 {
        fill: #1b0049;
      }
    </style>
  </defs>
  <g>
    <polygon class="cls-1" points="5.3 89.9 26.56 89.9 33.34 65.77 17.42 60.65 5.3 89.9"/>
    <polygon class="cls-1" points="37.58 89.9 58.75 89.9 62.34 44.06 48.04 40.42 37.58 89.9"/>
    <polygon class="cls-1" points="70.18 40.35 69.72 89.9 90.79 89.9 84.68 40.3 83.21 28.44 70.31 25.71 70.18 40.35"/>
    <polygon class="cls-1" points="87.24 14.52 92.18 40.27 101.72 89.9 122.7 89.9 106.6 40.23 98.96 16.65 87.24 14.52"/>
  </g>
  <ellipse class="cls-1" cx="45.11" cy="101.21" rx="8.22" ry="2.91" transform="translate(-38.94 29) rotate(-25.31)"/>
  <ellipse class="cls-1" cx="78.59" cy="101.21" rx="8.22" ry="2.91" transform="translate(-35.72 43.31) rotate(-25.31)"/>
  <ellipse class="cls-1" cx="61.85" cy="101.21" rx="8.22" ry="2.91" transform="translate(-37.33 36.15) rotate(-25.31)"/>
</svg>