<?xml version="1.0" encoding="UTF-8"?>
<svg id="Layer_2" data-name="Layer 2" xmlns="http://www.w3.org/2000/svg" xmlns:xlink="http://www.w3.org/1999/xlink" viewBox="0 0 128 128">
  <defs>
    <style>
      .cls-1, .cls-2, .cls-3, .cls-4, .cls-5 {
        fill: #1b0049;
      }

      .cls-6 {
        stroke: #1b0049;
      }

      .cls-6, .cls-7 {
        fill: aqua;
      }

      .cls-6, .cls-2, .cls-8 {
        stroke-width: 1.12px;
      }

      .cls-6, .cls-2, .cls-8, .cls-3, .cls-4, .cls-5 {
        stroke-miterlimit: 10;
      }

      .cls-2, .cls-8, .cls-3, .cls-4, .cls-5 {
        stroke: aqua;
      }

      .cls-8 {
        fill: none;
      }

      .cls-3 {
        filter: url(#outer-glow-5);
      }

      .cls-4 {
        filter: url(#outer-glow-6);
      }

      .cls-5 {
        stroke-width: 1.57px;
      }
    </style>
    <filter id="outer-glow-5" filterUnits="userSpaceOnUse">
      <feOffset dx="0" dy="0"/>
      <feGaussianBlur result="blur" stdDeviation="4"/>
      <feFlood flood-color="aqua" flood-opacity=".75"/>
      <feComposite in2="blur" operator="in"/>
      <feComposite in="SourceGraphic"/>
    </filter>
    <filter id="outer-glow-6" filterUnits="userSpaceOnUse">
      <feOffset dx="0" dy="0"/>
      <feGaussianBlur result="blur-2" stdDeviation="4"/>
      <feFlood flood-color="aqua" flood-opacity=".75"/>
      <feComposite in2="blur-2" operator="in"/>
      <feComposite in="SourceGraphic"/>
    </filter>
  </defs>
  <g>
    <g>
      <g>
        <polygon class="cls-1" points="84.69 105.03 105.72 84.79 123.28 103.04 118.29 107.84 119.8 109.41 118.28 110.87 119.92 112.58 111.91 120.29 110.26 118.58 108.74 120.05 107.23 118.48 102.24 123.28 84.69 105.03"/>
        <path class="cls-7" d="m105.71,85.5l16.86,17.53-4.99,4.8,1.51,1.57-1.52,1.46,1.64,1.71-7.3,7.02-1.64-1.71-1.52,1.46-1.51-1.57-4.99,4.8-16.86-17.53,20.32-19.55m.03-1.41l-.72.69-20.32,19.55-.72.69.69.72,16.86,17.53.69.72.72-.69,4.27-4.11.82.85.69.72.72-.69.8-.77.95.99.69.72.72-.69,7.3-7.02.72-.69-.69-.72-.95-.99.8-.77.72-.69-.69-.72-.82-.85,4.27-4.11.72-.69-.69-.72-16.86-17.53-.69-.72h0Z"/>
      </g>
      <g>
        <line class="cls-8" x1="98.77" y1="105.96" x2="92.9" y2="99.85"/>
        <line class="cls-8" x1="107.57" y1="97.49" x2="101.7" y2="91.38"/>
        <line class="cls-8" x1="109.04" y1="96.08" x2="103.16" y2="89.97"/>
        <line class="cls-8" x1="101.71" y1="103.14" x2="95.83" y2="97.03"/>
        <line class="cls-8" x1="104.64" y1="100.32" x2="98.76" y2="94.21"/>
        <line class="cls-8" x1="95.84" y1="108.78" x2="89.96" y2="102.67"/>
        <line class="cls-8" x1="103.17" y1="101.73" x2="97.3" y2="95.62"/>
        <line class="cls-8" x1="106.11" y1="98.91" x2="100.23" y2="92.79"/>
        <line class="cls-8" x1="97.31" y1="107.37" x2="91.43" y2="101.26"/>
        <line class="cls-8" x1="100.24" y1="104.55" x2="94.36" y2="98.44"/>
      </g>
    </g>
    <g id="eth">
      <rect class="cls-5" x="67.05" y="68.12" width="26.49" height="22.59" transform="translate(-32.63 77.85) rotate(-43.89)"/>
      <g>
        <line class="cls-8" x1="82.89" y1="89.45" x2="77.01" y2="83.34"/>
        <line class="cls-8" x1="91.69" y1="80.99" x2="85.81" y2="74.88"/>
        <line class="cls-8" x1="93.16" y1="79.57" x2="87.28" y2="73.46"/>
        <line class="cls-8" x1="85.82" y1="86.63" x2="79.95" y2="80.52"/>
        <line class="cls-8" x1="88.76" y1="83.81" x2="82.88" y2="77.7"/>
        <line class="cls-8" x1="79.96" y1="92.28" x2="74.08" y2="86.16"/>
        <line class="cls-8" x1="87.29" y1="85.22" x2="81.41" y2="79.11"/>
        <line class="cls-8" x1="90.22" y1="82.4" x2="84.35" y2="76.29"/>
        <line class="cls-8" x1="81.42" y1="90.86" x2="75.55" y2="84.75"/>
        <line class="cls-8" x1="84.36" y1="88.04" x2="78.48" y2="81.93"/>
      </g>
      <rect class="cls-7" x="67.65" y="74.26" width="18.32" height="3.07" transform="translate(-31.09 74.43) rotate(-43.89)"/>
      <polygon class="cls-2" points="63.9 80.92 82.43 63.09 82.96 56.1 62.24 34.57 50.48 28.28 43.4 35.1 41.05 32.66 48.02 25.95 45.85 25.31 39.68 31.24 38.15 29.64 44.31 23.71 42.14 23.06 36.78 28.22 35.24 26.62 40.6 21.46 38.43 20.81 33.87 25.2 32.33 23.6 36.89 19.22 34.72 18.57 30.97 22.18 29.43 20.58 33.18 16.97 28.01 13.21 25.07 16.04 -.15 -10.17 -6.12 -4.43 19.1 21.78 16.16 24.62 19.71 29.92 23.46 26.32 25 27.91 21.25 31.52 21.82 33.72 26.37 29.34 27.91 30.93 23.35 35.32 23.92 37.51 29.28 32.36 30.81 33.95 25.46 39.11 26.02 41.3 32.18 35.38 33.72 36.97 27.56 42.9 28.12 45.1 35.09 38.4 37.43 40.83 30.35 47.65 36.18 59.65 56.89 81.18 63.9 80.92"/>
      <rect class="cls-6" x="52.93" y="54.88" width="20.35" height="13.33" transform="translate(-25.04 60.95) rotate(-43.89)"/>
    </g>
  </g>
  <path class="cls-3" d="m47.12,77.91c-8.74,1.19,3.57,16.27,10.3,21.82l-.68-8.99,23.21,31.83-49.84-29.11,24.9,7.67-7.53.36,20.41,9.58-8.32-12.14,2.25,7.19c-12.5-10.82-32.93-31.79-22.98-33.87l8.27,5.67Z"/>
  <path class="cls-4" d="m87.63,52.49c8.74-1.19-3.57-16.27-10.3-21.82l.68,8.99L54.8,7.84l49.84,29.11-24.9-7.67,7.53-.36-20.41-9.58,8.32,12.14-2.25-7.19c12.5,10.82,32.93,31.79,22.98,33.87l-8.27-5.67Z"/>
</svg>