<?xml version="1.0" encoding="UTF-8"?>
<svg id="Layer_2" data-name="Layer 2" xmlns="http://www.w3.org/2000/svg" viewBox="0 0 128 128">
  <defs>
    <style>
      .cls-1, .cls-2, .cls-3 {
        fill: #1b0049;
      }

      .cls-4 {
        stroke: #1b0049;
      }

      .cls-4, .cls-5 {
        fill: aqua;
      }

      .cls-4, .cls-2, .cls-6 {
        stroke-width: 1.12px;
      }

      .cls-4, .cls-2, .cls-6, .cls-3 {
        stroke-miterlimit: 10;
      }

      .cls-2, .cls-6, .cls-3 {
        stroke: aqua;
      }

      .cls-6 {
        fill: none;
      }

      .cls-3 {
        stroke-width: 1.57px;
      }
    </style>
  </defs>
  <g>
    <g>
      <polygon class="cls-1" points="84.69 105.03 105.72 84.79 123.28 103.04 118.29 107.84 119.8 109.41 118.28 110.87 119.92 112.58 111.9 120.29 110.26 118.58 108.74 120.05 107.23 118.48 102.24 123.28 84.69 105.03"/>
      <path class="cls-5" d="m105.71,85.5l16.86,17.53-4.99,4.8,1.51,1.57-1.52,1.46,1.64,1.71-7.3,7.02-1.64-1.71-1.52,1.46-1.51-1.57-4.99,4.8-16.86-17.53,20.32-19.55m.03-1.41l-.72.69-20.32,19.55-.72.69.69.72,16.86,17.53.69.72.72-.69,4.27-4.11.82.85.69.72.72-.69.8-.77.95.99.69.72.72-.69,7.3-7.02.72-.69-.69-.72-.95-.99.8-.77.72-.69-.69-.72-.82-.85,4.27-4.11.72-.69-.69-.72-16.86-17.53-.69-.72h0Z"/>
    </g>
    <g>
      <line class="cls-6" x1="98.77" y1="105.96" x2="92.9" y2="99.85"/>
      <line class="cls-6" x1="107.57" y1="97.49" x2="101.7" y2="91.38"/>
      <line class="cls-6" x1="109.04" y1="96.08" x2="103.16" y2="89.97"/>
      <line class="cls-6" x1="101.71" y1="103.14" x2="95.83" y2="97.03"/>
      <line class="cls-6" x1="104.64" y1="100.32" x2="98.76" y2="94.21"/>
      <line class="cls-6" x1="95.84" y1="108.78" x2="89.96" y2="102.67"/>
      <line class="cls-6" x1="103.17" y1="101.73" x2="97.3" y2="95.62"/>
      <line class="cls-6" x1="106.11" y1="98.91" x2="100.23" y2="92.79"/>
      <line class="cls-6" x1="97.31" y1="107.37" x2="91.43" y2="101.26"/>
      <line class="cls-6" x1="100.24" y1="104.55" x2="94.36" y2="98.44"/>
    </g>
  </g>
  <g id="eth">
    <rect class="cls-3" x="55.05" y="56.12" width="26.49" height="22.59" transform="translate(-27.66 66.18) rotate(-43.89)"/>
    <g>
      <line class="cls-6" x1="70.89" y1="77.45" x2="65.01" y2="71.34"/>
      <line class="cls-6" x1="79.69" y1="68.99" x2="73.81" y2="62.88"/>
      <line class="cls-6" x1="81.16" y1="67.57" x2="75.28" y2="61.46"/>
      <line class="cls-6" x1="73.82" y1="74.63" x2="67.95" y2="68.52"/>
      <line class="cls-6" x1="76.76" y1="71.81" x2="70.88" y2="65.7"/>
      <line class="cls-6" x1="67.96" y1="80.28" x2="62.08" y2="74.16"/>
      <line class="cls-6" x1="75.29" y1="73.22" x2="69.41" y2="67.11"/>
      <line class="cls-6" x1="78.22" y1="70.4" x2="72.35" y2="64.29"/>
      <line class="cls-6" x1="69.42" y1="78.86" x2="63.55" y2="72.75"/>
      <line class="cls-6" x1="72.36" y1="76.04" x2="66.48" y2="69.93"/>
    </g>
    <rect class="cls-5" x="55.65" y="62.26" width="18.32" height="3.07" transform="translate(-26.12 62.76) rotate(-43.89)"/>
    <polygon class="cls-2" points="51.9 68.92 70.43 51.09 70.96 44.1 50.24 22.57 38.48 16.28 31.4 23.1 29.05 20.66 36.02 13.95 33.85 13.31 27.68 19.24 26.15 17.64 32.31 11.71 30.14 11.06 24.78 16.22 23.24 14.62 28.6 9.46 26.43 8.81 21.87 13.2 20.33 11.6 24.89 7.22 22.72 6.57 18.97 10.18 17.43 8.58 21.18 4.97 16.01 1.21 13.07 4.04 -12.15 -22.17 -18.12 -16.43 7.1 9.78 4.16 12.62 7.71 17.92 11.46 14.32 13 15.91 9.25 19.52 9.82 21.72 14.37 17.34 15.91 18.93 11.35 23.32 11.92 25.51 17.28 20.36 18.81 21.95 13.46 27.11 14.02 29.3 20.18 23.38 21.72 24.97 15.56 30.9 16.12 33.1 23.09 26.4 25.43 28.83 18.35 35.65 24.18 47.65 44.89 69.18 51.9 68.92"/>
    <rect class="cls-4" x="40.93" y="42.88" width="20.35" height="13.33" transform="translate(-20.07 49.27) rotate(-43.89)"/>
  </g>
</svg>