<?xml version="1.0" encoding="UTF-8"?>
<svg id="Layer_2" data-name="Layer 2" xmlns="http://www.w3.org/2000/svg" xmlns:xlink="http://www.w3.org/1999/xlink" viewBox="0 0 128 128">
  <defs>
    <style>
      .cls-1 {
        fill: #1b0049;
      }

      .cls-2 {
        filter: url(#outer-glow-4);
      }

      .cls-3, .cls-4 {
        fill: aqua;
      }

      .cls-4 {
        stroke: #1b0049;
        stroke-miterlimit: 10;
        stroke-width: 1.03px;
      }

      .cls-5 {
        fill: #100425;
      }
    </style>
    <filter id="outer-glow-4" filterUnits="userSpaceOnUse">
      <feOffset dx="0" dy="0"/>
      <feGaussianBlur result="blur" stdDeviation="5.7"/>
      <feFlood flood-color="#1b0049" flood-opacity=".75"/>
      <feComposite in2="blur" operator="in"/>
      <feComposite in="SourceGraphic"/>
    </filter>
  </defs>
  <g class="cls-2">
    <path class="cls-5" d="m100.67,54.23c-20.22-20.22-53.13-20.22-73.35,0l-7.3-7.3c24.25-24.25,63.7-24.25,87.95,0l-7.3,7.3Z"/>
    <path class="cls-5" d="m116.37,38.03c-28.88-28.88-75.86-28.88-104.74,0l-7.63-7.63C20.03,14.37,41.34,5.54,64,5.54s43.97,8.83,60,24.85l-7.63,7.63Z"/>
    <path class="cls-5" d="m84.64,70.05c-5.51-5.51-12.84-8.55-20.64-8.55s-15.13,3.04-20.64,8.55l-6.49-6.49c7.25-7.25,16.88-11.24,27.13-11.24s19.88,3.99,27.13,11.24l-6.49,6.49Z"/>
    <circle class="cls-5" cx="64" cy="89.13" r="16.63"/>
  </g>
  <g>
    <path class="cls-4" d="m42.1,68.58v-9.92c0-13.82,9.81-25.03,21.9-25.03,12.1,0,21.9,11.21,21.9,25.03v14.31s-8.89,0-8.89,0v-14.31c0-8.22-5.83-14.87-13.02-14.87-7.19,0-13.02,6.66-13.02,14.87v9.92"/>
    <g>
      <rect class="cls-1" x="37.24" y="68.06" width="53.52" height="46.52"/>
      <path class="cls-3" d="m90.24,68.58v45.49h-52.48v-45.49h52.48m1.03-1.03h-54.55v47.55h54.55v-47.55h0Z"/>
    </g>
  </g>
</svg>