<?xml version="1.0" encoding="UTF-8"?>
<svg id="Layer_2" data-name="Layer 2" xmlns="http://www.w3.org/2000/svg" xmlns:xlink="http://www.w3.org/1999/xlink" viewBox="0 0 128 128">
  <defs>
    <style>
      .cls-1 {
        fill: #1b0049;
        filter: url(#outer-glow-2);
      }
    </style>
    <filter id="outer-glow-2" filterUnits="userSpaceOnUse">
      <feOffset dx="0" dy="0"/>
      <feGaussianBlur result="blur" stdDeviation="5"/>
      <feFlood flood-color="#1b0049" flood-opacity=".75"/>
      <feComposite in2="blur" operator="in"/>
      <feComposite in="SourceGraphic"/>
    </filter>
  </defs>
  <path class="cls-1" d="m80.95,88.09c-.25-11.99,32.42-32.8,32.22-51.31-.21-18.71-15.74-25.37-22.56-26.31-10.02-1.38-21.24,1.77-21.05,10.06-.19-8.29-12.3-14.65-24.15-16.28-8.84-1.22-31.47,1.42-30.54,25.26.92,23.53,45.65,47.22,45.99,59.82.33,12.51-22.37,10.36-25.35,9.21,0,0,4.65,14.55,25.74,12.17.1,3.84,5.1,9.25,10.73,13.29,5.26-5.53,9.62-11.92,9.55-15.58,17.37-1.96,20.23-15.1,20.23-15.1-2.13,1.36-20.56,6.68-20.8-5.22Zm.42,13.39l-7.8.74.16,7.08c-.07.46-.68,1.8-2.01,3.76-1.43-1.66-2.12-2.91-2.22-3.44l-.17-7.15-8.28.95c-.43.04-.86.07-1.27.1,6.11-3.19,9.54-8.36,9.39-14.7-.19-8.15-8.28-15.71-19.04-25.76-10.57-9.87-24.54-22.93-24.9-32.78-.73-20.36,20.21-18.1,20.41-18.07,8.39,1,23.92,8.33,24.21,21.08-.3-12.75,13.89-16.53,20.88-15.69.16.02,15.52,2.05,15.74,18.7.1,8.07-9.4,18.28-17.36,26.83-8.9,9.55-16.19,17.38-16,25.45.13,5.6,2.96,9.95,7.89,12.22.46.21.92.4,1.41.57-.33.05-.68.08-1.03.12Z"/>
</svg>