<?xml version="1.0" encoding="UTF-8"?>
<svg id="Layer_2" data-name="Layer 2" xmlns="http://www.w3.org/2000/svg" xmlns:xlink="http://www.w3.org/1999/xlink" viewBox="0 0 128 128">
  <defs>
    <style>
      .cls-1 {
        fill: #1b0049;
      }

      .cls-2 {
        fill: aqua;
      }

      .cls-3 {
        fill: #1bffff;
      }

      .cls-4 {
        filter: url(#outer-glow-5);
      }
    </style>
    <filter id="outer-glow-5" filterUnits="userSpaceOnUse">
      <feOffset dx="0" dy="0"/>
      <feGaussianBlur result="blur" stdDeviation="11.93"/>
      <feFlood flood-color="aqua" flood-opacity=".75"/>
      <feComposite in2="blur" operator="in"/>
      <feComposite in="SourceGraphic"/>
    </filter>
    <filter id="outer-glow-9" filterUnits="userSpaceOnUse">
      <feOffset dx="0" dy="0"/>
      <feGaussianBlur result="blur-2" stdDeviation="11.01"/>
      <feFlood flood-color="aqua" flood-opacity=".75"/>
      <feComposite in2="blur-2" operator="in"/>
      <feComposite in="SourceGraphic"/>
    </filter>
  </defs>
  <g id="glow_exclam" class="cls-4">
    <g>
      <polygon class="cls-1" points="103.55 31.4 118.55 4.87 110.09 90.94 108.29 93.6 103.55 31.4"/>
      <path class="cls-3" d="m117.56,8.02l-8.12,82.68-.61.9-4.57-60.04,13.31-23.54m1.99-6.29l-16.69,29.52,4.9,64.35,3-4.42L119.55,1.72h0Z"/>
    </g>
    <g>
      <path class="cls-1" d="m106.41,121.04c-1.27,0-2.36-.73-2.99-2.01-.95-1.92-1.2-5.87.37-10.4,2.54-7.28,7.55-12.36,10.47-12.36.62,0,1.12.23,1.53.7.71.8,1.78,3.08,1.01,9.4-1,8.24-6.32,13.85-9.61,14.58-.26.06-.52.09-.78.09h0Z"/>
      <path class="cls-3" d="m114.26,96.96c.42,0,.73.14,1.02.47.51.57,1.61,2.58.84,8.86-1.05,8.6-6.52,13.43-9.08,14-.21.05-.43.07-.63.07-1,0-1.86-.59-2.38-1.63-.89-1.79-1.11-5.53.41-9.87,2.34-6.7,7.2-11.9,9.82-11.9m0-1.36c-3.48,0-8.65,5.76-11.11,12.81-1.64,4.7-1.38,8.84-.34,10.93.73,1.46,2.03,2.39,3.6,2.39.3,0,.61-.03.92-.1,3.36-.74,9.06-6.28,10.14-15.17.95-7.81-.68-10.86-3.21-10.86h0Z"/>
    </g>
  </g>
  <g>
    <g>
      <path class="cls-2" d="m34.96,68l-3.81,4.2,7.92,4.75c-.74,1.7-1.29,3.45-1.67,5.22l-8.44,3-1.2,5.54,9.24.16c.21,1.82.6,3.62,1.17,5.36l-5.82,6.81,1.73,5.4,8.12-4.55c1.1,1.48,2.32,2.94,3.73,4.19l-1.73,8.77,4.2,3.81,4.78-7.97c1.7.74,3.45,1.29,5.22,1.67l3,8.44,5.54,1.2.16-9.24c1.82-.21,3.62-.6,5.36-1.17l6.81,5.82,5.4-1.73-4.48-8.07c1.45-1.08,2.81-2.31,4.05-3.69l8.81,1.62,3.81-4.2-7.92-4.75c.74-1.7,1.29-3.45,1.67-5.22l8.44-3,1.2-5.54-9.24-.16c-.21-1.82-.6-3.62-1.17-5.36l5.82-6.81-1.73-5.4-8.07,4.48c-1.07-1.45-2.31-2.81-3.69-4.05l1.62-8.81-4.2-3.81-4.75,7.92c-1.7-.74-3.45-1.29-5.22-1.67l-3-8.44-5.54-1.2-.16,9.24c-1.82.21-3.62.6-5.36,1.17l-6.81-5.82-5.4,1.73,4.48,8.07c-1.45,1.07-2.81,2.31-4.05,3.69l-8.81-1.62Zm18.96,35.39c-3.45-2.23-6.08-5.56-7.44-9.42l6.35-2.35c.86,2.51,2.53,4.65,4.76,6.09,1.71,1.1,3.67,1.74,5.7,1.86l8.29,5.16c-5.71,2.55-12.37,2.06-17.65-1.34Zm25.67-5.54c-.46.71-.97,1.39-1.52,2.04l-5.21-4.32c.38-.44.73-.9,1.05-1.39,2.27-3.52,2.5-8,.61-11.74l.48-9.62c7.84,5.76,9.94,16.74,4.6,25.02Zm-13-14.09c2.22,1.43,2.86,4.4,1.43,6.62s-4.4,2.86-6.62,1.43-2.86-4.4-1.43-6.62,4.4-2.86,6.62-1.43Zm.81-14.23l-1.13,6.67c-4.67-.92-9.45,1.05-12.1,5.04l-8.65,4.68c.29-2.91,1.28-5.73,2.87-8.2,4.08-6.32,11.65-9.56,19.01-8.19Z"/>
      <path class="cls-1" d="m45.53,71.3l-.91,1.01-8.82-1.62-.92,1.02,7.21,4.33-.85,1.95c-.66,1.53-1.17,3.12-1.52,4.75l-.28,1.33-8.45,3.01-.29,1.34,8.41.14.24,2.11c.19,1.65.55,3.3,1.07,4.89l.42,1.29-5.82,6.82.41,1.29,7.39-4.14,1.27,1.71c1.2,1.62,2.27,2.83,3.39,3.82l1.04.92-1.74,8.79,1,.91,4.35-7.26,1.95.85c1.53.66,3.12,1.18,4.75,1.52l1.33.28,3,8.45,1.34.29.14-8.41,2.11-.24c1.65-.19,3.3-.55,4.89-1.07l1.29-.42,6.81,5.82,1.3-.42-4.08-7.35,1.71-1.26c1.33-.99,2.57-2.12,3.68-3.36l.91-1.01,8.82,1.62.92-1.02-7.21-4.33.85-1.95c.66-1.53,1.17-3.12,1.52-4.75l.28-1.33,8.45-3,.29-1.34-8.41-.14-.24-2.11c-.19-1.65-.55-3.3-1.07-4.89l-.42-1.29,5.82-6.81-.42-1.3-7.35,4.08-1.26-1.71c-.99-1.34-2.12-2.57-3.36-3.68l-1.01-.91,1.62-8.82-1.02-.92-4.33,7.21-1.95-.85c-1.53-.66-3.12-1.17-4.75-1.52l-1.33-.28-3-8.45-1.34-.29-.14,8.41-2.11.24c-1.65.19-3.3.55-4.89,1.07l-1.29.42-6.81-5.82-1.3.42,4.08,7.35-1.71,1.26c-1.33.99-2.57,2.12-3.68,3.36Zm28.21,35.26c-6.73,3.52-14.87,3.15-21.25-.96-4.13-2.66-7.21-6.7-8.69-11.38l-.55-1.73,11.21-4.16.55,2c.61,2.19,1.99,4.07,3.89,5.3,1.38.89,2.97,1.39,4.6,1.47l.5.02,12.68,7.9-2.95,1.54Zm-15.43-22.33c2-3.1,6.15-4,9.25-2s4,6.15,2,9.25c-2,3.1-6.15,4-9.25,2s-4-6.15-2-9.25Zm17.07-14.11c9.78,6.31,12.61,19.41,6.3,29.19-.65,1-1.38,1.96-2.19,2.84l-1.22,1.34-9.21-7.63,1.46-1.48c.45-.45.85-.95,1.2-1.49,1.8-2.8,1.96-6.37.41-9.33l-.24-.46.73-14.76,2.77,1.79Zm-6.89-2.88l1.77.39-2,11.79-2.01-.52c-3.87-1-7.93.58-10.1,3.94l-.26.41-13.18,7.13.12-3.33c.14-3.77,1.3-7.45,3.36-10.64,4.76-7.38,13.73-11.07,22.3-9.17Z"/>
    </g>
    <g>
      <path class="cls-2" d="m78.12,39.39c.57-1.28.99-2.61,1.28-3.94l6.97.57-.49-4.27-6.14-2.88c-.15-1.38-.44-2.74-.86-4.07l6.33-2.99-2.56-3.45-6.76.56c-.81-1.1-1.74-2.14-2.78-3.08l3.98-5.75-3.94-1.71-5.58,3.87c-1.28-.57-2.61-.99-3.94-1.28l.57-6.97-4.27.49-2.88,6.14c-1.38.15-2.74.44-4.07.86l-2.99-6.33-3.45,2.56.56,6.76c-1.1.81-2.14,1.74-3.08,2.78l-5.75-3.98-1.71,3.94,3.87,5.58c-.57,1.28-.99,2.61-1.28,3.94l-6.97-.57.49,4.27,6.14,2.88c.15,1.38.44,2.74.86,4.07l-6.33,2.99,2.56,3.45,6.76-.56c.81,1.1,1.74,2.14,2.78,3.08l-4.01,5.78,3.94,1.71,5.51-3.94c1.31.59,2.69.97,4.06,1.27l-.6,7.02,4.27-.49,2.88-6.14c1.38-.15,2.74-.44,4.07-.86l2.99,6.33,3.45-2.56-.56-6.76c1.1-.81,2.14-1.74,3.08-2.78l5.75,3.98,1.71-3.94-3.87-5.58Zm-32.92-8.22l6.15,4.11c.71,1.36,1.77,2.52,3.06,3.35,1.69,1.09,3.7,1.58,5.69,1.38l.36,5.12c-3.09.27-6.21-.51-8.83-2.19-4-2.58-6.42-7.03-6.44-11.76Zm20.95-12.32l-6.49,3.33c-3.17-.14-6.19,1.42-7.91,4.08-.24.37-.45.76-.63,1.16l-4.6-2.25c.27-.58.58-1.15.93-1.69,4.05-6.27,12.28-8.25,18.71-4.64Zm-3.84,14.23c-1.08,1.68-3.33,2.17-5.01,1.08-1.68-1.08-2.17-3.33-1.08-5.01s3.33-2.17,5.01-1.08c1.68,1.08,2.17,3.33,1.08,5.01Zm8.77,5.66c-1.21,1.88-2.85,3.43-4.77,4.55l.53-7.43c1.93-3.08,1.8-6.99-.3-9.93l4.25-2.87c3.24,4.65,3.37,10.89.28,15.68Z"/>
      <path class="cls-1" d="m77.58,35.11l.34-1.57,6.35.52-.12-1.03-6.15-2.89-.11-1.02c-.14-1.26-.4-2.51-.79-3.71l-.49-1.53,5.76-2.72-.62-.83-6.77.56-.61-.83c-.74-1.02-1.59-1.96-2.53-2.8l-1.19-1.08,3.63-5.24-.95-.41-5.58,3.87-.94-.42c-1.15-.51-2.36-.9-3.59-1.17l-1.57-.34.52-6.35-1.03.12-2.89,6.15-1.02.11c-1.26.14-2.51.4-3.71.79l-1.53.49-2.72-5.76-.83.62.56,6.77-.83.61c-1.01.74-1.96,1.59-2.8,2.53l-1.08,1.19-5.24-3.63-.41.95,3.87,5.58-.42.94c-.51,1.15-.9,2.36-1.17,3.59l-.34,1.57-6.35-.52.12,1.03,6.15,2.89.11,1.02c.14,1.26.4,2.51.79,3.71l.49,1.53-5.76,2.72.62.83,6.77-.56.61.83c.74,1.01,1.59,1.96,2.53,2.8l1.19,1.08-3.65,5.27.94.41,5.52-3.95.96.43c1.04.46,2.21.83,3.7,1.15l1.58.34-.55,6.39,1.02-.12,2.89-6.15,1.02-.11c1.26-.14,2.5-.4,3.71-.79l1.53-.49,2.72,5.76.83-.62-.56-6.77.83-.61c1.01-.74,1.96-1.59,2.8-2.53l1.08-1.19,5.24,3.63.41-.95-3.87-5.58.42-.94c.51-1.15.9-2.36,1.17-3.59Zm-34.17-7.39l9.41,6.28.17.34c.56,1.1,1.4,2.04,2.45,2.71,1.44.93,3.17,1.3,4.88,1.03l1.55-.24.63,9.04-1.36.16c-3.69.44-7.44-.43-10.56-2.44-4.83-3.12-7.63-8.62-7.3-14.37l.14-2.52Zm13.08,7.71c-2.35-1.52-3.03-4.66-1.51-7.01s4.66-3.03,7.01-1.51c2.35,1.52,3.03,4.66,1.51,7.01-1.52,2.35-4.66,3.03-7.01,1.51Zm13.52-16.35l-9.96,5.11-.39-.02c-2.53-.15-4.95,1.08-6.31,3.2-.26.41-.48.84-.66,1.29l-.56,1.47-8.14-3.97.54-1.26c.36-.83.78-1.64,1.27-2.4,4.78-7.41,14.7-9.55,22.11-4.77l2.1,1.35Zm2.67,20.76c-1.56,2.41-3.73,4.36-6.29,5.64l-2.26,1.13.81-11.33.2-.31c1.64-2.54,1.47-5.84-.43-8.2l-.98-1.22,7.51-5.06.82,1.1c3.99,5.33,4.24,12.66.63,18.26Z"/>
    </g>
  </g>
</svg>