<?xml version="1.0" encoding="UTF-8"?>
<svg id="Layer_2" data-name="Layer 2" xmlns="http://www.w3.org/2000/svg" xmlns:xlink="http://www.w3.org/1999/xlink" viewBox="0 0 128 128">
  <defs>
    <style>
      .cls-1 {
        fill: aqua;
        filter: url(#outer-glow-10);
        stroke: #1b0049;
        stroke-width: 1.59px;
      }

      .cls-1, .cls-2 {
        stroke-miterlimit: 10;
      }

      .cls-2 {
        fill: #1b0049;
        stroke: aqua;
      }
    </style>
    <filter id="outer-glow-10" filterUnits="userSpaceOnUse">
      <feOffset dx="0" dy="0"/>
      <feGaussianBlur result="blur" stdDeviation="7.96"/>
      <feFlood flood-color="aqua" flood-opacity=".75"/>
      <feComposite in2="blur" operator="in"/>
      <feComposite in="SourceGraphic"/>
    </filter>
  </defs>
  <g>
    <g>
      <path class="cls-2" d="m110.94,27.11h-58.03c-.75,0-1.36-.52-1.36-1.15v-3.85c0-.64.61-1.15,1.36-1.15h64.46c1.33,0,1.87,1.45.78,2.1l-6.43,3.85c-.23.14-.5.21-.78.21Z"/>
      <path class="cls-2" d="m110.94,43.1h-58.03c-.75,0-1.36-.52-1.36-1.15v-3.85c0-.64.61-1.15,1.36-1.15h64.46c1.33,0,1.87,1.45.78,2.1l-6.43,3.85c-.23.14-.5.21-.78.21Z"/>
      <path class="cls-2" d="m110.94,59.08h-58.03c-.75,0-1.36-.52-1.36-1.15v-3.85c0-.64.61-1.15,1.36-1.15h64.46c1.33,0,1.87,1.45.78,2.1l-6.43,3.85c-.23.14-.5.21-.78.21Z"/>
      <path class="cls-2" d="m110.94,75.07h-58.03c-.75,0-1.36-.52-1.36-1.15v-3.85c0-.64.61-1.15,1.36-1.15h64.46c1.33,0,1.87,1.45.78,2.1l-6.43,3.85c-.23.14-.5.21-.78.21Z"/>
      <path class="cls-2" d="m110.94,91.06h-58.03c-.75,0-1.36-.52-1.36-1.15v-3.85c0-.64.61-1.15,1.36-1.15h64.46c1.33,0,1.87,1.45.78,2.1l-6.43,3.85c-.23.14-.5.21-.78.21Z"/>
      <path class="cls-2" d="m110.94,107.04h-58.03c-.75,0-1.36-.52-1.36-1.15v-3.85c0-.64.61-1.15,1.36-1.15h64.46c1.33,0,1.87,1.45.78,2.1l-6.43,3.85c-.23.14-.5.21-.78.21Z"/>
    </g>
    <path class="cls-2" d="m41.28,17.62c-3.54,0-6.41,2.87-6.41,6.41s2.87,6.41,6.41,6.41,6.41-2.87,6.41-6.41-2.87-6.41-6.41-6.41Zm0,9.99c-1.98,0-3.58-1.6-3.58-3.58s1.6-3.58,3.58-3.58,3.58,1.6,3.58,3.58-1.6,3.58-3.58,3.58Z"/>
    <path class="cls-2" d="m41.28,33.61c-3.54,0-6.41,2.87-6.41,6.41s2.87,6.41,6.41,6.41,6.41-2.87,6.41-6.41-2.87-6.41-6.41-6.41Zm0,9.99c-1.98,0-3.58-1.6-3.58-3.58s1.6-3.58,3.58-3.58,3.58,1.6,3.58,3.58-1.6,3.58-3.58,3.58Z"/>
    <path class="cls-2" d="m41.28,49.6c-3.54,0-6.41,2.87-6.41,6.41s2.87,6.41,6.41,6.41,6.41-2.87,6.41-6.41-2.87-6.41-6.41-6.41Zm0,9.99c-1.98,0-3.58-1.6-3.58-3.58s1.6-3.58,3.58-3.58,3.58,1.6,3.58,3.58-1.6,3.58-3.58,3.58Z"/>
    <path class="cls-2" d="m41.28,65.58c-3.54,0-6.41,2.87-6.41,6.41s2.87,6.41,6.41,6.41,6.41-2.87,6.41-6.41-2.87-6.41-6.41-6.41Zm0,9.99c-1.98,0-3.58-1.6-3.58-3.58s1.6-3.58,3.58-3.58,3.58,1.6,3.58,3.58-1.6,3.58-3.58,3.58Z"/>
    <path class="cls-2" d="m41.28,81.57c-3.54,0-6.41,2.87-6.41,6.41s2.87,6.41,6.41,6.41,6.41-2.87,6.41-6.41-2.87-6.41-6.41-6.41Zm0,9.99c-1.98,0-3.58-1.6-3.58-3.58s1.6-3.58,3.58-3.58,3.58,1.6,3.58,3.58-1.6,3.58-3.58,3.58Z"/>
    <path class="cls-2" d="m41.28,97.56c-3.54,0-6.41,2.87-6.41,6.41s2.87,6.41,6.41,6.41,6.41-2.87,6.41-6.41-2.87-6.41-6.41-6.41Zm0,9.99c-1.98,0-3.58-1.6-3.58-3.58s1.6-3.58,3.58-3.58,3.58,1.6,3.58,3.58-1.6,3.58-3.58,3.58Z"/>
  </g>
  <path class="cls-1" d="m94.86,60.13c-8.19-.94-17.9.24-19.61,1.95l-9.11-9.9,22.54-34.68c2.29.77,4.83,2.44,7.93,4.89l1.35-3.16-13.8-9.85c-13.78-10.9-16.67-6.47-34.65,24.71L28.29,11.04s-5.04,13.84-20.69,6.38c4.97,8.66,12.02,19.07,25.93,10.34l11.9,13.22c-21.04,34.31-25.57,41.06-40.25,30.84l-1.68,2.28,14.13,10.72c14.61,10.17,19.15,3.54,39.94-30.35l2.65,2.95-21.53,33.07,1.61,1.41,21.36-32.88,16.72,18.57s9.54-8.8,25.39-4.03c15.85,4.77,19.28,13.37,15.65,19.61-3.63,6.25-16.59,6.25-25.52,0l3.02,7.12s19.92,6.54,26.06-8.13c5.17-12.36-10.49-30.01-28.14-32.04Zm-33.09-12.71c12.78-22.17,17.98-30.96,24.77-30.39l-21.85,33.56-2.92-3.17Z"/>
</svg>