<?xml version="1.0" encoding="UTF-8"?>
<svg id="Layer_2" data-name="Layer 2" xmlns="http://www.w3.org/2000/svg" xmlns:xlink="http://www.w3.org/1999/xlink" viewBox="0 0 128 128">
  <defs>
    <style>
      .cls-1, .cls-2 {
        fill: #1b0049;
      }

      .cls-3, .cls-4 {
        fill: aqua;
      }

      .cls-5 {
        filter: url(#outer-glow-9);
      }

      .cls-4 {
        filter: url(#outer-glow-10);
        stroke: #1b0049;
        stroke-width: 1.59px;
      }

      .cls-4, .cls-2 {
        stroke-miterlimit: 10;
      }

      .cls-2 {
        stroke: aqua;
      }
    </style>
    <filter id="outer-glow-5" filterUnits="userSpaceOnUse">
      <feOffset dx="0" dy="0"/>
      <feGaussianBlur result="blur" stdDeviation="11.93"/>
      <feFlood flood-color="aqua" flood-opacity=".75"/>
      <feComposite in2="blur" operator="in"/>
      <feComposite in="SourceGraphic"/>
    </filter>
    <filter id="outer-glow-9" filterUnits="userSpaceOnUse">
      <feOffset dx="0" dy="0"/>
      <feGaussianBlur result="blur-2" stdDeviation="11.01"/>
      <feFlood flood-color="aqua" flood-opacity=".75"/>
      <feComposite in2="blur-2" operator="in"/>
      <feComposite in="SourceGraphic"/>
    </filter>
    <filter id="outer-glow-10" filterUnits="userSpaceOnUse">
      <feOffset dx="0" dy="0"/>
      <feGaussianBlur result="blur-3" stdDeviation="7.96"/>
      <feFlood flood-color="aqua" flood-opacity=".75"/>
      <feComposite in2="blur-3" operator="in"/>
      <feComposite in="SourceGraphic"/>
    </filter>
  </defs>
  <g>
    <g>
      <path class="cls-2" d="m111.11,27.11h-58.03c-.75,0-1.36-.52-1.36-1.15v-3.85c0-.64.61-1.15,1.36-1.15h64.46c1.33,0,1.87,1.45.78,2.1l-6.43,3.85c-.23.14-.5.21-.78.21Z"/>
      <path class="cls-2" d="m111.11,43.1h-58.03c-.75,0-1.36-.52-1.36-1.15v-3.85c0-.64.61-1.15,1.36-1.15h64.46c1.33,0,1.87,1.45.78,2.1l-6.43,3.85c-.23.14-.5.21-.78.21Z"/>
      <path class="cls-2" d="m111.11,59.08h-58.03c-.75,0-1.36-.52-1.36-1.15v-3.85c0-.64.61-1.15,1.36-1.15h64.46c1.33,0,1.87,1.45.78,2.1l-6.43,3.85c-.23.14-.5.21-.78.21Z"/>
      <path class="cls-2" d="m111.11,75.07h-58.03c-.75,0-1.36-.52-1.36-1.15v-3.85c0-.64.61-1.15,1.36-1.15h64.46c1.33,0,1.87,1.45.78,2.1l-6.43,3.85c-.23.14-.5.21-.78.21Z"/>
      <path class="cls-2" d="m111.11,91.06h-58.03c-.75,0-1.36-.52-1.36-1.15v-3.85c0-.64.61-1.15,1.36-1.15h64.46c1.33,0,1.87,1.45.78,2.1l-6.43,3.85c-.23.14-.5.21-.78.21Z"/>
      <path class="cls-2" d="m111.11,107.04h-58.03c-.75,0-1.36-.52-1.36-1.15v-3.85c0-.64.61-1.15,1.36-1.15h64.46c1.33,0,1.87,1.45.78,2.1l-6.43,3.85c-.23.14-.5.21-.78.21Z"/>
    </g>
    <path class="cls-2" d="m41.45,17.62c-3.54,0-6.41,2.87-6.41,6.41s2.87,6.41,6.41,6.41,6.41-2.87,6.41-6.41-2.87-6.41-6.41-6.41Zm0,9.99c-1.98,0-3.58-1.6-3.58-3.58s1.6-3.58,3.58-3.58,3.58,1.6,3.58,3.58-1.6,3.58-3.58,3.58Z"/>
    <path class="cls-2" d="m41.45,33.61c-3.54,0-6.41,2.87-6.41,6.41s2.87,6.41,6.41,6.41,6.41-2.87,6.41-6.41-2.87-6.41-6.41-6.41Zm0,9.99c-1.98,0-3.58-1.6-3.58-3.58s1.6-3.58,3.58-3.58,3.58,1.6,3.58,3.58-1.6,3.58-3.58,3.58Z"/>
    <path class="cls-2" d="m41.45,49.6c-3.54,0-6.41,2.87-6.41,6.41s2.87,6.41,6.41,6.41,6.41-2.87,6.41-6.41-2.87-6.41-6.41-6.41Zm0,9.99c-1.98,0-3.58-1.6-3.58-3.58s1.6-3.58,3.58-3.58,3.58,1.6,3.58,3.58-1.6,3.58-3.58,3.58Z"/>
    <path class="cls-2" d="m41.45,65.58c-3.54,0-6.41,2.87-6.41,6.41s2.87,6.41,6.41,6.41,6.41-2.87,6.41-6.41-2.87-6.41-6.41-6.41Zm0,9.99c-1.98,0-3.58-1.6-3.58-3.58s1.6-3.58,3.58-3.58,3.58,1.6,3.58,3.58-1.6,3.58-3.58,3.58Z"/>
    <path class="cls-2" d="m41.45,81.57c-3.54,0-6.41,2.87-6.41,6.41s2.87,6.41,6.41,6.41,6.41-2.87,6.41-6.41-2.87-6.41-6.41-6.41Zm0,9.99c-1.98,0-3.58-1.6-3.58-3.58s1.6-3.58,3.58-3.58,3.58,1.6,3.58,3.58-1.6,3.58-3.58,3.58Z"/>
    <path class="cls-2" d="m41.45,97.56c-3.54,0-6.41,2.87-6.41,6.41s2.87,6.41,6.41,6.41,6.41-2.87,6.41-6.41-2.87-6.41-6.41-6.41Zm0,9.99c-1.98,0-3.58-1.6-3.58-3.58s1.6-3.58,3.58-3.58,3.58,1.6,3.58,3.58-1.6,3.58-3.58,3.58Z"/>
  </g>
  <g id="glow_exclam-2" data-name="glow_exclam" class="cls-5">
    <g>
      <polygon class="cls-3" points="10.42 36.55 25.27 4.89 23.36 91.46 19.78 97.7 10.42 36.55"/>
      <path class="cls-1" d="m24.47,8.32l-1.83,82.94-2.45,4.28-9.01-58.88,13.3-28.34m1.61-6.85l-2.92,6.23-13.3,28.34-.19.4.07.44,9.01,58.88.63,4.11,2.07-3.61,2.45-4.28.18-.32v-.37s1.84-82.94,1.84-82.94l.15-6.88h0Z"/>
    </g>
    <g>
      <path class="cls-3" d="m20.5,120.41c-1.56,0-2.96-.84-3.83-2.31-1.07-1.8-1.85-5.66-.53-10.64,1.89-7.11,6.58-13.12,10.24-13.12.89,0,1.7.35,2.34,1.02,1.47,1.54,2.11,4.74,1.89,9.51-.38,8.38-5.35,14.29-8.79,15.33-.44.13-.89.2-1.33.2h0Z"/>
      <path class="cls-1" d="m26.39,95.07c2.22,0,3.83,2.74,3.51,9.78-.37,8.25-5.23,13.75-8.27,14.67-.38.12-.76.17-1.12.17-1.33,0-2.48-.74-3.21-1.96-1.1-1.85-1.63-5.64-.45-10.08,1.81-6.81,6.32-12.58,9.54-12.58m0-1.45c-4.52,0-9.2,7.09-10.95,13.66-1.13,4.27-.9,8.67.61,11.2,1.01,1.69,2.63,2.67,4.45,2.67.51,0,1.03-.08,1.54-.23,3.51-1.06,8.89-6.88,9.3-15.99.23-5.05-.46-8.33-2.09-10.05-.78-.82-1.77-1.25-2.86-1.25h0Z"/>
    </g>
  </g>
  <path class="cls-4" d="m242.86,60.13c-8.19-.94-17.9.24-19.61,1.95l-9.11-9.9,22.54-34.68c2.29.77,4.83,2.44,7.93,4.89l1.35-3.16-13.8-9.85c-13.78-10.9-16.67-6.47-34.65,24.71l-21.21-23.06s-5.04,13.84-20.69,6.38c4.97,8.66,12.02,19.07,25.93,10.34l11.9,13.22c-21.04,34.31-25.57,41.06-40.25,30.84l-1.68,2.28,14.13,10.72c14.61,10.17,19.15,3.54,39.94-30.35l2.65,2.95-21.53,33.07,1.61,1.41,21.36-32.88,16.72,18.57s9.54-8.8,25.39-4.03c15.85,4.77,19.28,13.37,15.65,19.61-3.63,6.25-16.59,6.25-25.52,0l3.02,7.12s19.92,6.54,26.06-8.13c5.17-12.36-10.49-30.01-28.14-32.04Zm-33.09-12.71c12.78-22.17,17.98-30.96,24.77-30.39l-21.85,33.56-2.92-3.17Z"/>
</svg>