<?xml version="1.0" encoding="UTF-8"?>
<svg id="Layer_2" data-name="Layer 2" xmlns="http://www.w3.org/2000/svg" viewBox="0 0 128 128">
  <defs>
    <style>
      .cls-1 {
        fill: #1b0049;
      }

      .cls-2 {
        fill: #000049;
      }
    </style>
  </defs>
  <path class="cls-1" d="m119.46,58.91l-7.76-1.68c4.31-1.03,6.62-3.62,5.65-7.15-1.55-5.66-10.82-11.41-20.3-13.2-.8-7.21-12.09-13.97-24.35-15.82-11.32-1.71-21.52,1.1-23.77,6.73-6.85-1.45-13.94.33-16.94,3.93-7.6-.95-12.69-1.04-13.6-.34-9.12-1.76-15.32-1.95-16.58-.95-1.25,1,2.15,3.35,9.93,6.09-1.42.82,2.96,3.78,11.8,7.62-1.06.93-1.6,2.08-1.49,3.43.32,4.01,7.25,8.12,15.19,9.94-2.06,3.35,4.53,7.02,13.7,8.95,8.68,1.83,20.31,2.25,28.2.65,6.58,1.62,18.94,1.96,29.32.67,13.79-1.72,21.15-5.86,11-8.87Z"/>
  <path class="cls-2" d="m7.61,50.5c1.69,1.5,3.92,4.19,5.43,5.94,5.1,5.98,10.77,11.79,17.6,15.64,9.01,5.19,19.64,6.52,30.02,4.55,2.7-.45,5.43-.72,8.18-.74,10.62.03,20.91,3.68,31.53,2.34,7.91-.73,15.39-2.97,23.2-4.95-9.15,5.8-20.07,10.04-31.09,9.18-5.64-.41-10.79-2.46-15.87-3.66-5.1-1.23-10.42-1.21-15.52,0-2.61.59-5.37,1.18-8.07,1.39-14.12,1.71-27.41-5.86-35.99-16.63-3.5-4.12-6.15-8.81-9.42-13.07h0Z"/>
  <path class="cls-2" d="m3.51,67.5c10.3,8.43,24.75,22.55,38.2,23.81,4.71.31,9.21-1.57,14.12-3.41,8.71-3.54,18.47-4.02,27.59-1.85,11.54,2.77,22.15,8.31,32.54,13.87,0,0-1.91,3.12-1.91,3.12-50.8-33.36-52.62-3.43-75.79-8.36-6.9-1.78-12.89-5.95-18.25-10.47-5.99-5.01-11.43-10.81-16.51-16.72h0Z"/>
  <path class="cls-2" d="m3.14,90.46c11.37,6.61,30.01,19.57,43.34,16.58,4.72-1.08,9.18-4.1,14.47-6.2,2.63-1.07,5.43-1.83,8.25-2.3,8.31-1.22,16.84.11,24.82,2.5,10.57,3.13,20.56,7.68,30.41,12.43l-1.71,3.23c-10.53-6.01-21.55-11.36-33.29-14.25-27.69-7.2-29.9,12.14-50.91,9.05-6.98-1.37-13.23-4.77-19.15-8.51-5.6-3.71-11.2-8.08-16.22-12.52h0Z"/>
  <path class="cls-2" d="m2.3,101.69c12.64,9.31,27.77,19.73,43.9,20.42,10.55.34,19.6-5.85,29.51-8.55,17.35-4.68,35.59,1.04,51.02,9.05-15.6-4.41-31.91-8.85-48.1-5.56-19.48,4.14-28.04,11.71-48.99,3.57-10.33-3.95-20.12-10.06-29.42-15.99,0,0,2.07-2.94,2.07-2.94h0Z"/>
</svg>