<?xml version="1.0" encoding="UTF-8"?>
<svg id="Layer_2" data-name="Layer 2" xmlns="http://www.w3.org/2000/svg" xmlns:xlink="http://www.w3.org/1999/xlink" viewBox="0 0 128 128">
  <defs>
    <style>
      .cls-1 {
        fill: #1b0049;
      }

      .cls-2 {
        fill: url(#radial-gradient);
      }

      .cls-3 {
        filter: url(#outer-glow-6);
      }
    </style>
    <filter id="outer-glow-6" filterUnits="userSpaceOnUse">
      <feOffset dx="0" dy="0"/>
      <feGaussianBlur result="blur" stdDeviation="5.85"/>
      <feFlood flood-color="aqua" flood-opacity=".75"/>
      <feComposite in2="blur" operator="in"/>
      <feComposite in="SourceGraphic"/>
    </filter>
    <radialGradient id="radial-gradient" cx="2085.89" cy="4999.2" fx="2078.36" fy="4999.2" r="53.99" gradientTransform="translate(3294.93 1849.85) rotate(141.86) scale(.68)" gradientUnits="userSpaceOnUse">
      <stop offset="0" stop-color="aqua" stop-opacity="0"/>
      <stop offset=".1" stop-color="aqua" stop-opacity=".02"/>
      <stop offset=".2" stop-color="aqua" stop-opacity=".07"/>
      <stop offset=".31" stop-color="aqua" stop-opacity=".16"/>
      <stop offset=".43" stop-color="aqua" stop-opacity=".28"/>
      <stop offset=".54" stop-color="aqua" stop-opacity=".43"/>
      <stop offset=".66" stop-color="aqua" stop-opacity=".62"/>
      <stop offset=".78" stop-color="aqua" stop-opacity=".84"/>
      <stop offset=".86" stop-color="aqua"/>
    </radialGradient>
  </defs>
  <g class="cls-3">
    <path class="cls-2" d="m88.46,67.44c4.52-3.55,7.88-8.02,10.03-12.93-1.37,1.72-2.95,3.31-4.76,4.73-12.57,9.87-30.76,7.68-40.63-4.88-9.87-12.57-7.68-30.76,4.88-40.63,4.52-3.55,9.76-5.53,15.08-6.04-8.98-1.46-18.52.69-26.24,6.75-14.64,11.5-17.18,32.68-5.69,47.32,11.5,14.64,32.68,17.18,47.32,5.69Z"/>
  </g>
  <path class="cls-1" d="m37.26,73.71c-9.93-1.67-10.1-13.2-1.79-22.9,6.53-7.62,16.1-11.16,21.76-8.84,4.64-7.38,12.65-10.01,18.4-7.47,5.39,2.38,8.55,9.17,7.13,16.59,3.5,1.25,5.81,6.37,5.22,12.16-.68,6.71-4.97,12.25-9.71,11.28l-41.03-.81Z"/>
</svg>