<?xml version="1.0" encoding="UTF-8"?>
<svg id="Layer_2" data-name="Layer 2" xmlns="http://www.w3.org/2000/svg" xmlns:xlink="http://www.w3.org/1999/xlink" viewBox="0 0 128 128">
  <defs>
    <style>
      .cls-1 {
        fill: #1b0049;
      }

      .cls-2 {
        fill: #1bffff;
      }

      .cls-3 {
        filter: url(#outer-glow-7);
      }
    </style>
    <filter id="outer-glow-7" filterUnits="userSpaceOnUse">
      <feOffset dx="0" dy="0"/>
      <feGaussianBlur result="blur" stdDeviation="10.02"/>
      <feFlood flood-color="aqua" flood-opacity=".75"/>
      <feComposite in2="blur" operator="in"/>
      <feComposite in="SourceGraphic"/>
    </filter>
  </defs>
  <path class="cls-1" d="m119.25,59.71l-7.78-1.78c4.35-.98,6.7-3.55,5.77-7.12-1.49-5.71-10.74-11.61-20.25-13.53-.71-7.26-11.98-14.2-24.29-16.22-11.37-1.86-21.65.84-23.98,6.47-6.87-1.55-14.02.16-17.08,3.74-7.63-1.05-12.75-1.2-13.68-.51-9.15-1.89-15.38-2.15-16.66-1.16-1.27.99,2.12,3.4,9.91,6.24-1.44.8,2.93,3.84,11.77,7.81-1.08.92-1.64,2.07-1.55,3.43.27,4.04,7.19,8.25,15.15,10.18-2.11,3.34,4.46,7.11,13.66,9.18,8.71,1.95,20.39,2.52,28.35,1,6.6,1.71,19.02,2.21,29.48,1.04,13.89-1.55,21.34-5.63,11.17-8.78Z"/>
  <g id="glow_exclam" class="cls-3">
    <g>
      <polygon class="cls-1" points="52.88 36.77 63.76 13.59 62.15 86.21 60.81 88.56 52.88 36.77"/>
      <path class="cls-2" d="m63.12,16.29l-1.54,69.77-.45.79-7.65-49.99,9.65-20.57m1.27-5.4l-12.1,25.79,8.2,53.58,2.23-3.89,1.67-75.48h0Z"/>
    </g>
    <g>
      <path class="cls-1" d="m60.78,111.67c-.97,0-1.86-.55-2.42-1.5-.92-1.54-1.38-4.84-.35-8.73,1.68-6.31,5.67-11.02,8.13-11.02.48,0,.88.18,1.24.55.75.79,1.61,2.78,1.38,7.75-.32,6.97-4.41,12.01-7.12,12.83-.29.09-.57.13-.85.13h0Z"/>
      <path class="cls-2" d="m66.13,90.99c.32,0,.57.12.82.37.45.47,1.46,2.12,1.22,7.32-.33,7.27-4.61,11.66-6.72,12.3-.23.07-.46.11-.69.11-.78,0-1.46-.43-1.93-1.22-.86-1.44-1.28-4.56-.29-8.29,1.56-5.87,5.42-10.6,7.57-10.6m0-1.15c-2.93,0-7.04,5.25-8.68,11.45-1.07,4.04-.59,7.49.41,9.17.66,1.1,1.71,1.78,2.92,1.78.33,0,.67-.05,1.02-.16,2.77-.84,7.19-5.84,7.53-13.35.29-6.4-1.17-8.9-3.19-8.9h0Z"/>
    </g>
  </g>
</svg>