<?xml version="1.0" encoding="UTF-8"?>
<svg id="Layer_2" data-name="Layer 2" xmlns="http://www.w3.org/2000/svg" viewBox="0 0 128 128">
  <defs>
    <style>
      .cls-1 {
        fill: #1b0049;
      }

      .cls-2 {
        fill: aqua;
      }
    </style>
  </defs>
  <g>
    <path class="cls-2" d="m91.95,74.29c-.99,2.36-1.85,4.83-3.11,7.03-.52.68-1.1,1.33-1.93,1.84l-.15-.08c.02-1.89.87-3.35,2-4.73.95-1.41,1.99-2.78,3.04-4.14l.15.08h0Z"/>
    <path class="cls-2" d="m79.94,74.98c-.99,2.36-1.85,4.83-3.11,7.03-.52.68-1.1,1.33-1.93,1.84l-.15-.08c.02-1.89.87-3.35,2-4.73.95-1.41,1.99-2.78,3.04-4.14l.15.08h0Z"/>
    <path class="cls-2" d="m62.09,76.02c-.99,2.36-1.85,4.83-3.11,7.03-.52.68-1.1,1.33-1.93,1.84l-.15-.08c.02-1.89.87-3.35,2-4.73.95-1.41,1.99-2.78,3.04-4.14,0,0,.15.08.15.08h0Z"/>
    <path class="cls-2" d="m44.24,77.05c-.99,2.36-1.85,4.83-3.11,7.03-.52.68-1.1,1.33-1.93,1.84l-.15-.08c.02-1.89.87-3.35,2-4.73.95-1.41,1.99-2.78,3.04-4.14l.15.08h0Z"/>
    <path class="cls-2" d="m26.4,78.08c-.99,2.36-1.85,4.83-3.11,7.03-.52.68-1.1,1.33-1.93,1.84,0,0-.15-.08-.15-.08.02-1.89.87-3.35,2-4.73.95-1.41,1.99-2.78,3.04-4.14,0,0,.15.08.15.08h0Z"/>
    <path class="cls-2" d="m8.55,79.11c-.99,2.36-1.85,4.83-3.11,7.03-.52.68-1.1,1.33-1.93,1.84l-.15-.08c.02-1.89.87-3.35,2-4.73.95-1.41,1.99-2.78,3.04-4.14l.15.08h0Z"/>
  </g>
  <g>
    <path class="cls-2" d="m106.53,66.14c-.99,2.36-1.85,4.83-3.11,7.03-.52.68-1.1,1.33-1.93,1.84,0,0-.15-.08-.15-.08.02-1.89.87-3.35,2-4.73.95-1.41,1.99-2.78,3.04-4.14l.15.08h0Z"/>
    <path class="cls-2" d="m88.69,67.17c-.99,2.36-1.85,4.83-3.11,7.03-.52.68-1.1,1.33-1.93,1.84l-.15-.08c.02-1.89.87-3.35,2-4.73.95-1.41,1.99-2.78,3.04-4.14l.15.08h0Z"/>
    <path class="cls-2" d="m74.83,67.97c-.99,2.36-1.85,4.83-3.11,7.03-.52.68-1.1,1.33-1.93,1.84l-.15-.08c.02-1.89.87-3.35,2-4.73.95-1.41,1.99-2.78,3.04-4.14l.15.08h0Z"/>
    <path class="cls-2" d="m56.98,69c-.99,2.36-1.85,4.83-3.11,7.03-.52.68-1.1,1.33-1.93,1.84l-.15-.08c.02-1.89.87-3.35,2-4.73.95-1.41,1.99-2.78,3.04-4.14l.15.08h0Z"/>
    <path class="cls-2" d="m38.77,70.06c-.99,2.36-1.85,4.83-3.11,7.03-.52.68-1.1,1.33-1.93,1.84l-.15-.08c.02-1.89.87-3.35,2-4.73.95-1.41,1.99-2.78,3.04-4.14,0,0,.15.08.15.08h0Z"/>
    <path class="cls-2" d="m22.75,70.98c-.99,2.36-1.85,4.83-3.11,7.03-.52.68-1.1,1.33-1.93,1.84l-.15-.08c.02-1.89.87-3.35,2-4.73.95-1.41,1.99-2.78,3.04-4.14l.15.08h0Z"/>
  </g>
  <g>
    <path class="cls-2" d="m106.64,58.34c-.99,2.36-1.85,4.83-3.11,7.03-.52.68-1.1,1.33-1.93,1.84l-.15-.08c.02-1.89.87-3.35,2-4.73.95-1.41,1.99-2.78,3.04-4.14l.15.08h0Z"/>
    <path class="cls-2" d="m97.72,58.86c-.99,2.36-1.85,4.83-3.11,7.03-.52.68-1.1,1.33-1.93,1.84l-.15-.08c.02-1.89.87-3.35,2-4.73.95-1.41,1.99-2.78,3.04-4.14l.15.08h0Z"/>
    <path class="cls-2" d="m88.8,59.38c-.99,2.36-1.85,4.83-3.11,7.03-.52.68-1.1,1.33-1.93,1.84l-.15-.08c.02-1.89.87-3.35,2-4.73.95-1.41,1.99-2.78,3.04-4.14,0,0,.15.08.15.08h0Z"/>
    <path class="cls-2" d="m79.87,59.89c-.99,2.36-1.85,4.83-3.11,7.03-.52.68-1.1,1.33-1.93,1.84l-.15-.08c.02-1.89.87-3.35,2-4.73.95-1.41,1.99-2.78,3.04-4.14l.15.08h0Z"/>
    <path class="cls-2" d="m70.95,60.41c-.99,2.36-1.85,4.83-3.11,7.03-.52.68-1.1,1.33-1.93,1.84l-.15-.08c.02-1.89.87-3.35,2-4.73.95-1.41,1.99-2.78,3.04-4.14l.15.08h0Z"/>
    <path class="cls-2" d="m62.03,60.92c-.99,2.36-1.85,4.83-3.11,7.03-.52.68-1.1,1.33-1.93,1.84l-.15-.08c.02-1.89.87-3.35,2-4.73.95-1.41,1.99-2.78,3.04-4.14l.15.08h0Z"/>
    <path class="cls-2" d="m53.11,61.44c-.99,2.36-1.85,4.83-3.11,7.03-.52.68-1.1,1.33-1.93,1.84l-.15-.08c.02-1.89.87-3.35,2-4.73.95-1.41,1.99-2.78,3.04-4.14,0,0,.15.08.15.08h0Z"/>
    <path class="cls-2" d="m44.18,61.96c-.99,2.36-1.85,4.83-3.11,7.03-.52.68-1.1,1.33-1.93,1.84l-.15-.08c.02-1.89.87-3.35,2-4.73.95-1.41,1.99-2.78,3.04-4.14l.15.08h0Z"/>
    <path class="cls-2" d="m35.26,62.47c-.99,2.36-1.85,4.83-3.11,7.03-.52.68-1.1,1.33-1.93,1.84l-.15-.08c.02-1.89.87-3.35,2-4.73.95-1.41,1.99-2.78,3.04-4.14l.15.08h0Z"/>
    <path class="cls-2" d="m17.41,63.5c-.99,2.36-1.85,4.83-3.11,7.03-.52.68-1.1,1.33-1.93,1.84l-.15-.08c.02-1.89.87-3.35,2-4.73.95-1.41,1.99-2.78,3.04-4.14,0,0,.15.08.15.08h0Z"/>
  </g>
  <g>
    <path class="cls-2" d="m115.59,50.19c-.99,2.36-1.85,4.83-3.11,7.03-.52.68-1.1,1.33-1.93,1.84l-.15-.08c.02-1.89.87-3.35,2-4.73.95-1.41,1.99-2.78,3.04-4.14l.15.08h0Z"/>
    <path class="cls-2" d="m106.67,50.7c-.99,2.36-1.85,4.83-3.11,7.03-.52.68-1.1,1.33-1.93,1.84l-.15-.08c.02-1.89.87-3.35,2-4.73.95-1.41,1.99-2.78,3.04-4.14,0,0,.15.08.15.08h0Z"/>
    <path class="cls-2" d="m97.74,51.22c-.99,2.36-1.85,4.83-3.11,7.03-.52.68-1.1,1.33-1.93,1.84l-.15-.08c.02-1.89.87-3.35,2-4.73.95-1.41,1.99-2.78,3.04-4.14l.15.08h0Z"/>
    <path class="cls-2" d="m88.82,51.74c-.99,2.36-1.85,4.83-3.11,7.03-.52.68-1.1,1.33-1.93,1.84l-.15-.08c.02-1.89.87-3.35,2-4.73.95-1.41,1.99-2.78,3.04-4.14l.15.08h0Z"/>
    <path class="cls-2" d="m79.9,52.25c-.99,2.36-1.85,4.83-3.11,7.03-.52.68-1.1,1.33-1.93,1.84,0,0-.15-.08-.15-.08.02-1.89.87-3.35,2-4.73.95-1.41,1.99-2.78,3.04-4.14l.15.08h0Z"/>
    <path class="cls-2" d="m70.97,52.77c-.99,2.36-1.85,4.83-3.11,7.03-.52.68-1.1,1.33-1.93,1.84l-.15-.08c.02-1.89.87-3.35,2-4.73.95-1.41,1.99-2.78,3.04-4.14l.15.08h0Z"/>
    <path class="cls-2" d="m62.05,53.28c-.99,2.36-1.85,4.83-3.11,7.03-.52.68-1.1,1.33-1.93,1.84,0,0-.15-.08-.15-.08.02-1.89.87-3.35,2-4.73.95-1.41,1.99-2.78,3.04-4.14l.15.08h0Z"/>
    <path class="cls-2" d="m53.13,53.8c-.99,2.36-1.85,4.83-3.11,7.03-.52.68-1.1,1.33-1.93,1.84l-.15-.08c.02-1.89.87-3.35,2-4.73.95-1.41,1.99-2.78,3.04-4.14,0,0,.15.08.15.08h0Z"/>
    <path class="cls-2" d="m44.2,54.32c-.99,2.36-1.85,4.83-3.11,7.03-.52.68-1.1,1.33-1.93,1.84l-.15-.08c.02-1.89.87-3.35,2-4.73.95-1.41,1.99-2.78,3.04-4.14l.15.08h0Z"/>
    <path class="cls-2" d="m35.28,54.83c-.99,2.36-1.85,4.83-3.11,7.03-.52.68-1.1,1.33-1.93,1.84l-.15-.08c.02-1.89.87-3.35,2-4.73.95-1.41,1.99-2.78,3.04-4.14l.15.08h0Z"/>
    <path class="cls-2" d="m26.36,55.35c-.99,2.36-1.85,4.83-3.11,7.03-.52.68-1.1,1.33-1.93,1.84,0,0-.15-.08-.15-.08.02-1.89.87-3.35,2-4.73.95-1.41,1.99-2.78,3.04-4.14,0,0,.15.08.15.08h0Z"/>
  </g>
  <g>
    <path class="cls-2" d="m106.3,81.58c-.99,2.36-1.85,4.83-3.11,7.03-.52.68-1.1,1.33-1.93,1.84l-.15-.08c.02-1.89.87-3.35,2-4.73.95-1.41,1.99-2.78,3.04-4.14l.15.08h0Z"/>
    <path class="cls-2" d="m97.38,82.1c-.99,2.36-1.85,4.83-3.11,7.03-.52.68-1.1,1.33-1.93,1.84l-.15-.08c.02-1.89.87-3.35,2-4.73.95-1.41,1.99-2.78,3.04-4.14l.15.08h0Z"/>
    <path class="cls-2" d="m79.53,83.13c-.99,2.36-1.85,4.83-3.11,7.03-.52.68-1.1,1.33-1.93,1.84l-.15-.08c.02-1.89.87-3.35,2-4.73.95-1.41,1.99-2.78,3.04-4.14l.15.08h0Z"/>
    <path class="cls-2" d="m65.67,83.93c-.99,2.36-1.85,4.83-3.11,7.03-.52.68-1.1,1.33-1.93,1.84l-.15-.08c.02-1.89.87-3.35,2-4.73.95-1.41,1.99-2.78,3.04-4.14l.15.08h0Z"/>
    <path class="cls-2" d="m47.82,84.96c-.99,2.36-1.85,4.83-3.11,7.03-.52.68-1.1,1.33-1.93,1.84l-.15-.08c.02-1.89.87-3.35,2-4.73.95-1.41,1.99-2.78,3.04-4.14l.15.08h0Z"/>
    <path class="cls-2" d="m29.62,86.01c-.99,2.36-1.85,4.83-3.11,7.03-.52.68-1.1,1.33-1.93,1.84l-.15-.08c.02-1.89.87-3.35,2-4.73.95-1.41,1.99-2.78,3.04-4.14l.15.08h0Z"/>
    <path class="cls-2" d="m8.15,87.26c-.99,2.36-1.85,4.83-3.11,7.03-.52.68-1.1,1.33-1.93,1.84l-.15-.08c.02-1.89.87-3.35,2-4.73.95-1.41,1.99-2.78,3.04-4.14l.15.08h0Z"/>
  </g>
  <g>
    <path class="cls-2" d="m89.06,112.24c-.99,2.36-1.85,4.83-3.11,7.03-.52.68-1.1,1.33-1.93,1.84l-.15-.08c.02-1.89.87-3.35,2-4.73.95-1.41,1.99-2.78,3.04-4.14l.15.08h0Z"/>
    <path class="cls-2" d="m80.13,112.76c-.99,2.36-1.85,4.83-3.11,7.03-.52.68-1.1,1.33-1.93,1.84l-.15-.08c.02-1.89.87-3.35,2-4.73.95-1.41,1.99-2.78,3.04-4.14l.15.08h0Z"/>
    <path class="cls-2" d="m71.21,113.27c-.99,2.36-1.85,4.83-3.11,7.03-.52.68-1.1,1.33-1.93,1.84l-.15-.08c.02-1.89.87-3.35,2-4.73.95-1.41,1.99-2.78,3.04-4.14l.15.08h0Z"/>
    <path class="cls-2" d="m62.29,113.79c-.99,2.36-1.85,4.83-3.11,7.03-.52.68-1.1,1.33-1.93,1.84l-.15-.08c.02-1.89.87-3.35,2-4.73.95-1.41,1.99-2.78,3.04-4.14l.15.08h0Z"/>
    <path class="cls-2" d="m53.36,114.3c-.99,2.36-1.85,4.83-3.11,7.03-.52.68-1.1,1.33-1.93,1.84l-.15-.08c.02-1.89.87-3.35,2-4.73.95-1.41,1.99-2.78,3.04-4.14l.15.08h0Z"/>
    <path class="cls-2" d="m48.43,114.59c-.99,2.36-1.85,4.83-3.11,7.03-.52.68-1.1,1.33-1.93,1.84l-.15-.08c.02-1.89.87-3.35,2-4.73.95-1.41,1.99-2.78,3.04-4.14,0,0,.15.08.15.08h0Z"/>
    <path class="cls-2" d="m35.52,115.34c-.99,2.36-1.85,4.83-3.11,7.03-.52.68-1.1,1.33-1.93,1.84l-.15-.08c.02-1.89.87-3.35,2-4.73.95-1.41,1.99-2.78,3.04-4.14l.15.08h0Z"/>
    <path class="cls-2" d="m30.58,115.62c-.99,2.36-1.85,4.83-3.11,7.03-.52.68-1.1,1.33-1.93,1.84l-.15-.08c.02-1.89.87-3.35,2-4.73.95-1.41,1.99-2.78,3.04-4.14,0,0,.15.08.15.08h0Z"/>
    <path class="cls-2" d="m17.67,116.37c-.99,2.36-1.85,4.83-3.11,7.03-.52.68-1.1,1.33-1.93,1.84l-.15-.08c.02-1.89.87-3.35,2-4.73.95-1.41,1.99-2.78,3.04-4.14l.15.08h0Z"/>
    <path class="cls-2" d="m12.37,116.67c-.99,2.36-1.85,4.83-3.11,7.03-.52.68-1.1,1.33-1.93,1.84l-.15-.08c.02-1.89.87-3.35,2-4.73.95-1.41,1.99-2.78,3.04-4.14l.15.08h0Z"/>
  </g>
  <g>
    <path class="cls-2" d="m79.96,105.46c-.99,2.36-1.85,4.83-3.11,7.03-.52.68-1.1,1.33-1.93,1.84l-.15-.08c.02-1.89.87-3.35,2-4.73.95-1.41,1.99-2.78,3.04-4.14,0,0,.15.08.15.08h0Z"/>
    <path class="cls-2" d="m62.11,106.49c-.99,2.36-1.85,4.83-3.11,7.03-.52.68-1.1,1.33-1.93,1.84,0,0-.15-.08-.15-.08.02-1.89.87-3.35,2-4.73.95-1.41,1.99-2.78,3.04-4.14l.15.08h0Z"/>
    <path class="cls-2" d="m44.27,107.52c-.99,2.36-1.85,4.83-3.11,7.03-.52.68-1.1,1.33-1.93,1.84l-.15-.08c.02-1.89.87-3.35,2-4.73.95-1.41,1.99-2.78,3.04-4.14l.15.08h0Z"/>
    <path class="cls-2" d="m26.42,108.55c-.99,2.36-1.85,4.83-3.11,7.03-.52.68-1.1,1.33-1.93,1.84l-.15-.08c.02-1.89.87-3.35,2-4.73.95-1.41,1.99-2.78,3.04-4.14l.15.08h0Z"/>
    <path class="cls-2" d="m8.58,109.59c-.99,2.36-1.85,4.83-3.11,7.03-.52.68-1.1,1.33-1.93,1.84l-.15-.08c.02-1.89.87-3.35,2-4.73.95-1.41,1.99-2.78,3.04-4.14l.15.08h0Z"/>
  </g>
  <g>
    <path class="cls-2" d="m88.99,97.15c-.99,2.36-1.85,4.83-3.11,7.03-.52.68-1.1,1.33-1.93,1.84l-.15-.08c.02-1.89.87-3.35,2-4.73.95-1.41,1.99-2.78,3.04-4.14l.15.08h0Z"/>
    <path class="cls-2" d="m71.15,98.18c-.99,2.36-1.85,4.83-3.11,7.03-.52.68-1.1,1.33-1.93,1.84l-.15-.08c.02-1.89.87-3.35,2-4.73.95-1.41,1.99-2.78,3.04-4.14l.15.08h0Z"/>
    <path class="cls-2" d="m57.29,98.98c-.99,2.36-1.85,4.83-3.11,7.03-.52.68-1.1,1.33-1.93,1.84l-.15-.08c.02-1.89.87-3.35,2-4.73.95-1.41,1.99-2.78,3.04-4.14,0,0,.15.08.15.08h0Z"/>
    <path class="cls-2" d="m39.44,100.01c-.99,2.36-1.85,4.83-3.11,7.03-.52.68-1.1,1.33-1.93,1.84l-.15-.08c.02-1.89.87-3.35,2-4.73.95-1.41,1.99-2.78,3.04-4.14l.15.08h0Z"/>
    <path class="cls-2" d="m21.23,101.06c-.99,2.36-1.85,4.83-3.11,7.03-.52.68-1.1,1.33-1.93,1.84l-.15-.08c.02-1.89.87-3.35,2-4.73.95-1.41,1.99-2.78,3.04-4.14l.15.08h0Z"/>
    <path class="cls-2" d="m4.84,102.01c-.99,2.36-1.85,4.83-3.11,7.03-.52.68-1.1,1.33-1.93,1.84l-.15-.08c.02-1.89.87-3.35,2-4.73.95-1.41,1.99-2.78,3.04-4.14l.15.08h0Z"/>
  </g>
  <g>
    <path class="cls-2" d="m83.19,89.84c-.99,2.36-1.85,4.83-3.11,7.03-.52.68-1.1,1.33-1.93,1.84l-.15-.08c.02-1.89.87-3.35,2-4.73.95-1.41,1.99-2.78,3.04-4.14l.15.08h0Z"/>
    <path class="cls-2" d="m71.17,90.54c-.99,2.36-1.85,4.83-3.11,7.03-.52.68-1.1,1.33-1.93,1.84l-.15-.08c.02-1.89.87-3.35,2-4.73.95-1.41,1.99-2.78,3.04-4.14l.15.08h0Z"/>
    <path class="cls-2" d="m53.32,91.57c-.99,2.36-1.85,4.83-3.11,7.03-.52.68-1.1,1.33-1.93,1.84l-.15-.08c.02-1.89.87-3.35,2-4.73.95-1.41,1.99-2.78,3.04-4.14l.15.08h0Z"/>
    <path class="cls-2" d="m35.48,92.6c-.99,2.36-1.85,4.83-3.11,7.03-.52.68-1.1,1.33-1.93,1.84l-.15-.08c.02-1.89.87-3.35,2-4.73.95-1.41,1.99-2.78,3.04-4.14,0,0,.15.08.15.08h0Z"/>
    <path class="cls-2" d="m17.63,93.64c-.99,2.36-1.85,4.83-3.11,7.03-.52.68-1.1,1.33-1.93,1.84,0,0-.15-.08-.15-.08.02-1.89.87-3.35,2-4.73.95-1.41,1.99-2.78,3.04-4.14l.15.08h0Z"/>
  </g>
  <g>
    <path class="cls-2" d="m70.81,121.41c-.99,2.36-1.85,4.83-3.11,7.03-.52.68-1.1,1.33-1.93,1.84,0,0-.15-.08-.15-.08.02-1.89.87-3.35,2-4.73.95-1.41,1.99-2.78,3.04-4.14l.15.08h0Z"/>
    <path class="cls-2" d="m52.96,122.45c-.99,2.36-1.85,4.83-3.11,7.03-.52.68-1.1,1.33-1.93,1.84,0,0-.15-.08-.15-.08.02-1.89.87-3.35,2-4.73.95-1.41,1.99-2.78,3.04-4.14l.15.08h0Z"/>
    <path class="cls-2" d="m35.11,123.48c-.99,2.36-1.85,4.83-3.11,7.03-.52.68-1.1,1.33-1.93,1.84,0,0-.15-.08-.15-.08.02-1.89.87-3.35,2-4.73.95-1.41,1.99-2.78,3.04-4.14,0,0,.15.08.15.08h0Z"/>
    <path class="cls-2" d="m17.27,124.51c-.99,2.36-1.85,4.83-3.11,7.03-.52.68-1.1,1.33-1.93,1.84l-.15-.08c.02-1.89.87-3.35,2-4.73.95-1.41,1.99-2.78,3.04-4.14l.15.08h0Z"/>
  </g>
  <path class="cls-1" d="m120.7,59.06l-7.79-1.68c4.33-1.03,6.65-3.63,5.67-7.17-1.56-5.68-10.86-11.45-20.38-13.25-.8-7.24-12.13-14.03-24.45-15.89-11.37-1.71-21.61,1.1-23.86,6.76-6.88-1.46-14,.34-17,3.94-7.63-.96-12.74-1.04-13.66-.34-9.16-1.77-15.38-1.95-16.65-.95-1.26,1,2.16,3.37,9.97,6.11-1.43.82,2.97,3.79,11.84,7.65-1.06.93-1.61,2.09-1.5,3.44.32,4.03,7.28,8.15,15.25,9.98-2.07,3.36,4.54,7.05,13.75,8.99,8.72,1.84,20.39,2.26,28.32.65,6.61,1.62,19.02,1.97,29.44.67,13.85-1.72,21.24-5.88,11.04-8.91Z"/>
</svg>