<?xml version="1.0" encoding="UTF-8"?>
<svg id="Layer_2" data-name="Layer 2" xmlns="http://www.w3.org/2000/svg" viewBox="0 0 128 128">
  <defs>
    <style>
      .cls-1 {
        fill: #1b0049;
      }
    </style>
  </defs>
  <path class="cls-1" d="m120.58,58.91l-7.76-1.68c4.31-1.03,6.62-3.62,5.65-7.15-1.55-5.66-10.82-11.41-20.3-13.2-.8-7.21-12.09-13.97-24.35-15.82-11.32-1.71-21.52,1.1-23.77,6.73-6.85-1.45-13.94.33-16.94,3.93-7.6-.95-12.69-1.04-13.6-.34-9.12-1.76-15.32-1.95-16.58-.95-1.25,1,2.15,3.35,9.93,6.09-1.42.82,2.96,3.78,11.8,7.62-1.06.93-1.6,2.08-1.49,3.43.32,4.01,7.25,8.12,15.19,9.94-2.06,3.35,4.53,7.02,13.7,8.95,8.68,1.83,20.31,2.25,28.2.65,6.58,1.62,18.94,1.96,29.32.67,13.79-1.72,21.15-5.86,11-8.87Z"/>
</svg>