<?xml version="1.0" encoding="UTF-8"?>
<svg id="Layer_2" data-name="Layer 2" xmlns="http://www.w3.org/2000/svg" viewBox="0 0 128 128">
  <defs>
    <style>
      .cls-1 {
        fill: #1b0049;
      }

      .cls-2 {
        fill: aqua;
      }
    </style>
  </defs>
  <g>
    <path class="cls-2" d="m106.05,72.74c-.96,2.29-1.78,4.68-3,6.81-.5.66-1.07,1.29-1.88,1.77,0,0-.15-.08-.15-.08,0-1.84.83-3.24,1.92-4.58.93-1.37,1.93-2.69,2.95-4l.15.08h0Z"/>
    <path class="cls-2" d="m97.2,73.12c-.96,2.29-1.78,4.68-3,6.81-.5.66-1.07,1.29-1.88,1.77l-.15-.08c0-1.84.83-3.24,1.92-4.58.93-1.37,1.93-2.69,2.95-4l.15.08h0Z"/>
    <path class="cls-2" d="m88.35,73.5c-.96,2.29-1.78,4.68-3,6.81-.5.66-1.07,1.29-1.88,1.77l-.15-.08c0-1.84.83-3.24,1.92-4.58.93-1.37,1.93-2.69,2.95-4l.15.08h0Z"/>
    <path class="cls-2" d="m79.51,73.88c-.96,2.29-1.78,4.68-3,6.81-.5.66-1.07,1.29-1.88,1.77l-.15-.08c0-1.84.83-3.24,1.92-4.58.93-1.37,1.93-2.69,2.95-4l.15.08h0Z"/>
    <path class="cls-2" d="m70.66,74.26c-.96,2.29-1.78,4.68-3,6.81-.5.66-1.07,1.29-1.88,1.77l-.15-.08c0-1.84.83-3.24,1.92-4.58.93-1.37,1.93-2.69,2.95-4l.15.08h0Z"/>
    <path class="cls-2" d="m61.82,74.64c-.96,2.29-1.78,4.68-3,6.81-.5.66-1.07,1.29-1.88,1.77l-.15-.08c0-1.84.83-3.24,1.92-4.58.93-1.37,1.93-2.69,2.95-4l.15.08h0Z"/>
    <path class="cls-2" d="m52.97,75.02c-.96,2.29-1.78,4.68-3,6.81-.5.66-1.07,1.29-1.88,1.77l-.15-.08c0-1.84.83-3.24,1.92-4.58.93-1.37,1.93-2.69,2.95-4l.15.08h0Z"/>
    <path class="cls-2" d="m44.13,75.4c-.96,2.29-1.78,4.68-3,6.81-.5.66-1.07,1.29-1.88,1.77l-.15-.08c0-1.84.83-3.24,1.92-4.58.93-1.37,1.93-2.69,2.95-4l.15.08h0Z"/>
    <path class="cls-2" d="m35.28,75.78c-.96,2.29-1.78,4.68-3,6.81-.5.66-1.07,1.29-1.88,1.77l-.15-.08c0-1.84.83-3.24,1.92-4.58.93-1.37,1.93-2.69,2.95-4,0,0,.15.08.15.08h0Z"/>
    <path class="cls-2" d="m26.44,76.16c-.96,2.29-1.78,4.68-3,6.81-.5.66-1.07,1.29-1.88,1.77l-.15-.08c0-1.84.83-3.24,1.92-4.58.93-1.37,1.93-2.69,2.95-4l.15.08h0Z"/>
    <path class="cls-2" d="m17.59,76.54c-.96,2.29-1.78,4.68-3,6.81-.5.66-1.07,1.29-1.88,1.77l-.15-.08c0-1.84.83-3.24,1.92-4.58.93-1.37,1.93-2.69,2.95-4,0,0,.15.08.15.08h0Z"/>
    <path class="cls-2" d="m8.75,76.92c-.96,2.29-1.78,4.68-3,6.81-.5.66-1.07,1.29-1.88,1.77l-.15-.08c0-1.84.83-3.24,1.92-4.58.93-1.37,1.93-2.69,2.95-4l.15.08h0Z"/>
  </g>
  <g>
    <path class="cls-2" d="m114.62,65.24c-.96,2.29-1.78,4.68-3,6.81-.5.66-1.07,1.29-1.88,1.77l-.15-.08c0-1.84.83-3.24,1.92-4.58.93-1.37,1.93-2.69,2.95-4l.15.08h0Z"/>
    <path class="cls-2" d="m105.77,65.62c-.96,2.29-1.78,4.68-3,6.81-.5.66-1.07,1.29-1.88,1.77,0,0-.15-.08-.15-.08,0-1.84.83-3.24,1.92-4.58.93-1.37,1.93-2.69,2.95-4,0,0,.15.08.15.08h0Z"/>
    <path class="cls-2" d="m96.93,66c-.96,2.29-1.78,4.68-3,6.81-.5.66-1.07,1.29-1.88,1.77l-.15-.08c0-1.84.83-3.24,1.92-4.58.93-1.37,1.93-2.69,2.95-4l.15.08h0Z"/>
    <path class="cls-2" d="m88.08,66.38c-.96,2.29-1.78,4.68-3,6.81-.5.66-1.07,1.29-1.88,1.77l-.15-.08c0-1.84.83-3.24,1.92-4.58.93-1.37,1.93-2.69,2.95-4l.15.08h0Z"/>
    <path class="cls-2" d="m79.24,66.76c-.96,2.29-1.78,4.68-3,6.81-.5.66-1.07,1.29-1.88,1.77,0,0-.15-.08-.15-.08,0-1.84.83-3.24,1.92-4.58.93-1.37,1.93-2.69,2.95-4l.15.08h0Z"/>
    <path class="cls-2" d="m70.39,67.14c-.96,2.29-1.78,4.68-3,6.81-.5.66-1.07,1.29-1.88,1.77,0,0-.15-.08-.15-.08,0-1.84.83-3.24,1.92-4.58.93-1.37,1.93-2.69,2.95-4,0,0,.15.08.15.08h0Z"/>
    <path class="cls-2" d="m61.55,67.52c-.96,2.29-1.78,4.68-3,6.81-.5.66-1.07,1.29-1.88,1.77,0,0-.15-.08-.15-.08,0-1.84.83-3.24,1.92-4.58.93-1.37,1.93-2.69,2.95-4l.15.08h0Z"/>
    <path class="cls-2" d="m52.7,67.9c-.96,2.29-1.78,4.68-3,6.81-.5.66-1.07,1.29-1.88,1.77l-.15-.08c0-1.84.83-3.24,1.92-4.58.93-1.37,1.93-2.69,2.95-4,0,0,.15.08.15.08h0Z"/>
    <path class="cls-2" d="m43.86,68.28c-.96,2.29-1.78,4.68-3,6.81-.5.66-1.07,1.29-1.88,1.77l-.15-.08c0-1.84.83-3.24,1.92-4.58.93-1.37,1.93-2.69,2.95-4l.15.08h0Z"/>
    <path class="cls-2" d="m35.01,68.66c-.96,2.29-1.78,4.68-3,6.81-.5.66-1.07,1.29-1.88,1.77l-.15-.08c0-1.84.83-3.24,1.92-4.58.93-1.37,1.93-2.69,2.95-4l.15.08h0Z"/>
    <path class="cls-2" d="m26.16,69.04c-.96,2.29-1.78,4.68-3,6.81-.5.66-1.07,1.29-1.88,1.77l-.15-.08c0-1.84.83-3.24,1.92-4.58.93-1.37,1.93-2.69,2.95-4l.15.08h0Z"/>
    <path class="cls-2" d="m17.32,69.42c-.96,2.29-1.78,4.68-3,6.81-.5.66-1.07,1.29-1.88,1.77l-.15-.08c0-1.84.83-3.24,1.92-4.58.93-1.37,1.93-2.69,2.95-4l.15.08h0Z"/>
  </g>
  <g>
    <path class="cls-2" d="m105.78,58.02c-.96,2.29-1.78,4.68-3,6.81-.5.66-1.07,1.29-1.88,1.77l-.15-.08c0-1.84.83-3.24,1.92-4.58.93-1.37,1.93-2.69,2.95-4l.15.08h0Z"/>
    <path class="cls-2" d="m96.93,58.4c-.96,2.29-1.78,4.68-3,6.81-.5.66-1.07,1.29-1.88,1.77l-.15-.08c0-1.84.83-3.24,1.92-4.58.93-1.37,1.93-2.69,2.95-4l.15.08h0Z"/>
    <path class="cls-2" d="m88.08,58.78c-.96,2.29-1.78,4.68-3,6.81-.5.66-1.07,1.29-1.88,1.77l-.15-.08c0-1.84.83-3.24,1.92-4.58.93-1.37,1.93-2.69,2.95-4l.15.08h0Z"/>
    <path class="cls-2" d="m79.24,59.16c-.96,2.29-1.78,4.68-3,6.81-.5.66-1.07,1.29-1.88,1.77,0,0-.15-.08-.15-.08,0-1.84.83-3.24,1.92-4.58.93-1.37,1.93-2.69,2.95-4,0,0,.15.08.15.08h0Z"/>
    <path class="cls-2" d="m70.39,59.54c-.96,2.29-1.78,4.68-3,6.81-.5.66-1.07,1.29-1.88,1.77l-.15-.08c0-1.84.83-3.24,1.92-4.58.93-1.37,1.93-2.69,2.95-4l.15.08h0Z"/>
    <path class="cls-2" d="m61.55,59.92c-.96,2.29-1.78,4.68-3,6.81-.5.66-1.07,1.29-1.88,1.77l-.15-.08c0-1.84.83-3.24,1.92-4.58.93-1.37,1.93-2.69,2.95-4,0,0,.15.08.15.08h0Z"/>
    <path class="cls-2" d="m52.7,60.3c-.96,2.29-1.78,4.68-3,6.81-.5.66-1.07,1.29-1.88,1.77l-.15-.08c0-1.84.83-3.24,1.92-4.58.93-1.37,1.93-2.69,2.95-4l.15.08h0Z"/>
    <path class="cls-2" d="m43.86,60.67c-.96,2.29-1.78,4.68-3,6.81-.5.66-1.07,1.29-1.88,1.77l-.15-.08c0-1.84.83-3.24,1.92-4.58.93-1.37,1.93-2.69,2.95-4l.15.08h0Z"/>
    <path class="cls-2" d="m35.01,61.05c-.96,2.29-1.78,4.68-3,6.81-.5.66-1.07,1.29-1.88,1.77l-.15-.08c0-1.84.83-3.24,1.92-4.58.93-1.37,1.93-2.69,2.95-4l.15.08h0Z"/>
    <path class="cls-2" d="m26.17,61.43c-.96,2.29-1.78,4.68-3,6.81-.5.66-1.07,1.29-1.88,1.77l-.15-.08c0-1.84.83-3.24,1.92-4.58.93-1.37,1.93-2.69,2.95-4l.15.08h0Z"/>
    <path class="cls-2" d="m17.32,61.81c-.96,2.29-1.78,4.68-3,6.81-.5.66-1.07,1.29-1.88,1.77l-.15-.08c0-1.84.83-3.24,1.92-4.58.93-1.37,1.93-2.69,2.95-4,0,0,.15.08.15.08h0Z"/>
  </g>
  <g>
    <path class="cls-2" d="m114.54,50.19c-.96,2.29-1.78,4.68-3,6.81-.5.66-1.07,1.29-1.88,1.77,0,0-.15-.08-.15-.08,0-1.84.83-3.24,1.92-4.58.93-1.37,1.93-2.69,2.95-4l.15.08h0Z"/>
    <path class="cls-2" d="m105.69,50.57c-.96,2.29-1.78,4.68-3,6.81-.5.66-1.07,1.29-1.88,1.77,0,0-.15-.08-.15-.08,0-1.84.83-3.24,1.92-4.58.93-1.37,1.93-2.69,2.95-4l.15.08h0Z"/>
    <path class="cls-2" d="m96.85,50.95c-.96,2.29-1.78,4.68-3,6.81-.5.66-1.07,1.29-1.88,1.77l-.15-.08c0-1.84.83-3.24,1.92-4.58.93-1.37,1.93-2.69,2.95-4l.15.08h0Z"/>
    <path class="cls-2" d="m88,51.33c-.96,2.29-1.78,4.68-3,6.81-.5.66-1.07,1.29-1.88,1.77l-.15-.08c0-1.84.83-3.24,1.92-4.58.93-1.37,1.93-2.69,2.95-4l.15.08h0Z"/>
    <path class="cls-2" d="m79.15,51.71c-.96,2.29-1.78,4.68-3,6.81-.5.66-1.07,1.29-1.88,1.77,0,0-.15-.08-.15-.08,0-1.84.83-3.24,1.92-4.58.93-1.37,1.93-2.69,2.95-4l.15.08h0Z"/>
    <path class="cls-2" d="m70.31,52.08c-.96,2.29-1.78,4.68-3,6.81-.5.66-1.07,1.29-1.88,1.77l-.15-.08c0-1.84.83-3.24,1.92-4.58.93-1.37,1.93-2.69,2.95-4l.15.08h0Z"/>
    <path class="cls-2" d="m61.46,52.46c-.96,2.29-1.78,4.68-3,6.81-.5.66-1.07,1.29-1.88,1.77l-.15-.08c0-1.84.83-3.24,1.92-4.58.93-1.37,1.93-2.69,2.95-4l.15.08h0Z"/>
    <path class="cls-2" d="m52.62,52.84c-.96,2.29-1.78,4.68-3,6.81-.5.66-1.07,1.29-1.88,1.77,0,0-.15-.08-.15-.08,0-1.84.83-3.24,1.92-4.58.93-1.37,1.93-2.69,2.95-4,0,0,.15.08.15.08h0Z"/>
    <path class="cls-2" d="m43.77,53.22c-.96,2.29-1.78,4.68-3,6.81-.5.66-1.07,1.29-1.88,1.77l-.15-.08c0-1.84.83-3.24,1.92-4.58.93-1.37,1.93-2.69,2.95-4l.15.08h0Z"/>
    <path class="cls-2" d="m34.93,53.6c-.96,2.29-1.78,4.68-3,6.81-.5.66-1.07,1.29-1.88,1.77l-.15-.08c0-1.84.83-3.24,1.92-4.58.93-1.37,1.93-2.69,2.95-4,0,0,.15.08.15.08h0Z"/>
    <path class="cls-2" d="m26.08,53.98c-.96,2.29-1.78,4.68-3,6.81-.5.66-1.07,1.29-1.88,1.77l-.15-.08c0-1.84.83-3.24,1.92-4.58.93-1.37,1.93-2.69,2.95-4,0,0,.15.08.15.08h0Z"/>
  </g>
  <g>
    <path class="cls-2" d="m105.76,80.68c-.96,2.29-1.78,4.68-3,6.81-.5.66-1.07,1.29-1.88,1.77,0,0-.15-.08-.15-.08,0-1.84.83-3.24,1.92-4.58.93-1.37,1.93-2.69,2.95-4l.15.08h0Z"/>
    <path class="cls-2" d="m96.91,81.06c-.96,2.29-1.78,4.68-3,6.81-.5.66-1.07,1.29-1.88,1.77l-.15-.08c0-1.84.83-3.24,1.92-4.58.93-1.37,1.93-2.69,2.95-4,0,0,.15.08.15.08h0Z"/>
    <path class="cls-2" d="m88.07,81.44c-.96,2.29-1.78,4.68-3,6.81-.5.66-1.07,1.29-1.88,1.77l-.15-.08c0-1.84.83-3.24,1.92-4.58.93-1.37,1.93-2.69,2.95-4,0,0,.15.08.15.08h0Z"/>
    <path class="cls-2" d="m79.22,81.82c-.96,2.29-1.78,4.68-3,6.81-.5.66-1.07,1.29-1.88,1.77l-.15-.08c0-1.84.83-3.24,1.92-4.58.93-1.37,1.93-2.69,2.95-4l.15.08h0Z"/>
    <path class="cls-2" d="m70.38,82.2c-.96,2.29-1.78,4.68-3,6.81-.5.66-1.07,1.29-1.88,1.77l-.15-.08c0-1.84.83-3.24,1.92-4.58.93-1.37,1.93-2.69,2.95-4l.15.08h0Z"/>
    <path class="cls-2" d="m61.53,82.58c-.96,2.29-1.78,4.68-3,6.81-.5.66-1.07,1.29-1.88,1.77l-.15-.08c0-1.84.83-3.24,1.92-4.58.93-1.37,1.93-2.69,2.95-4l.15.08h0Z"/>
    <path class="cls-2" d="m52.69,82.96c-.96,2.29-1.78,4.68-3,6.81-.5.66-1.07,1.29-1.88,1.77,0,0-.15-.08-.15-.08,0-1.84.83-3.24,1.92-4.58.93-1.37,1.93-2.69,2.95-4,0,0,.15.08.15.08h0Z"/>
    <path class="cls-2" d="m43.84,83.34c-.96,2.29-1.78,4.68-3,6.81-.5.66-1.07,1.29-1.88,1.77,0,0-.15-.08-.15-.08,0-1.84.83-3.24,1.92-4.58.93-1.37,1.93-2.69,2.95-4,0,0,.15.08.15.08h0Z"/>
    <path class="cls-2" d="m34.99,83.72c-.96,2.29-1.78,4.68-3,6.81-.5.66-1.07,1.29-1.88,1.77l-.15-.08c0-1.84.83-3.24,1.92-4.58.93-1.37,1.93-2.69,2.95-4l.15.08h0Z"/>
    <path class="cls-2" d="m26.15,84.1c-.96,2.29-1.78,4.68-3,6.81-.5.66-1.07,1.29-1.88,1.77,0,0-.15-.08-.15-.08,0-1.84.83-3.24,1.92-4.58.93-1.37,1.93-2.69,2.95-4l.15.08h0Z"/>
    <path class="cls-2" d="m17.3,84.48c-.96,2.29-1.78,4.68-3,6.81-.5.66-1.07,1.29-1.88,1.77l-.15-.08c0-1.84.83-3.24,1.92-4.58.93-1.37,1.93-2.69,2.95-4l.15.08h0Z"/>
    <path class="cls-2" d="m8.46,84.86c-.96,2.29-1.78,4.68-3,6.81-.5.66-1.07,1.29-1.88,1.77l-.15-.08c0-1.84.83-3.24,1.92-4.58.93-1.37,1.93-2.69,2.95-4l.15.08h0Z"/>
  </g>
  <g>
    <path class="cls-2" d="m89.08,110.35c-.96,2.29-1.78,4.68-3,6.81-.5.66-1.07,1.29-1.88,1.77l-.15-.08c0-1.84.83-3.24,1.92-4.58.93-1.37,1.93-2.69,2.95-4l.15.08h0Z"/>
    <path class="cls-2" d="m80.23,110.73c-.96,2.29-1.78,4.68-3,6.81-.5.66-1.07,1.29-1.88,1.77l-.15-.08c0-1.84.83-3.24,1.92-4.58.93-1.37,1.93-2.69,2.95-4l.15.08h0Z"/>
    <path class="cls-2" d="m71.38,111.11c-.96,2.29-1.78,4.68-3,6.81-.5.66-1.07,1.29-1.88,1.77,0,0-.15-.08-.15-.08,0-1.84.83-3.24,1.92-4.58.93-1.37,1.93-2.69,2.95-4,0,0,.15.08.15.08h0Z"/>
    <path class="cls-2" d="m62.54,111.49c-.96,2.29-1.78,4.68-3,6.81-.5.66-1.07,1.29-1.88,1.77l-.15-.08c0-1.84.83-3.24,1.92-4.58.93-1.37,1.93-2.69,2.95-4l.15.08h0Z"/>
    <path class="cls-2" d="m53.69,111.87c-.96,2.29-1.78,4.68-3,6.81-.5.66-1.07,1.29-1.88,1.77l-.15-.08c0-1.84.83-3.24,1.92-4.58.93-1.37,1.93-2.69,2.95-4l.15.08h0Z"/>
    <path class="cls-2" d="m44.85,112.25c-.96,2.29-1.78,4.68-3,6.81-.5.66-1.07,1.29-1.88,1.77,0,0-.15-.08-.15-.08,0-1.84.83-3.24,1.92-4.58.93-1.37,1.93-2.69,2.95-4l.15.08h0Z"/>
    <path class="cls-2" d="m36,112.63c-.96,2.29-1.78,4.68-3,6.81-.5.66-1.07,1.29-1.88,1.77l-.15-.08c0-1.84.83-3.24,1.92-4.58.93-1.37,1.93-2.69,2.95-4l.15.08h0Z"/>
    <path class="cls-2" d="m27.16,113.01c-.96,2.29-1.78,4.68-3,6.81-.5.66-1.07,1.29-1.88,1.77l-.15-.08c0-1.84.83-3.24,1.92-4.58.93-1.37,1.93-2.69,2.95-4,0,0,.15.08.15.08h0Z"/>
    <path class="cls-2" d="m18.31,113.39c-.96,2.29-1.78,4.68-3,6.81-.5.66-1.07,1.29-1.88,1.77l-.15-.08c0-1.84.83-3.24,1.92-4.58.93-1.37,1.93-2.69,2.95-4l.15.08h0Z"/>
    <path class="cls-2" d="m9.47,113.77c-.96,2.29-1.78,4.68-3,6.81-.5.66-1.07,1.29-1.88,1.77,0,0-.15-.08-.15-.08,0-1.84.83-3.24,1.92-4.58.93-1.37,1.93-2.69,2.95-4l.15.08h0Z"/>
    <path class="cls-2" d="m.62,114.15c-.96,2.29-1.78,4.68-3,6.81-.5.66-1.07,1.29-1.88,1.77l-.15-.08c0-1.84.83-3.24,1.92-4.58.93-1.37,1.93-2.69,2.95-4,0,0,.15.08.15.08h0Z"/>
  </g>
  <g>
    <path class="cls-2" d="m88.8,103.23c-.96,2.29-1.78,4.68-3,6.81-.5.66-1.07,1.29-1.88,1.77,0,0-.15-.08-.15-.08,0-1.84.83-3.24,1.92-4.58.93-1.37,1.93-2.69,2.95-4l.15.08h0Z"/>
    <path class="cls-2" d="m79.96,103.61c-.96,2.29-1.78,4.68-3,6.81-.5.66-1.07,1.29-1.88,1.77l-.15-.08c0-1.84.83-3.24,1.92-4.58.93-1.37,1.93-2.69,2.95-4,0,0,.15.08.15.08h0Z"/>
    <path class="cls-2" d="m71.11,103.99c-.96,2.29-1.78,4.68-3,6.81-.5.66-1.07,1.29-1.88,1.77,0,0-.15-.08-.15-.08,0-1.84.83-3.24,1.92-4.58.93-1.37,1.93-2.69,2.95-4l.15.08h0Z"/>
    <path class="cls-2" d="m62.27,104.37c-.96,2.29-1.78,4.68-3,6.81-.5.66-1.07,1.29-1.88,1.77l-.15-.08c0-1.84.83-3.24,1.92-4.58.93-1.37,1.93-2.69,2.95-4,0,0,.15.08.15.08h0Z"/>
    <path class="cls-2" d="m53.42,104.75c-.96,2.29-1.78,4.68-3,6.81-.5.66-1.07,1.29-1.88,1.77l-.15-.08c0-1.84.83-3.24,1.92-4.58.93-1.37,1.93-2.69,2.95-4l.15.08h0Z"/>
    <path class="cls-2" d="m44.58,105.13c-.96,2.29-1.78,4.68-3,6.81-.5.66-1.07,1.29-1.88,1.77l-.15-.08c0-1.84.83-3.24,1.92-4.58.93-1.37,1.93-2.69,2.95-4l.15.08h0Z"/>
    <path class="cls-2" d="m35.73,105.51c-.96,2.29-1.78,4.68-3,6.81-.5.66-1.07,1.29-1.88,1.77l-.15-.08c0-1.84.83-3.24,1.92-4.58.93-1.37,1.93-2.69,2.95-4l.15.08h0Z"/>
    <path class="cls-2" d="m26.89,105.89c-.96,2.29-1.78,4.68-3,6.81-.5.66-1.07,1.29-1.88,1.77,0,0-.15-.08-.15-.08,0-1.84.83-3.24,1.92-4.58.93-1.37,1.93-2.69,2.95-4l.15.08h0Z"/>
    <path class="cls-2" d="m18.04,106.27c-.96,2.29-1.78,4.68-3,6.81-.5.66-1.07,1.29-1.88,1.77,0,0-.15-.08-.15-.08,0-1.84.83-3.24,1.92-4.58.93-1.37,1.93-2.69,2.95-4,0,0,.15.08.15.08h0Z"/>
    <path class="cls-2" d="m9.19,106.65c-.96,2.29-1.78,4.68-3,6.81-.5.66-1.07,1.29-1.88,1.77,0,0-.15-.08-.15-.08,0-1.84.83-3.24,1.92-4.58.93-1.37,1.93-2.69,2.95-4,0,0,.15.08.15.08h0Z"/>
    <path class="cls-2" d="m.35,107.02c-.96,2.29-1.78,4.68-3,6.81-.5.66-1.07,1.29-1.88,1.77l-.15-.08c0-1.84.83-3.24,1.92-4.58.93-1.37,1.93-2.69,2.95-4l.15.08H.35Z"/>
  </g>
  <g>
    <path class="cls-2" d="m97.65,95.25c-.96,2.29-1.78,4.68-3,6.81-.5.66-1.07,1.29-1.88,1.77l-.15-.08c0-1.84.83-3.24,1.92-4.58.93-1.37,1.93-2.69,2.95-4,0,0,.15.08.15.08h0Z"/>
    <path class="cls-2" d="m88.8,95.63c-.96,2.29-1.78,4.68-3,6.81-.5.66-1.07,1.29-1.88,1.77l-.15-.08c0-1.84.83-3.24,1.92-4.58.93-1.37,1.93-2.69,2.95-4l.15.08h0Z"/>
    <path class="cls-2" d="m79.96,96.01c-.96,2.29-1.78,4.68-3,6.81-.5.66-1.07,1.29-1.88,1.77l-.15-.08c0-1.84.83-3.24,1.92-4.58.93-1.37,1.93-2.69,2.95-4l.15.08h0Z"/>
    <path class="cls-2" d="m71.11,96.39c-.96,2.29-1.78,4.68-3,6.81-.5.66-1.07,1.29-1.88,1.77l-.15-.08c0-1.84.83-3.24,1.92-4.58.93-1.37,1.93-2.69,2.95-4,0,0,.15.08.15.08h0Z"/>
    <path class="cls-2" d="m62.27,96.77c-.96,2.29-1.78,4.68-3,6.81-.5.66-1.07,1.29-1.88,1.77l-.15-.08c0-1.84.83-3.24,1.92-4.58.93-1.37,1.93-2.69,2.95-4l.15.08h0Z"/>
    <path class="cls-2" d="m53.42,97.14c-.96,2.29-1.78,4.68-3,6.81-.5.66-1.07,1.29-1.88,1.77l-.15-.08c0-1.84.83-3.24,1.92-4.58.93-1.37,1.93-2.69,2.95-4l.15.08h0Z"/>
    <path class="cls-2" d="m44.58,97.52c-.96,2.29-1.78,4.68-3,6.81-.5.66-1.07,1.29-1.88,1.77l-.15-.08c0-1.84.83-3.24,1.92-4.58.93-1.37,1.93-2.69,2.95-4,0,0,.15.08.15.08h0Z"/>
    <path class="cls-2" d="m35.73,97.9c-.96,2.29-1.78,4.68-3,6.81-.5.66-1.07,1.29-1.88,1.77l-.15-.08c0-1.84.83-3.24,1.92-4.58.93-1.37,1.93-2.69,2.95-4l.15.08h0Z"/>
    <path class="cls-2" d="m26.89,98.28c-.96,2.29-1.78,4.68-3,6.81-.5.66-1.07,1.29-1.88,1.77l-.15-.08c0-1.84.83-3.24,1.92-4.58.93-1.37,1.93-2.69,2.95-4,0,0,.15.08.15.08h0Z"/>
    <path class="cls-2" d="m18.04,98.66c-.96,2.29-1.78,4.68-3,6.81-.5.66-1.07,1.29-1.88,1.77,0,0-.15-.08-.15-.08,0-1.84.83-3.24,1.92-4.58.93-1.37,1.93-2.69,2.95-4l.15.08h0Z"/>
    <path class="cls-2" d="m9.2,99.04c-.96,2.29-1.78,4.68-3,6.81-.5.66-1.07,1.29-1.88,1.77l-.15-.08c0-1.84.83-3.24,1.92-4.58.93-1.37,1.93-2.69,2.95-4,0,0,.15.08.15.08h0Z"/>
    <path class="cls-2" d="m.35,99.42c-.96,2.29-1.78,4.68-3,6.81-.5.66-1.07,1.29-1.88,1.77l-.15-.08c0-1.84.83-3.24,1.92-4.58.93-1.37,1.93-2.69,2.95-4l.15.08H.35Z"/>
  </g>
  <g>
    <path class="cls-2" d="m97.57,87.8c-.96,2.29-1.78,4.68-3,6.81-.5.66-1.07,1.29-1.88,1.77l-.15-.08c0-1.84.83-3.24,1.92-4.58.93-1.37,1.93-2.69,2.95-4l.15.08h0Z"/>
    <path class="cls-2" d="m88.72,88.18c-.96,2.29-1.78,4.68-3,6.81-.5.66-1.07,1.29-1.88,1.77,0,0-.15-.08-.15-.08,0-1.84.83-3.24,1.92-4.58.93-1.37,1.93-2.69,2.95-4l.15.08h0Z"/>
    <path class="cls-2" d="m79.88,88.55c-.96,2.29-1.78,4.68-3,6.81-.5.66-1.07,1.29-1.88,1.77l-.15-.08c0-1.84.83-3.24,1.92-4.58.93-1.37,1.93-2.69,2.95-4l.15.08h0Z"/>
    <path class="cls-2" d="m71.03,88.93c-.96,2.29-1.78,4.68-3,6.81-.5.66-1.07,1.29-1.88,1.77l-.15-.08c0-1.84.83-3.24,1.92-4.58.93-1.37,1.93-2.69,2.95-4l.15.08h0Z"/>
    <path class="cls-2" d="m62.18,89.31c-.96,2.29-1.78,4.68-3,6.81-.5.66-1.07,1.29-1.88,1.77l-.15-.08c0-1.84.83-3.24,1.92-4.58.93-1.37,1.93-2.69,2.95-4,0,0,.15.08.15.08h0Z"/>
    <path class="cls-2" d="m53.34,89.69c-.96,2.29-1.78,4.68-3,6.81-.5.66-1.07,1.29-1.88,1.77l-.15-.08c0-1.84.83-3.24,1.92-4.58.93-1.37,1.93-2.69,2.95-4l.15.08h0Z"/>
    <path class="cls-2" d="m44.49,90.07c-.96,2.29-1.78,4.68-3,6.81-.5.66-1.07,1.29-1.88,1.77l-.15-.08c0-1.84.83-3.24,1.92-4.58.93-1.37,1.93-2.69,2.95-4,0,0,.15.08.15.08h0Z"/>
    <path class="cls-2" d="m35.65,90.45c-.96,2.29-1.78,4.68-3,6.81-.5.66-1.07,1.29-1.88,1.77,0,0-.15-.08-.15-.08,0-1.84.83-3.24,1.92-4.58.93-1.37,1.93-2.69,2.95-4l.15.08h0Z"/>
    <path class="cls-2" d="m26.8,90.83c-.96,2.29-1.78,4.68-3,6.81-.5.66-1.07,1.29-1.88,1.77l-.15-.08c0-1.84.83-3.24,1.92-4.58.93-1.37,1.93-2.69,2.95-4,0,0,.15.08.15.08h0Z"/>
    <path class="cls-2" d="m17.96,91.21c-.96,2.29-1.78,4.68-3,6.81-.5.66-1.07,1.29-1.88,1.77l-.15-.08c0-1.84.83-3.24,1.92-4.58.93-1.37,1.93-2.69,2.95-4,0,0,.15.08.15.08h0Z"/>
    <path class="cls-2" d="m9.11,91.59c-.96,2.29-1.78,4.68-3,6.81-.5.66-1.07,1.29-1.88,1.77l-.15-.08c0-1.84.83-3.24,1.92-4.58.93-1.37,1.93-2.69,2.95-4,0,0,.15.08.15.08h0Z"/>
  </g>
  <g>
    <path class="cls-2" d="m79.94,118.67c-.96,2.29-1.78,4.68-3,6.81-.5.66-1.07,1.29-1.88,1.77l-.15-.08c0-1.84.83-3.24,1.92-4.58.93-1.37,1.93-2.69,2.95-4l.15.08h0Z"/>
    <path class="cls-2" d="m71.1,119.05c-.96,2.29-1.78,4.68-3,6.81-.5.66-1.07,1.29-1.88,1.77,0,0-.15-.08-.15-.08,0-1.84.83-3.24,1.92-4.58.93-1.37,1.93-2.69,2.95-4l.15.08h0Z"/>
    <path class="cls-2" d="m62.25,119.43c-.96,2.29-1.78,4.68-3,6.81-.5.66-1.07,1.29-1.88,1.77,0,0-.15-.08-.15-.08,0-1.84.83-3.24,1.92-4.58.93-1.37,1.93-2.69,2.95-4,0,0,.15.08.15.08h0Z"/>
    <path class="cls-2" d="m53.41,119.81c-.96,2.29-1.78,4.68-3,6.81-.5.66-1.07,1.29-1.88,1.77,0,0-.15-.08-.15-.08,0-1.84.83-3.24,1.92-4.58.93-1.37,1.93-2.69,2.95-4,0,0,.15.08.15.08h0Z"/>
    <path class="cls-2" d="m44.56,120.19c-.96,2.29-1.78,4.68-3,6.81-.5.66-1.07,1.29-1.88,1.77l-.15-.08c0-1.84.83-3.24,1.92-4.58.93-1.37,1.93-2.69,2.95-4l.15.08h0Z"/>
    <path class="cls-2" d="m35.71,120.57c-.96,2.29-1.78,4.68-3,6.81-.5.66-1.07,1.29-1.88,1.77,0,0-.15-.08-.15-.08,0-1.84.83-3.24,1.92-4.58.93-1.37,1.93-2.69,2.95-4l.15.08h0Z"/>
    <path class="cls-2" d="m26.87,120.95c-.96,2.29-1.78,4.68-3,6.81-.5.66-1.07,1.29-1.88,1.77l-.15-.08c0-1.84.83-3.24,1.92-4.58.93-1.37,1.93-2.69,2.95-4l.15.08h0Z"/>
    <path class="cls-2" d="m18.02,121.33c-.96,2.29-1.78,4.68-3,6.81-.5.66-1.07,1.29-1.88,1.77l-.15-.08c0-1.84.83-3.24,1.92-4.58.93-1.37,1.93-2.69,2.95-4l.15.08h0Z"/>
    <path class="cls-2" d="m9.18,121.7c-.96,2.29-1.78,4.68-3,6.81-.5.66-1.07,1.29-1.88,1.77l-.15-.08c0-1.84.83-3.24,1.92-4.58.93-1.37,1.93-2.69,2.95-4l.15.08h0Z"/>
    <path class="cls-2" d="m.33,122.08c-.96,2.29-1.78,4.68-3,6.81-.5.66-1.07,1.29-1.88,1.77l-.15-.08c0-1.84.83-3.24,1.92-4.58.93-1.37,1.93-2.69,2.95-4l.15.08H.33Z"/>
  </g>
  <path class="cls-1" d="m119.65,59.06l-7.79-1.68c4.33-1.03,6.65-3.63,5.67-7.17-1.56-5.68-10.86-11.45-20.38-13.25-.8-7.24-12.13-14.03-24.45-15.89-11.37-1.71-21.61,1.1-23.86,6.76-6.88-1.46-14,.34-17,3.94-7.63-.96-12.74-1.04-13.66-.34-9.16-1.77-15.38-1.95-16.65-.95-1.26,1,2.16,3.37,9.97,6.11-1.43.82,2.97,3.79,11.84,7.65-1.06.93-1.61,2.09-1.5,3.44.32,4.03,7.28,8.15,15.25,9.98-2.07,3.36,4.54,7.05,13.75,8.99,8.72,1.84,20.39,2.26,28.32.65,6.61,1.62,19.02,1.97,29.44.67,13.85-1.72,21.24-5.88,11.04-8.91Z"/>
</svg>