<?xml version="1.0" encoding="UTF-8"?>
<svg id="Layer_1" data-name="Layer 1" xmlns="http://www.w3.org/2000/svg" viewBox="0 0 96 96">
  <defs>
    <style>
      .cls-1 {
        fill: aqua;
        stroke: #1b0049;
      }

      .cls-1, .cls-2 {
        stroke-miterlimit: 10;
      }

      .cls-2 {
        fill: #1b0049;
        stroke: aqua;
      }
    </style>
  </defs>
  <path class="cls-2" d="m15.08,52.65l.48,1.58,7.87-12.3c-1.34,7.94.84,16.42,5.97,22.66,10.33,13.14,28.92,13.17,40.78,1.52,1.62-1.59,3.1-3.37,4.43-5.35l-8.18,2.57,14.56-17.29,3.39,20.74-5.14-5.05,2.77,1.01-2.31-11.06-4.05,5.7,4.08-.7c-6.7,30.45-49.38,35.6-62.7,3.21-.93-2.41-1.57-4.83-1.94-7.25Z"/>
  <path class="cls-1" d="m72.57,54.06l7.87-12.3.48,1.58c-.37-2.41-1.01-4.84-1.94-7.25-13.32-32.39-56-27.25-62.7,3.21l4.08-.7-4.05,5.7-2.31-11.06,2.77,1.01-5.14-5.05,3.39,20.74,14.56-17.29-8.18,2.57c1.33-1.97,2.81-3.76,4.43-5.35,11.86-11.65,30.44-11.63,40.78,1.52,5.13,6.24,7.31,14.72,5.97,22.66Z"/>
</svg>