<?xml version="1.0" encoding="UTF-8"?>
<svg id="Layer_1" data-name="Layer 1" xmlns="http://www.w3.org/2000/svg" xmlns:xlink="http://www.w3.org/1999/xlink" viewBox="0 0 96 96">
  <defs>
    <style>
      .cls-1 {
        fill: aqua;
        filter: url(#outer-glow-2);
        stroke: aqua;
        stroke-miterlimit: 10;
        stroke-width: 1.29px;
      }
    </style>
    <filter id="outer-glow-2" filterUnits="userSpaceOnUse">
      <feOffset dx="0" dy="0"/>
      <feGaussianBlur result="blur" stdDeviation="3.86"/>
      <feFlood flood-color="#6fcbdc" flood-opacity=".75"/>
      <feComposite in2="blur" operator="in"/>
      <feComposite in="SourceGraphic"/>
    </filter>
  </defs>
  <path class="cls-1" d="m40.33,76.79c-.59-3.72-.32-4.7-5.22-13.36-2.35-4.28-6.09-8.83-9.21-12.12-2.87-2.93-5.74-5.95-7.97-9.26-2.69-3.91-4.08-9.43-2.91-14.63,1.15-4.89,4.94-9.31,9.45-11.3,2.37-1.08,4.98-1.46,7.35-1.25,4.74.39,8.63,3.79,7.51,9.51-.54,2.78-2.99,5.75-6.07,5.61-2.71-.27-4.28-3.11-2.63-5.72.7-1.14,1.85-2.18,3.35-2.82h0c-1.49-.31-3.15.31-4.61,1.68-3.34,3.14-2.88,7.84.51,9.69,2.85,1.56,7.2.71,10.05-2.49,2.12-2.3,3.12-5.15,3.57-8.05,1.23-7.18-4.23-12.19-10.13-12.78-8.08-1.05-17.57,3.87-21.68,12.25-2.99,6.09-2.57,13.8.21,19.39,2.58,5.32,5.94,9.39,10.38,13.19,8.6,7.45,16.92,19.67,16.99,37.78,2.56-18.01,13.23-30.24,24.75-38.55,6.49-4.63,11.9-9.78,16.65-16.61,5.31-7.5,7.49-17.39,3.98-24.15-4.62-8.9-16.89-11.07-27.04-6.97-6.76,2.55-13.22,9.3-12.96,16.31.06,2.86.68,5.57,2.57,7.54,2.59,2.83,7.31,3.01,10.88.8,4.42-2.73,5.77-8.13,2.14-10.81-1.54-1.14-3.4-1.39-5.17-.66h0c1.64.32,2.83,1.16,3.48,2.24,1.57,2.49-.76,5.97-3.96,6.81-3.48.74-5.71-1.89-5.89-4.67-.37-5.69,4.37-10.32,9.9-12.16,2.9-.98,6.08-1.39,8.95-.93,5.71.84,10.28,4.93,11.05,10.53.76,6.05-2.27,13.03-6.73,18.13-3.58,4.15-7.82,7.9-11.88,11.39-4.25,3.76-9.2,8.71-12.4,13.17-6.31,8.59-6.17,9.59-7.28,13.25Z"/>
</svg>