<?xml version="1.0" encoding="UTF-8"?>
<svg id="Layer_1" data-name="Layer 1" xmlns="http://www.w3.org/2000/svg" viewBox="0 0 96 96">
  <defs>
    <style>
      .cls-1 {
        fill: #1b0049;
      }

      .cls-2 {
        fill: aqua;
      }
    </style>
  </defs>
  <g>
    <path class="cls-2" d="m27,73.21l64.47,7.5c1.93.22,2.07-2.33.45-5.61l-18.21-36.63c-1.12-2.25-3.52-4.8-5.44-5.77L12.29,6.59c-4.4-2.23-7.74-1.77-7.24,1.22l9.26,53.51c.95,5.73,6.84,11.2,12.69,11.88Z"/>
    <path class="cls-1" d="m27.18,71.69c10.86,1.37,38.69,4.9,49.19,6.23,3.7.46,10.69,1.35,14.35,1.79,0,0,.95.11.95.11.19,0,.24-.03.28-.07.13-.08.26-.67.18-1.23-.23-1.94-1.32-3.62-2.16-5.45-4.84-9.88-11.51-23.55-16.33-33.41-1.38-3-3.66-5.71-6.79-6.93-6.46-2.87-32.69-14.68-39.58-17.79,0,0-15.07-6.79-15.07-6.79-1.62-.75-3.33-1.56-5.06-1.39-.27.04-.43.09-.52.23-.17-.08.25,1.81.47,3.06,2.27,12.18,4.59,24.38,6.79,36.57.47,2.7,1.68,9.6,2.13,12.21,0,0,.34,2.04.34,2.04.83,5.18,5.53,9.97,10.85,10.83h0Zm-.35,3.04c-6.92-.93-13.14-6.23-14.57-13.18-.67-3.66-1.82-10.52-2.47-14.25-2.16-13.07-4.21-26.2-6.31-39.29-.41-2.1,1.07-4.16,3.24-4.3,2.46-.26,4.67.8,6.74,1.82,0,0,14.88,7.18,14.88,7.18l29.76,14.37s7.43,3.62,7.43,3.62c0,0,1.86.9,1.86.9,1.94.79,3.72,2.3,5.04,3.92,1.63,1.86,2.95,5.12,4.12,7.3,2.39,4.73,8.72,17.25,11.18,22.13,0,0,3.73,7.38,3.73,7.38,1.05,2.22,2.69,4.6,2.4,7.26-.07.44-.22.97-.65,1.42-.44.46-1.11.63-1.61.61-4.18-.44-11.23-1.22-15.48-1.66-10.4-1.1-38.54-4.09-49.31-5.23h0Z"/>
  </g>
  <g>
    <path class="cls-1" d="m74.67,40.41c-4.34,4.57-9.23,9.3-13.79,13.66-.95,1.14-2.65.95-3.78.43-1.78-.79-3.3-2.3-4.81-3.34C36.25,38.9,20.19,26.02,5.48,12.18c17.56,11.76,34.43,25.14,50.66,38.68.99.9,1.94,1.66,2.96,1.8-.02.02-.03.04.03-.02l.27-.22c4.9-4,10.19-8.25,15.27-11.99h0Z"/>
    <polygon class="cls-1" points="65.9 47.93 90.57 72.4 63.79 50.25 65.9 47.93 65.9 47.93"/>
    <polygon class="cls-1" points="13.54 56.71 43.14 40.32 44.53 43.14 13.54 56.71 13.54 56.71"/>
  </g>
</svg>