<?xml version="1.0" encoding="UTF-8"?>
<svg id="Layer_1" data-name="Layer 1" xmlns="http://www.w3.org/2000/svg" viewBox="0 0 96 96">
  <defs>
    <style>
      .cls-1 {
        fill: #1b0049;
      }

      .cls-2 {
        fill: aqua;
      }
    </style>
  </defs>
  <g>
    <path class="cls-1" d="m19.55,16.07h56.91c1.92,0,3.48,1.56,3.48,3.48v56.91c0,1.92-1.56,3.48-3.48,3.48H19.55c-1.92,0-3.48-1.56-3.48-3.48V19.55c0-1.92,1.56-3.48,3.48-3.48Z"/>
    <path class="cls-2" d="m76.45,16.67c1.59,0,2.88,1.29,2.88,2.88v56.91c0,1.59-1.29,2.88-2.88,2.88H19.55c-1.59,0-2.88-1.29-2.88-2.88V19.55c0-1.59,1.29-2.88,2.88-2.88h56.91m0-1.21H19.55c-2.25,0-4.09,1.83-4.09,4.09v56.91c0,2.25,1.83,4.09,4.09,4.09h56.91c2.25,0,4.09-1.83,4.09-4.09V19.55c0-2.25-1.83-4.09-4.09-4.09h0Z"/>
  </g>
  <rect class="cls-2" x="24.83" y="23.35" width="46.34" height="38.25"/>
</svg>