<?xml version="1.0" encoding="UTF-8"?>
<svg id="Layer_1" data-name="Layer 1" xmlns="http://www.w3.org/2000/svg" xmlns:xlink="http://www.w3.org/1999/xlink" viewBox="0 0 96 96">
  <defs>
    <style>
      .cls-1 {
        fill: #1b0049;
      }

      .cls-2, .cls-3, .cls-4 {
        fill: aqua;
      }

      .cls-3 {
        stroke: #1d1049;
        stroke-miterlimit: 10;
        stroke-width: .38px;
      }

      .cls-4 {
        filter: url(#outer-glow-4);
      }
    </style>
    <filter id="outer-glow-4" filterUnits="userSpaceOnUse">
      <feOffset dx="0" dy="0"/>
      <feGaussianBlur result="blur" stdDeviation="4.71"/>
      <feFlood flood-color="aqua" flood-opacity=".75"/>
      <feComposite in2="blur" operator="in"/>
      <feComposite in="SourceGraphic"/>
    </filter>
  </defs>
  <g>
    <g>
      <polygon class="cls-1" points="14.13 86.66 3.18 29.17 32.09 25.19 53.2 24.43 51.42 83.08 29.31 89.65 14.13 86.66"/>
      <path class="cls-2" d="m52.62,25.02l-1.75,57.64-21.58,6.41-14.67-2.88L3.84,29.65l28.32-3.9,20.45-.73m1.17-1.17l-1.21.04-20.45.73h-.06s-.06,0-.06,0l-28.32,3.9-1.18.16.22,1.17,10.77,56.53.14.75.75.15,14.67,2.88.27.05.27-.08,21.58-6.41.78-.23.02-.82,1.75-57.64.04-1.21h0Z"/>
    </g>
    <path class="cls-2" d="m28.81,84.63c-1.87-16.97-4.57-33.87-5.23-50.95,1.76,8.1,2.34,17,3.12,25.42.65,8.44,1.75,17.28,2.11,25.53h0Z"/>
    <path class="cls-2" d="m19.35,30.36c-3.59.33-7.42-.15-10.89-.53,3.59.14,7.46-.32,10.89.53h0Z"/>
    <path class="cls-2" d="m26.81,29.78c3.24-1.23,6.61-1.83,10.02-2.27,3.38-.53,6.77-1.03,10.16-1.49,0,0,.02.11.02.11-3.33.79-6.67,1.55-10.02,2.27-3.1.68-7.17,1.74-10.18,1.38h0Z"/>
    <g>
      <polygon class="cls-3" points="6.52 37.09 21.13 38.41 20.55 33.24 5.64 32.25 6.52 37.09"/>
      <polygon class="cls-3" points="7.69 43.58 21.88 45.07 21.37 40.55 6.87 39.04 7.69 43.58"/>
    </g>
  </g>
  <g>
    <g>
      <polygon class="cls-1" points="36.57 53.4 33.92 52.52 34.51 8.59 90.05 7.77 92.78 8.68 84.89 55.04 36.57 53.4"/>
      <path class="cls-2" d="m89.96,8.32l2.19.73-7.73,45.42-47.76-1.62-2.19-.73.58-43,54.91-.8m.17-1.1h-.19s-54.91.81-54.91.81l-1.07.02v1.07s-.6,43-.6,43v.8s.75.25.75.25l2.19.73.15.05h.16s47.76,1.62,47.76,1.62l.96.03.16-.95,7.73-45.42.16-.93-.89-.3-2.19-.73-.18-.06h0Z"/>
    </g>
    <polygon class="cls-4" points="37.35 11.58 87.28 10.84 80.42 51.16 36.83 49.69 37.35 11.58"/>
    <path class="cls-2" d="m82.49,52.1c1.67-11.89,4.89-28.91,6.96-40.92,0,0,.04,0,.04,0-2.06,12.05-4.54,29.18-7,40.91h0Z"/>
    <path class="cls-2" d="m36.79,52.18c12.71.4,30.56.69,43.07,1.46,0,0,0,.04,0,.04-12.44-.11-30.54-.93-43.07-1.49h0Z"/>
    <path class="cls-2" d="m83.8,54.32c-.5-.1-1.33.04-1.59-.47.3-.11.57-.05.83.09.23.13.61.2.75.38h0Z"/>
  </g>
</svg>