<?xml version="1.0" encoding="UTF-8"?>
<svg id="Layer_1" data-name="Layer 1" xmlns="http://www.w3.org/2000/svg" viewBox="0 0 96 96">
  <defs>
    <style>
      .cls-1 {
        fill: aqua;
      }

      .cls-2 {
        fill: #1b0049;
        stroke: aqua;
        stroke-miterlimit: 10;
        stroke-width: .24px;
      }
    </style>
  </defs>
  <path class="cls-1" d="m48.23,48.59c.9-.37,1.9-.54,2.94-.45.94.08,1.82.35,2.6.78"/>
  <path class="cls-1" d="m50.15,60.98c-2.17-.17-3.99-1.4-5.03-3.13-.59-1-.92-2.17-.9-3.41,0-.13,0-.26.02-.4.2-2.51,1.81-4.57,3.99-5.45.9-.37,1.9-.54,2.94-.45.94.08,1.82.35,2.6.78.14.08.27.16.41.24,1.4.91,2.41,2.35,2.77,4.02.13.61.18,1.24.13,1.9-.09,1.1-.45,2.11-1,2.97-.38.6-.86,1.12-1.41,1.56-1.23.98-2.83,1.51-4.52,1.38Z"/>
  <g>
    <path class="cls-2" d="m55.8,61.04s-.04.03-.06.04c2.14,2.81,3.84,5.95,4.87,9.19.45,1.4.78,2.82,1,4.24l-3.56-4.74,3.4,13.79,6.18-7.45-3.53-.03,1.55.73-3.56,3.76-.72-4.17,1.85,2.02c1.33-6.02-1.01-13.31-5.45-19.65-.05.08-.1.17-.15.25-.49.77-1.11,1.44-1.82,2Z"/>
    <path class="cls-2" d="m34.16,62.87c1.86-1.17,3.59-2.15,5.18-2.92,1.48-.72,2.79-1.26,3.96-1.63-.48-.94-.78-1.99-.87-3.08-3.69,1.79-8.35,5.01-13.95,10.04l3.03-.16-6.4,3.98,6.01-8.83,1.06,1.26.28-5.09-12.28,17.07,19.1-11.31-5.12.68Z"/>
    <path class="cls-2" d="m46.25,47.57c-14.48-8.42-24.6-9.02-27.15-2.64l2.97,2.52-3.06.32-1.47-8.42,2.05,2.71-3.85-7.46,2.36,15.17,12.15,1.47-7.17-5.06c1.23-.24,2.66-.24,4.28.02,4.14.65,9.41,3.01,15.17,6.82.43-2.32,1.82-4.26,3.71-5.46Z"/>
    <path class="cls-2" d="m53,46.63c-4.19-12.22-7.88-20.51-10.85-25.57l-.14,2.53-1.23-4.21,4.18,3.19-.86,1.26,3.99-.38-8.35-5.97,3.62,15.96-.2-7.31c.73,2.32,1.48,4.97,2.2,7.94.97,3.97,1.86,8.26,2.59,12.67,1.05-.37,2.2-.53,3.39-.43.58.05,1.14.15,1.68.31Z"/>
    <path class="cls-2" d="m58.15,51.05l14.32-25.46-7.36,2.38,10.28-9.13-3.54,17.93,8.41-24.32-24.49,20,13.3-4.2-13.83,19.42c1.26.84,2.27,2.01,2.91,3.38Z"/>
  </g>
</svg>