<?xml version="1.0" encoding="UTF-8"?>
<svg id="Layer_1" data-name="Layer 1" xmlns="http://www.w3.org/2000/svg" xmlns:xlink="http://www.w3.org/1999/xlink" viewBox="0 0 96 96">
  <defs>
    <style>
      .cls-1 {
        fill: #1b0049;
      }

      .cls-2 {
        fill: #1bffff;
      }

      .cls-3 {
        filter: url(#outer-glow-2);
      }
    </style>
    <filter id="outer-glow-2" filterUnits="userSpaceOnUse">
      <feOffset dx="0" dy="0"/>
      <feGaussianBlur result="blur" stdDeviation="8.31"/>
      <feFlood flood-color="aqua" flood-opacity=".75"/>
      <feComposite in2="blur" operator="in"/>
      <feComposite in="SourceGraphic"/>
    </filter>
  </defs>
  <g id="glow_exclam" class="cls-3">
    <g>
      <polygon class="cls-1" points="42.97 26.86 53.43 8.37 47.53 68.36 46.28 70.22 42.97 26.86"/>
      <path class="cls-2" d="m52.74,10.56l-5.66,57.64-.43.63-3.19-41.85,9.28-16.41m1.39-4.39l-11.64,20.58,3.42,44.86,2.09-3.08,6.13-62.36h0Z"/>
    </g>
    <g>
      <path class="cls-1" d="m44.97,89.35c-.88,0-1.64-.51-2.08-1.4-.66-1.34-.84-4.1.26-7.25,1.77-5.08,5.27-8.61,7.3-8.61.43,0,.78.16,1.07.48.49.56,1.24,2.15.7,6.55-.7,5.75-4.41,9.66-6.7,10.17-.18.04-.37.06-.54.06h0Z"/>
      <path class="cls-2" d="m50.44,72.56c.29,0,.51.1.71.32.35.4,1.12,1.8.59,6.18-.73,5.99-4.55,9.36-6.33,9.76-.15.03-.3.05-.44.05-.7,0-1.3-.41-1.66-1.14-.62-1.25-.77-3.86.28-6.88,1.63-4.67,5.02-8.3,6.85-8.3m0-.95c-2.43,0-6.03,4.02-7.74,8.93-1.14,3.28-.96,6.16-.24,7.62.51,1.02,1.42,1.66,2.51,1.66.21,0,.42-.02.64-.07,2.34-.52,6.32-4.38,7.07-10.57.66-5.44-.48-7.57-2.24-7.57h0Z"/>
    </g>
  </g>
</svg>