<?xml version="1.0" encoding="UTF-8"?>
<svg id="Layer_1" data-name="Layer 1" xmlns="http://www.w3.org/2000/svg" xmlns:xlink="http://www.w3.org/1999/xlink" viewBox="0 0 128 128">
  <defs>
    <style>
      .cls-1, .cls-2 {
        fill: #1b0049;
      }

      .cls-2 {
        filter: url(#outer-glow-1);
        stroke-width: 1.64px;
      }

      .cls-2, .cls-3, .cls-4 {
        stroke-miterlimit: 10;
      }

      .cls-2, .cls-4 {
        stroke: aqua;
      }

      .cls-3 {
        stroke: #1b0049;
      }

      .cls-3, .cls-4 {
        fill: aqua;
      }
    </style>
    <filter id="outer-glow-1" filterUnits="userSpaceOnUse">
      <feOffset dx="0" dy="0"/>
      <feGaussianBlur result="blur" stdDeviation="8.18"/>
      <feFlood flood-color="aqua" flood-opacity=".75"/>
      <feComposite in2="blur" operator="in"/>
      <feComposite in="SourceGraphic"/>
    </filter>
  </defs>
  <path class="cls-2" d="m-52,71.47c-8.43-.97-18.42.24-20.18,2l-9.37-10.19,23.19-35.68c2.36.8,4.97,2.51,8.16,5.03l1.38-3.25-14.19-10.14c-14.18-11.21-17.16-6.65-35.65,25.43l-21.82-23.72s-5.18,14.23-21.28,6.56c5.11,8.91,12.37,19.62,26.67,10.64l12.24,13.6c-21.65,35.3-26.3,42.25-41.4,31.73l-1.73,2.35,14.54,11.03c15.03,10.47,19.7,3.64,41.1-31.23l2.73,3.03-22.15,34.02,1.66,1.45,21.98-33.82,17.2,19.11s9.81-9.05,26.12-4.15c16.31,4.91,19.83,13.75,16.1,20.18-3.73,6.43-17.07,6.43-26.26,0l3.11,7.32s20.5,6.72,26.81-8.36c5.32-12.71-10.79-30.88-28.95-32.96Zm-34.05-13.07c13.15-22.81,18.5-31.85,25.48-31.27l-22.48,34.53-3-3.26Z"/>
  <polygon class="cls-3" points="7.58 96.91 35.49 95.88 34.46 123.79 47.92 123.79 46.89 95.88 74.8 96.91 74.8 83.44 46.89 84.48 47.92 56.57 34.46 56.57 35.49 84.48 7.58 83.44 7.58 96.91"/>
  <path class="cls-4" d="m75.12,1.62c-28.79,0-52.21,23.42-52.21,52.21,0,9.05,2.2,17.58,6.55,25.34l2.01,2.95-1.17-29.55h4.96s.04-.96.04-.96c.94-21.8,18.78-38.88,40.62-38.88s40.66,18.24,40.66,40.66c0,8.22-2.44,16.14-7.05,22.89-2.25,3.2-4.84,4.6-6.94,3.75-1.59-.65-2.55-2.46-2.25-4.32l7.22-45.57h-11.16l-.49,3.26c-3.69-2.57-7.87-3.85-12.54-3.85-3.23,0-6.42.61-9.58,1.83-3.16,1.22-6.09,2.98-8.79,5.28-5.53,4.81-8.79,10.53-9.78,17.18-1.12,6.65.33,12.37,4.34,17.18,4.01,4.74,9.38,7.11,16.09,7.11,2.37,0,4.7-.33,7.01-.98,2.3-.66,4.54-1.62,6.71-2.86l-.17,1.13c-1.04,6.38,3.19,12.93,9.77,15.24.95.34,2.66.8,4.81.8,4.61,0,11.26-2.12,16.91-12.13,4.34-7.74,6.63-16.55,6.63-25.48,0-28.79-23.42-52.21-52.21-52.21Zm14.66,70.18c-4.34,2.83-8.95,4.24-13.82,4.24-2.64,0-4.68-.53-6.12-1.58-1.45-1.05-2.47-2.43-3.06-4.15-.59-1.71-.9-3.57-.94-5.58-.04-2,.06-3.96.29-5.87.23-1.91.48-3.59.74-5.03.26-1.78.65-3.92,1.19-6.42.53-2.5,1.33-4.95,2.42-7.36,1.08-2.4,2.63-4.41,4.64-6.02,2-1.61,4.62-2.42,7.85-2.42,4.8,0,8.98,1.42,12.54,4.25l-5.73,35.94Z"/>
  <path class="cls-1" d="m66.19,38.03c-5.07,4.34-8.06,9.61-8.99,15.8-1.05,6.19.27,11.45,3.95,15.8,1.51,1.71,3.23,3.09,5.13,4.15-1.45-2.11-2.25-4.74-2.42-7.9s.18-7.18,1.04-12.05c.72-5.07,1.66-9.17,2.82-12.29,1.15-3.13,2.75-5.68,4.79-7.65-2.17,1.06-4.28,2.44-6.32,4.15Z"/>
  <path class="cls-4" d="m114.08,88.59c-9.9,11.09-24.1,17.45-38.96,17.45-6.87,0-13.55-1.31-19.86-3.91l-4.93-2.12,28.46,1.05v-7.1l.91-.08c3.38-.31,6.71-1.05,9.89-2.18l.51-.18.43.33c4.84,3.72,14.64,5.83,23.54-3.26Z"/>
  <path class="cls-1" d="m91.17,75.55c-.89,5.44,2.8,11.2,8.48,13.2,7.02,2.47,14.24-1.43,19.31-10.42,4.17-7.44,6.37-15.91,6.37-24.5,0-27.69-22.52-50.21-50.21-50.21S24.91,26.14,24.91,53.83c0,7.14,1.42,13.94,4.24,20.27l-.93-23.53h5.13c1.46-22.41,19.97-39.83,42.57-39.83s42.66,19.14,42.66,42.66c0,8.62-2.56,16.93-7.4,24.02-2.83,4.03-6.31,5.69-9.34,4.46-2.45-.99-3.89-3.72-3.44-6.48l6.89-43.29h-7.21l-6.91,43.44Z"/>
  <path class="cls-1" d="m62.58,102.46c4.07,1.05,8.27,1.58,12.54,1.58,9.79,0,18.19-2.18,26.26-7.42-3.86.98-8.38-.56-11.62-2.86-2.9.99-5.91,1.67-8.96,2.02v7.36l-18.22-.67Z"/>
</svg>