<?xml version="1.0" encoding="UTF-8"?>
<svg id="Layer_1" data-name="Layer 1" xmlns="http://www.w3.org/2000/svg" xmlns:xlink="http://www.w3.org/1999/xlink" viewBox="0 0 128 128">
  <defs>
    <style>
      .cls-1 {
        fill: none;
      }

      .cls-1, .cls-2 {
        stroke: aqua;
      }

      .cls-1, .cls-2, .cls-3 {
        stroke-miterlimit: 10;
      }

      .cls-2 {
        fill: #001c49;
      }

      .cls-2, .cls-3 {
        stroke-width: 1.27px;
      }

      .cls-3 {
        fill: aqua;
        stroke: #001c49;
      }
    </style>
    <filter id="outer-glow-21" filterUnits="userSpaceOnUse">
      <feOffset dx="0" dy="0"/>
      <feGaussianBlur result="blur" stdDeviation="9.45"/>
      <feFlood flood-color="aqua" flood-opacity=".75"/>
      <feComposite in2="blur" operator="in"/>
      <feComposite in="SourceGraphic"/>
    </filter>
  </defs>
  <g>
    <polygon class="cls-3" points="34.97 74.18 4.64 87.03 4 96.24 41.24 80.55 34.97 74.18"/>
    <polygon class="cls-3" points="74.58 35.13 87.87 4.99 97.08 4.49 80.85 41.5 74.58 35.13"/>
    <path class="cls-2" d="m76.7,76.9c11.9-11.73,16.26-23.43,8.02-31.79L102.01,5.85c7.81.06,15.99,2.27,21.39,18.87,4.44,13.64-16.64,49.23-33.36,65.71-16.72,16.48-52.61,37.05-66.18,32.41-16.52-5.64-18.62-13.85-18.56-21.66l39.5-16.72c8.24,8.36,20,4.17,31.91-7.57Z"/>
  </g>
  <line class="cls-1" x1="128" y1="0" x2="128" y2="64"/>
</svg>