<?xml version="1.0" encoding="UTF-8"?>
<svg id="Layer_1" data-name="Layer 1" xmlns="http://www.w3.org/2000/svg" viewBox="0 0 128 128">
  <defs>
    <style>
      .cls-1 {
        fill: #001c49;
        stroke: aqua;
      }

      .cls-1, .cls-2, .cls-3 {
        stroke-miterlimit: 10;
      }

      .cls-1, .cls-3 {
        stroke-width: 1.03px;
      }

      .cls-2 {
        stroke: #1b0049;
      }

      .cls-2, .cls-3 {
        fill: aqua;
      }

      .cls-3 {
        stroke: #001c49;
      }
    </style>
  </defs>
  <g>
    <polygon class="cls-3" points="86.5 56.64 111.28 66.45 116.87 61.51 86.5 49.4 86.5 56.64"/>
    <polygon class="cls-3" points="41.5 56.64 16.72 66.45 11.13 61.51 41.5 49.4 41.5 56.64"/>
    <path class="cls-1" d="m64,31.36c-13.52,0-22.68,4.27-22.68,13.76l-32.26,12.8c-4.47-4.47-7.93-10.39-1.61-23.02,5.19-10.38,37.55-18.92,56.55-18.92,19,0,51.36,8.53,56.55,18.92,6.32,12.63,2.86,18.56-1.61,23.02l-32.26-12.8c0-9.5-9.16-13.76-22.68-13.76Z"/>
  </g>
  <polygon class="cls-2" points="52.05 69.64 62.56 75.21 60.49 41.11 70.87 37.15 65.2 79.76 62.67 78.96 56.87 77.11 63.3 87.61 77.8 62.22 67.07 97.6 62.7 112.01 58.07 100.04 47.97 73.93 44.83 65.82 52.05 69.64"/>
</svg>