<?xml version="1.0" encoding="UTF-8"?>
<svg id="Layer_1" data-name="Layer 1" xmlns="http://www.w3.org/2000/svg" xmlns:xlink="http://www.w3.org/1999/xlink" viewBox="0 0 128 128">
  <defs>
    <style>
      .cls-1, .cls-2 {
        fill: aqua;
      }

      .cls-2 {
        stroke: #1b0049;
      }

      .cls-2, .cls-3, .cls-4 {
        stroke-miterlimit: 10;
      }

      .cls-3 {
        stroke-width: 2.31px;
      }

      .cls-3, .cls-4 {
        fill: #1b0049;
        stroke: aqua;
      }

      .cls-4 {
        filter: url(#outer-glow-2);
        stroke-width: 1.64px;
      }
    </style>
    <filter id="outer-glow-2" filterUnits="userSpaceOnUse">
      <feOffset dx="0" dy="0"/>
      <feGaussianBlur result="blur" stdDeviation="8.18"/>
      <feFlood flood-color="aqua" flood-opacity=".75"/>
      <feComposite in2="blur" operator="in"/>
      <feComposite in="SourceGraphic"/>
    </filter>
  </defs>
  <polyline class="cls-3" points="96.93 123.66 94.75 101.34 62.7 101.34 60.53 123.66"/>
  <g>
    <path class="cls-3" d="m59.72,101.36l20.08.74v-23.85l-27.71,1.03,1.03-27.71h-14.8c1.71-26.45,19.15-47.23,40.41-47.23,22.4,0,40.55,23.06,40.55,51.51,0,28.45-18.16,51.51-40.55,51.51-6.87,0-13.34-2.17-19.01-6Z"/>
    <polygon class="cls-2" points="7.58 96.91 35.49 95.88 34.46 123.79 47.92 123.79 46.89 95.88 74.8 96.91 74.8 83.44 46.89 84.48 47.92 56.57 34.46 56.57 35.49 84.48 7.58 83.44 7.58 96.91"/>
  </g>
  <path class="cls-1" d="m106.12,50.35c-3.96-1.75-11.4-1.62-18.43,1.26l-2.29,7.54c5.06,5.06,20.82,4.97,23.07-4.46l-2.34-4.34Z"/>
  <path class="cls-4" d="m-52,71.47c-8.43-.97-18.42.24-20.18,2l-9.37-10.19,23.19-35.68c2.36.8,4.97,2.51,8.16,5.03l1.38-3.25-14.19-10.14c-14.18-11.21-17.16-6.65-35.65,25.43l-21.82-23.72s-5.18,14.23-21.28,6.56c5.11,8.91,12.37,19.62,26.67,10.64l12.24,13.6c-21.65,35.3-26.3,42.25-41.4,31.73l-1.73,2.35,14.54,11.03c15.03,10.47,19.7,3.64,41.1-31.23l2.73,3.03-22.15,34.02,1.66,1.45,21.98-33.82,17.2,19.11s9.81-9.05,26.12-4.15c16.31,4.91,19.83,13.75,16.1,20.18-3.73,6.43-17.07,6.43-26.26,0l3.11,7.32s20.5,6.72,26.81-8.36c5.32-12.71-10.79-30.88-28.95-32.96Zm-34.05-13.07c13.15-22.81,18.5-31.85,25.48-31.27l-22.48,34.53-3-3.26Z"/>
  <path class="cls-1" d="m50.65,51.62l2.47-.06-.31,8.48c5.61,3.8,15.46,2.9,19.26-.9l-2.29-7.54c-7.03-2.88-14.47-3.01-18.43-1.26l-.69,1.28Z"/>
</svg>