<?xml version="1.0" encoding="UTF-8"?>
<svg id="Layer_1" data-name="Layer 1" xmlns="http://www.w3.org/2000/svg" xmlns:xlink="http://www.w3.org/1999/xlink" viewBox="0 0 128 128">
  <defs>
    <style>
      .cls-1, .cls-2 {
        fill: #1b0049;
      }

      .cls-3 {
        fill: aqua;
      }

      .cls-2 {
        filter: url(#outer-glow-7);
        stroke: aqua;
        stroke-miterlimit: 10;
        stroke-width: 2.94px;
      }
    </style>
    <filter id="outer-glow-7" filterUnits="userSpaceOnUse">
      <feOffset dx="0" dy="0"/>
      <feGaussianBlur result="blur" stdDeviation="4"/>
      <feFlood flood-color="aqua" flood-opacity=".75"/>
      <feComposite in2="blur" operator="in"/>
      <feComposite in="SourceGraphic"/>
    </filter>
  </defs>
  <path class="cls-3" d="m11.55,116.51h-1.89c-2.42,0-4.38-1.9-4.51-4.28l6.4,4.28Z"/>
  <path class="cls-3" d="m106.2,61.65V28.72c0-2.11-1.71-3.82-3.82-3.82h-5.34c2.22,2.41,3.95,5.17,5.08,8.19,2.98,7.94,1.71,16.93-3.57,25.32-.7,1.12-1.48,2.19-2.3,3.24h9.94Z"/>
  <path class="cls-1" d="m34.28,105.49l8.04-10.64h60.61v-33.27c0-1.68,1.36-3.04,3.04-3.04h12.18c3.8,0,6.88,3.08,6.88,6.88v40.08h-2.16"/>
  <path class="cls-1" d="m90.71,19.78c1.5.9,2.9,1.91,4.17,3.02v-3.02h-4.17Z"/>
  <path class="cls-1" d="m82.35,38.83c-1-2.94-3.6-5.21-7.33-6.42-1.88-.61-3.97-.91-6.22-.91-7.51,0-15.53,3.42-20.43,8.73-3.49,3.77-5.06,8.03-4.33,11.68.58,2.89,2.63,5.21,5.92,6.71,2.39,1.09,5.13,1.64,8.14,1.64,8.64,0,17.52-4.48,22.09-11.15,2.44-3.56,3.2-7.21,2.16-10.27Z"/>
  <path class="cls-3" d="m23.35,58.84c-1.65-8.77,1.4-18.62,8.86-26.97v-6.97h-6.45c-2.11,0-3.82,1.71-3.82,3.82v29.81l1.41.31Z"/>
  <path class="cls-3" d="m80.48,15.76c.91.2,1.82.43,2.7.7,2.73.82,5.25,1.94,7.54,3.32h4.17l-14.4-12.84v8.83Z"/>
  <path class="cls-3" d="m96.26,61.65c-3.17,4.1-7.15,7.69-11.65,10.64-8.43,5.52-18.69,8.8-28.91,8.8h0c-.97,0-1.94-.03-2.9-.09l-10.46,13.84h60.61v-33.2h-6.67Z"/>
  <circle class="cls-3" cx="116.99" cy="97.1" r="2.26"/>
  <path class="cls-3" d="m16.37,119.73c.23,1.63,1.61,2.88,3.3,2.88h1.01l-4.31-2.88Z"/>
  <path class="cls-3" d="m21.34,122.61l12.94-17.12h88.6v6.48c0,2.51-2.03,4.54-4.54,4.54h-6.66v2.75c0,1.85-1.5,3.35-3.35,3.35H21.34Z"/>
  <path class="cls-1" d="m32.21,31.87V6.94h48.27v8.83c-2.94-.65-6.05-.99-9.28-.99-10.94,0-22.25,3.77-31.17,10.12-2.36,1.68-4.55,3.53-6.52,5.55-.46.47-.88.95-1.3,1.43Z"/>
  <path class="cls-3" d="m25.07,68.23l1.25-1.46c-.47-.79-.88-1.6-1.25-2.43v3.89Z"/>
  <path class="cls-1" d="m9.36,115.04l-2.54-1.7c.42.83,1.18,1.44,2.54,1.7Z"/>
  <path class="cls-1" d="m23.35,58.84c.36,1.89.92,3.74,1.72,5.5v3.89l-2.26,2.64L2.96,94v-28.59c0-3.8,3.08-6.88,6.88-6.88h12.18c.48,0,.92.12,1.32.31Z"/>
  <path class="cls-2" d="m94.32,55.74c9.45-15.02,2.8-29.86-12.59-34.5-14.21-4.28-33.27,1.02-44.64,12.69-10.31,10.58-12.28,24.02-4.42,33.12L1.28,103.63l18.69,12.49,30.5-40.36c16.49,2.11,35.11-6.14,43.85-20.03Zm-46.43,7.42c-10.99-5-11.81-17.02-3.19-26.33,7.91-8.55,21.69-12.46,31.86-9.18,10.76,3.47,14.75,14.06,7.76,24.27-7.7,11.24-24.67,16.59-36.43,11.24Z"/>
  <polygon class="cls-1" points="103.93 62.31 95.73 62.31 96.76 60.98 103.93 60.98 103.93 62.31"/>
  <path class="cls-1" d="m109.53,115.18c2.47-.72,4.96-1.03,7.48-1.34,2.89-.1,3.48-.63,4.54-3.2.15,3.1-1.47,4.63-4.54,4.54,0,0-7.48,0-7.48,0h0Z"/>
  <polygon class="cls-1" points="23.4 119.88 109.16 119.88 109.16 108.67 103.5 108.67 103.5 115.02 27.08 115.02 23.4 119.88"/>
</svg>