<?xml version="1.0" encoding="UTF-8"?>
<svg id="Layer_1" data-name="Layer 1" xmlns="http://www.w3.org/2000/svg" xmlns:xlink="http://www.w3.org/1999/xlink" viewBox="0 0 128 128">
  <defs>
    <style>
      .cls-1 {
        fill: #1b0049;
      }

      .cls-2, .cls-3 {
        fill: aqua;
      }

      .cls-3 {
        stroke: #1b0049;
        stroke-miterlimit: 10;
        stroke-width: 1.33px;
      }
    </style>
    <filter id="outer-glow-20" filterUnits="userSpaceOnUse">
      <feOffset dx="0" dy="0"/>
      <feGaussianBlur result="blur" stdDeviation="14.44"/>
      <feFlood flood-color="aqua" flood-opacity=".75"/>
      <feComposite in2="blur" operator="in"/>
      <feComposite in="SourceGraphic"/>
    </filter>
  </defs>
  <path class="cls-2" d="m5.12,104.72v6.48c0,2.51,2.03,4.54,4.54,4.54h6.66v2.75c0,1.85,1.5,3.35,3.35,3.35h88.65c1.85,0,3.35-1.5,3.35-3.35v-2.75h6.66c2.51,0,4.54-2.03,4.54-4.54v-6.48H5.12Z"/>
  <polygon class="cls-1" points="24.5 107.89 24.5 114.24 103.5 114.24 103.5 107.89 109.16 107.89 109.16 119.11 18.84 119.11 18.84 107.89 24.5 107.89"/>
  <rect class="cls-2" x="21.94" y="24.12" width="84.26" height="47.39" rx="3.82" ry="3.82"/>
  <polygon class="cls-1" points="94.88 60.87 32.21 60.87 32.21 6.16 80.48 6.16 94.88 19 94.88 60.87"/>
  <polygon class="cls-2" points="80.48 6.16 80.48 19 94.88 19 80.48 6.16"/>
  <rect class="cls-3" x="25.07" y="60.87" width="77.86" height="33.2"/>
  <path class="cls-1" d="m25.07,60.8v33.27h77.86v-33.27c0-1.68,1.36-3.04,3.04-3.04h12.18c3.8,0,6.88,3.08,6.88,6.88v40.08H2.96v-40.08c0-3.8,3.08-6.88,6.88-6.88h12.18c1.68,0,3.04,1.36,3.04,3.04Z"/>
  <polygon class="cls-1" points="63.07 63.54 28.31 64.78 28.97 64.15 27.73 74.34 27.64 64.07 27.63 63.44 28.29 63.45 63.07 63.54 63.07 63.54"/>
  <path class="cls-1" d="m109.53,114.4c2.47-.72,4.96-1.03,7.48-1.34,2.89-.1,3.48-.63,4.54-3.2.15,3.1-1.47,4.63-4.54,4.54,0,0-7.48,0-7.48,0h0Z"/>
  <path class="cls-1" d="m18.36,114.4h-7.48c-3.06.09-4.68-1.45-4.54-4.54,1.06,2.57,1.65,3.1,4.54,3.2,2.52.32,5.02.63,7.48,1.34h0Z"/>
  <circle class="cls-2" cx="116.99" cy="96.33" r="2.26"/>
</svg>