<?xml version="1.0" encoding="UTF-8"?>
<svg id="Layer_1" data-name="Layer 1" xmlns="http://www.w3.org/2000/svg" xmlns:xlink="http://www.w3.org/1999/xlink" viewBox="0 0 128 128">
  <defs>
    <style>
      .cls-1 {
        filter: url(#drop-shadow-7);
      }

      .cls-1, .cls-2 {
        fill: aqua;
      }

      .cls-3, .cls-4 {
        fill: #1b0049;
      }

      .cls-4 {
        stroke: aqua;
        stroke-miterlimit: 10;
        stroke-width: 1.41px;
      }
    </style>
    <filter id="drop-shadow-7" filterUnits="userSpaceOnUse">
      <feOffset dx="-2.96" dy="2.96"/>
      <feGaussianBlur result="blur" stdDeviation="1.48"/>
      <feFlood flood-color="#1b0049" flood-opacity=".75"/>
      <feComposite in2="blur" operator="in"/>
      <feComposite in="SourceGraphic"/>
    </filter>
  </defs>
  <g>
    <polygon class="cls-3" points="85.2 46.59 80.78 26.44 61.21 10.39 16.99 4.21 13.53 123.79 77.06 99.67 59.89 81.34 82.97 91.61 51.73 39.19 85.2 46.59"/>
    <polygon class="cls-4" points="86.46 51.99 61.95 46.57 68.73 57.94 87.81 57.94 86.46 51.99"/>
    <polygon class="cls-4" points="88.7 61.82 71.04 61.82 77.19 72.14 91.04 72.14 88.7 61.82"/>
    <polygon class="cls-4" points="107.4 92.75 97.12 98.84 92.08 76.68 79.9 76.68 95.21 102.37 97.8 101.25 103.74 98.67 98.96 106.9 77.69 94.29 96.98 114.16 104.84 122.25 107.34 113.52 112.78 94.49 114.47 88.57 107.4 92.75"/>
    <polygon class="cls-1" points="80.78 26.44 63.52 25.43 61.21 10.39 80.78 26.44"/>
  </g>
  <path class="cls-2" d="m50.76,118.08c-.26,1.54-1.05,2.87-2.35,4-1.3,1.14-2.72,1.7-4.26,1.7s-2.79-.57-3.75-1.7c-.97-1.13-1.32-2.47-1.05-4,.26-1.54,1.03-2.85,2.3-3.95,1.27-1.1,2.7-1.65,4.3-1.65s2.87.55,3.8,1.65c.93,1.1,1.27,2.42,1,3.95Z"/>
  <path class="cls-3" d="m41.36,118.08c-.13,1,.1,1.87.7,2.6.6.74,1.4,1.1,2.4,1.1s1.93-.36,2.8-1.1c.87-.73,1.37-1.6,1.5-2.6.13-1-.09-1.85-.65-2.55-.57-.7-1.38-1.05-2.45-1.05-1,0-1.94.35-2.8,1.05-.87.7-1.37,1.55-1.5,2.55Z"/>
  <path class="cls-2" d="m72.94,118.08c-.26,1.54-1.05,2.87-2.35,4-1.3,1.14-2.72,1.7-4.26,1.7s-2.79-.57-3.75-1.7c-.97-1.13-1.32-2.47-1.05-4,.26-1.54,1.03-2.85,2.3-3.95,1.27-1.1,2.7-1.65,4.3-1.65s2.87.55,3.8,1.65c.93,1.1,1.27,2.42,1,3.95Z"/>
  <path class="cls-3" d="m63.54,118.08c-.13,1,.1,1.87.7,2.6.6.74,1.4,1.1,2.4,1.1s1.93-.36,2.8-1.1c.87-.73,1.37-1.6,1.5-2.6.13-1-.09-1.85-.65-2.55-.57-.7-1.38-1.05-2.45-1.05-1,0-1.94.35-2.8,1.05-.87.7-1.37,1.55-1.5,2.55Z"/>
  <path class="cls-2" d="m95.12,118.08c-.26,1.54-1.05,2.87-2.35,4-1.3,1.14-2.72,1.7-4.26,1.7s-2.79-.57-3.75-1.7c-.97-1.13-1.32-2.47-1.05-4,.26-1.54,1.03-2.85,2.3-3.95,1.27-1.1,2.7-1.65,4.3-1.65s2.87.55,3.8,1.65c.93,1.1,1.27,2.42,1,3.95Z"/>
  <path class="cls-3" d="m85.71,118.08c-.13,1,.1,1.87.7,2.6.6.74,1.4,1.1,2.4,1.1s1.93-.36,2.8-1.1c.87-.73,1.37-1.6,1.5-2.6.13-1-.09-1.85-.65-2.55-.57-.7-1.38-1.05-2.45-1.05-1,0-1.94.35-2.8,1.05-.87.7-1.37,1.55-1.5,2.55Z"/>
</svg>