<?xml version="1.0" encoding="UTF-8"?>
<svg id="Layer_1" data-name="Layer 1" xmlns="http://www.w3.org/2000/svg" xmlns:xlink="http://www.w3.org/1999/xlink" viewBox="0 0 128 128">
  <defs>
    <style>
      .cls-1 {
        fill: aqua;
        filter: url(#drop-shadow-7);
      }

      .cls-2, .cls-3 {
        fill: #1b0049;
      }

      .cls-3 {
        stroke: aqua;
        stroke-miterlimit: 10;
        stroke-width: 1.41px;
      }
    </style>
    <filter id="drop-shadow-7" filterUnits="userSpaceOnUse">
      <feOffset dx="-2.96" dy="2.96"/>
      <feGaussianBlur result="blur" stdDeviation="1.48"/>
      <feFlood flood-color="#1b0049" flood-opacity=".75"/>
      <feComposite in2="blur" operator="in"/>
      <feComposite in="SourceGraphic"/>
    </filter>
    <filter id="outer-glow-21" filterUnits="userSpaceOnUse">
      <feOffset dx="0" dy="0"/>
      <feGaussianBlur result="blur-2" stdDeviation="14.44"/>
      <feFlood flood-color="aqua" flood-opacity=".75"/>
      <feComposite in2="blur-2" operator="in"/>
      <feComposite in="SourceGraphic"/>
    </filter>
  </defs>
  <polygon class="cls-2" points="85.2 46.59 80.78 26.44 61.21 10.39 16.99 4.21 13.53 123.79 77.06 99.67 59.89 81.34 82.97 91.61 51.73 39.19 85.2 46.59"/>
  <polygon class="cls-3" points="86.46 51.99 61.95 46.57 68.73 57.94 87.81 57.94 86.46 51.99"/>
  <polygon class="cls-3" points="88.7 61.82 71.04 61.82 77.19 72.14 91.04 72.14 88.7 61.82"/>
  <polygon class="cls-3" points="107.4 92.75 97.12 98.84 92.08 76.68 79.9 76.68 95.21 102.37 97.8 101.25 103.74 98.67 98.96 106.9 77.69 94.29 96.98 114.16 104.84 122.25 107.34 113.52 112.78 94.49 114.47 88.57 107.4 92.75"/>
  <polygon class="cls-1" points="80.78 26.44 63.52 25.43 61.21 10.39 80.78 26.44"/>
</svg>