<?xml version="1.0" encoding="UTF-8"?>
<svg id="Layer_1" data-name="Layer 1" xmlns="http://www.w3.org/2000/svg" xmlns:xlink="http://www.w3.org/1999/xlink" viewBox="0 0 128 128">
  <defs>
    <style>
      .cls-1 {
        filter: url(#drop-shadow-7);
      }

      .cls-1, .cls-2 {
        fill: aqua;
      }

      .cls-3 {
        fill: #1b0049;
      }
    </style>
    <filter id="drop-shadow-7" filterUnits="userSpaceOnUse">
      <feOffset dx="-2.96" dy="2.96"/>
      <feGaussianBlur result="blur" stdDeviation="1.48"/>
      <feFlood flood-color="#1b0049" flood-opacity=".75"/>
      <feComposite in2="blur" operator="in"/>
      <feComposite in="SourceGraphic"/>
    </filter>
  </defs>
  <path class="cls-3" d="m27.47,116.47l1.82-4.95c11.1-30.17,30.83-47.48,54.13-47.48h.25s-12.73-28.16-12.73-28.16l8.01,6.55-3.5-16-19.57-16.05L11.67,4.21l-3.46,119.57,19.27-7.31Z"/>
  <polygon class="cls-1" points="75.45 26.44 58.2 25.43 55.88 10.39 75.45 26.44"/>
  <path class="cls-3" d="m86.8,93.95l1-5.14c-.81.47-1.6.98-2.37,1.52-2.63,1.86-5.06,4.17-7.27,6.9l8.64-3.28Z"/>
  <g>
    <path class="cls-2" d="m33.98,113.25c13.83-37.59,40.23-51.76,67.66-40.37l-.3,9.53,9.59-3.13-22.63-21.14,2.88,8.8-12.92-21.95,41.53,37.7-29.36,18.74,4-20.64c-4.2,1.02-8.19,2.82-11.91,5.46-9.52,6.72-16.81,18.78-20.84,34.79-8.57-4.75-18.62-7.45-27.71-7.79Z"/>
    <path class="cls-3" d="m33.3,113.71c.83-3.92,2.66-7.53,4.33-11.1,4.98-10.12,11.72-19.62,21.01-26.24,12.61-9.37,29.68-10.4,43.84-4.03,0,0-.02.56-.02.56,0,0-.3,9.53-.3,9.53,0,0-1.07-.8-1.07-.8l9.59-3.13-.3,1.38-22.63-21.13s1.34-.85,1.33-.86c.49,1.75,2.6,9.66,3.04,11.22,0,0-1.23-2-1.23-2,0,0-13.33-21.7-13.33-21.7,0,0-3-4.88-3-4.88l4.26,3.86,41.53,37.7s.79.72.79.72c0,0-.9.58-.9.58l-29.36,18.74s-1.61,1.03-1.61,1.03c0,0,.36-1.87.36-1.87,0,0,4-20.64,4-20.64l1,.95c-4.32,1.05-8.41,2.97-11.99,5.61-11.24,8.29-17.15,21.85-20.42,35.08-7.56-4.31-16.04-7.04-24.7-7.95-1.23-.13-3.03-.16-4.22-.62h0Zm1.36-.91c.51-.17.73-.32,1.19-.26,9.16.7,18.17,3.36,26.23,7.79,0,0-1.19.52-1.19.52,3.4-13.24,9.5-26.66,20.78-34.98,4.08-3.02,8.84-5.1,13.81-6.17,0,0-.24,1.25-.24,1.25l-4,20.64-1.24-.85,29.36-18.74-.11,1.3-41.53-37.7s1.26-1.03,1.26-1.02c0,0,12.5,22.19,12.5,22.19l-.61.27s-3.34-8.64-3.34-8.64c0,0-1.24-3.2-1.24-3.2,0,0,2.57,2.35,2.57,2.35,0,0,22.63,21.14,22.63,21.14,0,0,1.01.95,1.01.95-.54.19-10.05,3.27-10.91,3.56,0,0-1.11.36-1.11.36-.06-.07.37-10.17.34-10.7,0,0,.5.78.5.78-13.52-5.94-29.78-4.84-41.74,4.07-10.53,7.51-17.78,18.89-22.78,30.67-.48,1.26-1.35,3.24-2.14,4.42h0Z"/>
  </g>
</svg>