<?xml version="1.0" encoding="UTF-8"?>
<svg id="Layer_1" data-name="Layer 1" xmlns="http://www.w3.org/2000/svg" xmlns:xlink="http://www.w3.org/1999/xlink" viewBox="0 0 128 128">
  <defs>
    <style>
      .cls-1, .cls-2 {
        fill: #1b0049;
      }

      .cls-2 {
        filter: url(#outer-glow-7);
        stroke: aqua;
        stroke-miterlimit: 10;
        stroke-width: .46px;
      }

      .cls-3, .cls-4 {
        fill: aqua;
      }

      .cls-4 {
        filter: url(#drop-shadow-8);
      }
    </style>
    <filter id="outer-glow-7" filterUnits="userSpaceOnUse">
      <feOffset dx="0" dy="0"/>
      <feGaussianBlur result="blur" stdDeviation="9.29"/>
      <feFlood flood-color="aqua" flood-opacity=".75"/>
      <feComposite in2="blur" operator="in"/>
      <feComposite in="SourceGraphic"/>
    </filter>
    <filter id="drop-shadow-8" filterUnits="userSpaceOnUse">
      <feOffset dx="-2.96" dy="2.96"/>
      <feGaussianBlur result="blur-2" stdDeviation="1.48"/>
      <feFlood flood-color="#1b0049" flood-opacity=".75"/>
      <feComposite in2="blur-2" operator="in"/>
      <feComposite in="SourceGraphic"/>
    </filter>
  </defs>
  <polygon class="cls-2" points="34.23 269.39 93.77 269.39 103.87 177.19 114.98 177.14 109.23 165.9 86.13 165.85 83.64 154.61 44.36 154.61 41.87 165.85 18.77 165.9 13.02 177.14 24.13 177.19 34.23 269.39"/>
  <g>
    <path class="cls-1" d="m32.08,53.31c1.9,14.33,9.73,26.73,19.5,32.7l44.08-10.93-7.48,26.29,22.78-8.65-14.56-66.29-19.57-16.05-44.22-6.18-.53,49.09Z"/>
    <polygon class="cls-4" points="96.39 26.44 79.14 25.43 76.83 10.39 96.39 26.44"/>
    <path class="cls-1" d="m30.06,92.22l-.91,31.57,45.95-17.44-.3-1.33c-4.1,2.11-8.59,3.2-13.35,3.2h0c-10.56,0-21.79-5.6-30.81-15.37-.22-.23-.36-.39-.57-.62Z"/>
    <g>
      <path class="cls-3" d="m26.59,44.01l1.02-32.74h0c-5.42,5.91-9.23,14.59-10.32,25.6-3.97,49.74,41.36,84.56,64.27,56.11l-4.44-3.09,7.08-2.66-3.58,14.86-2.22-3.79,2.43,10.67,7.66-26.95-23.74,5.89,9.54,4.87c-2.38.99-4.81,1.62-7.27,1.89-18.04,2.02-36.57-15.73-39.88-40.61-.51-3.39-.68-6.77-.55-10.04Z"/>
      <path class="cls-1" d="m25.77,43.98l1.02-32.71s1.42.56,1.42.56c-14.95,16.76-12.07,46.34-1.93,64.93,8.54,16.55,30.08,33.76,48.46,21.47,0,0,1.71-1.24,1.71-1.24.51-.47,1.86-1.68,2.35-2.14.46-.51,1.65-1.86,2.12-2.38,0,0,.17,1.19.17,1.19-1-.7-4.82-3.35-5.72-3.98.94-.35,7.45-2.8,8.54-3.21,0,0,1.45-.54,1.45-.54l-.36,1.5c-.24,1.06-3.96,16.36-4.06,16.83,0,0-1.03-1.75-1.03-1.75,0,0-1.68-4.11-1.68-4.11,0,0,.36-.15.36-.14,0,0,3.04,10.53,3.04,10.53,0,0-1.59-.03-1.58-.05,0,0,7.66-26.95,7.66-26.95,0,0,.98,1.02.98,1.02,0,0-23.74,5.89-23.74,5.89l.17-1.52c1.02.52,10.36,5.29,11.11,5.67,0,0-1.63.68-1.63.68-13.15,5.8-28.05-1.07-36.49-11.66-8.68-10.51-12.75-24.36-12.33-37.88h0Zm1.64.06c-.41,13.11,3.55,26.61,11.96,36.78,8.03,10.07,22.14,16.69,34.6,11.19,0,0-.06,1.48-.06,1.48l-9.54-4.87-1.95-1c1.8-.45,25.2-6.25,27.24-6.75-.9,2.95-8.05,28.9-9.11,31.36-.34-1.93-1.97-11.75-2.35-13.9,0,0-.44-1.14-.44-1.14l.79,1s2.76,3.47,2.76,3.48c0,0-1.5.22-1.5.22l3.58-14.86,1.08.96-7.08,2.66.18-1.44c.39.28,4.9,3.4,5.2,3.62,0,0-.59.66-.59.66-.49.56-1.75,1.96-2.23,2.5-.51.48-1.94,1.77-2.49,2.26,0,0-1.82,1.32-1.82,1.32-7.45,5.32-17.47,5.55-25.74,2.06-22.03-9.69-33.47-34.85-33.65-57.96-.22-11.72,2.7-24.06,10.74-32.96,0,0,1.49-1.63,1.49-1.63,0,0-.07,2.19-.07,2.19,0,0-1.02,32.76-1.02,32.76h0Z"/>
    </g>
    <line class="cls-1" x1="76.83" y1="10.39" x2="32.61" y2="4.21"/>
  </g>
</svg>