<?xml version="1.0" encoding="UTF-8"?>
<svg id="Layer_1" data-name="Layer 1" xmlns="http://www.w3.org/2000/svg" xmlns:xlink="http://www.w3.org/1999/xlink" viewBox="0 0 128 128">
  <defs>
    <style>
      .cls-1, .cls-2 {
        fill: #1b0049;
      }

      .cls-3 {
        filter: url(#drop-shadow-4);
        stroke: #001c49;
        stroke-width: .5px;
      }

      .cls-3, .cls-4 {
        fill: aqua;
      }

      .cls-3, .cls-4, .cls-2 {
        stroke-miterlimit: 10;
      }

      .cls-4 {
        stroke: #1b0049;
      }

      .cls-2 {
        filter: url(#outer-glow-2);
        stroke: aqua;
        stroke-width: 1.64px;
      }
    </style>
    <filter id="outer-glow-2" filterUnits="userSpaceOnUse">
      <feOffset dx="0" dy="0"/>
      <feGaussianBlur result="blur" stdDeviation="8.18"/>
      <feFlood flood-color="aqua" flood-opacity=".75"/>
      <feComposite in2="blur" operator="in"/>
      <feComposite in="SourceGraphic"/>
    </filter>
    <filter id="drop-shadow-4" filterUnits="userSpaceOnUse">
      <feOffset dx="-2.96" dy="2.96"/>
      <feGaussianBlur result="blur-2" stdDeviation="1.48"/>
      <feFlood flood-color="#1b0049" flood-opacity=".75"/>
      <feComposite in2="blur-2" operator="in"/>
      <feComposite in="SourceGraphic"/>
    </filter>
  </defs>
  <path class="cls-2" d="m244,71.47c-8.43-.97-18.42.24-20.18,2l-9.37-10.19,23.19-35.68c2.36.8,4.97,2.51,8.16,5.03l1.38-3.25-14.19-10.14c-14.18-11.21-17.16-6.65-35.65,25.43l-21.82-23.72s-5.18,14.23-21.28,6.56c5.11,8.91,12.37,19.62,26.67,10.64l12.24,13.6c-21.65,35.3-26.3,42.25-41.4,31.73l-1.73,2.35,14.54,11.03c15.03,10.47,19.7,3.64,41.1-31.23l2.73,3.03-22.15,34.02,1.66,1.45,21.98-33.82,17.2,19.11s9.81-9.05,26.12-4.15c16.31,4.91,19.83,13.75,16.1,20.18-3.73,6.43-17.07,6.43-26.26,0l3.11,7.32s20.5,6.72,26.81-8.36c5.32-12.71-10.79-30.88-28.95-32.96Zm-34.05-13.07c13.15-22.81,18.5-31.85,25.48-31.27l-22.48,34.53-3-3.26Z"/>
  <g>
    <polygon class="cls-1" points="57.93 40.13 101.06 50.08 95.86 26.44 76.3 10.39 32.08 4.21 28.61 123.79 110.42 92.73 106.56 75.16 68.26 89.98 79.75 68.29 50.88 70.04 42.61 48.39 74.14 52.58 57.93 40.13"/>
    <polygon class="cls-4" points="82.77 73.27 88.34 62.76 54.24 64.83 50.28 54.45 92.89 60.12 92.09 62.64 90.24 68.45 100.73 62.01 75.35 47.51 110.73 58.24 125.14 62.61 113.17 67.25 87.06 77.35 78.95 80.49 82.77 73.27"/>
  </g>
  <polygon class="cls-3" points="95.86 26.44 78.61 25.43 76.3 10.39 95.86 26.44"/>
</svg>