<?xml version="1.0" encoding="UTF-8"?>
<svg id="Layer_1" data-name="Layer 1" xmlns="http://www.w3.org/2000/svg" xmlns:xlink="http://www.w3.org/1999/xlink" viewBox="0 0 128 128">
  <defs>
    <style>
      .cls-1, .cls-2 {
        fill: aqua;
      }

      .cls-2 {
        filter: url(#outer-glow-5);
        stroke: #1b0049;
        stroke-width: .97px;
      }

      .cls-2, .cls-3, .cls-4 {
        stroke-miterlimit: 10;
      }

      .cls-3 {
        stroke-width: 2.24px;
      }

      .cls-3, .cls-4 {
        fill: #1b0049;
        stroke: aqua;
      }

      .cls-4 {
        stroke-width: .42px;
      }
    </style>
    <filter id="outer-glow-5" filterUnits="userSpaceOnUse">
      <feOffset dx="0" dy="0"/>
      <feGaussianBlur result="blur" stdDeviation="4.85"/>
      <feFlood flood-color="aqua" flood-opacity=".75"/>
      <feComposite in2="blur" operator="in"/>
      <feComposite in="SourceGraphic"/>
    </filter>
  </defs>
  <g>
    <circle class="cls-3" cx="64" cy="64" r="58.22"/>
    <g>
      <polygon class="cls-1" points="65.12 8.31 64 16.19 62.88 8.31 65.12 8.31 65.12 8.31"/>
      <polygon class="cls-1" points="62.88 119.69 64 111.81 65.12 119.69 62.88 119.69 62.88 119.69"/>
      <polygon class="cls-1" points="37.13 15.21 40.1 22.6 35.19 16.33 37.13 15.21 37.13 15.21"/>
      <polygon class="cls-1" points="90.87 112.79 87.9 105.4 92.81 111.67 90.87 112.79 90.87 112.79"/>
    </g>
    <g>
      <polygon class="cls-1" points="16.33 35.19 22.6 40.1 15.21 37.13 16.33 35.19 16.33 35.19"/>
      <polygon class="cls-1" points="111.67 92.81 105.4 87.9 112.79 90.87 111.67 92.81 111.67 92.81"/>
      <polygon class="cls-1" points="8.31 62.88 16.19 64 8.31 65.12 8.31 62.88 8.31 62.88"/>
      <polygon class="cls-1" points="119.69 65.12 111.81 64 119.69 62.88 119.69 65.12 119.69 65.12"/>
    </g>
    <g>
      <polygon class="cls-1" points="112.79 37.13 105.4 40.1 111.67 35.19 112.79 37.13 112.79 37.13"/>
      <polygon class="cls-1" points="15.21 90.87 22.6 87.9 16.33 92.81 15.21 90.87 15.21 90.87"/>
      <polygon class="cls-1" points="92.81 16.33 87.9 22.6 90.87 15.21 92.81 16.33 92.81 16.33"/>
      <polygon class="cls-1" points="35.19 111.67 40.1 105.4 37.13 112.79 35.19 111.67 35.19 111.67"/>
    </g>
    <path class="cls-1" d="m62.67,62.73l14.96-13.77.34.89-6.65-.86-.6-.08.54-.28c1.74-.92,13.63-7.22,15.05-7.98,0,0-1.18,2.5-1.18,2.5-.3.64-6.66,14.08-6.72,14.22,0,0,.26-1.42.26-1.42l1.69-9.07-1.32,9.13-.36-.1,4.72-13.47s1.26,1.2,1.26,1.2l-13.24,5.34-.07-.36c.71.02,7.27.21,7.77.22,0,0-.72.86-.72.86l-13.07,15.58s-2.66-2.54-2.66-2.54h0Z"/>
    <path class="cls-1" d="m65.77,62.68l16.21,24.43-1.14.34.93-7.97.1-.84.34.77c1.49,3.33,8.79,19.7,10.11,22.67,0,0-3.76-3.24-3.76-3.24-.91-.78-16.31-14.07-16.72-14.42,0,0,1.92,1.07,1.92,1.07l10.62,5.92-10.83-5.52.24-.38,16.15,11.56-1.74,1.29-6.43-18.79.44-.07-.12,8.02-.03,1.68-1.11-1.34-18.73-22.55,3.54-2.63h0Z"/>
    <circle class="cls-4" cx="64" cy="64" r="3.34"/>
  </g>
  <path class="cls-2" d="m99.22,111.38l-1.46-7.36-7.03,10.54,20.21-3.24-3.5-4.03,11.86,5.42-37.27,7.68,19.82-35.82.95,15.51c2.48-3.52,4.55-7.19,6.18-10.95,12.03-27.6-.03-59.02-28.95-68-15.44-5.16-33.22-2.35-46.34,7.3-18.97,13.49-23.9,39.3-14.53,60.71,4.91,11.27,13.69,21.62,25.92,30.01l-.02.07c-13.58-4.27-25.65-13.28-33.38-25.26C-14.01,53.32,17.2,3.13,64.08,3.23c63.41,1.58,82.33,77.11,35.14,108.14Z"/>
</svg>