<?xml version="1.0" encoding="UTF-8"?>
<svg id="Layer_1" data-name="Layer 1" xmlns="http://www.w3.org/2000/svg" xmlns:xlink="http://www.w3.org/1999/xlink" viewBox="0 0 128 128">
  <defs>
    <style>
      .cls-1 {
        filter: url(#drop-shadow-7);
      }

      .cls-1, .cls-2 {
        fill: aqua;
      }

      .cls-3, .cls-4 {
        fill: #1b0049;
      }

      .cls-4 {
        stroke: aqua;
      }

      .cls-4, .cls-2 {
        stroke-miterlimit: 10;
        stroke-width: .8px;
      }

      .cls-2 {
        stroke: #1b0049;
      }
    </style>
    <filter id="drop-shadow-7" filterUnits="userSpaceOnUse">
      <feOffset dx="-2.96" dy="2.96"/>
      <feGaussianBlur result="blur" stdDeviation="1.48"/>
      <feFlood flood-color="#1b0049" flood-opacity=".75"/>
      <feComposite in2="blur" operator="in"/>
      <feComposite in="SourceGraphic"/>
    </filter>
  </defs>
  <g>
    <polygon class="cls-3" points="70.78 10.39 26.56 4.21 23.1 123.79 104.9 92.73 90.34 26.44 70.78 10.39"/>
    <polygon class="cls-1" points="90.34 26.44 73.09 25.43 70.78 10.39 90.34 26.44"/>
  </g>
  <g>
    <g>
      <path class="cls-2" d="m73.13,91.64l-39.64,12.58c-1.2.38-2.18,2.18-2.19,4.03h0c0,1.86.98,3.03,2.19,2.61l40-13.98c.78-.27,1.32-1.66,1.22-3.1h0c-.1-1.43-.81-2.39-1.58-2.14Z"/>
      <path class="cls-4" d="m49.37,102.23c.1,3.7-1.67,7.41-4,8.27-2.39.88-4.41-1.57-4.46-5.46-.05-3.83,1.85-7.48,4.18-8.18,2.28-.68,4.17,1.71,4.27,5.36Z"/>
    </g>
    <g>
      <path class="cls-2" d="m72.23,76.06l-38.63,8.59c-1.16.26-2.11,1.86-2.12,3.59h0c0,1.74.95,2.91,2.12,2.62l38.97-9.83c.76-.19,1.3-1.46,1.2-2.82h0c-.1-1.36-.79-2.31-1.54-2.14Z"/>
      <path class="cls-4" d="m68.86,79.37c.19,3.09-1.09,6.01-2.9,6.5s-3.51-1.72-3.67-4.94c-.16-3.18,1.21-6.04,3.03-6.41,1.78-.36,3.35,1.8,3.55,4.85Z"/>
    </g>
    <g>
      <path class="cls-2" d="m71.38,61.28l-37.68,5.03c-1.12.15-2.05,1.58-2.05,3.2h0c0,1.63.92,2.8,2.05,2.62l38-6.14c.75-.12,1.28-1.27,1.18-2.56h0c-.09-1.29-.77-2.24-1.51-2.15Z"/>
      <path class="cls-4" d="m57.33,65.72c.14,3.12-1.35,5.96-3.35,6.31-2.05.37-3.82-1.99-3.92-5.24-.1-3.21,1.49-5.98,3.5-6.22,1.97-.23,3.64,2.06,3.78,5.14Z"/>
    </g>
    <g>
      <path class="cls-2" d="m70.56,47.22l-36.78,1.86c-1.09.06-1.98,1.32-1.99,2.84h0c0,1.53.89,2.7,1.99,2.62l37.09-2.85c.74-.06,1.26-1.1,1.17-2.33h0c-.09-1.22-.75-2.18-1.48-2.14Z"/>
      <path class="cls-4" d="m61.12,50.06c.15,2.88-1.21,5.37-3.08,5.54-1.9.18-3.57-2.12-3.69-5.11-.12-2.96,1.34-5.38,3.21-5.45s3.41,2.17,3.56,5.02Z"/>
    </g>
  </g>
</svg>