<?xml version="1.0" encoding="UTF-8"?>
<svg id="Layer_1" data-name="Layer 1" xmlns="http://www.w3.org/2000/svg" xmlns:xlink="http://www.w3.org/1999/xlink" viewBox="0 0 128 128">
  <defs>
    <style>
      .cls-1 {
        fill: #1b0049;
        stroke: aqua;
        stroke-miterlimit: 10;
        stroke-width: .81px;
      }

      .cls-2 {
        filter: url(#outer-glow-11);
      }
    </style>
    <filter id="outer-glow-11" filterUnits="userSpaceOnUse">
      <feOffset dx="0" dy="0"/>
      <feGaussianBlur result="blur" stdDeviation="4"/>
      <feFlood flood-color="aqua" flood-opacity=".75"/>
      <feComposite in2="blur" operator="in"/>
      <feComposite in="SourceGraphic"/>
    </filter>
  </defs>
  <g class="cls-2">
    <path class="cls-1" d="m124.28,6.61L45.63,87.05c-.07-1.68-.77-2.89-2.23-3.45-5.17-1.99-17.25,4.86-27.6,15.5-4.6,4.73-8.25,9.6-10.29,13.73-2.36,4.77-2.39,8.28-.03,9.62.82.47,1.89.65,3.14.57,5.84-.38,15.77-6.46,24.75-15.62h0s0,0,0,0c5.56-5.46,11.47-11.45,16.85-16.94,10.01-10.32,20.35-21.16,30.08-31.67,8.01-8.54,15.78-17.16,23.67-25.77,3.92-4.32,7.62-8.68,11.08-13.08,3.43-4.4,6.66-8.82,9.23-13.3ZM12.8,114.94c-.74-.39-.57-1.82.45-3.92,1.35-2.76,4.01-6.28,7.32-9.68,5.7-5.84,11.9-9.85,14.53-10.18.35-.04.63-.02.85.07,1.69.71-.69,5.98-6.23,12.09l-3.1,3.17s0,0,0,0c-6.12,5.82-12.25,9.28-13.82,8.45Z"/>
    <path class="cls-1" d="m57.29,87.15c-.17.83-.34,1.65-.5,2.47-.96,5.05-1.99,10.66-2.71,15.82,0,0,0,0,0,0h0c-1.7,8.97,2.14,14.48,9.24,14.02,1.57-.1,3.3-.5,5.16-1.21,5.42-2.08,10.98-6.57,15.18-12.26,3.66-4.95,6.06-10.46,6.76-15.45,1.53-10.91-5.39-15.72-15.48-11.35-2.74,1.19-5.39,2.92-7.85,5.01l1.57-8.94c-3.66,3.85-7.46,7.81-11.38,11.86h0Zm4.59-20.53s10.13-10.37,10.13-10.37l6.71-38.14c-2.69,4.21-4.54,8.01-6.14,11.71-1.58,3.71-2.85,7.28-3.82,10.73-1.88,6.96-3.94,14.12-5.66,21.25-.41,1.59-.81,3.2-1.21,4.82h0Zm1.92,36.28s0,0,0,0l.55-3.13c1.61-6.05,6.09-11.89,9.38-13.29.42-.18.83-.29,1.24-.34,3.11-.39,5.71,2.87,4.8,8.78-.54,3.49-2.21,7.35-4.59,10.55-1.8,2.43-3.76,4.19-5.39,4.83-3.39,1.33-6.46-1.66-5.99-7.4Z"/>
  </g>
</svg>