<?xml version="1.0" encoding="UTF-8"?>
<svg id="Layer_1" data-name="Layer 1" xmlns="http://www.w3.org/2000/svg" xmlns:xlink="http://www.w3.org/1999/xlink" viewBox="0 0 128 128">
  <defs>
    <style>
      .cls-1, .cls-2 {
        fill: #1b0049;
      }

      .cls-3 {
        fill: aqua;
      }

      .cls-4 {
        filter: url(#outer-glow-10);
      }

      .cls-2 {
        stroke: aqua;
        stroke-miterlimit: 10;
        stroke-width: 2.94px;
      }
    </style>
    <filter id="outer-glow-10" filterUnits="userSpaceOnUse">
      <feOffset dx="0" dy="0"/>
      <feGaussianBlur result="blur" stdDeviation="6.47"/>
      <feFlood flood-color="aqua" flood-opacity=".75"/>
      <feComposite in2="blur" operator="in"/>
      <feComposite in="SourceGraphic"/>
    </filter>
  </defs>
  <g class="cls-4">
    <path class="cls-2" d="m115.19,64.61c13.99-13.45,10.83-30.95-4.28-39.91-13.95-8.28-35.57-7.67-50.71,1.71-13.73,8.51-19.35,22.26-13.41,33.98L3.86,90.93l16.55,18.17,42.98-34.79c16.95,6.58,38.87,2.73,51.8-9.71Zm-51.22-4.34c-10.34-8.2-8.05-21.16,3.54-28.78,10.64-6.99,26.29-7.51,36.22-1.35,10.51,6.52,11.95,18.8,1.84,27.79-11.12,9.9-30.55,11.11-41.61,2.34Z"/>
  </g>
  <g>
    <path class="cls-3" d="m67.2,106.35c-.26,1.54-1.05,2.87-2.35,4-1.3,1.14-2.72,1.7-4.26,1.7s-2.79-.57-3.75-1.7c-.97-1.13-1.32-2.47-1.05-4,.26-1.54,1.03-2.85,2.3-3.95,1.27-1.1,2.7-1.65,4.3-1.65s2.87.55,3.8,1.65c.93,1.1,1.27,2.42,1,3.95Z"/>
    <path class="cls-1" d="m57.79,106.35c-.13,1,.1,1.87.7,2.6.6.74,1.4,1.1,2.4,1.1s1.93-.36,2.8-1.1c.87-.73,1.37-1.6,1.5-2.6.13-1-.09-1.85-.65-2.55-.57-.7-1.38-1.05-2.45-1.05-1,0-1.94.35-2.8,1.05-.87.7-1.37,1.55-1.5,2.55Z"/>
    <path class="cls-3" d="m89.38,106.35c-.26,1.54-1.05,2.87-2.35,4-1.3,1.14-2.72,1.7-4.26,1.7s-2.79-.57-3.75-1.7c-.97-1.13-1.32-2.47-1.05-4,.26-1.54,1.03-2.85,2.3-3.95,1.27-1.1,2.7-1.65,4.3-1.65s2.87.55,3.8,1.65c.93,1.1,1.27,2.42,1,3.95Z"/>
    <path class="cls-1" d="m79.97,106.35c-.13,1,.1,1.87.7,2.6.6.74,1.4,1.1,2.4,1.1s1.93-.36,2.8-1.1c.87-.73,1.37-1.6,1.5-2.6.13-1-.09-1.85-.65-2.55-.57-.7-1.38-1.05-2.45-1.05-1,0-1.94.35-2.8,1.05-.87.7-1.37,1.55-1.5,2.55Z"/>
    <path class="cls-3" d="m111.56,106.35c-.26,1.54-1.05,2.87-2.35,4-1.3,1.14-2.72,1.7-4.26,1.7s-2.79-.57-3.75-1.7c-.97-1.13-1.32-2.47-1.05-4,.26-1.54,1.03-2.85,2.3-3.95,1.27-1.1,2.7-1.65,4.3-1.65s2.87.55,3.8,1.65c.93,1.1,1.27,2.42,1,3.95Z"/>
    <path class="cls-1" d="m102.15,106.35c-.13,1,.1,1.87.7,2.6.6.74,1.4,1.1,2.4,1.1s1.93-.36,2.8-1.1c.87-.73,1.37-1.6,1.5-2.6.13-1-.09-1.85-.65-2.55-.57-.7-1.38-1.05-2.45-1.05-1,0-1.94.35-2.8,1.05-.87.7-1.37,1.55-1.5,2.55Z"/>
  </g>
</svg>