<?xml version="1.0" encoding="UTF-8"?>
<svg id="Layer_1" data-name="Layer 1" xmlns="http://www.w3.org/2000/svg" xmlns:xlink="http://www.w3.org/1999/xlink" viewBox="0 0 128 128">
  <defs>
    <style>
      .cls-1 {
        filter: url(#drop-shadow-12);
      }

      .cls-1, .cls-2 {
        fill: #1b0049;
        stroke: aqua;
      }

      .cls-1, .cls-2, .cls-3 {
        stroke-miterlimit: 10;
        stroke-width: .5px;
      }

      .cls-4 {
        filter: url(#drop-shadow-13);
      }

      .cls-4, .cls-3 {
        fill: aqua;
      }

      .cls-3 {
        stroke: #1b0049;
      }
    </style>
    <filter id="drop-shadow-12" filterUnits="userSpaceOnUse">
      <feOffset dx="-5.07" dy="5.07"/>
      <feGaussianBlur result="blur" stdDeviation="2.54"/>
      <feFlood flood-color="#1b0049" flood-opacity=".75"/>
      <feComposite in2="blur" operator="in"/>
      <feComposite in="SourceGraphic"/>
    </filter>
    <filter id="drop-shadow-13" filterUnits="userSpaceOnUse">
      <feOffset dx="-5.07" dy="5.07"/>
      <feGaussianBlur result="blur-2" stdDeviation="2.54"/>
      <feFlood flood-color="#1b0049" flood-opacity=".75"/>
      <feComposite in2="blur-2" operator="in"/>
      <feComposite in="SourceGraphic"/>
    </filter>
  </defs>
  <path class="cls-3" d="m103.05,96.93l-58.52,21.69c-5.15,1.91-9.36-.57-9.15-5.47l3.83-87.1c.1-2.21,2.97-3.52,6.31-2.99l43.08,6.89c1.87.3,3.65,1.85,4.03,3.49l13.23,56.87c.65,2.8-.57,5.78-2.81,6.61Z"/>
  <path class="cls-2" d="m78.08,26.9l-4.32-.84c.5-.61.73-1.42.61-2.36-.31-2.38-2.8-4.81-5.67-5.49s-5.31.7-5.11,3.22c.08,1,.55,2.01,1.28,2.91l-5.14-1c-2.49-.48-4.5.73-4.42,2.76l.73,7.39,27.14,3.59-1.25-6.8c-.28-1.75-1.94-3.01-3.85-3.38Zm-8.69-2.23c-1.38-.27-2.6-1.44-2.71-2.59s.92-1.8,2.28-1.5,2.5,1.42,2.63,2.53-.84,1.82-2.2,1.56Z"/>
  <g>
    <polygon class="cls-1" points="83.52 30.72 50.22 26.07 47.61 116.13 109.23 92.74 98.26 42.81 83.52 30.72"/>
    <polygon class="cls-4" points="98.26 42.81 85.26 42.05 83.52 30.72 98.26 42.81"/>
  </g>
  <path class="cls-2" d="m80.63,25.97l-4.13-.8c.63-.59,1.04-1.36,1.12-2.27.21-2.28-1.76-4.61-4.48-5.27s-5.47.67-5.81,3.09c-.14.96.12,1.93.65,2.79l-4.93-.96c-2.38-.46-4.66.7-5.02,2.65l-.87,7.09,26.36,3.44.22-6.53c.1-1.68-1.29-2.89-3.12-3.24Zm-8.21-2.14c-1.32-.26-2.29-1.38-2.15-2.48s1.31-1.73,2.6-1.44,2.19,1.37,2.08,2.43-1.24,1.75-2.53,1.49Z"/>
</svg>