<?xml version="1.0" encoding="UTF-8"?>
<svg id="Layer_1" data-name="Layer 1" xmlns="http://www.w3.org/2000/svg" xmlns:xlink="http://www.w3.org/1999/xlink" viewBox="0 0 128 128">
  <defs>
    <style>
      .cls-1 {
        fill: #1b0049;
        filter: url(#outer-glow-7);
        stroke-width: .46px;
      }

      .cls-1, .cls-2, .cls-3, .cls-4 {
        stroke: aqua;
        stroke-miterlimit: 10;
      }

      .cls-2 {
        fill: url(#linear-gradient-2);
      }

      .cls-2, .cls-3, .cls-4 {
        stroke-width: .93px;
      }

      .cls-3 {
        fill: url(#linear-gradient-3);
      }

      .cls-4 {
        fill: url(#linear-gradient);
      }
    </style>
    <filter id="outer-glow-7" filterUnits="userSpaceOnUse">
      <feOffset dx="0" dy="0"/>
      <feGaussianBlur result="blur" stdDeviation="9.29"/>
      <feFlood flood-color="aqua" flood-opacity=".75"/>
      <feComposite in2="blur" operator="in"/>
      <feComposite in="SourceGraphic"/>
    </filter>
    <linearGradient id="linear-gradient" x1="64" y1="17.9" x2="64" y2="29.14" gradientUnits="userSpaceOnUse">
      <stop offset="0" stop-color="#410f96"/>
      <stop offset=".73" stop-color="#1b0049"/>
    </linearGradient>
    <linearGradient id="linear-gradient-2" x1="64" y1="6.61" x2="64" y2="17.85" xlink:href="#linear-gradient"/>
    <linearGradient id="linear-gradient-3" x1="64" y1="29.19" x2="64" y2="121.39" gradientUnits="userSpaceOnUse">
      <stop offset="0" stop-color="#000"/>
      <stop offset=".12" stop-color="#1b0049"/>
    </linearGradient>
  </defs>
  <polygon class="cls-1" points="34.23 121.39 93.77 121.39 103.87 29.19 114.98 29.14 109.23 17.9 86.13 17.85 83.64 6.61 44.36 6.61 41.87 17.85 18.77 17.9 13.02 29.14 24.13 29.19 34.23 121.39"/>
  <g>
    <polygon class="cls-4" points="114.98 29.14 13.02 29.14 18.77 17.9 109.23 17.9 114.98 29.14"/>
    <polygon class="cls-2" points="86.13 17.85 41.87 17.85 44.36 6.61 83.64 6.61 86.13 17.85"/>
    <polygon class="cls-3" points="103.87 29.19 93.77 121.39 34.23 121.39 24.13 29.19 103.87 29.19"/>
  </g>
</svg>