<?xml version="1.0" encoding="UTF-8"?>
<svg id="Layer_1" data-name="Layer 1" xmlns="http://www.w3.org/2000/svg" xmlns:xlink="http://www.w3.org/1999/xlink" viewBox="0 0 128 128">
  <defs>
    <style>
      .cls-1 {
        fill: #868795;
      }

      .cls-2 {
        filter: url(#outer-glow-7);
        stroke-width: .46px;
      }

      .cls-2, .cls-3 {
        fill: #1b0049;
        stroke: aqua;
        stroke-miterlimit: 10;
      }

      .cls-4 {
        fill: aqua;
      }

      .cls-5 {
        opacity: .2;
      }

      .cls-3 {
        stroke-width: 2px;
      }

      .cls-6 {
        fill: #dff2fc;
      }
    </style>
    <filter id="outer-glow-7" filterUnits="userSpaceOnUse">
      <feOffset dx="0" dy="0"/>
      <feGaussianBlur result="blur" stdDeviation="9.29"/>
      <feFlood flood-color="aqua" flood-opacity=".75"/>
      <feComposite in2="blur" operator="in"/>
      <feComposite in="SourceGraphic"/>
    </filter>
  </defs>
  <polygon class="cls-2" points="34.23 -26.61 93.77 -26.61 103.87 -118.81 114.98 -118.86 109.23 -130.1 86.13 -130.15 83.64 -141.39 44.36 -141.39 41.87 -130.15 18.77 -130.1 13.02 -118.86 24.13 -118.81 34.23 -26.61"/>
  <g>
    <g class="cls-5">
      <g>
        <path class="cls-3" d="m61.37,31.58l-11.28-11.25L11.25,12.81l-8.29,4.01,6.36,69.58,3.41-.09s-1.59-63.39-1.82-63.84"/>
        <polygon class="cls-1" points="10.35 86.87 10.17 24 52.06 33.85 60.89 31.12 9.63 20.33 10.35 86.87"/>
        <polygon class="cls-4" points="10.35 86.87 10.97 24.34 52.06 33.85 60.89 31.12 6.46 19.25 10.35 86.87"/>
      </g>
      <polygon class="cls-3" points="31.54 85.11 27.62 42.15 40.52 35.91 82.49 44.04 93.43 54.94 97.09 39.91 64.68 30.87 52.07 34.75 11.77 25.3 10.32 86.39 31.54 85.11"/>
    </g>
    <g>
      <polyline class="cls-3" points="90.33 59.9 79.04 48.66 40.2 41.13 31.91 45.14 38.27 114.72"/>
      <polyline class="cls-6" points="93.33 58.52 92.63 59.19 80.02 63.08 39.72 53.63 38.27 114.72"/>
      <polygon class="cls-1" points="38.3 115.19 38.13 52.33 80.01 62.17 88.84 59.45 37.58 48.66 38.3 115.19"/>
      <polygon class="cls-4" points="38.3 115.19 38.93 52.66 80.01 62.17 88.84 59.45 34.41 47.57 38.3 115.19"/>
      <polygon class="cls-3" points="114.85 110.1 38.27 114.72 39.72 53.63 80.02 63.08 92.63 59.19 125.04 68.23 114.85 110.1"/>
    </g>
  </g>
</svg>