<?xml version="1.0" encoding="UTF-8"?>
<svg id="Layer_1" data-name="Layer 1" xmlns="http://www.w3.org/2000/svg" viewBox="0 0 128 128">
  <defs>
    <style>
      .cls-1, .cls-2 {
        fill: aqua;
      }

      .cls-2 {
        stroke: #1b0049;
      }

      .cls-2, .cls-3 {
        stroke-miterlimit: 10;
      }

      .cls-3 {
        fill: #1b0049;
        stroke: aqua;
        stroke-width: 2.5px;
      }
    </style>
  </defs>
  <g>
    <line class="cls-3" x1="12.51" y1="101.73" x2="13.28" y2="110.12"/>
    <polyline class="cls-3" points="78.95 40.96 64.71 26.77 15.71 17.28 5.25 22.34 10.39 78.54 13.63 78.66 14.1 31.83"/>
    <polygon class="cls-1" points="13.63 78.66 14.1 31.83 65.93 43.82 77.08 40.39 8.4 25.41 11.46 78.58 13.63 78.66"/>
    <polygon class="cls-1" points="12.8 101.72 13.31 110.72 13.4 101.7 12.8 101.72"/>
  </g>
  <polygon class="cls-3" points="52.41 107.76 52.16 101.07 79.87 102.1 79.87 78.25 52.16 79.28 53.19 51.57 29.34 51.57 30.37 79.28 14.02 78.67 15.1 33.05 65.95 44.97 81.86 40.07 122.75 51.47 109.89 104.29 52.41 107.76"/>
  <polygon class="cls-3" points="30.37 101.07 30.07 109.11 13.28 110.12 13.47 101.7 30.37 101.07"/>
  <polygon class="cls-2" points="7.65 96.91 35.56 95.88 34.53 123.79 48 123.79 46.96 95.88 74.87 96.91 74.87 83.44 46.96 84.48 48 56.57 34.53 56.57 35.56 84.48 7.65 83.44 7.65 96.91"/>
</svg>