<?xml version="1.0" encoding="UTF-8"?>
<svg id="Layer_1" data-name="Layer 1" xmlns="http://www.w3.org/2000/svg" xmlns:xlink="http://www.w3.org/1999/xlink" viewBox="0 0 128 128">
  <defs>
    <style>
      .cls-1 {
        fill: aqua;
      }

      .cls-2 {
        fill: #1b0049;
        stroke: #1b0049;
        stroke-miterlimit: 10;
        stroke-width: 6px;
      }
    </style>
    <filter id="outer-glow-14" filterUnits="userSpaceOnUse">
      <feOffset dx="0" dy="0"/>
      <feGaussianBlur result="blur" stdDeviation="8.3"/>
      <feFlood flood-color="aqua" flood-opacity=".75"/>
      <feComposite in2="blur" operator="in"/>
      <feComposite in="SourceGraphic"/>
    </filter>
  </defs>
  <path class="cls-2" d="m85.03,14.88v5.9c-3.58-2.26-7.37-4-11.36-5.19-4-1.19-8.14-1.79-12.44-1.79-5.85,0-11.45,1.1-16.82,3.31-5.37,2.21-10.14,5.4-14.31,9.57-8.59,8.59-12.88,18.97-12.88,31.13s4.29,22.55,12.88,31.13c4.17,4.06,8.95,7.22,14.31,9.48,5.37,2.27,10.97,3.4,16.82,3.4,4.29,0,8.44-.6,12.44-1.79,4-1.19,7.78-2.92,11.36-5.19v5.91h20.22V14.88h-20.22Zm0,75.51c-7.16,5.13-15.09,7.69-23.8,7.69-5.85,0-10.38-1.46-13.6-4.38-3.22-2.92-5.46-6.56-6.71-10.92-1.25-4.35-2-8.8-2.24-13.33-.24-4.53-.36-8.41-.36-11.63,0-2.62.06-5.66.18-9.12.12-3.46.51-7.01,1.16-10.65.65-3.64,1.76-7.01,3.31-10.11,1.55-3.1,3.79-5.61,6.71-7.51,2.92-1.91,6.77-2.86,11.54-2.86,8.71,0,16.64,2.57,23.8,7.69v65.13Z"/>
  <path class="cls-1" d="m32.07,29.2c-3.82,3.82-6.74,8.2-8.77,13.15-2.03,4.95-3.04,10.11-3.04,15.48s1.01,10.53,3.04,15.48c2.03,4.95,4.95,9.33,8.77,13.15,3.1,3.1,6.56,5.61,10.38,7.51-3.22-3.82-5.43-8.59-6.62-14.31-1.19-5.73-1.73-13-1.61-21.83-.12-9.18.45-16.61,1.7-22.28,1.25-5.67,3.37-10.29,6.35-13.87-3.7,1.91-7.1,4.41-10.2,7.51Z"/>
  <rect class="cls-1" x="88.08" y="18.46" width="13.06" height="78.73"/>
  <rect x="105.25" width="22.75" height="14.88"/>
</svg>