<?xml version="1.0" encoding="UTF-8"?>
<svg id="Layer_1" data-name="Layer 1" xmlns="http://www.w3.org/2000/svg" xmlns:xlink="http://www.w3.org/1999/xlink" viewBox="0 0 128 128">
  <defs>
    <style>
      .cls-1 {
        fill: #1b0049;
        filter: url(#outer-glow-25);
        stroke-width: 2.8px;
      }

      .cls-1, .cls-2, .cls-3, .cls-4 {
        stroke-miterlimit: 10;
      }

      .cls-1, .cls-2, .cls-4 {
        stroke: aqua;
      }

      .cls-2, .cls-3 {
        fill: aqua;
      }

      .cls-2, .cls-4 {
        stroke-width: 1.04px;
      }

      .cls-5 {
        filter: url(#outer-glow-14);
      }

      .cls-3 {
        filter: url(#outer-glow-13);
        stroke: #1b0049;
      }

      .cls-4 {
        fill: #001c49;
      }
    </style>
    <filter id="outer-glow-13" filterUnits="userSpaceOnUse">
      <feOffset dx="0" dy="0"/>
      <feGaussianBlur result="blur" stdDeviation="4"/>
      <feFlood flood-color="#1b0049" flood-opacity=".75"/>
      <feComposite in2="blur" operator="in"/>
      <feComposite in="SourceGraphic"/>
    </filter>
    <filter id="outer-glow-14" filterUnits="userSpaceOnUse">
      <feOffset dx="0" dy="0"/>
      <feGaussianBlur result="blur-2" stdDeviation="8.3"/>
      <feFlood flood-color="aqua" flood-opacity=".75"/>
      <feComposite in2="blur-2" operator="in"/>
      <feComposite in="SourceGraphic"/>
    </filter>
    <filter id="outer-glow-25" filterUnits="userSpaceOnUse">
      <feOffset dx="0" dy="0"/>
      <feGaussianBlur result="blur-3" stdDeviation="14"/>
      <feFlood flood-color="aqua" flood-opacity=".75"/>
      <feComposite in2="blur-3" operator="in"/>
      <feComposite in="SourceGraphic"/>
    </filter>
  </defs>
  <g>
    <polygon class="cls-3" points="90.45 105.36 84.89 94.85 118.98 96.92 122.95 86.54 80.33 92.21 81.14 94.74 82.99 100.54 72.49 94.1 97.88 79.6 62.49 90.33 48.08 94.7 60.06 99.34 86.17 109.44 94.28 112.58 90.45 105.36"/>
    <g class="cls-5">
      <g>
        <polygon class="cls-2" points="19.67 99.72 5.05 108.02 14.22 93.93 19.67 99.72"/>
        <polygon class="cls-4" points="121.16 15.56 50.08 82.47 19.67 99.72 14.22 93.93 33.28 64.61 85.54 15.42 121.16 15.56"/>
      </g>
    </g>
  </g>
  <polygon class="cls-1" points="201.78 212.02 265.81 155.77 180.28 198.17 180.28 156.95 152.32 156.95 152.32 267.1 180.28 267.1 180.28 225.88 265.81 268.27 201.78 212.02"/>
</svg>