<?xml version="1.0" encoding="UTF-8"?>
<svg id="Layer_1" data-name="Layer 1" xmlns="http://www.w3.org/2000/svg" viewBox="0 0 128 128">
  <defs>
    <style>
      .cls-1 {
        fill: #1b0049;
        stroke: aqua;
        stroke-width: .21px;
      }

      .cls-1, .cls-2 {
        stroke-miterlimit: 10;
      }

      .cls-2 {
        fill: aqua;
        stroke: #1b0049;
        stroke-width: .89px;
      }
    </style>
  </defs>
  <polygon class="cls-2" points="39 100.38 46.46 120.82 8.18 100.25 49.63 78.74 32.19 99.06 34.3 93.79 28.75 99.76 39.44 109.05 39 100.38"/>
  <polygon class="cls-2" points="89 100.38 81.54 120.82 119.82 100.25 78.37 78.74 95.81 99.06 93.7 93.79 99.25 99.76 88.56 109.05 89 100.38"/>
  <rect class="cls-1" x="8.18" y="7.18" width="111.64" height="9.77" rx="1.55" ry="1.55"/>
  <rect class="cls-1" x="8.18" y="21.18" width="111.64" height="9.77" rx="1.55" ry="1.55"/>
  <rect class="cls-1" x="8.18" y="35.37" width="111.64" height="9.77" rx="1.55" ry="1.55"/>
  <rect class="cls-1" x="8.18" y="49.37" width="111.64" height="9.77" rx="1.55" ry="1.55"/>
  <rect class="cls-1" x="8.18" y="63.07" width="111.64" height="9.77" rx="1.55" ry="1.55"/>
</svg>