<?xml version="1.0" encoding="UTF-8"?>
<svg id="Layer_1" data-name="Layer 1" xmlns="http://www.w3.org/2000/svg" viewBox="0 0 128 128">
  <defs>
    <style>
      .cls-1 {
        stroke-width: .21px;
      }

      .cls-1, .cls-2, .cls-3 {
        stroke-miterlimit: 10;
      }

      .cls-1, .cls-3 {
        fill: #1b0049;
        stroke: aqua;
      }

      .cls-2 {
        fill: aqua;
        stroke: #1b0049;
      }

      .cls-3 {
        stroke-width: .24px;
      }
    </style>
  </defs>
  <polygon class="cls-2" points="75.62 110.91 81.18 100.4 47.09 102.47 43.12 92.1 85.74 97.76 84.93 100.29 83.08 106.09 93.58 99.66 68.19 85.16 103.58 95.89 117.99 100.26 106.01 104.89 79.9 114.99 71.79 118.13 75.62 110.91"/>
  <path class="cls-1" d="m46.14,19.71h70.49c.75,0,1.36-.83,1.36-1.84v-6.15c0-1.02-.61-1.84-1.36-1.84H39.71c-1.33,0-1.87,2.31-.78,3.35l6.43,6.15c.23.22.5.34.78.34Z"/>
  <path class="cls-3" d="m20.57,33.67h95.57c1.02,0,1.84-.83,1.84-1.84v-6.15c0-1.02-.83-1.84-1.84-1.84H11.86c-1.8,0-2.53,2.31-1.06,3.35l8.71,6.15c.31.22.68.34,1.06.34Z"/>
  <path class="cls-3" d="m72.76,47.64h43.38c1.02,0,1.84-.83,1.84-1.84v-6.15c0-1.02-.83-1.84-1.84-1.84h-52.1c-1.8,0-2.53,2.31-1.06,3.35l8.71,6.15c.31.22.68.34,1.06.34Z"/>
  <path class="cls-3" d="m28.67,61.6h87.48c1.02,0,1.84-.83,1.84-1.84v-6.15c0-1.02-.83-1.84-1.84-1.84H19.95c-1.8,0-2.53,2.31-1.06,3.35l8.71,6.15c.31.22.68.34,1.06.34Z"/>
  <path class="cls-3" d="m56.14,75.57h60c1.02,0,1.84-.83,1.84-1.84v-6.15c0-1.02-.83-1.84-1.84-1.84H47.43c-1.8,0-2.53,2.31-1.06,3.35l8.71,6.15c.31.22.68.34,1.06.34Z"/>
</svg>