<?xml version="1.0" encoding="UTF-8"?>
<svg id="Layer_1" data-name="Layer 1" xmlns="http://www.w3.org/2000/svg" viewBox="0 0 128 128">
  <defs>
    <style>
      .cls-1 {
        stroke-width: .21px;
      }

      .cls-1, .cls-2, .cls-3 {
        stroke-miterlimit: 10;
      }

      .cls-1, .cls-3 {
        fill: #1b0049;
        stroke: aqua;
      }

      .cls-2 {
        fill: aqua;
        stroke: #1b0049;
      }

      .cls-3 {
        stroke-width: .24px;
      }
    </style>
  </defs>
  <polygon class="cls-2" points="52.38 110.91 46.82 100.4 80.91 102.47 84.88 92.1 42.26 97.76 43.07 100.29 44.92 106.09 34.42 99.66 59.81 85.16 24.42 95.89 10.01 100.26 21.99 104.89 48.1 114.99 56.21 118.13 52.38 110.91"/>
  <path class="cls-1" d="m81.86,19.71H11.37c-.75,0-1.36-.83-1.36-1.84v-6.15c0-1.02.61-1.84,1.36-1.84h76.91c1.33,0,1.87,2.31.78,3.35l-6.43,6.15c-.23.22-.5.34-.78.34Z"/>
  <path class="cls-3" d="m107.43,33.67H11.86c-1.02,0-1.84-.83-1.84-1.84v-6.15c0-1.02.83-1.84,1.84-1.84h104.28c1.8,0,2.53,2.31,1.06,3.35l-8.71,6.15c-.31.22-.68.34-1.06.34Z"/>
  <path class="cls-3" d="m55.24,47.64H11.86c-1.02,0-1.84-.83-1.84-1.84v-6.15c0-1.02.83-1.84,1.84-1.84h52.1c1.8,0,2.53,2.31,1.06,3.35l-8.71,6.15c-.31.22-.68.34-1.06.34Z"/>
  <path class="cls-3" d="m99.33,61.6H11.86c-1.02,0-1.84-.83-1.84-1.84v-6.15c0-1.02.83-1.84,1.84-1.84h96.19c1.8,0,2.53,2.31,1.06,3.35l-8.71,6.15c-.31.22-.68.34-1.06.34Z"/>
  <path class="cls-3" d="m71.86,75.57H11.86c-1.02,0-1.84-.83-1.84-1.84v-6.15c0-1.02.83-1.84,1.84-1.84h68.72c1.8,0,2.53,2.31,1.06,3.35l-8.71,6.15c-.31.22-.68.34-1.06.34Z"/>
</svg>