<?xml version="1.0" encoding="UTF-8"?>
<svg id="Layer_1" data-name="Layer 1" xmlns="http://www.w3.org/2000/svg" xmlns:xlink="http://www.w3.org/1999/xlink" viewBox="0 0 128 128">
  <defs>
    <style>
      .cls-1 {
        stroke-width: .21px;
      }

      .cls-1, .cls-2, .cls-3 {
        stroke-miterlimit: 10;
      }

      .cls-1, .cls-3 {
        fill: #1b0049;
        stroke: aqua;
      }

      .cls-2 {
        fill: aqua;
        filter: url(#outer-glow-13);
        stroke: #1b0049;
        stroke-width: .23px;
      }

      .cls-3 {
        stroke-width: .24px;
      }
    </style>
    <filter id="outer-glow-13" filterUnits="userSpaceOnUse">
      <feOffset dx="0" dy="0"/>
      <feGaussianBlur result="blur" stdDeviation="4.65"/>
      <feFlood flood-color="#1b0049" flood-opacity=".75"/>
      <feComposite in2="blur" operator="in"/>
      <feComposite in="SourceGraphic"/>
    </filter>
  </defs>
  <g>
    <path class="cls-3" d="m111.47,20.04H15.9c-1.02,0-1.84-.83-1.84-1.84v-6.15c0-1.02.83-1.84,1.84-1.84h104.28c1.8,0,2.53,2.31,1.06,3.35l-8.71,6.15c-.31.22-.68.34-1.06.34Z"/>
    <path class="cls-1" d="m114.24,34.01H43.75c-.75,0-1.36-.83-1.36-1.84v-6.15c0-1.02.61-1.84,1.36-1.84h76.91c1.33,0,1.87,2.31.78,3.35l-6.43,6.15c-.23.22-.5.34-.78.34Z"/>
    <path class="cls-1" d="m114.24,47.97H43.75c-.75,0-1.36-.83-1.36-1.84v-6.15c0-1.02.61-1.84,1.36-1.84h76.91c1.33,0,1.87,2.31.78,3.35l-6.43,6.15c-.23.22-.5.34-.78.34Z"/>
    <path class="cls-1" d="m114.24,61.94H43.75c-.75,0-1.36-.83-1.36-1.84v-6.15c0-1.02.61-1.84,1.36-1.84h76.91c1.33,0,1.87,2.31.78,3.35l-6.43,6.15c-.23.22-.5.34-.78.34Z"/>
    <path class="cls-3" d="m111.47,75.9H15.9c-1.02,0-1.84-.83-1.84-1.84v-6.15c0-1.02.83-1.84,1.84-1.84h104.28c1.8,0,2.53,2.31,1.06,3.35l-8.71,6.15c-.31.22-.68.34-1.06.34Z"/>
    <path class="cls-3" d="m111.47,89.87H15.9c-1.02,0-1.84-.83-1.84-1.84v-6.15c0-1.02.83-1.84,1.84-1.84h104.28c1.8,0,2.53,2.31,1.06,3.35l-8.71,6.15c-.31.22-.68.34-1.06.34Z"/>
    <path class="cls-3" d="m111.47,103.83H15.9c-1.02,0-1.84-.83-1.84-1.84v-6.15c0-1.02.83-1.84,1.84-1.84h104.28c1.8,0,2.53,2.31,1.06,3.35l-8.71,6.15c-.31.22-.68.34-1.06.34Z"/>
    <path class="cls-3" d="m111.47,117.8H15.9c-1.02,0-1.84-.83-1.84-1.84v-6.15c0-1.02.83-1.84,1.84-1.84h104.28c1.8,0,2.53,2.31,1.06,3.35l-8.71,6.15c-.31.22-.68.34-1.06.34Z"/>
  </g>
  <polygon class="cls-2" points="35.59 64.94 21.77 43.05 35.59 21.17 5.97 43.05 35.59 64.94"/>
</svg>