<?xml version="1.0" encoding="UTF-8"?>
<svg id="Layer_1" data-name="Layer 1" xmlns="http://www.w3.org/2000/svg" viewBox="0 0 128 128">
  <defs>
    <style>
      .cls-1 {
        fill: #1b0049;
      }

      .cls-2 {
        fill: aqua;
      }
    </style>
  </defs>
  <path class="cls-1" d="m91.53,14.88l-.89,5.9c-6.68-4.65-14.26-6.98-22.72-6.98-5.85,0-11.63,1.1-17.36,3.31-5.73,2.21-11.04,5.4-15.92,9.57-10.02,8.71-15.93,19.09-17.71,31.13-2.03,12.05.6,22.43,7.87,31.13,7.27,8.59,17,12.88,29.17,12.88,4.29,0,8.53-.6,12.7-1.79,4.17-1.19,8.23-2.92,12.17-5.19l-.89,5.91h20.22l13.6-85.89h-20.22Zm-11.99,75.51c-7.87,5.13-16.22,7.69-25.05,7.69-4.77,0-8.47-.95-11.09-2.86-2.63-1.91-4.47-4.41-5.55-7.52-1.07-3.1-1.64-6.47-1.7-10.11-.06-3.64.12-7.19.54-10.65.42-3.46.86-6.5,1.34-9.13.48-3.22,1.19-7.1,2.15-11.63.95-4.53,2.42-8.97,4.38-13.33,1.97-4.35,4.77-7.99,8.41-10.92,3.64-2.92,8.38-4.38,14.23-4.38,8.71,0,16.28,2.57,22.72,7.69l-10.38,65.13Z"/>
  <path class="cls-2" d="m36.78,29.2c-9.19,7.87-14.61,17.42-16.28,28.63-1.91,11.21.47,20.76,7.16,28.63,2.74,3.1,5.84,5.61,9.3,7.51-2.63-3.82-4.09-8.59-4.38-14.31-.3-5.73.33-13,1.88-21.83,1.31-9.18,3.01-16.61,5.1-22.28,2.09-5.67,4.98-10.29,8.68-13.87-3.94,1.91-7.76,4.41-11.45,7.51Z"/>
  <polygon class="cls-2" points="94.57 18.46 82.05 97.19 95.11 97.19 107.63 18.46 94.57 18.46"/>
</svg>