<?xml version="1.0" encoding="UTF-8"?>
<svg id="Layer_1" data-name="Layer 1" xmlns="http://www.w3.org/2000/svg" xmlns:xlink="http://www.w3.org/1999/xlink" viewBox="0 0 128 128">
  <defs>
    <style>
      .cls-1 {
        filter: url(#outer-glow-25);
        stroke-width: 2.8px;
      }

      .cls-1, .cls-2, .cls-3 {
        fill: #1b0049;
        stroke: aqua;
        stroke-miterlimit: 10;
      }

      .cls-2 {
        filter: url(#outer-glow-14);
      }

      .cls-3 {
        filter: url(#outer-glow-15);
      }
    </style>
    <filter id="outer-glow-14" filterUnits="userSpaceOnUse">
      <feOffset dx="0" dy="0"/>
      <feGaussianBlur result="blur" stdDeviation="7"/>
      <feFlood flood-color="aqua" flood-opacity=".75"/>
      <feComposite in2="blur" operator="in"/>
      <feComposite in="SourceGraphic"/>
    </filter>
    <filter id="outer-glow-15" filterUnits="userSpaceOnUse">
      <feOffset dx="0" dy="0"/>
      <feGaussianBlur result="blur-2" stdDeviation="7"/>
      <feFlood flood-color="aqua" flood-opacity=".75"/>
      <feComposite in2="blur-2" operator="in"/>
      <feComposite in="SourceGraphic"/>
    </filter>
    <filter id="outer-glow-25" filterUnits="userSpaceOnUse">
      <feOffset dx="0" dy="0"/>
      <feGaussianBlur result="blur-3" stdDeviation="14"/>
      <feFlood flood-color="aqua" flood-opacity=".75"/>
      <feComposite in2="blur-3" operator="in"/>
      <feComposite in="SourceGraphic"/>
    </filter>
  </defs>
  <g>
    <polygon class="cls-2" points="95.9 65.49 114.49 116.39 19.17 65.17 122.37 11.61 78.95 62.19 84.2 49.08 70.4 63.93 97.01 87.07 95.9 65.49"/>
    <path class="cls-3" d="m5.63,5.16v117.67c0,.99,1.16,1.52,1.91.87l5.52-4.76c1.77-1.52,2.78-3.74,2.78-6.07V15.11c0-2.33-1.02-4.54-2.78-6.07l-5.52-4.76c-.75-.64-1.91-.11-1.91.87Z"/>
  </g>
  <polygon class="cls-1" points="201.78 64 265.81 7.75 180.28 50.14 180.28 8.92 152.32 8.92 152.32 119.08 180.28 119.08 180.28 77.86 265.81 120.25 201.78 64"/>
</svg>