<?xml version="1.0" encoding="UTF-8"?>
<svg id="Layer_1" data-name="Layer 1" xmlns="http://www.w3.org/2000/svg" xmlns:xlink="http://www.w3.org/1999/xlink" viewBox="0 0 128 128">
  <defs>
    <style>
      .cls-1 {
        filter: url(#outer-glow-25);
        stroke-width: 2.8px;
      }

      .cls-1, .cls-2, .cls-3 {
        fill: #1b0049;
        stroke: aqua;
        stroke-miterlimit: 10;
      }

      .cls-2 {
        filter: url(#outer-glow-19);
      }

      .cls-3 {
        filter: url(#outer-glow-18);
      }
    </style>
    <filter id="outer-glow-18" filterUnits="userSpaceOnUse">
      <feOffset dx="0" dy="0"/>
      <feGaussianBlur result="blur" stdDeviation="7"/>
      <feFlood flood-color="aqua" flood-opacity=".75"/>
      <feComposite in2="blur" operator="in"/>
      <feComposite in="SourceGraphic"/>
    </filter>
    <filter id="outer-glow-19" filterUnits="userSpaceOnUse">
      <feOffset dx="0" dy="0"/>
      <feGaussianBlur result="blur-2" stdDeviation="7"/>
      <feFlood flood-color="aqua" flood-opacity=".75"/>
      <feComposite in2="blur-2" operator="in"/>
      <feComposite in="SourceGraphic"/>
    </filter>
    <filter id="outer-glow-25" filterUnits="userSpaceOnUse">
      <feOffset dx="0" dy="0"/>
      <feGaussianBlur result="blur-3" stdDeviation="14"/>
      <feFlood flood-color="aqua" flood-opacity=".75"/>
      <feComposite in2="blur-3" operator="in"/>
      <feComposite in="SourceGraphic"/>
    </filter>
  </defs>
  <g>
    <polygon class="cls-3" points="65.49 95.9 116.39 114.49 65.17 19.17 11.61 122.37 62.19 78.95 49.08 84.2 63.93 70.4 87.07 97.01 65.49 95.9"/>
    <path class="cls-2" d="m5.16,5.63h117.67c.99,0,1.52,1.16.87,1.91l-4.76,5.52c-1.52,1.77-3.74,2.78-6.07,2.78H15.11c-2.33,0-4.54-1.02-6.07-2.78l-4.76-5.52c-.64-.75-.11-1.91.87-1.91Z"/>
  </g>
  <polygon class="cls-1" points="201.78 -84.02 265.81 -140.27 180.28 -97.88 180.28 -139.1 152.32 -139.1 152.32 -28.95 180.28 -28.95 180.28 -70.17 265.81 -27.77 201.78 -84.02"/>
</svg>