<?xml version="1.0" encoding="UTF-8"?>
<svg id="Layer_1" data-name="Layer 1" xmlns="http://www.w3.org/2000/svg" viewBox="0 0 128 128">
  <defs>
    <style>
      .cls-1 {
        fill: #1b0049;
      }

      .cls-2 {
        fill: aqua;
      }
    </style>
  </defs>
  <g>
    <polygon class="cls-1" points="56.85 45.41 63.01 84.74 74.64 87.9 69.11 47.34 56.85 45.41"/>
    <path class="cls-1" d="m1.5,11.08l21.93,68.28,55.62,17.06,1.26,20.49,16.89-14.92,18.93,5.81,10.37-74.78L1.5,11.08Zm49.66,19.51c-.25-1.53.45-2.77,2.13-3.72,1.7-.97,3.85-1.33,6.47-1.07,2.65.26,5.09,1.08,7.27,2.48,2.2,1.41,3.42,2.94,3.63,4.55.21,1.61-.61,2.86-2.42,3.75-1.78.88-4.05,1.13-6.79.77-2.7-.35-5.02-1.2-7-2.51-1.96-1.31-3.06-2.72-3.3-4.24Zm9.06,54.97l-6.89-42.56,19.04,2.89,5.83,44.64-17.98-4.97Z"/>
    <path class="cls-1" d="m56.55,33.73c1.27.84,2.8,1.38,4.62,1.61,1.7.21,3.15.04,4.33-.51,1.19-.56,1.71-1.37,1.57-2.41-.14-1.04-.92-2.02-2.32-2.92-1.4-.9-2.96-1.44-4.69-1.62-1.71-.18-3.12.05-4.23.67-1.11.62-1.58,1.42-1.42,2.43.16,1,.87,1.92,2.13,2.76Z"/>
  </g>
  <g>
    <path class="cls-2" d="m61.46,37.35c2.74.36,5.01.1,6.79-.77,1.81-.89,2.63-2.14,2.42-3.75-.21-1.61-1.43-3.13-3.63-4.55-2.19-1.4-4.62-2.22-7.27-2.48-2.62-.25-4.77.11-6.47,1.07-1.68.95-2.38,2.19-2.13,3.72.25,1.52,1.34,2.93,3.3,4.24,1.98,1.32,4.3,2.16,7,2.51Zm-5.62-8.81c1.11-.62,2.52-.84,4.23-.67,1.72.18,3.28.72,4.69,1.62,1.4.91,2.18,1.89,2.32,2.92.14,1.04-.39,1.84-1.57,2.41-1.18.56-2.63.73-4.33.51-1.81-.23-3.34-.76-4.62-1.61-1.27-.84-1.97-1.76-2.13-2.76-.16-1,.31-1.81,1.42-2.43Z"/>
    <path class="cls-2" d="m72.37,45.89l-19.04-2.89,6.89,42.56,17.98,4.97-5.83-44.64Zm-15.53-.48l12.26,1.93,5.53,40.56-11.63-3.16-6.16-39.33Z"/>
  </g>
</svg>