<?xml version="1.0" encoding="UTF-8"?>
<svg id="Layer_1" data-name="Layer 1" xmlns="http://www.w3.org/2000/svg" viewBox="0 0 128 128">
  <defs>
    <style>
      .cls-1 {
        fill: #1b0049;
      }

      .cls-2 {
        fill: aqua;
      }
    </style>
  </defs>
  <g>
    <path class="cls-1" d="m64.06,80.56c-.62-.76-1.31-1.26-2.07-1.48-.76-.22-1.32-.09-1.7.38-.37.47-.47,1.14-.3,2.01.17.87.57,1.69,1.21,2.48.64.79,1.31,1.29,2.01,1.5.71.21,1.26.09,1.66-.39.4-.48.53-1.15.36-2.03-.16-.88-.55-1.7-1.17-2.46Z"/>
    <path class="cls-1" d="m64.19,32.75c-2.16-2.64-4.45-4.54-6.85-5.68.5.51.91.97,1.24,1.38,2.52,3.26,4.23,7.49,5.13,12.61.51,2.91.74,5.29.7,7.18-.04,1.87-.62,3.79-1.73,5.74-.52.88-.99,1.66-1.41,2.33-.43.67-.82,1.42-1.18,2.25-.25.67-.4,1.39-.44,2.17-.04.77-.03,1.55.03,2.35.46-1.02,1.38-2.08,2.78-3.19,1.61-1.14,2.92-2.07,3.91-2.8,1-.74,1.88-1.68,2.63-2.85,1.29-2.22,1.64-5.19,1.02-8.92-.75-4.56-2.7-8.76-5.84-12.57Z"/>
    <path class="cls-1" d="m1.5,11.08l21.93,68.28,55.62,17.06,1.26,20.49,16.89-14.92,18.93,5.81,10.37-74.78L1.5,11.08Zm64.6,75.49c-.62.73-1.47.93-2.55.6-1.08-.33-2.1-1.1-3.08-2.31-.98-1.21-1.6-2.48-1.87-3.8-.27-1.33-.11-2.37.47-3.11.58-.75,1.45-.96,2.58-.63,1.14.33,2.21,1.1,3.18,2.3.97,1.21,1.59,2.49,1.83,3.84.25,1.34.06,2.38-.57,3.12Zm5.55-33.75c-.47,1.77-1.19,3.19-2.15,4.26-.96,1.06-1.98,1.93-3.06,2.6-1.07.66-2,1.32-2.78,1.97-1.54,1.12-2.48,2.26-2.82,3.42-.34,1.15-.32,2.71.06,4.68.02.12.08.43.17.92l-1.44-.39c-.33-1.7-.62-3.21-.87-4.51-.22-1.12-.42-2.5-.6-4.15-.18-1.66,0-3.16.54-4.49.5-1.11.93-1.93,1.31-2.46.38-.53.81-1.27,1.31-2.22.98-1.8,1.49-3.51,1.52-5.13.03-1.62-.2-3.81-.69-6.57-.6-3.35-1.47-6.09-2.6-8.2-1.14-2.11-2.39-3.72-3.75-4.8-1.35-1.08-2.65-1.73-3.88-1.96-1.94-.35-3.46-.11-4.55.72-1.09.82-1.87,1.83-2.36,3.05-.49,1.2-.82,2.24-1.01,3.12-.19.88-.29,1.88-.31,3.01-.02,1.12,0,2.04.06,2.76l-1.14-.24c-.11-.92-.14-2.01-.12-3.29.03-1.29.12-2.44.27-3.46.15-.82.5-1.94,1.05-3.37.55-1.44,1.53-2.69,2.93-3.73,1.42-1.06,3.44-1.36,6.06-.9,3.07.54,5.94,1.93,8.58,4.17,2.65,2.25,4.88,4.99,6.71,8.21,1.81,3.2,2.99,6.49,3.53,9.86.48,2.98.48,5.36.01,7.15Z"/>
  </g>
  <g>
    <path class="cls-2" d="m71.64,45.66c-.55-3.36-1.72-6.66-3.53-9.86-1.82-3.22-4.06-5.96-6.71-8.21-2.64-2.24-5.51-3.63-8.58-4.17-2.63-.46-4.64-.16-6.06.9-1.4,1.05-2.38,2.29-2.93,3.73-.55,1.43-.9,2.55-1.05,3.37-.16,1.02-.25,2.17-.27,3.46-.03,1.28,0,2.38.12,3.29l1.14.24c-.06-.71-.08-1.63-.06-2.76.02-1.13.12-2.13.31-3.01.19-.88.52-1.92,1.01-3.12.48-1.22,1.27-2.23,2.35-3.05,1.09-.83,2.61-1.07,4.55-.72,1.24.22,2.53.88,3.88,1.96,1.36,1.09,2.61,2.69,3.75,4.8,1.14,2.11,2.01,4.85,2.6,8.2.49,2.76.72,4.95.69,6.57-.03,1.61-.54,3.32-1.52,5.13-.5.95-.94,1.69-1.31,2.22-.38.53-.81,1.35-1.31,2.46-.54,1.33-.72,2.83-.54,4.49.18,1.65.38,3.04.6,4.15.25,1.3.54,2.8.87,4.51l1.44.39c-.09-.49-.15-.79-.17-.92-.37-1.96-.4-3.52-.06-4.68.34-1.16,1.27-2.3,2.82-3.42.79-.66,1.72-1.32,2.78-1.97,1.08-.67,2.09-1.53,3.06-2.6.97-1.07,1.69-2.49,2.15-4.26.47-1.79.47-4.17,0-7.15Zm-2.63,8.57c-.75,1.16-1.63,2.11-2.63,2.85-.99.73-2.3,1.67-3.91,2.8-1.4,1.11-2.33,2.17-2.78,3.19-.06-.79-.07-1.57-.03-2.35.04-.78.19-1.5.44-2.17.36-.83.76-1.58,1.18-2.25.42-.67.9-1.45,1.41-2.33,1.11-1.96,1.69-3.87,1.73-5.74.04-1.88-.19-4.27-.7-7.18-.9-5.13-2.61-9.35-5.13-12.61-.33-.41-.74-.87-1.24-1.38,2.39,1.14,4.68,3.03,6.85,5.68,3.13,3.8,5.08,8.01,5.84,12.57.62,3.73.27,6.7-1.02,8.92Z"/>
    <path class="cls-2" d="m64.84,79.62c-.98-1.21-2.04-1.97-3.18-2.3-1.14-.33-2-.12-2.58.63-.58.74-.74,1.78-.47,3.11.26,1.33.89,2.59,1.87,3.8.98,1.21,2,1.98,3.08,2.31,1.08.33,1.93.14,2.55-.6.63-.73.82-1.77.57-3.12-.25-1.35-.86-2.63-1.83-3.84Zm.04,5.44c-.4.48-.95.61-1.66.39-.7-.21-1.37-.71-2.01-1.5-.64-.79-1.04-1.61-1.21-2.48-.17-.87-.07-1.54.3-2.01.37-.47.94-.6,1.7-.38.76.22,1.45.71,2.07,1.48.62.77,1.01,1.59,1.17,2.46.16.87.04,1.55-.36,2.03Z"/>
  </g>
</svg>