<?xml version="1.0" encoding="UTF-8"?>
<svg id="Layer_1" data-name="Layer 1" xmlns="http://www.w3.org/2000/svg" xmlns:xlink="http://www.w3.org/1999/xlink" viewBox="0 0 128 128">
  <defs>
    <style>
      .cls-1 {
        fill: aqua;
        stroke-width: .57px;
      }

      .cls-1, .cls-2, .cls-3, .cls-4 {
        stroke-miterlimit: 10;
      }

      .cls-1, .cls-4 {
        stroke: #1b0049;
      }

      .cls-5 {
        filter: url(#outer-glow-20);
      }

      .cls-2 {
        stroke-width: .69px;
      }

      .cls-2, .cls-3 {
        stroke: aqua;
      }

      .cls-2, .cls-3, .cls-4 {
        fill: #1b0049;
      }

      .cls-3 {
        stroke-width: 1.06px;
      }

      .cls-4 {
        stroke-width: 1.54px;
      }
    </style>
    <filter id="outer-glow-20" filterUnits="userSpaceOnUse">
      <feOffset dx="0" dy="0"/>
      <feGaussianBlur result="blur" stdDeviation="5.31"/>
      <feFlood flood-color="aqua" flood-opacity=".75"/>
      <feComposite in2="blur" operator="in"/>
      <feComposite in="SourceGraphic"/>
    </filter>
  </defs>
  <g class="cls-5">
    <polygon class="cls-3" points="96.73 80.5 66.72 111.16 36.71 80.5 66.72 97.8 96.73 80.5"/>
  </g>
  <g>
    <rect class="cls-4" x="18.73" y="1.51" width="95.97" height="72.77" rx="2.64" ry="2.64"/>
    <g id="draw">
      <rect class="cls-1" x="24.11" y="5.34" width="85.22" height="65.11" rx="2.64" ry="2.64"/>
      <path class="cls-2" d="m31.28,56.29c1.4-9.63,9.29-15.23,12.98-23.54.94-2.1,3.97-2.03,4.85.1,2.56,6.16,6.84,13.45,13.08,14.65,1.03.2,2.09-.22,2.69-1.09,2.63-3.77,10.28-15.28,12.71-24.72.53-2.06,3.1-2.74,4.52-1.16,6.18,6.86,17.76,20.75,17.76,28.37v7.76c0,1.46-1.18,2.64-2.64,2.64h-63.34c-1.61,0-2.85-1.43-2.62-3.02Z"/>
    </g>
  </g>
</svg>