<?xml version="1.0" encoding="UTF-8"?>
<svg id="Layer_1" data-name="Layer 1" xmlns="http://www.w3.org/2000/svg" xmlns:xlink="http://www.w3.org/1999/xlink" viewBox="0 0 128 128">
  <defs>
    <style>
      .cls-1 {
        filter: url(#outer-glow-20);
      }

      .cls-2 {
        fill: #1b0049;
        stroke: aqua;
        stroke-miterlimit: 10;
        stroke-width: 1.06px;
      }
    </style>
    <filter id="outer-glow-20" filterUnits="userSpaceOnUse">
      <feOffset dx="0" dy="0"/>
      <feGaussianBlur result="blur" stdDeviation="5.31"/>
      <feFlood flood-color="aqua" flood-opacity=".75"/>
      <feComposite in2="blur" operator="in"/>
      <feComposite in="SourceGraphic"/>
    </filter>
  </defs>
  <g class="cls-1">
    <polygon class="cls-2" points="95.13 80.5 65.12 111.16 35.11 80.5 65.12 97.8 95.13 80.5"/>
  </g>
  <path class="cls-2" d="m91.27,75h-54.53c-5.23,0-9.48-4.25-9.48-9.48V10.99c0-5.23,4.25-9.48,9.48-9.48h54.53c5.23,0,9.48,4.25,9.48,9.48v54.53c0,5.23-4.25,9.48-9.48,9.48Zm-46.89-13.79h39.25c1.84,0,3.33-1.49,3.33-3.33V18.63c0-1.84-1.49-3.33-3.33-3.33h-39.25c-1.84,0-3.33,1.49-3.33,3.33v39.25c0,1.84,1.49,3.33,3.33,3.33Z"/>
</svg>