<?xml version="1.0" encoding="UTF-8"?>
<svg id="Layer_1" data-name="Layer 1" xmlns="http://www.w3.org/2000/svg" xmlns:xlink="http://www.w3.org/1999/xlink" viewBox="0 0 128 128">
  <defs>
    <style>
      .cls-1 {
        stroke-width: 1.76px;
      }

      .cls-1, .cls-2 {
        fill: #1b0049;
        stroke: aqua;
        stroke-miterlimit: 10;
      }

      .cls-3 {
        filter: url(#outer-glow-19);
      }

      .cls-2 {
        stroke-width: 1.06px;
      }
    </style>
    <filter id="outer-glow-19" filterUnits="userSpaceOnUse">
      <feOffset dx="0" dy="0"/>
      <feGaussianBlur result="blur" stdDeviation="5.31"/>
      <feFlood flood-color="aqua" flood-opacity=".75"/>
      <feComposite in2="blur" operator="in"/>
      <feComposite in="SourceGraphic"/>
    </filter>
  </defs>
  <g class="cls-3">
    <polygon class="cls-2" points="94.97 80.5 64.96 111.16 34.95 80.5 64.96 97.8 94.97 80.5"/>
  </g>
  <g>
    <path class="cls-1" d="m68.63,64.99h33.33c1.56,0,2.83-1.27,2.83-2.83v-16.49c0-1.56-1.27-2.83-2.83-2.83h-33.33v-.72c0-4.58,3.71-8.29,8.29-8.29h28.59c4.58,0,8.29,3.71,8.29,8.29v23.57c0,4.58-3.71,8.29-8.29,8.29h-28.59c-4.58,0-8.29-3.71-8.29-8.29v-.71Z"/>
    <path class="cls-1" d="m61.28,64.99H27.95c-1.56,0-2.83-1.27-2.83-2.83v-16.49c0-1.56,1.27-2.83,2.83-2.83h33.33s0-.72,0-.72c0-4.58-3.71-8.29-8.29-8.29h-28.59c-4.58,0-8.29,3.71-8.29,8.29v23.57c0,4.58,3.71,8.29,8.29,8.29h28.59c4.58,0,8.29-3.71,8.29-8.29v-.71Z"/>
  </g>
  <rect class="cls-1" x="43.33" y="49.42" width="45.16" height="9" rx="2.32" ry="2.32"/>
</svg>