<?xml version="1.0" encoding="UTF-8"?>
<svg id="Layer_1" data-name="Layer 1" xmlns="http://www.w3.org/2000/svg" xmlns:xlink="http://www.w3.org/1999/xlink" viewBox="0 0 128 128">
  <defs>
    <style>
      .cls-1, .cls-2 {
        fill: #1b0049;
      }

      .cls-3 {
        fill: aqua;
        stroke-width: 2.93px;
      }

      .cls-3, .cls-2 {
        stroke: aqua;
        stroke-miterlimit: 10;
      }

      .cls-4 {
        filter: url(#outer-glow-20);
      }

      .cls-2 {
        stroke-width: 1.06px;
      }
    </style>
    <filter id="outer-glow-20" filterUnits="userSpaceOnUse">
      <feOffset dx="0" dy="0"/>
      <feGaussianBlur result="blur" stdDeviation="5.31"/>
      <feFlood flood-color="aqua" flood-opacity=".75"/>
      <feComposite in2="blur" operator="in"/>
      <feComposite in="SourceGraphic"/>
    </filter>
  </defs>
  <g class="cls-4">
    <polygon class="cls-2" points="94.01 80.5 64 111.16 33.99 80.5 64 97.8 94.01 80.5"/>
  </g>
  <g>
    <path class="cls-3" d="m34.93,7.05L5.03,72.15h2.15l8.53-18.73h27.36l8.14,18.73h12.15L34.93,7.05Zm-18.33,44.41l13.14-28.53,12.45,28.53h-25.59Z"/>
    <polygon class="cls-1" points="52.48 70.18 60.32 70.18 34.84 11.85 30.82 20.58 52.48 70.18"/>
    <path class="cls-3" d="m121.16,39.31c-1.21-2.94-2.96-5.53-5.25-7.75-4.71-4.71-10.39-7.06-17.06-7.06-4.83,0-9.18,1.28-13.04,3.82V7.63h-11.08v64.51h11.08v-3.24c3.98,2.55,8.33,3.83,13.04,3.83,3.27,0,6.36-.62,9.26-1.87,2.91-1.24,5.51-2.97,7.79-5.19,2.29-2.29,4.04-4.9,5.25-7.84,1.2-2.94,1.81-6.02,1.81-9.22s-.61-6.37-1.81-9.31Zm-9.85,14.31c-.07,1.89-.28,3.84-.64,5.83s-.97,3.84-1.81,5.54c-.85,1.7-2.08,3.07-3.68,4.12-1.6,1.05-3.71,1.57-6.33,1.57-4.9,0-9.25-1.44-13.04-4.32V30.77c3.79-2.81,8.14-4.21,13.04-4.21,3.2,0,5.67.8,7.4,2.4,1.73,1.6,2.95,3.6,3.68,5.98.72,2.39,1.14,4.82,1.27,7.3.14,2.49.2,4.61.2,6.37,0,1.44-.03,3.1-.1,5Z"/>
    <rect class="cls-1" x="76.69" y="9.59" width="7.16" height="60.59"/>
    <path class="cls-1" d="m114.53,32.93c-1.83-1.83-3.76-3.2-5.78-4.12,1.24,1.37,2.23,3.1,2.94,5.19.65,1.83,1.09,3.87,1.32,6.13.22,2.26.34,5.08.34,8.48,0,5.29-.31,9.41-.93,12.35-.62,2.94-1.78,5.39-3.48,7.36,2.03-.98,3.89-2.32,5.58-4.02,2.16-2.22,3.76-4.64,4.8-7.25,1.12-2.74,1.67-5.56,1.67-8.43s-.55-5.77-1.67-8.48c-1.11-2.71-2.71-5.11-4.8-7.2Z"/>
  </g>
</svg>