<?xml version="1.0" encoding="UTF-8"?>
<svg id="Layer_1" data-name="Layer 1" xmlns="http://www.w3.org/2000/svg" xmlns:xlink="http://www.w3.org/1999/xlink" viewBox="0 0 128 128">
  <defs>
    <style>
      .cls-1 {
        fill: #1b0049;
      }

      .cls-2 {
        fill: aqua;
      }

      .cls-3 {
        filter: url(#outer-glow-20);
      }

      .cls-4 {
        fill: #1bffff;
      }
    </style>
    <filter id="outer-glow-20" filterUnits="userSpaceOnUse">
      <feOffset dx="0" dy="0"/>
      <feGaussianBlur result="blur" stdDeviation="6.59"/>
      <feFlood flood-color="aqua" flood-opacity=".75"/>
      <feComposite in2="blur" operator="in"/>
      <feComposite in="SourceGraphic"/>
    </filter>
  </defs>
  <g>
    <g>
      <path class="cls-2" d="m37.46,100.21l88.6,10.38c2.65.31,2.85-3.23.61-7.77l-25.02-50.73c-1.54-3.11-4.83-6.64-7.47-7.99L17.25,7.96c-6.04-3.08-10.64-2.45-9.95,1.69l12.73,74.11c1.31,7.94,9.39,15.51,17.44,16.45Z"/>
      <path class="cls-1" d="m37.71,98.11c23.54,2.9,61.58,7.95,84.79,10.79,0,0,2.83.35,2.83.35.46.05,1.03.14,1.14.12.2-.03.2-.04.29-.15.51-1.08,0-3.12-.51-4.39-.55-1.36-1.7-3.66-2.38-5.06,0,0-4.97-10.25-4.97-10.25-4.99-10.11-13.13-27.22-18.03-37.16-1.96-3.6-4.88-6.76-8.76-8.25,0,0-2.6-1.18-2.6-1.18-6.73-2.98-44.39-20.11-51.92-23.52,0,0-20.76-9.42-20.76-9.42-2.15-1.01-4.56-2.11-6.85-1.77-.32.11-.49.11-.55.32-.08.47.06,1,.19,1.7,3.27,17.73,6.63,35.5,9.81,53.24.65,3.72,2.3,13.25,2.92,16.84,0,0,.46,2.81.46,2.81,1.11,7.17,7.66,13.89,14.9,14.99h0Zm-.49,4.2c-8.58-1.18-15.9-6.97-19.16-15.03-.76-1.72-.99-4.19-1.38-6.01,0,0-.96-5.62-.96-5.62l-1.91-11.23C10.83,46.08,7.9,27.71,5.08,9.34c-.28-2.46,1.54-4.97,4.07-5.29,3.46-.56,6.56.88,9.45,2.32,0,0,20.5,9.96,20.5,9.96,7.69,3.73,44.42,21.59,51.22,24.95,0,0,2.56,1.25,2.56,1.25,3.63,1.51,6.6,4.5,8.69,7.79,7.51,14.47,16.97,33.84,24.37,48.42,1.45,3.08,3.64,6.31,3.47,9.9-.06,1.83-1.45,3.48-3.49,3.18-5.46-.62-15.14-1.66-20.71-2.26-14.35-1.53-53.14-5.68-67.99-7.27h0Z"/>
    </g>
    <g>
      <path class="cls-1" d="m102.98,54.8c-5.97,6.34-12.65,12.86-18.94,18.91-2.65,2.77-6.51.12-8.8-1.71C51.98,54.23,29.17,35.82,7.9,15.69c24.27,16.41,47.23,34.71,69.63,53.57.7.6,1.82,1.65,2.66,2.03.5.27,1.07.41,1.43.43,0,0-.01.02-.04.03-.1.11.4-.33.42-.34,6.74-5.55,13.99-11.41,20.98-16.61h0Z"/>
      <polygon class="cls-1" points="90.93 65.21 124.83 99.09 88.01 68.41 90.93 65.21 90.93 65.21"/>
      <polygon class="cls-1" points="18.97 77.36 59.63 54.68 61.57 58.56 18.97 77.36 18.97 77.36"/>
    </g>
  </g>
  <g id="glow_exclam" class="cls-3">
    <g>
      <polygon class="cls-1" points="33.9 73.91 42.18 59.26 37.51 106.79 36.52 108.26 33.9 73.91"/>
      <path class="cls-4" d="m41.63,60.99l-4.49,45.67-.34.5-2.53-33.16,7.35-13m1.1-3.48l-9.22,16.31,2.71,35.54,1.66-2.44,4.86-49.41h0Z"/>
    </g>
    <g>
      <path class="cls-1" d="m35.48,123.42c-.7,0-1.3-.4-1.65-1.11-.53-1.06-.67-3.25.21-5.74,1.4-4.02,4.17-6.82,5.78-6.82.34,0,.62.12.84.38.39.44.98,1.7.56,5.19-.55,4.55-3.49,7.65-5.31,8.05-.15.03-.29.05-.43.05Z"/>
      <path class="cls-4" d="m39.81,110.12c.23,0,.41.08.56.26.28.32.89,1.43.46,4.89-.58,4.75-3.6,7.42-5.02,7.73-.12.03-.24.04-.35.04-.55,0-1.03-.33-1.31-.9-.49-.99-.61-3.06.22-5.45,1.29-3.7,3.98-6.57,5.42-6.57m0-.75c-1.92,0-4.78,3.18-6.14,7.08-.91,2.6-.76,4.88-.19,6.03.4.81,1.12,1.32,1.99,1.32.17,0,.34-.02.51-.06,1.86-.41,5-3.47,5.6-8.38.53-4.31-.38-6-1.78-6h0Z"/>
    </g>
  </g>
</svg>