<?xml version="1.0" encoding="UTF-8"?>
<svg id="Layer_1" data-name="Layer 1" xmlns="http://www.w3.org/2000/svg" xmlns:xlink="http://www.w3.org/1999/xlink" viewBox="0 0 128 128">
  <defs>
    <style>
      .cls-1, .cls-2, .cls-3, .cls-4 {
        fill: #1b0049;
      }

      .cls-5 {
        fill: aqua;
      }

      .cls-2 {
        filter: url(#outer-glow-31);
        stroke-width: 2.8px;
      }

      .cls-2, .cls-3, .cls-4 {
        stroke: aqua;
        stroke-miterlimit: 10;
      }

      .cls-3 {
        filter: url(#outer-glow-33);
      }

      .cls-4 {
        filter: url(#outer-glow-34);
      }
    </style>
    <filter id="outer-glow-31" filterUnits="userSpaceOnUse">
      <feOffset dx="0" dy="0"/>
      <feGaussianBlur result="blur" stdDeviation="8.72"/>
      <feFlood flood-color="aqua" flood-opacity=".75"/>
      <feComposite in2="blur" operator="in"/>
      <feComposite in="SourceGraphic"/>
    </filter>
    <filter id="outer-glow-33" filterUnits="userSpaceOnUse">
      <feOffset dx="0" dy="0"/>
      <feGaussianBlur result="blur-2" stdDeviation="4"/>
      <feFlood flood-color="aqua" flood-opacity=".75"/>
      <feComposite in2="blur-2" operator="in"/>
      <feComposite in="SourceGraphic"/>
    </filter>
    <filter id="outer-glow-34" filterUnits="userSpaceOnUse">
      <feOffset dx="0" dy="0"/>
      <feGaussianBlur result="blur-3" stdDeviation="4"/>
      <feFlood flood-color="aqua" flood-opacity=".75"/>
      <feComposite in2="blur-3" operator="in"/>
      <feComposite in="SourceGraphic"/>
    </filter>
  </defs>
  <polygon class="cls-2" points="17.73 -27.49 105.26 -27.49 98.31 -61.61 91.15 -54.44 90.48 -37.19 29.64 -40.7 29.64 -127.35 90.48 -130.86 91.15 -113.61 98.31 -106.44 105.26 -140.56 17.73 -140.56 17.73 -27.49"/>
  <g>
    <g>
      <g>
        <g>
          <path class="cls-5" d="m33.74,105.16l88.6,10.38c2.65.31,2.85-3.23.61-7.77l-25.02-50.73c-1.54-3.11-4.83-6.64-7.47-7.99L13.53,12.91c-6.04-3.08-10.64-2.45-9.95,1.69l12.73,74.11c1.31,7.94,9.39,15.51,17.44,16.45Z"/>
          <path class="cls-1" d="m33.99,103.06c23.54,2.9,61.58,7.95,84.79,10.79,0,0,2.83.35,2.83.35.46.05,1.03.14,1.14.12.2-.03.2-.04.29-.15.51-1.08,0-3.12-.51-4.39-.55-1.36-1.7-3.66-2.38-5.06,0,0-4.97-10.25-4.97-10.25-4.99-10.11-13.13-27.22-18.03-37.16-1.96-3.6-4.88-6.76-8.76-8.25,0,0-2.6-1.18-2.6-1.18-6.73-2.98-44.39-20.11-51.92-23.52,0,0-20.76-9.42-20.76-9.42-2.15-1.01-4.56-2.11-6.85-1.77-.32.11-.49.11-.55.32-.08.47.06,1,.19,1.7,3.27,17.73,6.63,35.5,9.81,53.24.65,3.72,2.3,13.25,2.92,16.84,0,0,.46,2.81.46,2.81,1.11,7.17,7.66,13.89,14.9,14.99h0Zm-.49,4.2c-8.58-1.18-15.9-6.97-19.16-15.03-.76-1.72-.99-4.19-1.38-6.01,0,0-.96-5.62-.96-5.62,0,0-1.91-11.23-1.91-11.23C7.11,51.03,4.18,32.67,1.35,14.29c-.28-2.46,1.54-4.97,4.07-5.29,3.46-.56,6.56.88,9.45,2.32,0,0,20.5,9.96,20.5,9.96,7.69,3.73,44.42,21.59,51.22,24.95,0,0,2.56,1.25,2.56,1.25,3.63,1.51,6.6,4.5,8.69,7.79,7.51,14.47,16.97,33.84,24.37,48.42,1.45,3.08,3.64,6.31,3.47,9.9-.06,1.83-1.45,3.48-3.49,3.18-5.46-.62-15.14-1.66-20.71-2.26-14.35-1.53-53.14-5.68-67.99-7.27h0Z"/>
        </g>
        <g>
          <path class="cls-1" d="m99.26,59.75c-5.97,6.34-12.65,12.86-18.94,18.91-2.65,2.77-6.51.12-8.8-1.71C48.26,59.18,25.45,40.77,4.18,20.64c24.27,16.41,47.23,34.71,69.63,53.57.7.6,1.82,1.65,2.66,2.03.5.27,1.07.41,1.43.43,0,0-.01.02-.04.03-.1.11.4-.33.42-.34,6.74-5.55,13.99-11.41,20.98-16.61h0Z"/>
          <polygon class="cls-1" points="87.21 70.16 121.1 104.04 84.29 73.36 87.21 70.16 87.21 70.16"/>
          <polygon class="cls-1" points="15.25 82.31 55.91 59.63 57.85 63.51 15.25 82.31 15.25 82.31"/>
        </g>
      </g>
      <polygon class="cls-3" points="54.01 117.02 26.04 98.54 57.61 84.05 22.22 94.78 7.81 99.15 19.79 103.78 45.9 113.88 54.01 117.02"/>
    </g>
    <polygon class="cls-4" points="70.26 108.93 64.7 98.42 98.79 100.49 102.76 90.11 60.14 95.78 60.95 98.31 62.8 104.11 52.3 97.68 77.69 83.18 42.3 93.91 27.89 98.28 39.87 102.91 65.98 113.01 74.09 116.15 70.26 108.93"/>
  </g>
</svg>