<?xml version="1.0" encoding="UTF-8"?>
<svg id="Layer_1" data-name="Layer 1" xmlns="http://www.w3.org/2000/svg" xmlns:xlink="http://www.w3.org/1999/xlink" viewBox="0 0 128 128">
  <defs>
    <style>
      .cls-1, .cls-2 {
        fill: #1b0049;
      }

      .cls-3 {
        fill: aqua;
      }

      .cls-2 {
        filter: url(#outer-glow-31);
        stroke: aqua;
        stroke-miterlimit: 10;
        stroke-width: .99px;
      }
    </style>
    <filter id="outer-glow-31" filterUnits="userSpaceOnUse">
      <feOffset dx="0" dy="0"/>
      <feGaussianBlur result="blur" stdDeviation="3.97"/>
      <feFlood flood-color="aqua" flood-opacity=".75"/>
      <feComposite in2="blur" operator="in"/>
      <feComposite in="SourceGraphic"/>
    </filter>
  </defs>
  <g>
    <g>
      <path class="cls-3" d="m33.74,105.89l88.6,10.38c2.65.31,2.85-3.23.61-7.77l-25.02-50.73c-1.54-3.11-4.83-6.64-7.47-7.99L13.53,13.64c-6.04-3.08-10.64-2.45-9.95,1.69l12.73,74.11c1.31,7.94,9.39,15.51,17.44,16.45Z"/>
      <path class="cls-1" d="m33.99,103.79c23.54,2.9,61.58,7.95,84.79,10.79,0,0,2.83.35,2.83.35.46.05,1.03.14,1.14.12.2-.03.2-.04.29-.15.51-1.08,0-3.12-.51-4.39-.55-1.36-1.7-3.66-2.38-5.06,0,0-4.97-10.25-4.97-10.25-4.99-10.11-13.13-27.22-18.03-37.16-1.96-3.6-4.88-6.76-8.76-8.25,0,0-2.6-1.18-2.6-1.18-6.73-2.98-44.39-20.11-51.92-23.52,0,0-20.76-9.42-20.76-9.42-2.15-1.01-4.56-2.11-6.85-1.77-.32.11-.49.11-.55.32-.08.47.06,1,.19,1.7,3.27,17.73,6.63,35.5,9.81,53.24.65,3.72,2.3,13.25,2.92,16.84,0,0,.46,2.81.46,2.81,1.11,7.17,7.66,13.89,14.9,14.99h0Zm-.49,4.2c-8.58-1.18-15.9-6.97-19.16-15.03-.76-1.72-.99-4.19-1.38-6.01,0,0-.96-5.62-.96-5.62,0,0-1.91-11.23-1.91-11.23C7.11,51.76,4.18,33.39,1.35,15.02c-.28-2.46,1.54-4.97,4.07-5.29,3.46-.56,6.56.88,9.45,2.32,0,0,20.5,9.96,20.5,9.96,7.69,3.73,44.42,21.59,51.22,24.95,0,0,2.56,1.25,2.56,1.25,3.63,1.51,6.6,4.5,8.69,7.79,7.51,14.47,16.97,33.84,24.37,48.42,1.45,3.08,3.64,6.31,3.47,9.9-.06,1.83-1.45,3.48-3.49,3.18-5.46-.62-15.14-1.66-20.71-2.25-14.35-1.53-53.14-5.68-67.99-7.27h0Z"/>
    </g>
    <g>
      <path class="cls-1" d="m99.26,60.48c-5.97,6.34-12.65,12.86-18.94,18.91-2.65,2.77-6.51.12-8.8-1.71C48.26,59.91,25.45,41.5,4.18,21.37c24.27,16.41,47.23,34.71,69.63,53.57.7.6,1.82,1.65,2.66,2.03.5.27,1.07.41,1.43.43,0,0-.01.02-.04.03-.1.11.4-.33.42-.34,6.74-5.55,13.99-11.41,20.98-16.61h0Z"/>
      <polygon class="cls-1" points="87.21 70.89 121.1 104.77 84.29 74.09 87.21 70.89 87.21 70.89"/>
      <polygon class="cls-1" points="15.25 83.04 55.91 60.36 57.85 64.24 15.25 83.04 15.25 83.04"/>
    </g>
  </g>
  <path class="cls-2" d="m65.14,68.8c-7.26-4.93-8.33,14.18-7.1,22.67l5.55-6.98-4.32,38.49-17.18-54.17,13.22,22.07-5.81-4.73,8.61,20.48,2.04-14.33-3.18,6.71c-1.94-16.14-2.89-44.9,5.87-39.82,7.26,4.93,8.33-14.18,7.1-22.67l-5.55,6.98,4.32-38.49,17.18,54.17-13.22-22.07,5.81,4.73-8.61-20.48-2.04,14.33,3.18-6.71c1.94,16.14,2.89,44.9-5.87,39.82Z"/>
</svg>