<?xml version="1.0" encoding="UTF-8"?>
<svg id="Layer_1" data-name="Layer 1" xmlns="http://www.w3.org/2000/svg" xmlns:xlink="http://www.w3.org/1999/xlink" viewBox="0 0 128 128">
  <defs>
    <style>
      .cls-1, .cls-2 {
        fill: #1b0049;
      }

      .cls-3 {
        fill: aqua;
      }

      .cls-2 {
        filter: url(#outer-glow-20);
        stroke: aqua;
        stroke-miterlimit: 10;
        stroke-width: .5px;
      }
    </style>
    <filter id="outer-glow-20" filterUnits="userSpaceOnUse">
      <feOffset dx="0" dy="0"/>
      <feGaussianBlur result="blur" stdDeviation="3"/>
      <feFlood flood-color="#1b0049" flood-opacity=".75"/>
      <feComposite in2="blur" operator="in"/>
      <feComposite in="SourceGraphic"/>
    </filter>
  </defs>
  <g>
    <g>
      <path class="cls-3" d="m35.46,98.46l88.6,10.38c2.65.31,2.85-3.23.61-7.77l-25.02-50.73c-1.54-3.11-4.83-6.64-7.47-7.99L15.25,6.2c-6.04-3.08-10.64-2.45-9.95,1.69l12.73,74.11c1.31,7.94,9.39,15.51,17.44,16.45Z"/>
      <path class="cls-1" d="m35.71,96.36c23.54,2.9,61.58,7.95,84.79,10.79,0,0,2.83.35,2.83.35.46.05,1.03.14,1.14.12.2-.03.2-.04.29-.15.51-1.08,0-3.12-.51-4.39-.55-1.36-1.7-3.66-2.38-5.06,0,0-4.97-10.25-4.97-10.25-4.99-10.11-13.13-27.22-18.03-37.16-1.96-3.6-4.88-6.76-8.76-8.25,0,0-2.6-1.18-2.6-1.18-6.73-2.98-44.39-20.11-51.92-23.52,0,0-20.76-9.42-20.76-9.42-2.15-1.01-4.56-2.11-6.85-1.77-.32.11-.49.11-.55.32-.08.47.06,1,.19,1.7,3.27,17.73,6.63,35.5,9.81,53.24.65,3.72,2.3,13.25,2.92,16.84,0,0,.46,2.81.46,2.81,1.11,7.17,7.66,13.89,14.9,14.99h0Zm-.49,4.2c-8.58-1.18-15.9-6.97-19.16-15.03-.76-1.72-.99-4.19-1.38-6.01,0,0-.96-5.62-.96-5.62l-1.91-11.23C8.83,44.32,5.9,25.96,3.08,7.59c-.28-2.46,1.54-4.97,4.07-5.29,3.46-.56,6.56.88,9.45,2.32,0,0,20.5,9.96,20.5,9.96,7.69,3.73,44.42,21.59,51.22,24.95,0,0,2.56,1.25,2.56,1.25,3.63,1.51,6.6,4.5,8.69,7.79,7.51,14.47,16.97,33.84,24.37,48.42,1.45,3.08,3.64,6.31,3.47,9.9-.06,1.83-1.45,3.48-3.49,3.18-5.46-.62-15.14-1.66-20.71-2.26-14.35-1.53-53.14-5.68-67.99-7.27h0Z"/>
    </g>
    <g>
      <path class="cls-1" d="m100.98,53.04c-5.97,6.34-12.65,12.86-18.94,18.91-2.65,2.77-6.51.12-8.8-1.71C49.98,52.48,27.17,34.06,5.9,13.94c24.27,16.41,47.23,34.71,69.63,53.57.7.6,1.82,1.65,2.66,2.03.5.27,1.07.41,1.43.43,0,0-.01.02-.04.03-.1.11.4-.33.42-.34,6.74-5.55,13.99-11.41,20.98-16.61h0Z"/>
      <polygon class="cls-1" points="88.93 63.46 122.83 97.33 86.01 66.66 88.93 63.46 88.93 63.46"/>
      <polygon class="cls-1" points="16.97 75.6 57.64 52.92 59.57 56.8 16.97 75.6 16.97 75.6"/>
    </g>
  </g>
  <path class="cls-2" d="m34.87,111.41c-.66-2.71-.49-3.45-4.83-9.84-2.15-3.25-5.52-6.81-8.38-9.45-2.68-2.41-5.43-4.95-7.67-7.75-2.76-3.39-4.49-8.12-3.8-12.44.7-4.06,3.88-7.42,7.82-8.59,2.03-.63,4.29-.66,6.35-.21,4.02.84,7.41,3.96,6.84,8.39-.28,2.15-2.1,4.32-4.66,3.99-2.3-.41-3.83-2.84-2.59-4.82.52-.87,1.43-1.6,2.66-1.98h0c-1.28-.39-2.65-.05-3.81.94-2.7,2.28-1.97,6.16,1.07,7.9,2.5,1.43,6.03,1.02,8.15-1.3,1.57-1.65,2.2-3.8,2.4-6.03.58-5.53-4.1-10.13-9.08-11.33-7.13-1.92-15.52,1.06-18.78,7.85-2.4,5-1.33,11.68,1.78,16.59,2.83,4.55,6.2,7.99,10.4,11.14,7.77,5.88,15.11,14.94,16.12,28.11,1.01-13.17,8.35-22.23,16.12-28.11,4.2-3.15,7.57-6.59,10.4-11.14,3.11-4.91,4.17-11.59,1.78-16.59-3.26-6.79-11.65-9.77-18.78-7.85-4.97,1.2-9.66,5.8-9.08,11.33.2,2.23.83,4.38,2.4,6.03,2.12,2.32,5.65,2.73,8.15,1.3,3.04-1.74,3.77-5.62,1.07-7.9-1.16-.99-2.54-1.34-3.81-.94h0c1.22.38,2.14,1.12,2.66,1.98,1.24,1.98-.29,4.41-2.59,4.82-2.56.33-4.38-1.84-4.66-3.99-.58-4.43,2.81-7.56,6.84-8.39,2.06-.44,4.32-.42,6.35.21,3.95,1.17,7.13,4.54,7.82,8.59.69,4.32-1.04,9.05-3.8,12.44-2.25,2.8-4.99,5.34-7.67,7.75-2.86,2.64-6.22,6.19-8.38,9.45-4.34,6.39-4.17,7.12-4.83,9.84Z"/>
</svg>