<?xml version="1.0" encoding="UTF-8"?>
<svg id="Layer_1" data-name="Layer 1" xmlns="http://www.w3.org/2000/svg" xmlns:xlink="http://www.w3.org/1999/xlink" viewBox="0 0 128 128">
  <defs>
    <style>
      .cls-1 {
        filter: url(#outer-glow-23);
      }

      .cls-1, .cls-2 {
        fill: #1b0049;
        stroke: aqua;
        stroke-miterlimit: 10;
        stroke-width: 2.8px;
      }

      .cls-3 {
        filter: url(#outer-glow-30);
      }
    </style>
    <filter id="outer-glow-23" filterUnits="userSpaceOnUse">
      <feOffset dx="0" dy="0"/>
      <feGaussianBlur result="blur" stdDeviation="14"/>
      <feFlood flood-color="aqua" flood-opacity=".75"/>
      <feComposite in2="blur" operator="in"/>
      <feComposite in="SourceGraphic"/>
    </filter>
    <filter id="outer-glow-30" filterUnits="userSpaceOnUse">
      <feOffset dx="0" dy="0"/>
      <feGaussianBlur result="blur-2" stdDeviation="4"/>
      <feFlood flood-color="aqua" flood-opacity=".75"/>
      <feComposite in2="blur-2" operator="in"/>
      <feComposite in="SourceGraphic"/>
    </filter>
  </defs>
  <polygon class="cls-1" points="-93.37 64 -29.34 7.75 -114.88 50.14 -114.88 8.92 -142.83 8.92 -142.83 119.08 -114.88 119.08 -114.88 77.86 -29.34 120.25 -93.37 64"/>
  <g class="cls-3">
    <path class="cls-2" d="m97.44,36.91l6.89-11.24-5.38-8.94-7.36,11.22c-2.91-3.82-6.19-7.37-9.83-10.48C57.09-3.61,25.23.9,19.76,35.8c-3.91,24.95,8.11,49.36,25.22,63.23l-13.06,19.91,11.75,5.64,11.56-18.84c4.19,2.13,8.54,3.64,12.92,4.39,20.26,3.5,35.46-10.75,38.32-30.94,1.85-13.06-1.46-28.67-9.02-42.27Zm-55.55-7.69c11.54-14.78,31.75-10.15,45.32,5.41l-35.49,54.11c-16.55-16.05-22.43-43.38-9.83-59.52Zm55.47,57.34c-6.38,12.93-21.16,17.71-36.12,9.36l32.19-52.48c8.13,14.27,9.64,31.53,3.92,43.12Z"/>
  </g>
</svg>