<?xml version="1.0" encoding="UTF-8"?>
<svg id="Layer_1" data-name="Layer 1" xmlns="http://www.w3.org/2000/svg" xmlns:xlink="http://www.w3.org/1999/xlink" viewBox="0 0 128 128">
  <defs>
    <style>
      .cls-1 {
        filter: url(#outer-glow-26);
        stroke-width: 2.84px;
      }

      .cls-1, .cls-2 {
        fill: #1b0049;
        stroke: aqua;
        stroke-miterlimit: 10;
      }

      .cls-2 {
        filter: url(#outer-glow-29);
      }
    </style>
    <filter id="outer-glow-26" filterUnits="userSpaceOnUse">
      <feOffset dx="0" dy="0"/>
      <feGaussianBlur result="blur" stdDeviation="14.18"/>
      <feFlood flood-color="aqua" flood-opacity=".75"/>
      <feComposite in2="blur" operator="in"/>
      <feComposite in="SourceGraphic"/>
    </filter>
    <filter id="outer-glow-29" filterUnits="userSpaceOnUse">
      <feOffset dx="0" dy="0"/>
      <feGaussianBlur result="blur-2" stdDeviation="4"/>
      <feFlood flood-color="aqua" flood-opacity=".75"/>
      <feComposite in2="blur-2" operator="in"/>
      <feComposite in="SourceGraphic"/>
    </filter>
  </defs>
  <polygon class="cls-1" points="221.96 -84 157.08 -141 243.75 -98.04 243.75 -139.81 272.08 -139.81 272.08 -28.19 243.75 -28.19 243.75 -69.96 157.08 -27 221.96 -84"/>
  <path class="cls-2" d="m68.88,62.86c-5.02,7.26,14.43,8.33,23.06,7.1l-7.1-5.55,39.15,4.32-55.1,17.18,22.45-13.22-4.81,5.81,20.83-8.61-14.58-2.04,6.83,3.18c-16.42,1.94-45.68,2.89-40.51-5.87,5.02-7.26-14.43-8.33-23.06-7.1l7.1,5.55-39.15-4.32,55.1-17.18-22.45,13.22,4.81-5.81-20.83,8.61,14.58,2.04-6.83-3.18c16.42-1.94,45.68-2.89,40.51,5.87Z"/>
</svg>