<?xml version="1.0" encoding="UTF-8"?>
<svg id="Layer_1" data-name="Layer 1" xmlns="http://www.w3.org/2000/svg" xmlns:xlink="http://www.w3.org/1999/xlink" viewBox="0 0 128 128">
  <defs>
    <style>
      .cls-1 {
        fill: aqua;
        filter: url(#outer-glow-27);
        stroke: #1b0049;
        stroke-width: 6.03px;
      }

      .cls-1, .cls-2 {
        stroke-miterlimit: 10;
      }

      .cls-2 {
        fill: #1b0049;
        filter: url(#outer-glow-23);
        stroke: aqua;
        stroke-width: 2.8px;
      }
    </style>
    <filter id="outer-glow-23" filterUnits="userSpaceOnUse">
      <feOffset dx="0" dy="0"/>
      <feGaussianBlur result="blur" stdDeviation="14"/>
      <feFlood flood-color="aqua" flood-opacity=".75"/>
      <feComposite in2="blur" operator="in"/>
      <feComposite in="SourceGraphic"/>
    </filter>
    <filter id="outer-glow-27" filterUnits="userSpaceOnUse">
      <feOffset dx="0" dy="0"/>
      <feGaussianBlur result="blur-2" stdDeviation="4.85"/>
      <feFlood flood-color="aqua" flood-opacity=".75"/>
      <feComposite in2="blur-2" operator="in"/>
      <feComposite in="SourceGraphic"/>
    </filter>
  </defs>
  <polygon class="cls-2" points="-93.37 212.02 -29.34 155.77 -114.88 198.17 -114.88 156.95 -142.83 156.95 -142.83 267.1 -114.88 267.1 -114.88 225.88 -29.34 268.27 -93.37 212.02"/>
  <path class="cls-1" d="m121.34,82.93c-4.27,13.58-13.21,25.66-25.2,33.39C55.51,142.01,5.32,110.8,5.42,63.92,7,.51,82.53-18.41,113.56,28.78l-7.36,1.46,10.54,7.03-3.24-20.21-4.03,3.5,5.42-11.86,7.68,37.27-35.82-19.82,15.51-.95c-3.52-2.48-7.19-4.55-10.95-6.18-27.6-12.03-59.02.03-68,28.95-5.16,15.44-2.35,33.22,7.3,46.34,13.49,18.97,39.3,23.9,60.71,14.53,11.27-4.91,21.62-13.68,30.01-25.91Z"/>
</svg>