<?xml version="1.0" encoding="UTF-8"?>
<svg id="Layer_1" data-name="Layer 1" xmlns="http://www.w3.org/2000/svg" xmlns:xlink="http://www.w3.org/1999/xlink" viewBox="0 0 128 128">
  <defs>
    <style>
      .cls-1 {
        filter: url(#outer-glow-28);
      }

      .cls-1, .cls-2 {
        fill: #1b0049;
        stroke: aqua;
        stroke-miterlimit: 10;
      }

      .cls-2 {
        filter: url(#outer-glow-26);
        stroke-width: 2.84px;
      }
    </style>
    <filter id="outer-glow-26" filterUnits="userSpaceOnUse">
      <feOffset dx="0" dy="0"/>
      <feGaussianBlur result="blur" stdDeviation="14.18"/>
      <feFlood flood-color="aqua" flood-opacity=".75"/>
      <feComposite in2="blur" operator="in"/>
      <feComposite in="SourceGraphic"/>
    </filter>
    <filter id="outer-glow-28" filterUnits="userSpaceOnUse">
      <feOffset dx="0" dy="0"/>
      <feGaussianBlur result="blur-2" stdDeviation="4"/>
      <feFlood flood-color="aqua" flood-opacity=".75"/>
      <feComposite in2="blur-2" operator="in"/>
      <feComposite in="SourceGraphic"/>
    </filter>
  </defs>
  <polygon class="cls-2" points="74.38 -84 9.5 -141 96.17 -98.04 96.17 -139.81 124.5 -139.81 124.5 -28.19 96.17 -28.19 96.17 -69.96 9.5 -27 74.38 -84"/>
  <path class="cls-1" d="m65.14,68.88c-7.26-5.02-8.33,14.43-7.1,23.06l5.55-7.1-4.32,39.15-17.18-55.1,13.22,22.45-5.81-4.81,8.61,20.83,2.04-14.58-3.18,6.83c-1.94-16.42-2.89-45.68,5.87-40.51,7.26,5.02,8.33-14.43,7.1-23.06l-5.55,7.1,4.32-39.15,17.18,55.1-13.22-22.45,5.81,4.81-8.61-20.83-2.04,14.58,3.18-6.83c1.94,16.42,2.89,45.68-5.87,40.51Z"/>
</svg>