<?xml version="1.0" encoding="UTF-8"?>
<svg id="Layer_1" data-name="Layer 1" xmlns="http://www.w3.org/2000/svg" xmlns:xlink="http://www.w3.org/1999/xlink" viewBox="0 0 128 128">
  <defs>
    <style>
      .cls-1 {
        fill: aqua;
      }

      .cls-2 {
        filter: url(#outer-glow-36);
      }

      .cls-3 {
        fill: #1b0049;
        stroke: aqua;
        stroke-miterlimit: 10;
        stroke-width: 3.06px;
      }
    </style>
    <filter id="outer-glow-36" filterUnits="userSpaceOnUse">
      <feOffset dx="0" dy="0"/>
      <feGaussianBlur result="blur" stdDeviation="6.43"/>
      <feFlood flood-color="aqua" flood-opacity=".75"/>
      <feComposite in2="blur" operator="in"/>
      <feComposite in="SourceGraphic"/>
    </filter>
  </defs>
  <path class="cls-3" d="m123.63,58.66C124.77,19.88,91.71-2.41,57.21,5.63,28.83,12.25,7.21,38.2,4.61,65.32c-2.68,27.97,15.12,54.06,44.49,58.13,36.19,5.01,73.34-24.24,74.53-64.78Z"/>
  <g class="cls-2">
    <path class="cls-1" d="m35.96,36.57l.43,3.95,4.14-6.37-10.49,3.32,1.56,1.93-5.58-2.07,19.44-7.17-12.05,21.4.21-8.52c-1.42,2.09-2.62,4.22-3.61,6.37-7.18,15.57-2.7,32.94,12.26,38.44,8.68,3.43,19.73,2,28.67-4.09,13.65-9,18.08-26.47,12.11-39.94-3-6.82-8.51-12.49-16.05-16.41l.02-.04c8.57,1.24,16.42,5.71,21.49,12.75,18.37,26.16-7.07,61.07-37.79,59.14-33.7-2.92-38.71-43.44-14.76-62.66Z"/>
    <polyline class="cls-1" points="55.97 23.02 50.11 29.43 53.46 59.4 61.25 27.62 55.97 23.02"/>
  </g>
</svg>