<?xml version="1.0" encoding="UTF-8"?>
<svg id="Layer_1" data-name="Layer 1" xmlns="http://www.w3.org/2000/svg" viewBox="0 0 128 128">
  <defs>
    <style>
      .cls-1, .cls-2 {
        fill: #1b0049;
      }

      .cls-3 {
        fill: aqua;
      }

      .cls-2 {
        stroke: #1b0049;
        stroke-miterlimit: 10;
        stroke-width: 2.74px;
      }
    </style>
  </defs>
  <g>
    <path class="cls-3" d="m5.51,83.91l-2.05,4.31,7.3-.23c-.2,1.41-.24,2.77-.14,4.07l-5.96,5.46.3,4.09,7.3-3.75c.58,1.09,1.29,2.09,2.13,2.98l-3.04,6.83,2.58,2.77,5.36-6.33c1.2.5,2.48.93,3.88,1.15l.61,6.4,4.16.72,1.96-7.15c1.5-.23,3-.6,4.48-1.1l4.26,4.2,4.63-1.53-1.96-6.04c1.38-.9,2.71-1.9,3.95-3l6.66.92,3.86-3.37-5.34-3.35c.9-1.3,1.69-2.66,2.35-4.07l7.29-2.63,2.05-4.31-7.3.23c.2-1.41.24-2.77.14-4.07l5.96-5.46-.3-4.09-7.3,3.75c-.58-1.09-1.29-2.09-2.13-2.98l3.04-6.83-2.58-2.77-5.34,6.27c-1.17-.49-2.45-.85-3.81-1.08l-.71-6.38-4.16-.71-1.95,7.11c-1.5.23-3,.6-4.48,1.1l-4.26-4.2-4.63,1.53,1.96,6.04c-1.38.9-2.71,1.9-3.95,3l-6.66-.92-3.86,3.37,5.34,3.35c-.9,1.3-1.69,2.66-2.35,4.07l-7.29,2.63Zm22.88,14.98c-3.22,0-6.03-1.06-7.97-2.99l4.46-4.17c1.24,1.26,3.04,1.95,5.12,1.95,1.59,0,3.28-.41,4.9-1.17l7.68-.12c-3.91,4.03-9.26,6.5-14.18,6.5Zm18.93-14.29c-.2.65-.45,1.31-.74,1.95l-5.07-.62c.2-.44.37-.89.51-1.34.99-3.22.16-6.22-2.17-7.85l-1.79-6.42c7.46.45,11.59,6.68,9.25,14.27Zm-13.4-3.69c2.07,0,3.24,1.65,2.61,3.69s-2.82,3.69-4.88,3.69-3.24-1.65-2.61-3.69,2.82-3.69,4.88-3.69Zm-2.57-9.54l.61,4.79c-3.88,1.36-7.19,4.62-8.38,8.31l-5.75,6.64c-.43-2.01-.29-4.24.41-6.51,1.78-5.79,7.01-11.05,13.1-13.23Z"/>
    <path class="cls-1" d="m14.57,81.64l-.48,1.03-7.3,2.63-.5,1.04,6.64-.21-.23,1.61c-.18,1.26-.22,2.51-.12,3.7l.08.97-5.96,5.47.07.99,6.64-3.42.67,1.26c.52.99,1.18,1.9,1.94,2.71l.62.66-3.04,6.84.62.66,4.88-5.76,1.38.58c1.3.55,2.43.88,3.53,1.06l1.02.16.61,6.41.99.17,1.79-6.51,1.72-.26c1.35-.21,2.72-.54,4.08-1l1.11-.37,4.27,4.21,1.12-.37-1.78-5.5,1.6-1.04c1.26-.81,2.47-1.73,3.6-2.73l.92-.81,6.67.92.93-.81-4.86-3.05,1.06-1.53c.83-1.2,1.55-2.44,2.14-3.71l.48-1.03,7.3-2.63.5-1.04-6.65.21.23-1.61c.18-1.26.22-2.51.12-3.7l-.08-.98,5.96-5.47-.07-.99-6.64,3.42-.67-1.26c-.52-.99-1.17-1.9-1.94-2.71l-.62-.66,3.04-6.84-.62-.67-4.86,5.71-1.38-.58c-1.08-.45-2.25-.78-3.47-.98l-1-.16-.71-6.38-1.01-.17-1.78,6.47-1.72.26c-1.35.21-2.72.54-4.08,1l-1.11.37-4.27-4.21-1.12.37,1.78,5.5-1.6,1.04c-1.26.81-2.47,1.73-3.6,2.73l-.92.81-6.67-.92-.93.81,4.86,3.05-1.06,1.53c-.83,1.2-1.55,2.44-2.14,3.71Zm30.13,11.04c-4.5,5.09-10.99,8.25-16.93,8.25-3.84,0-7.18-1.33-9.39-3.73l-.82-.89,7.88-7.37.89,1.06c.97,1.16,2.48,1.8,4.26,1.8,1.28,0,2.65-.34,3.94-.97l.4-.19,11.75-.18-1.97,2.23Zm-17.16-8.01c.87-2.84,3.94-5.15,6.83-5.15s4.53,2.31,3.65,5.15c-.87,2.84-3.94,5.15-6.83,5.15-2.89,0-4.53-2.31-3.65-5.15Zm10.24-16.25c9.11,0,14.28,7.29,11.53,16.25-.28.92-.65,1.84-1.08,2.75l-.66,1.37-8.96-1.09.82-1.57c.25-.48.45-.97.61-1.47.79-2.56.11-4.94-1.78-6.21l-.29-.2-2.75-9.85h2.58Zm-6.06,1.01l1.48-.49,1.08,8.46-1.69.5c-3.27.97-6.1,3.69-7.05,6.76l-.12.38-8.76,10.12-.65-2.21c-.74-2.5-.65-5.36.24-8.28,2.08-6.76,8.3-12.89,15.47-15.24Z"/>
  </g>
  <polygon class="cls-2" points="105.75 15.63 124.54 15.63 70.34 110.74 51.55 110.74 105.75 15.63"/>
  <polygon class="cls-3" points="68.61 107.85 119.48 18.52 107.34 18.52 56.46 107.85 68.61 107.85"/>
</svg>