<?xml version="1.0" encoding="UTF-8"?>
<svg id="Layer_1" data-name="Layer 1" xmlns="http://www.w3.org/2000/svg" xmlns:xlink="http://www.w3.org/1999/xlink" viewBox="0 0 128 128">
  <defs>
    <style>
      .cls-1 {
        fill: aqua;
      }

      .cls-2 {
        fill: #1b0049;
        stroke: aqua;
        stroke-miterlimit: 10;
        stroke-width: 3.06px;
      }

      .cls-3 {
        filter: url(#outer-glow-36);
      }
    </style>
    <filter id="outer-glow-36" filterUnits="userSpaceOnUse">
      <feOffset dx="0" dy="0"/>
      <feGaussianBlur result="blur" stdDeviation="6.43"/>
      <feFlood flood-color="aqua" flood-opacity=".75"/>
      <feComposite in2="blur" operator="in"/>
      <feComposite in="SourceGraphic"/>
    </filter>
  </defs>
  <path class="cls-2" d="m123.63,58.66C124.77,19.88,91.71-2.41,57.21,5.63,28.83,12.25,7.21,38.2,4.61,65.32c-2.68,27.97,15.12,54.06,44.49,58.13,36.19,5.01,73.34-24.24,74.53-64.78Z"/>
  <g class="cls-3">
    <polyline class="cls-1" points="52.21 78.27 58.37 72.28 54.77 41.12 47.06 72.56 52.21 78.27"/>
    <path class="cls-1" d="m83.59,60.9c1.11-26.51-30.45-32.96-47.27-15.2-10.04,10.26-11.43,26.7-2.86,36.21,14.7,17.04,48.45,6.34,50.13-21.01h0Zm10.68-.6c-2.1,37.31-47.36,50.78-66.53,27.64-10.81-12.72-8.94-33.89,3.89-47.43,21.92-23.59,63.91-15.97,62.64,19.79h0Z"/>
  </g>
</svg>