<?xml version="1.0" encoding="UTF-8"?>
<svg id="Layer_1" data-name="Layer 1" xmlns="http://www.w3.org/2000/svg" xmlns:xlink="http://www.w3.org/1999/xlink" viewBox="0 0 128 128">
  <defs>
    <style>
      .cls-1 {
        filter: url(#outer-glow-33);
        stroke-width: 1.64px;
      }

      .cls-1, .cls-2 {
        fill: #1b0049;
      }

      .cls-1, .cls-3 {
        stroke: aqua;
      }

      .cls-1, .cls-3, .cls-4 {
        stroke-miterlimit: 10;
      }

      .cls-3 {
        fill: aqua;
        stroke-width: 2.93px;
      }

      .cls-4 {
        fill: none;
        filter: url(#outer-glow-36);
        stroke: #1b0049;
        stroke-width: 11.68px;
      }
    </style>
    <filter id="outer-glow-33" filterUnits="userSpaceOnUse">
      <feOffset dx="0" dy="0"/>
      <feGaussianBlur result="blur" stdDeviation="8.18"/>
      <feFlood flood-color="aqua" flood-opacity=".75"/>
      <feComposite in2="blur" operator="in"/>
      <feComposite in="SourceGraphic"/>
    </filter>
    <filter id="outer-glow-36" filterUnits="userSpaceOnUse">
      <feOffset dx="0" dy="0"/>
      <feGaussianBlur result="blur-2" stdDeviation="4"/>
      <feFlood flood-color="#1b0049" flood-opacity=".75"/>
      <feComposite in2="blur-2" operator="in"/>
      <feComposite in="SourceGraphic"/>
    </filter>
  </defs>
  <path class="cls-1" d="m241.52,69.77c-8.43-.97-18.42.24-20.18,2l-9.37-10.19,23.19-35.68c2.36.8,4.97,2.51,8.16,5.03l1.38-3.25-14.19-10.14c-14.18-11.21-17.16-6.65-35.65,25.43l-21.82-23.72s-5.18,14.23-21.28,6.56c5.11,8.91,12.37,19.62,26.67,10.64l12.24,13.6c-21.65,35.3-26.3,42.25-41.4,31.73l-1.73,2.35,14.54,11.03c15.03,10.47,19.7,3.64,41.1-31.23l2.73,3.03-22.15,34.02,1.66,1.45,21.98-33.82,17.2,19.11s9.81-9.05,26.12-4.15c16.31,4.91,19.83,13.75,16.1,20.18-3.73,6.43-17.07,6.43-26.26,0l3.11,7.32s20.5,6.72,26.81-8.36c5.32-12.71-10.79-30.88-28.95-32.96Zm-34.05-13.07c13.15-22.81,18.5-31.85,25.48-31.27l-22.48,34.53-3-3.26Z"/>
  <g>
    <g>
      <path class="cls-3" d="m34.93,10.85L5.03,75.94h2.15l8.53-18.73h27.36l8.14,18.73h12.15L34.93,10.85Zm-18.33,44.41l13.14-28.53,12.45,28.53h-25.59Z"/>
      <polygon class="cls-2" points="52.48 73.98 60.32 73.98 34.84 15.65 30.82 24.38 52.48 73.98"/>
      <path class="cls-3" d="m121.16,43.1c-1.21-2.94-2.96-5.53-5.25-7.75-4.71-4.71-10.39-7.06-17.06-7.06-4.83,0-9.18,1.28-13.04,3.82V11.43h-11.08v64.51h11.08v-3.24c3.98,2.55,8.33,3.83,13.04,3.83,3.27,0,6.36-.62,9.26-1.87,2.91-1.24,5.51-2.97,7.79-5.19,2.29-2.29,4.04-4.9,5.25-7.84,1.2-2.94,1.81-6.02,1.81-9.22s-.61-6.37-1.81-9.31Zm-9.85,14.31c-.07,1.89-.28,3.84-.64,5.83s-.97,3.84-1.81,5.54c-.85,1.7-2.08,3.07-3.68,4.12-1.6,1.05-3.71,1.57-6.33,1.57-4.9,0-9.25-1.44-13.04-4.32v-35.59c3.79-2.81,8.14-4.21,13.04-4.21,3.2,0,5.67.8,7.4,2.4,1.73,1.6,2.95,3.6,3.68,5.98.72,2.39,1.14,4.82,1.27,7.3.14,2.49.2,4.61.2,6.37,0,1.44-.03,3.1-.1,5Z"/>
      <rect class="cls-2" x="76.69" y="13.39" width="7.16" height="60.59"/>
      <path class="cls-2" d="m114.53,36.73c-1.83-1.83-3.76-3.2-5.78-4.12,1.24,1.37,2.23,3.1,2.94,5.19.65,1.83,1.09,3.87,1.32,6.13.22,2.26.34,5.08.34,8.48,0,5.29-.31,9.41-.93,12.35-.62,2.94-1.78,5.39-3.48,7.36,2.03-.98,3.89-2.32,5.58-4.02,2.16-2.22,3.76-4.64,4.8-7.25,1.12-2.74,1.67-5.56,1.67-8.43s-.55-5.77-1.67-8.48c-1.11-2.71-2.71-5.11-4.8-7.2Z"/>
    </g>
    <polyline class="cls-4" points=".9 102.01 19.17 88.63 31.45 103.01 48.72 90.63 64 107.15 79.28 90.63 96.55 103.01 108.83 88.63 127.1 102.01"/>
  </g>
</svg>