<?xml version="1.0" encoding="UTF-8"?>
<svg id="Layer_1" data-name="Layer 1" xmlns="http://www.w3.org/2000/svg" xmlns:xlink="http://www.w3.org/1999/xlink" viewBox="0 0 128 128">
  <defs>
    <style>
      .cls-1, .cls-2 {
        fill: #1b0049;
      }

      .cls-3 {
        stroke-width: 1.76px;
      }

      .cls-3, .cls-2, .cls-4 {
        stroke: aqua;
        stroke-miterlimit: 10;
      }

      .cls-3, .cls-4 {
        fill: aqua;
      }

      .cls-2 {
        filter: url(#outer-glow-37);
        stroke-width: 1.98px;
      }

      .cls-4 {
        stroke-width: 1.78px;
      }
    </style>
    <filter id="outer-glow-37" filterUnits="userSpaceOnUse">
      <feOffset dx="0" dy="0"/>
      <feGaussianBlur result="blur" stdDeviation="7.92"/>
      <feFlood flood-color="aqua" flood-opacity=".75"/>
      <feComposite in2="blur" operator="in"/>
      <feComposite in="SourceGraphic"/>
    </filter>
  </defs>
  <g>
    <path class="cls-3" d="m102.24,100.02c-1.22-1.52-2.7-2.86-4.44-4-1.74-1.14-3.58-2.02-5.53-2.64-1.94-.62-3.89-.95-5.85-.98-2.77-.05-5.06.4-6.88,1.36-1.81.95-3.07,2.21-3.76,3.78s-.74,3.24-.15,5.01,1.74,3.41,3.47,5.02c1.73,1.61,3.83,2.94,6.29,3.99,2.46,1.05,5.09,1.62,7.87,1.71h.38c.14.02.26,0,.36-.02-.46,1.18-.92,2.36-1.37,3.53-.45,1.17-.87,2.24-1.26,3.22-.38.97-.8,2.03-1.25,3.19l7.57.28c.47-1.26.91-2.38,1.31-3.39.4-1.01.83-2.09,1.28-3.25.45-1.17.9-2.3,1.33-3.41.44-1.11.82-2.07,1.15-2.86.29-.67.6-1.54.92-2.61.32-1.07.47-2.02.43-2.87-.04-1.85-.67-3.54-1.88-5.06Zm-5.39,4.22c-.06,1.09-.25,2.13-.59,3.11-.19.49-.44,1.17-.76,2.04-.32.87-.67,1.82-1.06,2.86-.22.02-.46.04-.71.05-.25,0-.51,0-.78,0-1.74-.05-3.21-.4-4.4-1.05-1.19-.65-2.17-1.47-2.96-2.46-.79-.99-1.43-2.02-1.94-3.1-.51-1.08-.91-2.07-1.22-2.97s-.55-1.9-.76-2.97c-.2-1.08-.24-2.11-.1-3.09.14-.98.6-1.78,1.38-2.39.78-.61,2.05-.9,3.81-.87,1.52.03,2.82.27,3.89.73,1.07.46,1.96,1.03,2.69,1.71.73.68,1.31,1.38,1.74,2.11.43.73.75,1.4.97,2,.21.6.36,1.03.44,1.28.3.91.42,1.92.36,3.01Z"/>
    <path class="cls-1" d="m78.23,96.15c-1.8,1.83-2.28,3.97-1.46,6.43.39,1.15,1.08,2.3,2.09,3.45,1.01,1.15,2.22,2.19,3.63,3.11,1.34.84,2.83,1.54,4.47,2.11-.44-.29-.85-.61-1.24-.98-.39-.36-.76-.75-1.13-1.16-.83-1.01-1.5-2.07-2-3.19-.51-1.12-.95-2.2-1.33-3.23-.3-1.03-.58-2.11-.82-3.25-.25-1.14-.28-2.19-.1-3.15.17-.87.48-1.55.94-2.05-1.23.48-2.25,1.11-3.05,1.91Z"/>
    <path class="cls-1" d="m97.18,96.67c-1.14-.75-2.39-1.39-3.73-1.92,1.08.81,1.95,1.77,2.6,2.87.65,1.1,1.19,2.31,1.62,3.64.32.98.46,2.04.44,3.18-.02,1.14-.24,2.27-.65,3.41-.02.06-.18.46-.48,1.19-.3.73-.67,1.66-1.1,2.77-.43,1.11-.87,2.28-1.34,3.5-.46,1.22-.9,2.37-1.31,3.43-.41,1.06-.87,2.27-1.38,3.61l4.86.18c.56-1.44,1.06-2.7,1.49-3.8.43-1.1.88-2.24,1.34-3.42.47-1.18.89-2.26,1.28-3.22.39-.96.65-1.64.8-2.04.33-.8.63-1.69.92-2.68.29-.99.4-1.83.34-2.52-.05-.78-.21-1.55-.48-2.31-.26-.76-.67-1.51-1.22-2.24-.97-1.31-2.3-2.52-3.99-3.63Z"/>
  </g>
  <g>
    <polygon class="cls-4" points="31.75 13.59 31.4 12.52 43.08 5.4 44.25 5.48 53.24 33.8 46.74 33.22 39.01 9.18 31.75 13.59"/>
    <polygon class="cls-1" points="39.96 8.62 47.62 32.48 51.82 32.85 43.43 6.49 39.96 8.62"/>
  </g>
  <polygon class="cls-2" points="63.82 82.18 66.4 70.44 75.75 120.8 32.14 60.51 58.77 85.95 48.94 80.24 68.38 103.3 66.09 87.97 64.06 94.96 23.88 4.52 63.82 82.18"/>
</svg>