<?xml version="1.0" encoding="UTF-8"?>
<svg id="Layer_1" data-name="Layer 1" xmlns="http://www.w3.org/2000/svg" viewBox="0 0 128 128">
  <defs>
    <style>
      .cls-1 {
        fill: #1b0049;
        stroke: aqua;
        stroke-miterlimit: 10;
      }
    </style>
  </defs>
  <g>
    <path class="cls-1" d="m96.03,27.79h-58.03c-.75,0-1.36-.52-1.36-1.15v-3.85c0-.64.61-1.15,1.36-1.15h64.46c1.33,0,1.87,1.45.78,2.1l-6.43,3.85c-.23.14-.5.21-.78.21Z"/>
    <path class="cls-1" d="m96.03,43.78h-58.03c-.75,0-1.36-.52-1.36-1.15v-3.85c0-.64.61-1.15,1.36-1.15h64.46c1.33,0,1.87,1.45.78,2.1l-6.43,3.85c-.23.14-.5.21-.78.21Z"/>
    <path class="cls-1" d="m96.03,59.76h-58.03c-.75,0-1.36-.52-1.36-1.15v-3.85c0-.64.61-1.15,1.36-1.15h64.46c1.33,0,1.87,1.45.78,2.1l-6.43,3.85c-.23.14-.5.21-.78.21Z"/>
    <path class="cls-1" d="m96.03,75.75h-58.03c-.75,0-1.36-.52-1.36-1.15v-3.85c0-.64.61-1.15,1.36-1.15h64.46c1.33,0,1.87,1.45.78,2.1l-6.43,3.85c-.23.14-.5.21-.78.21Z"/>
    <path class="cls-1" d="m96.03,91.74h-58.03c-.75,0-1.36-.52-1.36-1.15v-3.85c0-.64.61-1.15,1.36-1.15h64.46c1.33,0,1.87,1.45.78,2.1l-6.43,3.85c-.23.14-.5.21-.78.21Z"/>
    <path class="cls-1" d="m96.03,107.72h-58.03c-.75,0-1.36-.52-1.36-1.15v-3.85c0-.64.61-1.15,1.36-1.15h64.46c1.33,0,1.87,1.45.78,2.1l-6.43,3.85c-.23.14-.5.21-.78.21Z"/>
  </g>
  <path class="cls-1" d="m26.37,18.3c-3.54,0-6.41,2.87-6.41,6.41s2.87,6.41,6.41,6.41,6.41-2.87,6.41-6.41-2.87-6.41-6.41-6.41Zm0,9.99c-1.98,0-3.58-1.6-3.58-3.58s1.6-3.58,3.58-3.58,3.58,1.6,3.58,3.58-1.6,3.58-3.58,3.58Z"/>
  <path class="cls-1" d="m26.37,34.29c-3.54,0-6.41,2.87-6.41,6.41s2.87,6.41,6.41,6.41,6.41-2.87,6.41-6.41-2.87-6.41-6.41-6.41Zm0,9.99c-1.98,0-3.58-1.6-3.58-3.58s1.6-3.58,3.58-3.58,3.58,1.6,3.58,3.58-1.6,3.58-3.58,3.58Z"/>
  <path class="cls-1" d="m26.37,50.28c-3.54,0-6.41,2.87-6.41,6.41s2.87,6.41,6.41,6.41,6.41-2.87,6.41-6.41-2.87-6.41-6.41-6.41Zm0,9.99c-1.98,0-3.58-1.6-3.58-3.58s1.6-3.58,3.58-3.58,3.58,1.6,3.58,3.58-1.6,3.58-3.58,3.58Z"/>
  <path class="cls-1" d="m26.37,66.26c-3.54,0-6.41,2.87-6.41,6.41s2.87,6.41,6.41,6.41,6.41-2.87,6.41-6.41-2.87-6.41-6.41-6.41Zm0,9.99c-1.98,0-3.58-1.6-3.58-3.58s1.6-3.58,3.58-3.58,3.58,1.6,3.58,3.58-1.6,3.58-3.58,3.58Z"/>
  <path class="cls-1" d="m26.37,82.25c-3.54,0-6.41,2.87-6.41,6.41s2.87,6.41,6.41,6.41,6.41-2.87,6.41-6.41-2.87-6.41-6.41-6.41Zm0,9.99c-1.98,0-3.58-1.6-3.58-3.58s1.6-3.58,3.58-3.58,3.58,1.6,3.58,3.58-1.6,3.58-3.58,3.58Z"/>
  <path class="cls-1" d="m26.37,98.24c-3.54,0-6.41,2.87-6.41,6.41s2.87,6.41,6.41,6.41,6.41-2.87,6.41-6.41-2.87-6.41-6.41-6.41Zm0,9.99c-1.98,0-3.58-1.6-3.58-3.58s1.6-3.58,3.58-3.58,3.58,1.6,3.58,3.58-1.6,3.58-3.58,3.58Z"/>
</svg>