<?xml version="1.0" encoding="UTF-8"?>
<svg id="Layer_1" data-name="Layer 1" xmlns="http://www.w3.org/2000/svg" xmlns:xlink="http://www.w3.org/1999/xlink" viewBox="0 0 128 128">
  <defs>
    <style>
      .cls-1 {
        fill: none;
      }

      .cls-1, .cls-2, .cls-3, .cls-4, .cls-5, .cls-6, .cls-7 {
        stroke: aqua;
        stroke-miterlimit: 10;
      }

      .cls-8 {
        fill: aqua;
      }

      .cls-2 {
        filter: url(#outer-glow-40);
      }

      .cls-2, .cls-3, .cls-4, .cls-5, .cls-6, .cls-7 {
        fill: #1b0049;
      }

      .cls-2, .cls-4, .cls-6, .cls-7 {
        stroke-width: .59px;
      }

      .cls-3 {
        stroke-width: 1.43px;
      }

      .cls-4 {
        filter: url(#outer-glow-38);
      }

      .cls-5 {
        filter: url(#outer-glow-24);
        stroke-width: 2.92px;
      }

      .cls-6 {
        filter: url(#outer-glow-37);
      }

      .cls-7 {
        filter: url(#outer-glow-39);
      }
    </style>
    <filter id="outer-glow-22" filterUnits="userSpaceOnUse">
      <feOffset dx="0" dy="0"/>
      <feGaussianBlur result="blur" stdDeviation="14"/>
      <feFlood flood-color="aqua" flood-opacity=".75"/>
      <feComposite in2="blur" operator="in"/>
      <feComposite in="SourceGraphic"/>
    </filter>
    <filter id="outer-glow-24" filterUnits="userSpaceOnUse">
      <feOffset dx="0" dy="0"/>
      <feGaussianBlur result="blur-2" stdDeviation="14.61"/>
      <feFlood flood-color="aqua" flood-opacity=".75"/>
      <feComposite in2="blur-2" operator="in"/>
      <feComposite in="SourceGraphic"/>
    </filter>
    <filter id="outer-glow-37" filterUnits="userSpaceOnUse">
      <feOffset dx="0" dy="0"/>
      <feGaussianBlur result="blur-3" stdDeviation="1.86"/>
      <feFlood flood-color="aqua" flood-opacity=".75"/>
      <feComposite in2="blur-3" operator="in"/>
      <feComposite in="SourceGraphic"/>
    </filter>
    <filter id="outer-glow-38" filterUnits="userSpaceOnUse">
      <feOffset dx="0" dy="0"/>
      <feGaussianBlur result="blur-4" stdDeviation="1.86"/>
      <feFlood flood-color="aqua" flood-opacity=".75"/>
      <feComposite in2="blur-4" operator="in"/>
      <feComposite in="SourceGraphic"/>
    </filter>
    <filter id="outer-glow-39" filterUnits="userSpaceOnUse">
      <feOffset dx="0" dy="0"/>
      <feGaussianBlur result="blur-5" stdDeviation="1.86"/>
      <feFlood flood-color="aqua" flood-opacity=".75"/>
      <feComposite in2="blur-5" operator="in"/>
      <feComposite in="SourceGraphic"/>
    </filter>
    <filter id="outer-glow-40" filterUnits="userSpaceOnUse">
      <feOffset dx="0" dy="0"/>
      <feGaussianBlur result="blur-6" stdDeviation="1.86"/>
      <feFlood flood-color="aqua" flood-opacity=".75"/>
      <feComposite in2="blur-6" operator="in"/>
      <feComposite in="SourceGraphic"/>
    </filter>
  </defs>
  <line class="cls-1" x1="128" y1="0" x2="128" y2="64"/>
  <rect class="cls-5" x="-141.08" y="6.5" width="115" height="115"/>
  <g>
    <g>
      <path class="cls-3" d="m82.48,40.01h-36.97c-3.04,0-5.51,2.47-5.51,5.51v42.48h47.98v-42.48c0-3.04-2.47-5.51-5.51-5.51Zm-2.57,39.92h-31.83v-27.95h31.83v27.95Z"/>
      <circle class="cls-8" cx="82.01" cy="45.97" r="2"/>
      <circle class="cls-8" cx="74.01" cy="45.97" r="2"/>
      <circle class="cls-8" cx="66" cy="45.97" r="2"/>
    </g>
    <g>
      <g>
        <polygon class="cls-6" points="102.2 64.4 97.26 77.93 122.6 64.31 95.16 50.07 106.71 63.52 105.31 60.03 108.98 63.98 101.91 70.14 102.2 64.4"/>
        <polygon class="cls-4" points="25.8 64.4 30.74 77.93 5.4 64.31 32.84 50.07 21.29 63.52 22.69 60.03 19.02 63.98 26.09 70.14 25.8 64.4"/>
      </g>
      <g>
        <polygon class="cls-7" points="63.6 102.2 50.07 97.26 63.69 122.6 77.93 95.16 64.48 106.71 67.97 105.31 64.02 108.98 57.86 101.91 63.6 102.2"/>
        <polygon class="cls-2" points="63.6 25.8 50.07 30.74 63.69 5.4 77.93 32.84 64.48 21.29 67.97 22.69 64.02 19.02 57.86 26.09 63.6 25.8"/>
      </g>
    </g>
  </g>
</svg>