<?xml version="1.0" encoding="UTF-8"?>
<svg id="Layer_1" data-name="Layer 1" xmlns="http://www.w3.org/2000/svg" xmlns:xlink="http://www.w3.org/1999/xlink" viewBox="0 0 128 128">
  <defs>
    <style>
      .cls-1 {
        filter: url(#outer-glow-25);
      }

      .cls-1, .cls-2, .cls-3 {
        stroke-miterlimit: 10;
      }

      .cls-1, .cls-3 {
        fill: #1b0049;
        stroke: aqua;
        stroke-width: 2.84px;
      }

      .cls-2 {
        fill: aqua;
        filter: url(#outer-glow-38);
        stroke: #1b0049;
        stroke-width: 5.56px;
      }

      .cls-3 {
        filter: url(#outer-glow-28);
      }
    </style>
    <filter id="outer-glow-22" filterUnits="userSpaceOnUse">
      <feOffset dx="0" dy="0"/>
      <feGaussianBlur result="blur" stdDeviation="14"/>
      <feFlood flood-color="aqua" flood-opacity=".75"/>
      <feComposite in2="blur" operator="in"/>
      <feComposite in="SourceGraphic"/>
    </filter>
    <filter id="outer-glow-25" filterUnits="userSpaceOnUse">
      <feOffset dx="0" dy="0"/>
      <feGaussianBlur result="blur-2" stdDeviation="15.25"/>
      <feFlood flood-color="aqua" flood-opacity=".75"/>
      <feComposite in2="blur-2" operator="in"/>
      <feComposite in="SourceGraphic"/>
    </filter>
    <filter id="outer-glow-28" filterUnits="userSpaceOnUse">
      <feOffset dx="0" dy="0"/>
      <feGaussianBlur result="blur-3" stdDeviation="14.18"/>
      <feFlood flood-color="aqua" flood-opacity=".75"/>
      <feComposite in2="blur-3" operator="in"/>
      <feComposite in="SourceGraphic"/>
    </filter>
    <filter id="outer-glow-38" filterUnits="userSpaceOnUse">
      <feOffset dx="0" dy="0"/>
      <feGaussianBlur result="blur-4" stdDeviation="4.47"/>
      <feFlood flood-color="aqua" flood-opacity=".75"/>
      <feComposite in2="blur-4" operator="in"/>
      <feComposite in="SourceGraphic"/>
    </filter>
  </defs>
  <rect class="cls-1" x="-116.08" y="48.77" width="120" height="30.45" transform="translate(7.92 120.08) rotate(90)"/>
  <polygon class="cls-3" points="-73.19 212 -138.08 155 -51.4 197.96 -51.4 156.19 -23.08 156.19 -23.08 267.81 -51.4 267.81 -51.4 226.04 -138.08 269 -73.19 212"/>
  <path class="cls-2" d="m52.39,116.04c12.33,4.52,26.19,4.78,38.58.38,41.64-15.23,47.07-69.47,12.76-95.78C56.5-13.88.18,30.67,17.2,79.89l5.2-4.56-.8,11.66-12.94-13.74,4.82-.98-11.72-2.71,22.92,26.58,5.67-37.33-9.42,10.8c.17-3.97.72-7.81,1.64-11.48,6.74-26.94,33.23-43.11,59.42-33.4,14.18,4.91,25.6,16.98,29.75,31.41,6.27,20.53-4.65,42.17-23.54,52.54-9.93,5.48-22.16,8.1-35.82,7.35Z"/>
</svg>