<?xml version="1.0" encoding="UTF-8"?>
<svg id="Layer_1" data-name="Layer 1" xmlns="http://www.w3.org/2000/svg" xmlns:xlink="http://www.w3.org/1999/xlink" viewBox="0 0 128 128">
  <defs>
    <style>
      .cls-1, .cls-2 {
        fill: #1b0049;
      }

      .cls-3 {
        stroke-width: 1.76px;
      }

      .cls-3, .cls-2, .cls-4 {
        stroke: aqua;
        stroke-miterlimit: 10;
      }

      .cls-3, .cls-4 {
        fill: aqua;
      }

      .cls-2 {
        filter: url(#outer-glow-37);
        stroke-width: 1.98px;
      }

      .cls-4 {
        stroke-width: 1.78px;
      }
    </style>
    <filter id="outer-glow-37" filterUnits="userSpaceOnUse">
      <feOffset dx="0" dy="0"/>
      <feGaussianBlur result="blur" stdDeviation="7.92"/>
      <feFlood flood-color="aqua" flood-opacity=".75"/>
      <feComposite in2="blur" operator="in"/>
      <feComposite in="SourceGraphic"/>
    </filter>
  </defs>
  <g>
    <path class="cls-3" d="m62.14,14.77c-1.27-1.54-2.8-2.89-4.58-4.04-1.78-1.15-3.66-2.04-5.62-2.67-1.96-.63-3.92-.96-5.88-.99-2.77-.05-5.05.41-6.84,1.37-1.78.96-2.99,2.24-3.63,3.83s-.63,3.27.03,5.06,1.86,3.45,3.65,5.08c1.79,1.63,3.93,2.97,6.43,4.04,2.5,1.07,5.14,1.64,7.93,1.73h.38c.14.02.26,0,.36-.02-.42,1.19-.83,2.38-1.25,3.57-.41,1.19-.79,2.27-1.14,3.25-.35.98-.73,2.06-1.14,3.23l7.58.29c.42-1.27.82-2.41,1.19-3.43.37-1.02.75-2.11,1.17-3.29.41-1.18.82-2.33,1.21-3.45.4-1.12.75-2.09,1.05-2.89.27-.68.54-1.56.83-2.64.29-1.08.4-2.05.33-2.9-.11-1.87-.8-3.58-2.06-5.12Zm-5.24,4.27c-.02,1.1-.18,2.15-.48,3.14-.17.5-.4,1.19-.69,2.07-.28.88-.61,1.84-.96,2.89-.22.02-.46.04-.7.05-.25,0-.51,0-.78,0-1.75-.05-3.22-.41-4.44-1.06-1.21-.66-2.23-1.48-3.05-2.48-.82-1-1.51-2.05-2.05-3.13-.55-1.09-.99-2.09-1.32-3.01s-.62-1.92-.86-3c-.24-1.09-.31-2.13-.21-3.12.1-.99.53-1.8,1.29-2.42.76-.62,2.02-.91,3.78-.88,1.53.03,2.83.28,3.91.74,1.08.47,2,1.04,2.75,1.73.75.68,1.36,1.4,1.81,2.14.46.74.8,1.41,1.04,2.02.23.61.4,1.04.49,1.29.33.92.48,1.94.47,3.04Z"/>
    <path class="cls-1" d="m38,10.85c-1.73,1.85-2.14,4.02-1.23,6.5.43,1.16,1.16,2.32,2.22,3.48,1.05,1.16,2.3,2.21,3.74,3.15,1.37.84,2.89,1.55,4.54,2.13-.45-.29-.87-.62-1.27-.99-.4-.37-.79-.76-1.17-1.17-.87-1.02-1.57-2.09-2.12-3.23-.55-1.14-1.03-2.22-1.44-3.26-.34-1.04-.65-2.13-.94-3.29-.29-1.15-.36-2.22-.21-3.19.14-.88.43-1.57.86-2.07-1.21.48-2.21,1.13-2.99,1.93Z"/>
    <path class="cls-1" d="m56.97,11.38c-1.17-.76-2.44-1.4-3.8-1.94,1.11.82,2.01,1.79,2.7,2.9.69,1.11,1.27,2.34,1.75,3.68.35.99.53,2.06.55,3.21.02,1.15-.16,2.3-.52,3.45-.02.06-.16.46-.44,1.21-.28.74-.61,1.68-1,2.8-.39,1.12-.79,2.3-1.21,3.54-.42,1.24-.82,2.39-1.19,3.47-.38,1.08-.79,2.29-1.25,3.65l4.86.18c.51-1.45.96-2.73,1.35-3.84.39-1.11.8-2.26,1.22-3.46.42-1.2.81-2.28,1.17-3.25.35-.97.6-1.66.73-2.06.3-.81.57-1.71.83-2.71.25-1,.34-1.85.25-2.55-.08-.79-.27-1.57-.56-2.34-.29-.77-.72-1.52-1.3-2.27-1.02-1.33-2.39-2.55-4.12-3.67Z"/>
  </g>
  <g>
    <polygon class="cls-4" points="80.5 102.35 80.12 101.26 91.54 94.06 92.71 94.15 102.72 122.78 96.2 122.19 87.61 97.89 80.5 102.35"/>
    <polygon class="cls-1" points="88.54 97.32 97.04 121.44 101.26 121.82 91.93 95.17 88.54 97.32"/>
  </g>
  <polygon class="cls-2" points="68 83.73 70.15 71.87 81.3 122.78 35.54 61.82 63.08 87.54 53.04 81.77 73.31 105.09 70.47 89.59 68.69 96.66 25.28 5.22 68 83.73"/>
</svg>