<?xml version="1.0" encoding="UTF-8"?>
<svg id="Layer_1" data-name="Layer 1" xmlns="http://www.w3.org/2000/svg" xmlns:xlink="http://www.w3.org/1999/xlink" viewBox="0 0 128 128">
  <defs>
    <style>
      .cls-1 {
        filter: url(#outer-glow-32);
        stroke-width: 1.64px;
      }

      .cls-1, .cls-2 {
        fill: #1b0049;
        stroke: aqua;
        stroke-miterlimit: 10;
      }
    </style>
    <filter id="outer-glow-32" filterUnits="userSpaceOnUse">
      <feOffset dx="0" dy="0"/>
      <feGaussianBlur result="blur" stdDeviation="8.18"/>
      <feFlood flood-color="aqua" flood-opacity=".75"/>
      <feComposite in2="blur" operator="in"/>
      <feComposite in="SourceGraphic"/>
    </filter>
  </defs>
  <path class="cls-1" d="m-51.58,71.47c-8.43-.97-18.42.24-20.18,2l-9.37-10.19,23.19-35.68c2.36.8,4.97,2.51,8.16,5.03l1.38-3.25-14.19-10.14c-14.18-11.21-17.16-6.65-35.65,25.43l-21.82-23.72s-5.18,14.23-21.28,6.56c5.11,8.91,12.37,19.62,26.67,10.64l12.24,13.6c-21.65,35.3-26.3,42.25-41.4,31.73l-1.73,2.35,14.54,11.03c15.03,10.47,19.7,3.64,41.1-31.23l2.73,3.03-22.15,34.02,1.66,1.45,21.98-33.82,17.2,19.11s9.81-9.05,26.12-4.15c16.31,4.91,19.83,13.75,16.1,20.18-3.73,6.43-17.07,6.43-26.26,0l3.11,7.32s20.5,6.72,26.81-8.36c5.32-12.71-10.79-30.88-28.95-32.96Zm-34.05-13.07c13.15-22.81,18.5-31.85,25.48-31.27l-22.48,34.53-3-3.26Z"/>
  <g>
    <path class="cls-2" d="m96.03,27.11H25.54c-.75,0-1.36-.52-1.36-1.15v-3.85c0-.64.61-1.15,1.36-1.15h76.91c1.33,0,1.87,1.45.78,2.1l-6.43,3.85c-.23.14-.5.21-.78.21Z"/>
    <path class="cls-2" d="m96.03,43.1H25.54c-.75,0-1.36-.52-1.36-1.15v-3.85c0-.64.61-1.15,1.36-1.15h76.91c1.33,0,1.87,1.45.78,2.1l-6.43,3.85c-.23.14-.5.21-.78.21Z"/>
    <path class="cls-2" d="m96.03,59.08H25.54c-.75,0-1.36-.52-1.36-1.15v-3.85c0-.64.61-1.15,1.36-1.15h76.91c1.33,0,1.87,1.45.78,2.1l-6.43,3.85c-.23.14-.5.21-.78.21Z"/>
    <path class="cls-2" d="m96.03,75.07H25.54c-.75,0-1.36-.52-1.36-1.15v-3.85c0-.64.61-1.15,1.36-1.15h76.91c1.33,0,1.87,1.45.78,2.1l-6.43,3.85c-.23.14-.5.21-.78.21Z"/>
    <path class="cls-2" d="m96.03,91.06H25.54c-.75,0-1.36-.52-1.36-1.15v-3.85c0-.64.61-1.15,1.36-1.15h76.91c1.33,0,1.87,1.45.78,2.1l-6.43,3.85c-.23.14-.5.21-.78.21Z"/>
    <path class="cls-2" d="m96.03,107.04H25.54c-.75,0-1.36-.52-1.36-1.15v-3.85c0-.64.61-1.15,1.36-1.15h76.91c1.33,0,1.87,1.45.78,2.1l-6.43,3.85c-.23.14-.5.21-.78.21Z"/>
  </g>
</svg>