<?xml version="1.0" encoding="UTF-8"?>
<svg id="Layer_1" data-name="Layer 1" xmlns="http://www.w3.org/2000/svg" xmlns:xlink="http://www.w3.org/1999/xlink" viewBox="0 0 128 128">
  <defs>
    <style>
      .cls-1 {
        filter: url(#outer-glow-34);
      }

      .cls-1, .cls-2 {
        fill: #1b0049;
        stroke: aqua;
        stroke-miterlimit: 10;
        stroke-width: 2.94px;
      }
    </style>
    <filter id="outer-glow-34" filterUnits="userSpaceOnUse">
      <feOffset dx="0" dy="0"/>
      <feGaussianBlur result="blur" stdDeviation="4"/>
      <feFlood flood-color="aqua" flood-opacity=".75"/>
      <feComposite in2="blur" operator="in"/>
      <feComposite in="SourceGraphic"/>
    </filter>
  </defs>
  <rect class="cls-2" x="20.22" y="15.83" width="92.48" height="58.89"/>
  <path class="cls-1" d="m108.34,51.79c9.45-15.02,2.8-29.86-12.59-34.5-14.21-4.28-33.27,1.02-44.64,12.69-10.31,10.58-12.28,24.02-4.42,33.12l-31.38,36.58,18.69,12.49,30.5-40.36c16.49,2.11,35.11-6.14,43.85-20.03Zm-46.43,7.42c-10.99-5-11.81-17.02-3.19-26.33,7.91-8.55,21.69-12.46,31.86-9.18,10.76,3.47,14.75,14.06,7.76,24.27-7.7,11.24-24.67,16.59-36.43,11.24Z"/>
</svg>