<?xml version="1.0" encoding="UTF-8"?>
<svg id="Layer_1" data-name="Layer 1" xmlns="http://www.w3.org/2000/svg" xmlns:xlink="http://www.w3.org/1999/xlink" viewBox="0 0 128 128">
  <defs>
    <style>
      .cls-1 {
        fill: none;
        filter: url(#outer-glow-35);
        stroke: #1b0049;
        stroke-width: 2.48px;
      }

      .cls-1, .cls-2 {
        stroke-miterlimit: 10;
      }

      .cls-2 {
        fill: #1b0049;
        stroke: aqua;
        stroke-width: 2.94px;
      }

      .cls-3 {
        filter: url(#outer-glow-36);
      }
    </style>
    <filter id="outer-glow-35" filterUnits="userSpaceOnUse">
      <feOffset dx="0" dy="0"/>
      <feGaussianBlur result="blur" stdDeviation="4"/>
      <feFlood flood-color="#1b0049" flood-opacity=".75"/>
      <feComposite in2="blur" operator="in"/>
      <feComposite in="SourceGraphic"/>
    </filter>
    <filter id="outer-glow-36" filterUnits="userSpaceOnUse">
      <feOffset dx="0" dy="0"/>
      <feGaussianBlur result="blur-2" stdDeviation="6.47"/>
      <feFlood flood-color="aqua" flood-opacity=".75"/>
      <feComposite in2="blur-2" operator="in"/>
      <feComposite in="SourceGraphic"/>
    </filter>
  </defs>
  <polygon class="cls-1" points="85.67 62.68 62.42 43.12 86.03 28.81 108.02 46.21 85.67 62.68"/>
  <g class="cls-3">
    <path class="cls-2" d="m115.19,64.61c13.99-13.45,10.83-30.95-4.28-39.91-13.95-8.28-35.57-7.67-50.71,1.71-13.73,8.51-19.35,22.26-13.41,33.98L3.86,90.93l16.55,18.17,42.98-34.79c16.95,6.58,38.87,2.73,51.8-9.71Zm-51.22-4.34c-10.34-8.2-8.05-21.16,3.54-28.78,10.64-6.99,26.29-7.51,36.22-1.35,10.51,6.52,11.95,18.8,1.84,27.79-11.12,9.9-30.55,11.11-41.61,2.34Z"/>
  </g>
</svg>