<?xml version="1.0" encoding="UTF-8"?>
<svg id="Layer_1" data-name="Layer 1" xmlns="http://www.w3.org/2000/svg" xmlns:xlink="http://www.w3.org/1999/xlink" viewBox="0 0 128 128">
  <defs>
    <style>
      .cls-1 {
        fill: aqua;
        filter: url(#outer-glow-35);
        stroke: #1b0049;
      }

      .cls-1, .cls-2 {
        stroke-miterlimit: 10;
      }

      .cls-2 {
        fill: #1b0049;
        filter: url(#outer-glow-36);
        stroke: aqua;
        stroke-width: 2.94px;
      }
    </style>
    <filter id="outer-glow-35" filterUnits="userSpaceOnUse">
      <feOffset dx="0" dy="0"/>
      <feGaussianBlur result="blur" stdDeviation="4"/>
      <feFlood flood-color="#1b0049" flood-opacity=".75"/>
      <feComposite in2="blur" operator="in"/>
      <feComposite in="SourceGraphic"/>
    </filter>
    <filter id="outer-glow-36" filterUnits="userSpaceOnUse">
      <feOffset dx="0" dy="0"/>
      <feGaussianBlur result="blur-2" stdDeviation="4"/>
      <feFlood flood-color="aqua" flood-opacity=".75"/>
      <feComposite in2="blur-2" operator="in"/>
      <feComposite in="SourceGraphic"/>
    </filter>
  </defs>
  <polygon class="cls-1" points="65.46 30.18 60.9 34.73 93.32 50.33 94.94 42.52 65.46 30.18"/>
  <path class="cls-2" d="m108.34,51.79c9.45-15.02,2.8-29.86-12.59-34.5-14.21-4.28-33.27,1.02-44.64,12.69-10.31,10.58-12.28,24.02-4.42,33.12l-31.38,36.58,18.69,12.49,30.5-40.36c16.49,2.11,35.11-6.14,43.85-20.03Zm-46.43,7.42c-10.99-5-11.81-17.02-3.19-26.33,7.91-8.55,21.69-12.46,31.86-9.18,10.76,3.47,14.75,14.06,7.76,24.27-7.7,11.24-24.67,16.59-36.43,11.24Z"/>
</svg>