<?xml version="1.0" encoding="UTF-8"?>
<svg id="Layer_1" data-name="Layer 1" xmlns="http://www.w3.org/2000/svg" viewBox="0 0 128 128">
  <defs>
    <style>
      .cls-1 {
        fill: #868795;
      }

      .cls-2 {
        fill: aqua;
      }

      .cls-3 {
        fill: #dff2fc;
      }

      .cls-4 {
        fill: #1b0049;
        stroke: aqua;
        stroke-miterlimit: 10;
        stroke-width: 3.36px;
      }
    </style>
  </defs>
  <g>
    <polyline class="cls-4" points="78.95 40.96 64.71 26.77 15.71 17.28 5.25 22.34 13.28 110.12"/>
    <polyline class="cls-3" points="82.75 39.22 81.86 40.07 65.95 44.97 15.1 33.05 13.28 110.12"/>
    <polygon class="cls-1" points="13.31 110.72 13.09 31.4 65.93 43.82 77.08 40.39 12.4 26.77 13.31 110.72"/>
    <polygon class="cls-2" points="13.31 110.72 14.1 31.83 65.93 43.82 77.08 40.39 8.4 25.41 13.31 110.72"/>
    <polygon class="cls-4" points="109.89 104.29 13.28 110.12 15.1 33.05 65.95 44.97 81.86 40.07 122.75 51.47 109.89 104.29"/>
  </g>
  <g>
    <polygon class="cls-2" points="79.35 55.32 54.99 51.06 53.23 97.12 83.84 95.99 88.78 67.15 78.06 65.82 79.35 55.32"/>
    <path class="cls-2" d="m79.04,65.02l8.61,1.03-7.49-9.33-1.12,8.3Z"/>
  </g>
</svg>