<?xml version="1.0" encoding="UTF-8"?>
<svg id="Layer_1" data-name="Layer 1" xmlns="http://www.w3.org/2000/svg" viewBox="0 0 128 128">
  <defs>
    <style>
      .cls-1 {
        fill: #868795;
      }

      .cls-2 {
        fill: aqua;
      }

      .cls-3 {
        fill: none;
        stroke-width: .93px;
      }

      .cls-3, .cls-4 {
        stroke: aqua;
        stroke-miterlimit: 10;
      }

      .cls-4 {
        fill: #1b0049;
        stroke-width: 3.36px;
      }

      .cls-5 {
        fill: #dff2fc;
      }
    </style>
  </defs>
  <g>
    <polyline class="cls-4" points="78.95 40.96 64.71 26.77 15.71 17.28 5.25 22.34 13.28 110.12"/>
    <polyline class="cls-5" points="82.75 39.22 81.86 40.07 65.95 44.97 15.1 33.05 13.28 110.12"/>
    <polygon class="cls-1" points="13.31 110.72 13.09 31.4 65.93 43.82 77.08 40.39 12.4 26.77 13.31 110.72"/>
    <polygon class="cls-2" points="13.31 110.72 14.1 31.83 65.93 43.82 77.08 40.39 8.4 25.41 13.31 110.72"/>
    <polygon class="cls-4" points="109.89 104.29 13.28 110.12 15.1 33.05 65.95 44.97 81.86 40.07 122.75 51.47 109.89 104.29"/>
  </g>
  <g>
    <line class="cls-3" x1="75.51" y1="58.1" x2="68.81" y2="98.73"/>
    <line class="cls-3" x1="75.74" y1="77.16" x2="101.55" y2="79.2"/>
    <polygon class="cls-2" points="39.59 100.4 66.12 98.88 72.63 57.52 43.67 51.7 39.59 100.4"/>
    <line class="cls-3" x1="91.33" y1="79.75" x2="87.46" y2="97.67"/>
  </g>
</svg>