<?xml version="1.0" encoding="UTF-8"?>
<svg id="Layer_1" data-name="Layer 1" xmlns="http://www.w3.org/2000/svg" viewBox="0 0 128 128">
  <defs>
    <style>
      .cls-1 {
        fill: #868795;
      }

      .cls-2, .cls-3 {
        fill: aqua;
      }

      .cls-3 {
        stroke: #1b0049;
        stroke-width: .62px;
      }

      .cls-3, .cls-4 {
        stroke-miterlimit: 10;
      }

      .cls-5 {
        fill: #dff2fc;
      }

      .cls-4 {
        fill: #1b0049;
        stroke: aqua;
        stroke-width: 3.36px;
      }
    </style>
  </defs>
  <g>
    <polyline class="cls-4" points="78.95 40.96 64.71 26.77 15.71 17.28 5.25 22.34 13.28 110.12"/>
    <polyline class="cls-5" points="82.75 39.22 81.86 40.07 65.95 44.97 15.1 33.05 13.28 110.12"/>
    <polygon class="cls-1" points="13.31 110.72 13.09 31.4 65.93 43.82 77.08 40.39 12.4 26.77 13.31 110.72"/>
    <polygon class="cls-2" points="13.31 110.72 14.1 31.83 65.93 43.82 77.08 40.39 8.4 25.41 13.31 110.72"/>
    <polygon class="cls-4" points="109.89 104.29 13.28 110.12 15.1 33.05 65.95 44.97 81.86 40.07 122.75 51.47 109.89 104.29"/>
  </g>
  <g>
    <polygon class="cls-3" points="65.01 50.33 52.23 46.57 57.12 54.45 66.49 54.45 65.01 50.33"/>
    <polygon class="cls-3" points="67.46 57.14 58.78 57.14 63.22 64.3 70.03 64.3 67.46 57.14"/>
    <polygon class="cls-3" points="80.9 78.6 76.68 82.82 71.16 67.45 65.18 67.45 76.23 85.27 77.34 84.49 79.91 82.7 78.69 88.41 66.51 79.66 78.71 93.44 83.69 99.06 83.71 93 83.78 79.8 83.8 75.7 80.9 78.6"/>
  </g>
</svg>