<?xml version="1.0" encoding="UTF-8"?>
<svg id="Layer_1" data-name="Layer 1" xmlns="http://www.w3.org/2000/svg" viewBox="0 0 128 128">
  <defs>
    <style>
      .cls-1 {
        fill: #868795;
      }

      .cls-2 {
        fill: aqua;
      }

      .cls-3 {
        fill: none;
        stroke: #1b0049;
        stroke-width: .71px;
      }

      .cls-3, .cls-4 {
        stroke-miterlimit: 10;
      }

      .cls-5 {
        fill: #dff2fc;
      }

      .cls-4 {
        fill: #1b0049;
        stroke: aqua;
        stroke-width: 3.36px;
      }
    </style>
  </defs>
  <g>
    <polyline class="cls-4" points="78.95 40.96 64.71 26.77 15.71 17.28 5.25 22.34 13.28 110.12"/>
    <polyline class="cls-5" points="82.75 39.22 81.86 40.07 65.95 44.97 15.1 33.05 13.28 110.12"/>
    <polygon class="cls-1" points="13.31 110.72 13.09 31.4 65.93 43.82 77.08 40.39 12.4 26.77 13.31 110.72"/>
    <polygon class="cls-2" points="13.31 110.72 14.1 31.83 65.93 43.82 77.08 40.39 8.4 25.41 13.31 110.72"/>
    <polygon class="cls-4" points="109.89 104.29 13.28 110.12 15.1 33.05 65.95 44.97 81.86 40.07 122.75 51.47 109.89 104.29"/>
  </g>
  <g>
    <polygon class="cls-2" points="86.63 65.73 87.27 62.67 84.67 62.23 85.36 58.76 71.37 56.06 70.8 59.88 67.6 59.33 67.12 62.82 55.78 61.13 52.42 97.02 87.69 95.36 94.54 66.91 86.63 65.73"/>
    <g>
      <line class="cls-3" x1="83.04" y1="89.17" x2="81.97" y2="94.12"/>
      <line class="cls-3" x1="61.82" y1="89.29" x2="61.1" y2="94.9"/>
      <line class="cls-3" x1="80.33" y1="89.18" x2="79.3" y2="94.22"/>
      <line class="cls-3" x1="65.2" y1="89.27" x2="64.41" y2="94.77"/>
      <line class="cls-3" x1="77.52" y1="89.2" x2="76.53" y2="94.32"/>
      <line class="cls-3" x1="68.45" y1="89.25" x2="67.61" y2="94.65"/>
      <line class="cls-3" x1="74.61" y1="89.22" x2="73.66" y2="94.43"/>
      <line class="cls-3" x1="71.59" y1="89.23" x2="70.69" y2="94.54"/>
    </g>
  </g>
</svg>