<?xml version="1.0" encoding="UTF-8"?>
<svg id="Layer_1" data-name="Layer 1" xmlns="http://www.w3.org/2000/svg" viewBox="0 0 128 128">
  <defs>
    <style>
      .cls-1 {
        fill: #868795;
      }

      .cls-2 {
        fill: aqua;
      }

      .cls-3 {
        fill: #dff2fc;
      }

      .cls-4 {
        fill: #1b0049;
        stroke: aqua;
        stroke-miterlimit: 10;
        stroke-width: 3.36px;
      }
    </style>
  </defs>
  <g>
    <polyline class="cls-4" points="78.95 40.96 64.71 26.77 15.71 17.28 5.25 22.34 13.28 110.12"/>
    <polyline class="cls-3" points="82.75 39.22 81.86 40.07 65.95 44.97 15.1 33.05 13.28 110.12"/>
    <polygon class="cls-1" points="13.31 110.72 13.09 31.4 65.93 43.82 77.08 40.39 12.4 26.77 13.31 110.72"/>
    <polygon class="cls-2" points="13.31 110.72 14.1 31.83 65.93 43.82 77.08 40.39 8.4 25.41 13.31 110.72"/>
    <polygon class="cls-4" points="109.89 104.29 13.28 110.12 15.1 33.05 65.95 44.97 81.86 40.07 122.75 51.47 109.89 104.29"/>
  </g>
  <g>
    <path class="cls-2" d="m80.97,84.37l-.07-.26-.07.27-.55,2.02-3.66-7.41c.04-.1.07-.2.09-.31.02-.12,0-.23,0-.35l4.59-4.45.3-.29c-.14-.02-1.68-.26-2.38-.37l3.86-1.1-1.7,3.41.76-2.6-1.08,3.25-.17.5.28-.45,2.8-4.47.55-.87c-.53.21-4.99,2.02-5.66,2.29l-.2.08.21.06,1.89.5-4.79,3.6c-.09-.03-.18-.06-.28-.07-.67-.07-1.28.43-1.36,1.11-.08.66.38,1.23,1.02,1.31l4.81,7.33s.29.44.29.44c.05-.27.32-1.89.47-2.72l.82,4.6-3.09-2.59,2.43,1.44-3.16-2.05-.59-.38c.12.12,4.44,4.53,4.69,4.78,0,0,.99,1,.99,1-.25-.9-1.69-6.14-2-7.26Z"/>
    <path class="cls-2" d="m82.26,57.13l-1.98,2.4,4.81-.09-5.58-6.85-.47,2.44-1.14-6.27,10.71,12.32-15.5,1.95,4.73-4.35c-1.74-.02-3.45.15-5.1.51-12.79,2.79-19.64,15.76-13.68,26.93,2.68,5.33,7.96,8.91,13.57,9.65,7.32,1.08,14.67-3.3,18.5-9.85,2.08-3.54,3.37-7.95,3.64-13.07h.02c1,4.58.52,9.5-1.3,13.79-5.84,13.45-23.99,18.03-35.37,8.02-20.69-19.06.16-49.08,24.14-37.51Z"/>
  </g>
</svg>