<?xml version="1.0" encoding="UTF-8"?>
<svg id="Layer_1" data-name="Layer 1" xmlns="http://www.w3.org/2000/svg" viewBox="0 0 128 128">
  <defs>
    <style>
      .cls-1 {
        fill: #868795;
      }

      .cls-2 {
        fill: aqua;
      }

      .cls-3 {
        stroke-width: 1.25px;
      }

      .cls-3, .cls-4 {
        fill: none;
      }

      .cls-3, .cls-4, .cls-5 {
        stroke: aqua;
        stroke-miterlimit: 10;
      }

      .cls-4 {
        stroke-width: 2.52px;
      }

      .cls-6 {
        fill: #dff2fc;
      }

      .cls-5 {
        fill: #1b0049;
        stroke-width: 3.36px;
      }
    </style>
  </defs>
  <g>
    <polyline class="cls-5" points="78.95 40.96 64.71 26.77 15.71 17.28 5.25 22.34 13.28 110.12"/>
    <polyline class="cls-6" points="82.75 39.22 81.86 40.07 65.95 44.97 15.1 33.05 13.28 110.12"/>
    <polygon class="cls-1" points="13.31 110.72 13.09 31.4 65.93 43.82 77.08 40.39 12.4 26.77 13.31 110.72"/>
    <polygon class="cls-2" points="13.31 110.72 14.1 31.83 65.93 43.82 77.08 40.39 8.4 25.41 13.31 110.72"/>
    <polygon class="cls-5" points="109.89 104.29 13.28 110.12 15.1 33.05 65.95 44.97 81.86 40.07 122.75 51.47 109.89 104.29"/>
  </g>
  <g id="image">
    <polygon class="cls-3" points="79.18 96.44 54.49 97.05 61.93 57.08 86.62 56.47 79.18 96.44"/>
    <g>
      <ellipse class="cls-2" cx="75.52" cy="68.59" rx="4.36" ry="2.8" transform="translate(-21.08 101.42) rotate(-61.02)"/>
      <polyline class="cls-3" points="74.92 71.8 73.18 81.13 74.22 86.19 73.32 91"/>
      <polyline class="cls-4" points="67.33 90.5 70.67 86.03 73.1 81.58"/>
      <polyline class="cls-3" points="74.49 79.44 70.01 78.97 74.55 73.81 76.83 77.09 81.32 75.04"/>
    </g>
    <polygon class="cls-2" points="80.35 90.18 55.65 90.79 54.49 97.05 79.18 96.44 80.35 90.18"/>
    <polyline class="cls-3" points="86.41 57.66 91.99 59.63 80.74 88.05"/>
    <polyline class="cls-3" points="67.7 56.93 69.74 51.78 83.26 56.55"/>
    <polyline class="cls-2" points="78.23 94.4 76.65 98.39 54.4 90.54 56.85 84.36"/>
  </g>
</svg>