<?xml version="1.0" encoding="UTF-8"?>
<svg id="Layer_1" data-name="Layer 1" xmlns="http://www.w3.org/2000/svg" viewBox="0 0 128 128">
  <defs>
    <style>
      .cls-1 {
        fill: #868795;
      }

      .cls-2 {
        fill: aqua;
      }

      .cls-3 {
        fill: #1b0049;
        stroke: aqua;
        stroke-miterlimit: 10;
        stroke-width: 3.36px;
      }

      .cls-4 {
        fill: #dff2fc;
      }
    </style>
  </defs>
  <g>
    <polyline class="cls-3" points="78.95 40.96 64.71 26.77 15.71 17.28 5.25 22.34 13.28 110.12"/>
    <polyline class="cls-4" points="82.75 39.22 81.86 40.07 65.95 44.97 15.1 33.05 13.28 110.12"/>
    <polygon class="cls-1" points="13.31 110.72 13.09 31.4 65.93 43.82 77.08 40.39 12.4 26.77 13.31 110.72"/>
    <polygon class="cls-2" points="13.31 110.72 14.1 31.83 65.93 43.82 77.08 40.39 8.4 25.41 13.31 110.72"/>
    <polygon class="cls-3" points="109.89 104.29 13.28 110.12 15.1 33.05 65.95 44.97 81.86 40.07 122.75 51.47 109.89 104.29"/>
  </g>
  <g>
    <path class="cls-2" d="m68.03,73.51c.72.25,1.36.66,1.86,1.23.45.51.75,1.1.9,1.73"/>
    <path class="cls-2" d="m61.39,81.36c-1.09-1.15-1.35-2.74-.84-4.23.29-.86.84-1.69,1.63-2.37.08-.07.17-.14.26-.21,1.69-1.31,3.86-1.65,5.6-1.04.72.25,1.36.66,1.86,1.23.45.51.75,1.1.9,1.73.03.11.05.22.06.34.17,1.19-.18,2.47-1.01,3.56-.3.4-.67.77-1.09,1.1-.72.56-1.52.94-2.35,1.15-.57.14-1.15.2-1.71.18-1.27-.05-2.46-.52-3.31-1.42Z"/>
    <g>
      <path class="cls-2" d="m64.43,84.11s-.04,0-.06,0c-.56,2.54-1.56,5.03-2.95,7.24-.6.96-1.27,1.87-2.01,2.73l.93-4.17-6.44,8.94,7.77-1.28-1.86-1.55.39,1.07-4.17.45,2.1-2.55-.21,1.9c4.31-2.62,7.44-7.58,8.93-13.07-.08.02-.16.05-.23.07-.73.18-1.47.26-2.19.23Z"/>
      <path class="cls-2" d="m51.05,74.39c1.85.29,3.48.62,4.88.99,1.3.34,2.39.71,3.28,1.09.32-.78.8-1.52,1.44-2.19-3.23-.88-7.99-1.45-14.59-1.48l1.94,1.5-6.5-1.05,9.39-1.97-.18,1.29,3.43-2.8-18.65,3.45,18.98,3.41-3.43-2.24Z"/>
      <path class="cls-2" d="m67.59,71.92c-2.69-12.6-8.18-18.76-13.96-16.41l.14,3.24-2.09-1.57,4.71-5.97-.56,2.86,2.65-6.85-8.68,10.64,6.4,7.71-.97-7c.89.56,1.75,1.37,2.54,2.44,2,2.68,3.52,6.9,4.36,12.09,1.7-1.09,3.69-1.48,5.47-1.18Z"/>
      <path class="cls-2" d="m71.79,74.81c5.42-8.97,8.73-15.65,10.41-20.19l-1.7,1.38,2.05-3.12.12,4.17-1.25.25,2.29,1.96-.49-8.07-8.3,11.2,4.54-4.29c-1.09,1.73-2.38,3.65-3.88,5.73-1.99,2.76-4.21,5.65-6.57,8.51.8.33,1.51.82,2.08,1.47.28.32.51.66.69,1.01Z"/>
      <path class="cls-2" d="m71.77,79.77l22.44-6.84-4.89-2.33,10.27.14-12.37,7.85,18.32-8.88-23.55-1.37,9.03,4.35-18.7,3.8c.14,1.08-.05,2.21-.56,3.27Z"/>
    </g>
  </g>
</svg>