<?xml version="1.0" encoding="UTF-8"?>
<svg id="Layer_1" data-name="Layer 1" xmlns="http://www.w3.org/2000/svg" viewBox="0 0 128 128">
  <defs>
    <style>
      .cls-1 {
        fill: #868795;
      }

      .cls-2 {
        fill: #1b0049;
        stroke: aqua;
        stroke-miterlimit: 10;
        stroke-width: 3.36px;
      }

      .cls-3 {
        fill: aqua;
      }

      .cls-4 {
        fill: #dff2fc;
      }
    </style>
  </defs>
  <g>
    <polyline class="cls-2" points="78.95 40.96 64.71 26.77 15.71 17.28 5.25 22.34 13.28 110.12"/>
    <polyline class="cls-4" points="82.75 39.22 81.86 40.07 65.95 44.97 15.1 33.05 13.28 110.12"/>
    <polygon class="cls-1" points="13.31 110.72 13.09 31.4 65.93 43.82 77.08 40.39 12.4 26.77 13.31 110.72"/>
    <polygon class="cls-3" points="13.31 110.72 14.1 31.83 65.93 43.82 77.08 40.39 8.4 25.41 13.31 110.72"/>
    <polygon class="cls-2" points="109.89 104.29 13.28 110.12 15.1 33.05 65.95 44.97 81.86 40.07 122.75 51.47 109.89 104.29"/>
  </g>
  <path class="cls-3" d="m54.58,50.1l-4.41,52.15,39.04-2.67,9.08-39.38-43.71-10.1Zm3.61,47.64l-3.44.16.3-3.02,3.47-.1-.33,2.96Zm.63-5.61l-3.5.04.32-3.15,3.54.02-.35,3.09Zm.66-5.85l-3.57-.08.33-3.29,3.6.15-.36,3.22Zm.69-6.1l-3.63-.21.34-3.44,3.67.29-.38,3.36Zm.72-6.37l-3.7-.36.36-3.6,3.73.44-.4,3.52Zm.75-6.67l-3.77-.52.38-3.77,3.8.61-.42,3.68Zm.79-6.98l-3.84-.7.4-3.96,3.88.79-.44,3.86Zm19.91,36.48l-20.62.93,2.08-16.51,21.45,1.18-2.91,14.4Zm3.72-18.4l-21.68-1.81,2.44-19.31,22.58,4.63-3.34,16.5Zm1.24,18.18l-2.35.11.53-2.5,2.37-.07-.54,2.46Zm1.03-4.65l-2.38.03.55-2.59h2.39s-.56,2.56-.56,2.56Zm1.06-4.81l-2.4-.05.57-2.68,2.41.1-.58,2.64Zm1.1-4.99l-2.43-.14.59-2.78,2.44.19-.6,2.73Zm1.14-5.17l-2.45-.24.61-2.89,2.46.29-.63,2.83Zm1.18-5.36l-2.47-.34.64-3,2.49.4-.65,2.94Zm1.23-5.56l-2.5-.45.66-3.12,2.51.52-.67,3.05Z"/>
</svg>