<?xml version="1.0" encoding="UTF-8"?>
<svg id="Layer_1" data-name="Layer 1" xmlns="http://www.w3.org/2000/svg" viewBox="0 0 128 128">
  <defs>
    <style>
      .cls-1 {
        fill: aqua;
      }
    </style>
  </defs>
  <g id="logo">
    <path class="cls-1" d="m88.4,9.19c-1.3,2.92-4.52,12.07-2.03,16.06h0c-1.34-.77-2.73-1.48-4.17-2.12-1.44-.64-2.9-1.2-4.37-1.68h0c4.63-.82,9.27-9.34,10.58-12.26Z"/>
    <path class="cls-1" d="m39.6,118.81c1.3-2.92,4.52-12.07,2.03-16.06h0c1.34.77,2.73,1.48,4.17,2.12,1.44.64,2.9,1.2,4.37,1.68h0c-4.63.82-9.27,9.34-10.58,12.26Z"/>
    <path class="cls-1" d="m64,4c0,3.2.78,12.87,4.68,15.5h0c-1.54-.15-3.1-.24-4.68-.24s-3.14.09-4.68.25h0c3.9-2.63,4.68-12.3,4.68-15.5Z"/>
    <path class="cls-1" d="m64,124c0-3.2-.78-12.87-4.68-15.5h0c1.54.15,3.1.24,4.68.24,1.58,0,3.14-.09,4.68-.25h0c-3.9,2.63-4.68,12.3-4.68,15.5Z"/>
    <path class="cls-1" d="m51.53,5.31c.66,3.13,3.44,12.42,7.8,14.18h0c-1.54.17-3.08.41-4.63.74-1.55.33-3.05.74-4.52,1.21h0c3.27-3.39,2.02-13.01,1.35-16.13Z"/>
    <path class="cls-1" d="m76.47,122.69c-.66-3.13-3.44-12.42-7.8-14.18h0c1.54-.17,3.08-.41,4.63-.74,1.55-.33,3.05-.74,4.52-1.21h0c-3.27,3.39-2.02,13.01-1.35,16.13Z"/>
    <path class="cls-1" d="m76.47,5.31c-.66,3.13-1.91,12.75,1.35,16.13h0c-1.47-.47-2.98-.88-4.52-1.21-1.55-.33-3.09-.57-4.63-.73h0c4.36-1.77,7.13-11.06,7.8-14.19Z"/>
    <path class="cls-1" d="m51.53,122.69c.66-3.13,1.91-12.75-1.35-16.13h0c1.47.47,2.98.88,4.52,1.21,1.55.33,3.09.57,4.63.73h0c-4.36,1.77-7.13,11.06-7.8,14.19Z"/>
    <path class="cls-1" d="m108.59,23.85c-2.38,2.14-9.04,9.19-8.39,13.84h0c-.91-1.25-1.89-2.46-2.95-3.64-1.06-1.17-2.17-2.27-3.31-3.31h0c4.56,1.13,12.27-4.76,14.65-6.9Z"/>
    <path class="cls-1" d="m19.41,104.15c2.38-2.14,9.04-9.19,8.39-13.84h0c.91,1.25,1.89,2.46,2.95,3.64,1.06,1.17,2.17,2.27,3.31,3.31h0c-4.56-1.13-12.27,4.76-14.65,6.9Z"/>
    <path class="cls-1" d="m99.27,15.46c-1.88,2.59-6.93,10.87-5.32,15.29h0c-1.15-1.03-2.36-2.02-3.64-2.94s-2.59-1.77-3.93-2.55h0c4.7.16,11.01-7.2,12.89-9.79Z"/>
    <path class="cls-1" d="m28.73,112.54c1.88-2.59,6.93-10.87,5.32-15.29h0c1.15,1.03,2.36,2.02,3.64,2.94,1.28.93,2.59,1.77,3.93,2.55h0c-4.7-.16-11.01,7.2-12.89,9.79Z"/>
    <path class="cls-1" d="m28.73,15.46c1.88,2.59,8.19,9.95,12.89,9.79h0c-1.34.78-2.65,1.63-3.93,2.55s-2.49,1.92-3.64,2.95h0c1.61-4.42-3.44-12.7-5.32-15.29Z"/>
    <path class="cls-1" d="m99.27,112.54c-1.88-2.59-8.19-9.95-12.89-9.79h0c1.34-.78,2.65-1.63,3.93-2.55s2.49-1.92,3.64-2.95h0c-1.61,4.42,3.44,12.7,5.32,15.29Z"/>
    <path class="cls-1" d="m19.41,23.85c2.38,2.14,10.08,8.03,14.65,6.89h0c-1.15,1.04-2.26,2.14-3.31,3.31-1.06,1.17-2.04,2.39-2.95,3.64h0c.66-4.66-6.01-11.71-8.39-13.85Z"/>
    <path class="cls-1" d="m108.59,104.15c-2.38-2.14-10.08-8.03-14.65-6.89h0c1.15-1.04,2.26-2.14,3.31-3.31,1.06-1.17,2.04-2.39,2.95-3.64h0c-.66,4.66,6.01,11.71,8.39,13.85Z"/>
    <path class="cls-1" d="m39.6,9.19c1.3,2.92,5.95,11.44,10.58,12.25h0c-1.47.48-2.93,1.04-4.37,1.68-1.44.64-2.83,1.36-4.17,2.13h0c2.49-3.99-.73-13.14-2.03-16.06Z"/>
    <path class="cls-1" d="m88.4,118.81c-1.3-2.92-5.95-11.44-10.58-12.25h0c1.47-.48,2.93-1.04,4.37-1.68,1.44-.64,2.83-1.36,4.17-2.13h0c-2.49,3.99.73,13.14,2.03,16.06Z"/>
    <path class="cls-1" d="m94.06,90.95c6.42-7.15,10.35-16.58,10.35-26.95,0-22.32-18.09-40.42-40.42-40.42S23.58,41.68,23.58,64s18.09,40.42,40.42,40.42c7.67,0,14.82-2.18,20.93-5.89l-5.37-8.7c-4.55,2.74-9.86,4.35-15.56,4.35-16.67,0-30.18-13.51-30.18-30.18s13.51-30.18,30.18-30.18,30.18,13.51,30.18,30.18c0,4.21-.87,8.22-2.43,11.87l-5.03-3.39c.99-2.64,1.55-5.49,1.55-8.48,0-13.41-10.87-24.28-24.28-24.28-10.38,0-19.22,6.53-22.69,15.7l52.75,35.52Z"/>
  </g>
</svg>