<?xml version="1.0" encoding="UTF-8"?>
<svg id="Layer_1" data-name="Layer 1" xmlns="http://www.w3.org/2000/svg" xmlns:xlink="http://www.w3.org/1999/xlink" viewBox="0 0 128 128">
  <defs>
    <style>
      .cls-1, .cls-2 {
        fill: #1b0049;
      }

      .cls-3, .cls-4 {
        fill: aqua;
      }

      .cls-2 {
        stroke: aqua;
        stroke-miterlimit: 10;
        stroke-width: 2.19px;
      }

      .cls-4 {
        filter: url(#outer-glow-1);
      }
    </style>
    <filter id="outer-glow-1" filterUnits="userSpaceOnUse">
      <feOffset dx="0" dy="0"/>
      <feGaussianBlur result="blur" stdDeviation="9.8"/>
      <feFlood flood-color="aqua" flood-opacity=".75"/>
      <feComposite in2="blur" operator="in"/>
      <feComposite in="SourceGraphic"/>
    </filter>
  </defs>
  <g>
    <g>
      <polygon class="cls-1" points="2.71 16.75 8.39 14.85 123.92 16.55 125.16 107.94 119.64 109.78 19.12 113.18 2.71 16.75"/>
      <path class="cls-3" d="m8.56,16l114.22,1.67,1.21,89.44-4.56,1.52-99.36,3.36L4,17.52l4.56-1.52m-.36-2.29l-.37.12-4.56,1.52-1.86.62.33,1.93,16.08,94.48.34,1.97,2-.07,99.36-3.36h.33s.32-.12.32-.12l4.56-1.52,1.59-.53-.02-1.67-1.21-89.44-.03-2.22-2.22-.03-114.22-1.67h-.39Z"/>
    </g>
    <polygon class="cls-4" points="118.01 22.76 14.14 21.24 28.41 105.12 119.09 102.05 118.01 22.76"/>
    <g>
      <line class="cls-1" x1="24.06" y1="107.07" x2="9.58" y2="21.95"/>
      <path class="cls-3" d="m24.02,107.08c-4.9-24.39-10.31-60.25-14.48-85.12,0,0,.08-.01.08-.01,4.22,24.96,11.2,60.53,14.41,85.13h0Z"/>
    </g>
    <g>
      <line class="cls-1" x1="119.17" y1="107.28" x2="29.57" y2="110.31"/>
      <path class="cls-3" d="m119.17,107.32c-26.32.94-63.64,2.89-89.61,3.03,0,0,0-.08,0-.08,25.72-1.53,63.64-2.36,89.61-2.95h0Z"/>
    </g>
    <g>
      <line class="cls-1" x1="21.36" y1="111.65" x2="24.68" y2="110.74"/>
      <path class="cls-3" d="m21.35,111.61c.79-.35,1.57-.79,2.4-1.02.19,0,.85-.05.94.18-.42.53-.96.69-1.59.72-.57.08-1.15.15-1.73.19l-.02-.07h0Z"/>
    </g>
  </g>
  <polygon class="cls-2" points="55.79 95.45 49.32 76.07 38.48 76.29 68.88 35.4 83.79 52.92 84.19 43.82 96.41 44.14 93.48 64.31 102.56 74.99 93.28 75.18 90.29 93.8 55.79 95.45"/>
</svg>