<?xml version="1.0" encoding="UTF-8"?>
<svg id="Layer_1" data-name="Layer 1" xmlns="http://www.w3.org/2000/svg" xmlns:xlink="http://www.w3.org/1999/xlink" viewBox="0 0 128 128">
  <defs>
    <style>
      .cls-1 {
        fill: #1b0049;
        filter: url(#outer-glow-1);
        stroke: aqua;
        stroke-miterlimit: 10;
        stroke-width: 1.17px;
      }
    </style>
    <filter id="outer-glow-1" filterUnits="userSpaceOnUse">
      <feOffset dx="0" dy="0"/>
      <feGaussianBlur result="blur" stdDeviation="4.59"/>
      <feFlood flood-color="#6fcbdc" flood-opacity=".75"/>
      <feComposite in2="blur" operator="in"/>
      <feComposite in="SourceGraphic"/>
    </filter>
  </defs>
  <path class="cls-1" d="m73.13,103.14c.71-5.06.37-6.39,6.21-18.17,2.8-5.81,7.24-12.01,10.96-16.47,3.42-3.98,6.83-8.09,9.48-12.58,3.2-5.32,4.85-12.82,3.46-19.88-1.37-6.64-5.88-12.65-11.25-15.36-2.82-1.47-5.92-1.99-8.75-1.7-5.64.53-10.27,5.16-8.94,12.93.65,3.78,3.56,7.81,7.22,7.63,3.22-.36,5.1-4.23,3.13-7.78-.83-1.55-2.2-2.96-3.99-3.84h0c1.78-.43,3.75.42,5.49,2.29,3.98,4.27,3.42,10.65-.61,13.17-3.39,2.12-8.56.96-11.95-3.39-2.53-3.13-3.71-7.01-4.25-10.95-1.47-9.76,5.03-16.57,12.05-17.37,9.61-1.43,20.9,5.26,25.8,16.66,3.56,8.28,3.05,18.76-.25,26.37-3.07,7.23-7.07,12.77-12.35,17.93-10.23,10.13-20.13,26.75-20.21,51.37-3.05-24.48-15.74-41.11-29.45-52.41-7.72-6.3-14.16-13.3-19.81-22.58-6.32-10.2-8.91-23.64-4.73-32.82C25.89,4.1,40.48,1.14,52.56,6.71c8.05,3.47,15.73,12.65,15.42,22.18-.08,3.88-.81,7.57-3.06,10.25-3.08,3.85-8.7,4.09-12.95,1.09-5.26-3.72-6.86-11.06-2.55-14.7,1.83-1.55,4.04-1.89,6.16-.9h0c-1.95.43-3.37,1.57-4.14,3.04-1.87,3.38.91,8.12,4.71,9.26,4.14,1.01,6.79-2.56,7.01-6.35.44-7.73-5.2-14.04-11.78-16.53-3.45-1.33-7.24-1.89-10.64-1.26-6.79,1.14-12.22,6.7-13.15,14.32-.9,8.22,2.7,17.72,8.01,24.65,4.26,5.64,9.3,10.74,14.13,15.49,5.06,5.11,10.95,11.84,14.75,17.9,7.51,11.68,7.34,13.04,8.66,18.01Z"/>
</svg>